G04 #@! TF.FileFunction,Copper,L1,Top,Signal*
%FSLAX46Y46*%
G04 Gerber Fmt 4.6, Leading zero omitted, Abs format (unit mm)*
G04 Created by KiCad (PCBNEW 4.0.6) date 04/16/17 19:40:35*
%MOMM*%
%LPD*%
G01*
G04 APERTURE LIST*
%ADD10C,0.100000*%
%ADD11R,1.300000X0.800000*%
%ADD12R,2.000000X3.800000*%
%ADD13R,2.000000X1.500000*%
%ADD14R,2.500000X1.100000*%
%ADD15O,2.500000X1.100000*%
%ADD16R,1.000000X1.600000*%
%ADD17R,1.250000X1.000000*%
%ADD18R,2.500000X2.500000*%
%ADD19C,2.500000*%
%ADD20R,1.700000X1.700000*%
%ADD21O,1.700000X1.700000*%
%ADD22R,0.700000X1.300000*%
%ADD23R,1.300000X0.700000*%
%ADD24C,1.520000*%
%ADD25C,2.000000*%
%ADD26C,2.290000*%
%ADD27R,0.900000X1.200000*%
%ADD28R,0.900000X0.800000*%
%ADD29R,0.800000X0.900000*%
%ADD30C,0.457200*%
%ADD31C,0.152400*%
%ADD32C,0.254000*%
G04 APERTURE END LIST*
D10*
D11*
X104825400Y-80335200D03*
X104825400Y-81615200D03*
X111125400Y-81615200D03*
X111125400Y-80335200D03*
X109219600Y-92578000D03*
X109219600Y-93858000D03*
X115519600Y-93858000D03*
X115519600Y-92578000D03*
D12*
X118720000Y-107188000D03*
D13*
X112420000Y-107188000D03*
X112420000Y-109488000D03*
X112420000Y-104888000D03*
D14*
X77125600Y-84328000D03*
D15*
X77125600Y-86328000D03*
X77125600Y-88328000D03*
X77125600Y-90328000D03*
X77125600Y-92328000D03*
X77125600Y-94328000D03*
X77125600Y-96328000D03*
X77125600Y-98328000D03*
X92525600Y-98328000D03*
X92425600Y-96328000D03*
X92525600Y-94328000D03*
X92525600Y-92328000D03*
X92525600Y-90328000D03*
X92525600Y-88328000D03*
X92525600Y-86328000D03*
X92525600Y-84328000D03*
D16*
X114781200Y-112496600D03*
X117781200Y-112496600D03*
X108408600Y-100330000D03*
X105408600Y-100330000D03*
D17*
X72136000Y-97577400D03*
X72136000Y-99577400D03*
D18*
X65125600Y-112268000D03*
D19*
X65125600Y-117268000D03*
D20*
X65125600Y-99568000D03*
D21*
X65125600Y-97028000D03*
X65125600Y-94488000D03*
X65125600Y-91948000D03*
X65125600Y-89408000D03*
X65125600Y-86868000D03*
D18*
X143865600Y-94488000D03*
D19*
X143865600Y-89488000D03*
D18*
X143865600Y-114808000D03*
D19*
X143865600Y-109808000D03*
D22*
X72176600Y-94488000D03*
X74076600Y-94488000D03*
D23*
X68681600Y-94427000D03*
X68681600Y-96327000D03*
X96062800Y-96306600D03*
X96062800Y-98206600D03*
D22*
X98232000Y-92252800D03*
X96332000Y-92252800D03*
D23*
X98272600Y-85405000D03*
X98272600Y-83505000D03*
X103301800Y-92618600D03*
X103301800Y-90718600D03*
D22*
X103159600Y-85725000D03*
X101259600Y-85725000D03*
X105191600Y-94538800D03*
X103291600Y-94538800D03*
X116875600Y-83947000D03*
X114975600Y-83947000D03*
X136814600Y-116205000D03*
X134914600Y-116205000D03*
D24*
X132689600Y-96774000D03*
D25*
X132689600Y-86614000D03*
X132689600Y-78994000D03*
D24*
X125069600Y-96774000D03*
X131165600Y-121158000D03*
D25*
X131165600Y-110998000D03*
X131165600Y-103378000D03*
D24*
X123545600Y-121158000D03*
D26*
X77825600Y-107188000D03*
X77825600Y-122388000D03*
X105825600Y-107188000D03*
X105825600Y-114788000D03*
D27*
X130656600Y-99949000D03*
X127356600Y-99949000D03*
X129132600Y-124714000D03*
X125832600Y-124714000D03*
D28*
X119650000Y-79949000D03*
X119650000Y-81849000D03*
X121650000Y-80899000D03*
D29*
X137068600Y-119269000D03*
X135168600Y-119269000D03*
X136118600Y-121269000D03*
D30*
X105825600Y-114788000D02*
X112489800Y-114788000D01*
X112489800Y-114788000D02*
X114781200Y-112496600D01*
X111484800Y-80429100D02*
X108953300Y-80429100D01*
X108077000Y-83155400D02*
X115269400Y-92659200D01*
X108077000Y-81305400D02*
X108077000Y-83155400D01*
X108953300Y-80429100D02*
X108077000Y-81305400D01*
X105825600Y-114788000D02*
X105825600Y-119236800D01*
X107746800Y-121158000D02*
X123545600Y-121158000D01*
X105825600Y-119236800D02*
X107746800Y-121158000D01*
X112420000Y-109488000D02*
X112420000Y-110135400D01*
X112420000Y-110135400D02*
X114781200Y-112496600D01*
X115269400Y-92659200D02*
X118643400Y-92659200D01*
X118643400Y-92659200D02*
X125069600Y-96774000D01*
X125069600Y-96774000D02*
X125069600Y-97662000D01*
X125069600Y-97662000D02*
X127356600Y-99949000D01*
X123545600Y-121158000D02*
X123545600Y-122427000D01*
X123545600Y-122427000D02*
X125832600Y-124714000D01*
X112420000Y-109488000D02*
X112420000Y-110032400D01*
X95941400Y-98328000D02*
X96062800Y-98206600D01*
X72126600Y-99568000D02*
X72136000Y-99577400D01*
X105825600Y-107188000D02*
X105825600Y-107178800D01*
X105825600Y-100747000D02*
X105408600Y-100330000D01*
X108408600Y-100330000D02*
X108408600Y-104370000D01*
X111226600Y-107188000D02*
X112420000Y-107188000D01*
X108408600Y-104370000D02*
X111226600Y-107188000D01*
X108408600Y-100330000D02*
X108408600Y-100328600D01*
X108408600Y-100328600D02*
X113258600Y-95478600D01*
X101259600Y-86451400D02*
X101259600Y-85725000D01*
X103225600Y-88417400D02*
X101259600Y-86451400D01*
X109143800Y-88417400D02*
X103225600Y-88417400D01*
X113258600Y-92532200D02*
X109143800Y-88417400D01*
X113258600Y-95478600D02*
X113258600Y-92532200D01*
X98272600Y-85405000D02*
X100939600Y-85405000D01*
X100939600Y-85405000D02*
X101259600Y-85725000D01*
X72176600Y-94488000D02*
X72176600Y-97536800D01*
X72176600Y-97536800D02*
X72136000Y-97577400D01*
X68681600Y-94427000D02*
X72115600Y-94427000D01*
X72115600Y-94427000D02*
X72176600Y-94488000D01*
X65125600Y-94488000D02*
X68620600Y-94488000D01*
X68620600Y-94488000D02*
X68681600Y-94427000D01*
X72136000Y-97577400D02*
X73218800Y-97577400D01*
X73969400Y-98328000D02*
X77825600Y-98328000D01*
X73218800Y-97577400D02*
X73969400Y-98328000D01*
X108561000Y-100482400D02*
X108408600Y-100330000D01*
X98232000Y-85445600D02*
X98272600Y-85405000D01*
X103291600Y-94538800D02*
X103291600Y-95213000D01*
X103291600Y-95213000D02*
X106071800Y-97993200D01*
X103301800Y-92618600D02*
X103301800Y-94528600D01*
X103301800Y-94528600D02*
X103291600Y-94538800D01*
X98232000Y-92252800D02*
X102936000Y-92252800D01*
X102936000Y-92252800D02*
X103301800Y-92618600D01*
X98592600Y-85725000D02*
X98272600Y-85405000D01*
X77825600Y-98328000D02*
X77825600Y-99110800D01*
X77825600Y-99110800D02*
X79781400Y-101066600D01*
X79781400Y-101066600D02*
X99441000Y-101066600D01*
X99441000Y-101066600D02*
X102514400Y-97993200D01*
X102514400Y-97993200D02*
X106071800Y-97993200D01*
X106071800Y-97993200D02*
X108408600Y-100330000D01*
X77414600Y-97917000D02*
X77825600Y-98328000D01*
X132689600Y-96774000D02*
X132689600Y-91938600D01*
X132689600Y-91938600D02*
X121650000Y-80899000D01*
X130656600Y-99949000D02*
X130656600Y-98807000D01*
X130656600Y-98807000D02*
X132689600Y-96774000D01*
X131165600Y-121158000D02*
X136007600Y-121158000D01*
X136007600Y-121158000D02*
X136118600Y-121269000D01*
X129132600Y-124714000D02*
X129132600Y-123191000D01*
X129132600Y-123191000D02*
X131165600Y-121158000D01*
X65125600Y-112268000D02*
X72745600Y-112268000D01*
X72745600Y-112268000D02*
X77825600Y-107188000D01*
X65125600Y-117268000D02*
X72705600Y-117268000D01*
X72705600Y-117268000D02*
X77825600Y-122388000D01*
D31*
X65125600Y-86868000D02*
X70967600Y-86868000D01*
X86772000Y-87274400D02*
X91825600Y-92328000D01*
X71374000Y-87274400D02*
X86772000Y-87274400D01*
X70967600Y-86868000D02*
X71374000Y-87274400D01*
X91825600Y-92328000D02*
X96256800Y-92328000D01*
X96256800Y-92328000D02*
X96332000Y-92252800D01*
D30*
X65125600Y-97028000D02*
X67980600Y-97028000D01*
X67980600Y-97028000D02*
X68681600Y-96327000D01*
X65125600Y-97028000D02*
X63220600Y-97028000D01*
X63982600Y-84328000D02*
X77825600Y-84328000D01*
X62077600Y-86233000D02*
X63982600Y-84328000D01*
X62077600Y-95885000D02*
X62077600Y-86233000D01*
X63220600Y-97028000D02*
X62077600Y-95885000D01*
X132689600Y-86614000D02*
X135991600Y-86614000D01*
X135991600Y-86614000D02*
X143865600Y-94488000D01*
X132689600Y-78994000D02*
X133371600Y-78994000D01*
X133371600Y-78994000D02*
X143865600Y-89488000D01*
X131165600Y-110998000D02*
X140055600Y-110998000D01*
X140055600Y-110998000D02*
X143865600Y-114808000D01*
X131165600Y-103378000D02*
X137435600Y-103378000D01*
X137435600Y-103378000D02*
X143865600Y-109808000D01*
X91825600Y-96328000D02*
X96041400Y-96328000D01*
X96041400Y-96328000D02*
X96062800Y-96306600D01*
X98272600Y-83505000D02*
X98272600Y-83261200D01*
X98272600Y-83261200D02*
X99918600Y-81615200D01*
X99918600Y-81615200D02*
X104825400Y-81615200D01*
X91825600Y-88328000D02*
X93891600Y-88328000D01*
X97317600Y-83505000D02*
X98272600Y-83505000D01*
X94843600Y-85979000D02*
X97317600Y-83505000D01*
X94843600Y-87376000D02*
X94843600Y-85979000D01*
X93891600Y-88328000D02*
X94843600Y-87376000D01*
X91825600Y-90328000D02*
X102911200Y-90328000D01*
X102911200Y-90328000D02*
X103301800Y-90718600D01*
X109219600Y-93858000D02*
X107142200Y-93858000D01*
X104688600Y-90718600D02*
X103301800Y-90718600D01*
X106146600Y-92176600D02*
X104688600Y-90718600D01*
X106146600Y-92862400D02*
X106146600Y-92176600D01*
X107142200Y-93858000D02*
X106146600Y-92862400D01*
X103159600Y-85725000D02*
X105333800Y-85725000D01*
X106019600Y-80492600D02*
X104982800Y-80492600D01*
X106578400Y-81051400D02*
X106019600Y-80492600D01*
X106578400Y-84480400D02*
X106578400Y-81051400D01*
X105333800Y-85725000D02*
X106578400Y-84480400D01*
X104982800Y-80492600D02*
X104825400Y-80335200D01*
X105191600Y-94538800D02*
X105384600Y-94538800D01*
X105384600Y-94538800D02*
X106857800Y-96012000D01*
X106857800Y-96012000D02*
X110515400Y-96012000D01*
X110515400Y-96012000D02*
X111683800Y-94843600D01*
X111683800Y-94843600D02*
X111683800Y-93218000D01*
X111683800Y-93218000D02*
X111043800Y-92578000D01*
X111043800Y-92578000D02*
X109219600Y-92578000D01*
X112567600Y-81539000D02*
X114975600Y-83947000D01*
X110824800Y-81539000D02*
X112567600Y-81539000D01*
X117970300Y-94500700D02*
X117894100Y-94500700D01*
X117251400Y-93858000D02*
X115519600Y-93858000D01*
X117894100Y-94500700D02*
X117251400Y-93858000D01*
X127101600Y-116205000D02*
X134914600Y-116205000D01*
X122275600Y-111379000D02*
X127101600Y-116205000D01*
X122275600Y-98806000D02*
X122275600Y-111379000D01*
X117970300Y-94500700D02*
X122275600Y-98806000D01*
X116875600Y-83947000D02*
X116875600Y-81041200D01*
X117967800Y-79949000D02*
X119650000Y-79949000D01*
X116875600Y-81041200D02*
X117967800Y-79949000D01*
X137068600Y-119269000D02*
X137068600Y-116459000D01*
X137068600Y-116459000D02*
X136814600Y-116205000D01*
X74076600Y-94488000D02*
X74076600Y-89220000D01*
X74968600Y-88328000D02*
X77825600Y-88328000D01*
X74076600Y-89220000D02*
X74968600Y-88328000D01*
D32*
G36*
X148297900Y-126860300D02*
X60693300Y-126860300D01*
X60693300Y-117641305D01*
X63240274Y-117641305D01*
X63526643Y-118334372D01*
X64056439Y-118865093D01*
X64749005Y-119152672D01*
X65498905Y-119153326D01*
X66191972Y-118866957D01*
X66722693Y-118337161D01*
X66808050Y-118131600D01*
X72347886Y-118131600D01*
X76105400Y-121889115D01*
X76045910Y-122032383D01*
X76045292Y-122740510D01*
X76315710Y-123394972D01*
X76815995Y-123896130D01*
X77469983Y-124167690D01*
X78178110Y-124168308D01*
X78832572Y-123897890D01*
X79333730Y-123397605D01*
X79605290Y-122743617D01*
X79605908Y-122035490D01*
X79335490Y-121381028D01*
X78835205Y-120879870D01*
X78181217Y-120608310D01*
X77473090Y-120607692D01*
X77326979Y-120668064D01*
X73316257Y-116657343D01*
X73036085Y-116470138D01*
X72705600Y-116404400D01*
X66808341Y-116404400D01*
X66724557Y-116201628D01*
X66194761Y-115670907D01*
X65502195Y-115383328D01*
X64752295Y-115382674D01*
X64059228Y-115669043D01*
X63528507Y-116198839D01*
X63240928Y-116891405D01*
X63240274Y-117641305D01*
X60693300Y-117641305D01*
X60693300Y-111018000D01*
X63228160Y-111018000D01*
X63228160Y-113518000D01*
X63272438Y-113753317D01*
X63411510Y-113969441D01*
X63623710Y-114114431D01*
X63875600Y-114165440D01*
X66375600Y-114165440D01*
X66610917Y-114121162D01*
X66827041Y-113982090D01*
X66972031Y-113769890D01*
X67023040Y-113518000D01*
X67023040Y-113131600D01*
X72745600Y-113131600D01*
X73076085Y-113065862D01*
X73356257Y-112878657D01*
X77326714Y-108908200D01*
X77469983Y-108967690D01*
X78178110Y-108968308D01*
X78832572Y-108697890D01*
X79085493Y-108445409D01*
X104747796Y-108445409D01*
X104864205Y-108727312D01*
X105526456Y-108978049D01*
X106234249Y-108956267D01*
X106786995Y-108727312D01*
X106903404Y-108445409D01*
X105825600Y-107367605D01*
X104747796Y-108445409D01*
X79085493Y-108445409D01*
X79333730Y-108197605D01*
X79605290Y-107543617D01*
X79605861Y-106888856D01*
X104035551Y-106888856D01*
X104057333Y-107596649D01*
X104286288Y-108149395D01*
X104568191Y-108265804D01*
X105645995Y-107188000D01*
X106005205Y-107188000D01*
X107083009Y-108265804D01*
X107364912Y-108149395D01*
X107615649Y-107487144D01*
X107593867Y-106779351D01*
X107364912Y-106226605D01*
X107083009Y-106110196D01*
X106005205Y-107188000D01*
X105645995Y-107188000D01*
X104568191Y-106110196D01*
X104286288Y-106226605D01*
X104035551Y-106888856D01*
X79605861Y-106888856D01*
X79605908Y-106835490D01*
X79335490Y-106181028D01*
X79085490Y-105930591D01*
X104747796Y-105930591D01*
X105825600Y-107008395D01*
X106903404Y-105930591D01*
X106786995Y-105648688D01*
X106124744Y-105397951D01*
X105416951Y-105419733D01*
X104864205Y-105648688D01*
X104747796Y-105930591D01*
X79085490Y-105930591D01*
X78835205Y-105679870D01*
X78181217Y-105408310D01*
X77473090Y-105407692D01*
X76818628Y-105678110D01*
X76317470Y-106178395D01*
X76045910Y-106832383D01*
X76045292Y-107540510D01*
X76105664Y-107686622D01*
X72387886Y-111404400D01*
X67023040Y-111404400D01*
X67023040Y-111018000D01*
X66978762Y-110782683D01*
X66839690Y-110566559D01*
X66627490Y-110421569D01*
X66375600Y-110370560D01*
X63875600Y-110370560D01*
X63640283Y-110414838D01*
X63424159Y-110553910D01*
X63279169Y-110766110D01*
X63228160Y-111018000D01*
X60693300Y-111018000D01*
X60693300Y-104011690D01*
X110785000Y-104011690D01*
X110785000Y-104602250D01*
X110943750Y-104761000D01*
X112293000Y-104761000D01*
X112293000Y-103661750D01*
X112547000Y-103661750D01*
X112547000Y-104761000D01*
X113896250Y-104761000D01*
X114055000Y-104602250D01*
X114055000Y-104011690D01*
X113958327Y-103778301D01*
X113779698Y-103599673D01*
X113546309Y-103503000D01*
X112705750Y-103503000D01*
X112547000Y-103661750D01*
X112293000Y-103661750D01*
X112134250Y-103503000D01*
X111293691Y-103503000D01*
X111060302Y-103599673D01*
X110881673Y-103778301D01*
X110785000Y-104011690D01*
X60693300Y-104011690D01*
X60693300Y-99853750D01*
X63640600Y-99853750D01*
X63640600Y-100544310D01*
X63737273Y-100777699D01*
X63915902Y-100956327D01*
X64149291Y-101053000D01*
X64839850Y-101053000D01*
X64998600Y-100894250D01*
X64998600Y-99695000D01*
X65252600Y-99695000D01*
X65252600Y-100894250D01*
X65411350Y-101053000D01*
X66101909Y-101053000D01*
X66335298Y-100956327D01*
X66513927Y-100777699D01*
X66610600Y-100544310D01*
X66610600Y-99863150D01*
X70876000Y-99863150D01*
X70876000Y-100203709D01*
X70972673Y-100437098D01*
X71151301Y-100615727D01*
X71384690Y-100712400D01*
X71850250Y-100712400D01*
X72009000Y-100553650D01*
X72009000Y-99704400D01*
X72263000Y-99704400D01*
X72263000Y-100553650D01*
X72421750Y-100712400D01*
X72887310Y-100712400D01*
X73120699Y-100615727D01*
X73299327Y-100437098D01*
X73396000Y-100203709D01*
X73396000Y-99863150D01*
X73237250Y-99704400D01*
X72263000Y-99704400D01*
X72009000Y-99704400D01*
X71034750Y-99704400D01*
X70876000Y-99863150D01*
X66610600Y-99863150D01*
X66610600Y-99853750D01*
X66451850Y-99695000D01*
X65252600Y-99695000D01*
X64998600Y-99695000D01*
X63799350Y-99695000D01*
X63640600Y-99853750D01*
X60693300Y-99853750D01*
X60693300Y-86233000D01*
X61214000Y-86233000D01*
X61214000Y-95885000D01*
X61277074Y-96202090D01*
X61279738Y-96215485D01*
X61466943Y-96495657D01*
X62609943Y-97638657D01*
X62890114Y-97825862D01*
X62944945Y-97836769D01*
X63220600Y-97891600D01*
X63921869Y-97891600D01*
X64046453Y-98078054D01*
X64090377Y-98107403D01*
X63915902Y-98179673D01*
X63737273Y-98358301D01*
X63640600Y-98591690D01*
X63640600Y-99282250D01*
X63799350Y-99441000D01*
X64998600Y-99441000D01*
X64998600Y-99421000D01*
X65252600Y-99421000D01*
X65252600Y-99441000D01*
X66451850Y-99441000D01*
X66610600Y-99282250D01*
X66610600Y-98591690D01*
X66513927Y-98358301D01*
X66335298Y-98179673D01*
X66160823Y-98107403D01*
X66204747Y-98078054D01*
X66329331Y-97891600D01*
X67980600Y-97891600D01*
X68311085Y-97825862D01*
X68591257Y-97638657D01*
X68905474Y-97324440D01*
X69331600Y-97324440D01*
X69566917Y-97280162D01*
X69783041Y-97141090D01*
X69928031Y-96928890D01*
X69979040Y-96677000D01*
X69979040Y-95977000D01*
X69934762Y-95741683D01*
X69795690Y-95525559D01*
X69583490Y-95380569D01*
X69570403Y-95377919D01*
X69706100Y-95290600D01*
X71207874Y-95290600D01*
X71223438Y-95373317D01*
X71313000Y-95512500D01*
X71313000Y-96467216D01*
X71275683Y-96474238D01*
X71059559Y-96613310D01*
X70914569Y-96825510D01*
X70863560Y-97077400D01*
X70863560Y-98077400D01*
X70907838Y-98312717D01*
X71046910Y-98528841D01*
X71115006Y-98575369D01*
X70972673Y-98717702D01*
X70876000Y-98951091D01*
X70876000Y-99291650D01*
X71034750Y-99450400D01*
X72009000Y-99450400D01*
X72009000Y-99430400D01*
X72263000Y-99430400D01*
X72263000Y-99450400D01*
X73237250Y-99450400D01*
X73396000Y-99291650D01*
X73396000Y-98963552D01*
X73638915Y-99125862D01*
X73969400Y-99191600D01*
X75589179Y-99191600D01*
X75935191Y-99422797D01*
X76388671Y-99513000D01*
X77075656Y-99513000D01*
X77214943Y-99721457D01*
X79170743Y-101677257D01*
X79450915Y-101864462D01*
X79781400Y-101930200D01*
X99441000Y-101930200D01*
X99771485Y-101864462D01*
X100051657Y-101677257D01*
X101113164Y-100615750D01*
X104273600Y-100615750D01*
X104273600Y-101256310D01*
X104370273Y-101489699D01*
X104548902Y-101668327D01*
X104782291Y-101765000D01*
X105122850Y-101765000D01*
X105281600Y-101606250D01*
X105281600Y-100457000D01*
X105535600Y-100457000D01*
X105535600Y-101606250D01*
X105694350Y-101765000D01*
X106034909Y-101765000D01*
X106268298Y-101668327D01*
X106446927Y-101489699D01*
X106543600Y-101256310D01*
X106543600Y-100615750D01*
X106384850Y-100457000D01*
X105535600Y-100457000D01*
X105281600Y-100457000D01*
X104432350Y-100457000D01*
X104273600Y-100615750D01*
X101113164Y-100615750D01*
X102325224Y-99403690D01*
X104273600Y-99403690D01*
X104273600Y-100044250D01*
X104432350Y-100203000D01*
X105281600Y-100203000D01*
X105281600Y-99053750D01*
X105122850Y-98895000D01*
X104782291Y-98895000D01*
X104548902Y-98991673D01*
X104370273Y-99170301D01*
X104273600Y-99403690D01*
X102325224Y-99403690D01*
X102872114Y-98856800D01*
X105714086Y-98856800D01*
X105752286Y-98895000D01*
X105694350Y-98895000D01*
X105535600Y-99053750D01*
X105535600Y-100203000D01*
X106384850Y-100203000D01*
X106543600Y-100044250D01*
X106543600Y-99686314D01*
X107261160Y-100403875D01*
X107261160Y-101130000D01*
X107305438Y-101365317D01*
X107444510Y-101581441D01*
X107656710Y-101726431D01*
X107908600Y-101777440D01*
X108908600Y-101777440D01*
X109143917Y-101733162D01*
X109360041Y-101594090D01*
X109505031Y-101381890D01*
X109512299Y-101346000D01*
X113535886Y-101346000D01*
X114909600Y-102719715D01*
X114909600Y-105788886D01*
X114374086Y-106324400D01*
X114046065Y-106324400D01*
X114023162Y-106202683D01*
X113917518Y-106038508D01*
X113958327Y-105997699D01*
X114055000Y-105764310D01*
X114055000Y-105173750D01*
X113896250Y-105015000D01*
X112547000Y-105015000D01*
X112547000Y-105035000D01*
X112293000Y-105035000D01*
X112293000Y-105015000D01*
X110943750Y-105015000D01*
X110785000Y-105173750D01*
X110785000Y-105764310D01*
X110881673Y-105997699D01*
X110923634Y-106039660D01*
X110823569Y-106186110D01*
X110772560Y-106438000D01*
X110772560Y-107938000D01*
X110816838Y-108173317D01*
X110923759Y-108339477D01*
X110823569Y-108486110D01*
X110772560Y-108738000D01*
X110772560Y-110238000D01*
X110816838Y-110473317D01*
X110955910Y-110689441D01*
X111168110Y-110834431D01*
X111420000Y-110885440D01*
X111948726Y-110885440D01*
X113559886Y-112496600D01*
X112132086Y-113924400D01*
X107394730Y-113924400D01*
X107335490Y-113781028D01*
X106835205Y-113279870D01*
X106181217Y-113008310D01*
X105473090Y-113007692D01*
X104818628Y-113278110D01*
X104317470Y-113778395D01*
X104045910Y-114432383D01*
X104045292Y-115140510D01*
X104315710Y-115794972D01*
X104815995Y-116296130D01*
X104962000Y-116356757D01*
X104962000Y-119236800D01*
X105025245Y-119554750D01*
X105027738Y-119567285D01*
X105214943Y-119847457D01*
X107136143Y-121768657D01*
X107416314Y-121955862D01*
X107471145Y-121966769D01*
X107746800Y-122021600D01*
X122436585Y-122021600D01*
X122682000Y-122267444D01*
X122682000Y-122427000D01*
X122747738Y-122757485D01*
X122934943Y-123037657D01*
X124735160Y-124837875D01*
X124735160Y-125314000D01*
X124779438Y-125549317D01*
X124918510Y-125765441D01*
X125130710Y-125910431D01*
X125382600Y-125961440D01*
X126282600Y-125961440D01*
X126517917Y-125917162D01*
X126734041Y-125778090D01*
X126879031Y-125565890D01*
X126930040Y-125314000D01*
X126930040Y-124114000D01*
X126885762Y-123878683D01*
X126746690Y-123662559D01*
X126534490Y-123517569D01*
X126282600Y-123466560D01*
X125806475Y-123466560D01*
X124508151Y-122168237D01*
X124727534Y-121949236D01*
X124940358Y-121436700D01*
X124940842Y-120881735D01*
X124728913Y-120368828D01*
X124336836Y-119976066D01*
X123824300Y-119763242D01*
X123269335Y-119762758D01*
X122756428Y-119974687D01*
X122436156Y-120294400D01*
X108104514Y-120294400D01*
X106689200Y-118879086D01*
X106689200Y-118692691D01*
X134133600Y-118692691D01*
X134133600Y-118983250D01*
X134292350Y-119142000D01*
X135041600Y-119142000D01*
X135041600Y-118342750D01*
X134882850Y-118184000D01*
X134642290Y-118184000D01*
X134408901Y-118280673D01*
X134230273Y-118459302D01*
X134133600Y-118692691D01*
X106689200Y-118692691D01*
X106689200Y-116357130D01*
X106832572Y-116297890D01*
X107333730Y-115797605D01*
X107394357Y-115651600D01*
X112489800Y-115651600D01*
X112820285Y-115585862D01*
X113100457Y-115398657D01*
X114555074Y-113944040D01*
X115281200Y-113944040D01*
X115516517Y-113899762D01*
X115732641Y-113760690D01*
X115877631Y-113548490D01*
X115928640Y-113296600D01*
X115928640Y-112782350D01*
X116646200Y-112782350D01*
X116646200Y-113422910D01*
X116742873Y-113656299D01*
X116921502Y-113834927D01*
X117154891Y-113931600D01*
X117495450Y-113931600D01*
X117654200Y-113772850D01*
X117654200Y-112623600D01*
X117908200Y-112623600D01*
X117908200Y-113772850D01*
X118066950Y-113931600D01*
X118407509Y-113931600D01*
X118640898Y-113834927D01*
X118819527Y-113656299D01*
X118916200Y-113422910D01*
X118916200Y-112782350D01*
X118757450Y-112623600D01*
X117908200Y-112623600D01*
X117654200Y-112623600D01*
X116804950Y-112623600D01*
X116646200Y-112782350D01*
X115928640Y-112782350D01*
X115928640Y-111696600D01*
X115904874Y-111570290D01*
X116646200Y-111570290D01*
X116646200Y-112210850D01*
X116804950Y-112369600D01*
X117654200Y-112369600D01*
X117654200Y-111220350D01*
X117908200Y-111220350D01*
X117908200Y-112369600D01*
X118757450Y-112369600D01*
X118916200Y-112210850D01*
X118916200Y-111570290D01*
X118819527Y-111336901D01*
X118640898Y-111158273D01*
X118407509Y-111061600D01*
X118066950Y-111061600D01*
X117908200Y-111220350D01*
X117654200Y-111220350D01*
X117495450Y-111061600D01*
X117154891Y-111061600D01*
X116921502Y-111158273D01*
X116742873Y-111336901D01*
X116646200Y-111570290D01*
X115904874Y-111570290D01*
X115884362Y-111461283D01*
X115745290Y-111245159D01*
X115533090Y-111100169D01*
X115281200Y-111049160D01*
X114555074Y-111049160D01*
X114008058Y-110502144D01*
X114016431Y-110489890D01*
X114067440Y-110238000D01*
X114067440Y-108738000D01*
X114023162Y-108502683D01*
X113916241Y-108336523D01*
X114016431Y-108189890D01*
X114044435Y-108051600D01*
X114731800Y-108051600D01*
X115062285Y-107985862D01*
X115342457Y-107798657D01*
X116383857Y-106757257D01*
X116571062Y-106477085D01*
X116636800Y-106146600D01*
X116636800Y-105288000D01*
X117072560Y-105288000D01*
X117072560Y-109088000D01*
X117116838Y-109323317D01*
X117255910Y-109539441D01*
X117468110Y-109684431D01*
X117720000Y-109735440D01*
X119720000Y-109735440D01*
X119955317Y-109691162D01*
X120171441Y-109552090D01*
X120316431Y-109339890D01*
X120367440Y-109088000D01*
X120367440Y-105288000D01*
X120323162Y-105052683D01*
X120184090Y-104836559D01*
X119971890Y-104691569D01*
X119720000Y-104640560D01*
X117720000Y-104640560D01*
X117484683Y-104684838D01*
X117268559Y-104823910D01*
X117123569Y-105036110D01*
X117072560Y-105288000D01*
X116636800Y-105288000D01*
X116636800Y-102362000D01*
X116571062Y-102031515D01*
X116544062Y-101991106D01*
X116383858Y-101751343D01*
X114504257Y-99871743D01*
X114224085Y-99684538D01*
X113893600Y-99618800D01*
X110339714Y-99618800D01*
X113869258Y-96089257D01*
X114056462Y-95809085D01*
X114122200Y-95478600D01*
X114122200Y-92574407D01*
X114222160Y-92706491D01*
X114222160Y-92978000D01*
X114266438Y-93213317D01*
X114270448Y-93219548D01*
X114222160Y-93458000D01*
X114222160Y-94258000D01*
X114266438Y-94493317D01*
X114405510Y-94709441D01*
X114617710Y-94854431D01*
X114869600Y-94905440D01*
X116169600Y-94905440D01*
X116404917Y-94861162D01*
X116621041Y-94722090D01*
X116621376Y-94721600D01*
X116893686Y-94721600D01*
X117283443Y-95111357D01*
X117513085Y-95264799D01*
X121412000Y-99163715D01*
X121412000Y-111379000D01*
X121467366Y-111657343D01*
X121477738Y-111709485D01*
X121664943Y-111989657D01*
X126490943Y-116815658D01*
X126771115Y-117002862D01*
X127101600Y-117068600D01*
X133957352Y-117068600D01*
X133961438Y-117090317D01*
X134100510Y-117306441D01*
X134312710Y-117451431D01*
X134564600Y-117502440D01*
X135264600Y-117502440D01*
X135499917Y-117458162D01*
X135716041Y-117319090D01*
X135861031Y-117106890D01*
X135863681Y-117093803D01*
X136000510Y-117306441D01*
X136205000Y-117446163D01*
X136205000Y-118372705D01*
X136121610Y-118494750D01*
X136106927Y-118459302D01*
X135928299Y-118280673D01*
X135694910Y-118184000D01*
X135454350Y-118184000D01*
X135295600Y-118342750D01*
X135295600Y-119142000D01*
X135315600Y-119142000D01*
X135315600Y-119396000D01*
X135295600Y-119396000D01*
X135295600Y-119416000D01*
X135041600Y-119416000D01*
X135041600Y-119396000D01*
X134292350Y-119396000D01*
X134133600Y-119554750D01*
X134133600Y-119845309D01*
X134230273Y-120078698D01*
X134408901Y-120257327D01*
X134498403Y-120294400D01*
X132274615Y-120294400D01*
X131956836Y-119976066D01*
X131444300Y-119763242D01*
X130889335Y-119762758D01*
X130376428Y-119974687D01*
X129983666Y-120366764D01*
X129770842Y-120879300D01*
X129770447Y-121331838D01*
X128521943Y-122580343D01*
X128334738Y-122860515D01*
X128269000Y-123191000D01*
X128269000Y-123625560D01*
X128231159Y-123649910D01*
X128086169Y-123862110D01*
X128035160Y-124114000D01*
X128035160Y-125314000D01*
X128079438Y-125549317D01*
X128218510Y-125765441D01*
X128430710Y-125910431D01*
X128682600Y-125961440D01*
X129582600Y-125961440D01*
X129817917Y-125917162D01*
X130034041Y-125778090D01*
X130179031Y-125565890D01*
X130230040Y-125314000D01*
X130230040Y-124114000D01*
X130185762Y-123878683D01*
X130046690Y-123662559D01*
X129996200Y-123628061D01*
X129996200Y-123548714D01*
X130992065Y-122552850D01*
X131441865Y-122553242D01*
X131954772Y-122341313D01*
X132275044Y-122021600D01*
X135158733Y-122021600D01*
X135254510Y-122170441D01*
X135466710Y-122315431D01*
X135718600Y-122366440D01*
X136518600Y-122366440D01*
X136753917Y-122322162D01*
X136970041Y-122183090D01*
X137115031Y-121970890D01*
X137166040Y-121719000D01*
X137166040Y-120819000D01*
X137121762Y-120583683D01*
X136982690Y-120367559D01*
X136981052Y-120366440D01*
X137468600Y-120366440D01*
X137703917Y-120322162D01*
X137920041Y-120183090D01*
X138065031Y-119970890D01*
X138116040Y-119719000D01*
X138116040Y-118819000D01*
X138071762Y-118583683D01*
X137932690Y-118367559D01*
X137932200Y-118367224D01*
X137932200Y-116459000D01*
X137866462Y-116128515D01*
X137866462Y-116128514D01*
X137812040Y-116047066D01*
X137812040Y-115555000D01*
X137767762Y-115319683D01*
X137628690Y-115103559D01*
X137416490Y-114958569D01*
X137164600Y-114907560D01*
X136464600Y-114907560D01*
X136229283Y-114951838D01*
X136013159Y-115090910D01*
X135868169Y-115303110D01*
X135865519Y-115316197D01*
X135728690Y-115103559D01*
X135516490Y-114958569D01*
X135264600Y-114907560D01*
X134564600Y-114907560D01*
X134329283Y-114951838D01*
X134113159Y-115090910D01*
X133968169Y-115303110D01*
X133960415Y-115341400D01*
X127459315Y-115341400D01*
X123439710Y-111321795D01*
X129530316Y-111321795D01*
X129778706Y-111922943D01*
X130238237Y-112383278D01*
X130838952Y-112632716D01*
X131489395Y-112633284D01*
X132090543Y-112384894D01*
X132550878Y-111925363D01*
X132577355Y-111861600D01*
X139697886Y-111861600D01*
X141968160Y-114131875D01*
X141968160Y-116058000D01*
X142012438Y-116293317D01*
X142151510Y-116509441D01*
X142363710Y-116654431D01*
X142615600Y-116705440D01*
X145115600Y-116705440D01*
X145350917Y-116661162D01*
X145567041Y-116522090D01*
X145712031Y-116309890D01*
X145763040Y-116058000D01*
X145763040Y-113558000D01*
X145718762Y-113322683D01*
X145579690Y-113106559D01*
X145367490Y-112961569D01*
X145115600Y-112910560D01*
X143189475Y-112910560D01*
X140666257Y-110387343D01*
X140386085Y-110200138D01*
X140055600Y-110134400D01*
X132577840Y-110134400D01*
X132552494Y-110073057D01*
X132092963Y-109612722D01*
X131492248Y-109363284D01*
X130841805Y-109362716D01*
X130240657Y-109611106D01*
X129780322Y-110070637D01*
X129530884Y-110671352D01*
X129530316Y-111321795D01*
X123439710Y-111321795D01*
X123139200Y-111021286D01*
X123139200Y-103701795D01*
X129530316Y-103701795D01*
X129778706Y-104302943D01*
X130238237Y-104763278D01*
X130838952Y-105012716D01*
X131489395Y-105013284D01*
X132090543Y-104764894D01*
X132550878Y-104305363D01*
X132577355Y-104241600D01*
X137077886Y-104241600D01*
X142065065Y-109228780D01*
X141980928Y-109431405D01*
X141980274Y-110181305D01*
X142266643Y-110874372D01*
X142796439Y-111405093D01*
X143489005Y-111692672D01*
X144238905Y-111693326D01*
X144931972Y-111406957D01*
X145462693Y-110877161D01*
X145750272Y-110184595D01*
X145750926Y-109434695D01*
X145464557Y-108741628D01*
X144934761Y-108210907D01*
X144242195Y-107923328D01*
X143492295Y-107922674D01*
X143286586Y-108007671D01*
X138046257Y-102767343D01*
X137766085Y-102580138D01*
X137435600Y-102514400D01*
X132577840Y-102514400D01*
X132552494Y-102453057D01*
X132092963Y-101992722D01*
X131492248Y-101743284D01*
X130841805Y-101742716D01*
X130240657Y-101991106D01*
X129780322Y-102450637D01*
X129530884Y-103051352D01*
X129530316Y-103701795D01*
X123139200Y-103701795D01*
X123139200Y-98806000D01*
X123073462Y-98475515D01*
X123023272Y-98400400D01*
X122886258Y-98195343D01*
X118580957Y-93890043D01*
X118351315Y-93736601D01*
X118137514Y-93522800D01*
X118390603Y-93522800D01*
X123674484Y-96906154D01*
X123674358Y-97050265D01*
X123886287Y-97563172D01*
X124261009Y-97938549D01*
X124261974Y-97943400D01*
X124271738Y-97992485D01*
X124458943Y-98272657D01*
X126259160Y-100072875D01*
X126259160Y-100549000D01*
X126303438Y-100784317D01*
X126442510Y-101000441D01*
X126654710Y-101145431D01*
X126906600Y-101196440D01*
X127806600Y-101196440D01*
X128041917Y-101152162D01*
X128258041Y-101013090D01*
X128403031Y-100800890D01*
X128454040Y-100549000D01*
X128454040Y-99349000D01*
X128409762Y-99113683D01*
X128270690Y-98897559D01*
X128058490Y-98752569D01*
X127806600Y-98701560D01*
X127330475Y-98701560D01*
X126222817Y-97593903D01*
X126251534Y-97565236D01*
X126464358Y-97052700D01*
X126464842Y-96497735D01*
X126252913Y-95984828D01*
X125860836Y-95592066D01*
X125348300Y-95379242D01*
X124793335Y-95378758D01*
X124610256Y-95454405D01*
X119109090Y-91931919D01*
X119037663Y-91903953D01*
X118973885Y-91861338D01*
X118882285Y-91843118D01*
X118795323Y-91809069D01*
X118718636Y-91810565D01*
X118643400Y-91795600D01*
X116678117Y-91795600D01*
X116633690Y-91726559D01*
X116421490Y-91581569D01*
X116169600Y-91530560D01*
X115498284Y-91530560D01*
X108940600Y-82865453D01*
X108940600Y-81663114D01*
X109311015Y-81292700D01*
X109827960Y-81292700D01*
X109827960Y-82015200D01*
X109872238Y-82250517D01*
X110011310Y-82466641D01*
X110223510Y-82611631D01*
X110475400Y-82662640D01*
X111775400Y-82662640D01*
X112010717Y-82618362D01*
X112226841Y-82479290D01*
X112251088Y-82443803D01*
X113978160Y-84170875D01*
X113978160Y-84597000D01*
X114022438Y-84832317D01*
X114161510Y-85048441D01*
X114373710Y-85193431D01*
X114625600Y-85244440D01*
X115325600Y-85244440D01*
X115560917Y-85200162D01*
X115777041Y-85061090D01*
X115922031Y-84848890D01*
X115924681Y-84835803D01*
X116061510Y-85048441D01*
X116273710Y-85193431D01*
X116525600Y-85244440D01*
X117225600Y-85244440D01*
X117460917Y-85200162D01*
X117677041Y-85061090D01*
X117822031Y-84848890D01*
X117873040Y-84597000D01*
X117873040Y-83297000D01*
X117828762Y-83061683D01*
X117739200Y-82922500D01*
X117739200Y-82134750D01*
X118565000Y-82134750D01*
X118565000Y-82375310D01*
X118661673Y-82608699D01*
X118840302Y-82787327D01*
X119073691Y-82884000D01*
X119364250Y-82884000D01*
X119523000Y-82725250D01*
X119523000Y-81976000D01*
X119777000Y-81976000D01*
X119777000Y-82725250D01*
X119935750Y-82884000D01*
X120226309Y-82884000D01*
X120459698Y-82787327D01*
X120638327Y-82608699D01*
X120735000Y-82375310D01*
X120735000Y-82134750D01*
X120576250Y-81976000D01*
X119777000Y-81976000D01*
X119523000Y-81976000D01*
X118723750Y-81976000D01*
X118565000Y-82134750D01*
X117739200Y-82134750D01*
X117739200Y-81398914D01*
X118325514Y-80812600D01*
X118753705Y-80812600D01*
X118875750Y-80895990D01*
X118840302Y-80910673D01*
X118661673Y-81089301D01*
X118565000Y-81322690D01*
X118565000Y-81563250D01*
X118723750Y-81722000D01*
X119523000Y-81722000D01*
X119523000Y-81702000D01*
X119777000Y-81702000D01*
X119777000Y-81722000D01*
X120576250Y-81722000D01*
X120662262Y-81635988D01*
X120735910Y-81750441D01*
X120948110Y-81895431D01*
X121200000Y-81946440D01*
X121476126Y-81946440D01*
X131826000Y-92296314D01*
X131826000Y-95664985D01*
X131507666Y-95982764D01*
X131294842Y-96495300D01*
X131294447Y-96947838D01*
X130045943Y-98196343D01*
X129858738Y-98476515D01*
X129793000Y-98807000D01*
X129793000Y-98860560D01*
X129755159Y-98884910D01*
X129610169Y-99097110D01*
X129559160Y-99349000D01*
X129559160Y-100549000D01*
X129603438Y-100784317D01*
X129742510Y-101000441D01*
X129954710Y-101145431D01*
X130206600Y-101196440D01*
X131106600Y-101196440D01*
X131341917Y-101152162D01*
X131558041Y-101013090D01*
X131703031Y-100800890D01*
X131754040Y-100549000D01*
X131754040Y-99349000D01*
X131709762Y-99113683D01*
X131655522Y-99029392D01*
X132516065Y-98168850D01*
X132965865Y-98169242D01*
X133478772Y-97957313D01*
X133871534Y-97565236D01*
X134084358Y-97052700D01*
X134084842Y-96497735D01*
X133872913Y-95984828D01*
X133553200Y-95664556D01*
X133553200Y-91938600D01*
X133487462Y-91608115D01*
X133300257Y-91327943D01*
X128910109Y-86937795D01*
X131054316Y-86937795D01*
X131302706Y-87538943D01*
X131762237Y-87999278D01*
X132362952Y-88248716D01*
X133013395Y-88249284D01*
X133614543Y-88000894D01*
X134074878Y-87541363D01*
X134101355Y-87477600D01*
X135633886Y-87477600D01*
X141968160Y-93811875D01*
X141968160Y-95738000D01*
X142012438Y-95973317D01*
X142151510Y-96189441D01*
X142363710Y-96334431D01*
X142615600Y-96385440D01*
X145115600Y-96385440D01*
X145350917Y-96341162D01*
X145567041Y-96202090D01*
X145712031Y-95989890D01*
X145763040Y-95738000D01*
X145763040Y-93238000D01*
X145718762Y-93002683D01*
X145579690Y-92786559D01*
X145367490Y-92641569D01*
X145115600Y-92590560D01*
X143189475Y-92590560D01*
X136602257Y-86003343D01*
X136322085Y-85816138D01*
X135991600Y-85750400D01*
X134101840Y-85750400D01*
X134076494Y-85689057D01*
X133616963Y-85228722D01*
X133016248Y-84979284D01*
X132365805Y-84978716D01*
X131764657Y-85227106D01*
X131304322Y-85686637D01*
X131054884Y-86287352D01*
X131054316Y-86937795D01*
X128910109Y-86937795D01*
X122747440Y-80775126D01*
X122747440Y-80499000D01*
X122703162Y-80263683D01*
X122564090Y-80047559D01*
X122351890Y-79902569D01*
X122100000Y-79851560D01*
X121200000Y-79851560D01*
X120964683Y-79895838D01*
X120748559Y-80034910D01*
X120747440Y-80036548D01*
X120747440Y-79549000D01*
X120703936Y-79317795D01*
X131054316Y-79317795D01*
X131302706Y-79918943D01*
X131762237Y-80379278D01*
X132362952Y-80628716D01*
X133013395Y-80629284D01*
X133559800Y-80403514D01*
X142065065Y-88908780D01*
X141980928Y-89111405D01*
X141980274Y-89861305D01*
X142266643Y-90554372D01*
X142796439Y-91085093D01*
X143489005Y-91372672D01*
X144238905Y-91373326D01*
X144931972Y-91086957D01*
X145462693Y-90557161D01*
X145750272Y-89864595D01*
X145750926Y-89114695D01*
X145464557Y-88421628D01*
X144934761Y-87890907D01*
X144242195Y-87603328D01*
X143492295Y-87602674D01*
X143286586Y-87687671D01*
X134324835Y-78725921D01*
X134324884Y-78670205D01*
X134076494Y-78069057D01*
X133616963Y-77608722D01*
X133016248Y-77359284D01*
X132365805Y-77358716D01*
X131764657Y-77607106D01*
X131304322Y-78066637D01*
X131054884Y-78667352D01*
X131054316Y-79317795D01*
X120703936Y-79317795D01*
X120703162Y-79313683D01*
X120564090Y-79097559D01*
X120351890Y-78952569D01*
X120100000Y-78901560D01*
X119200000Y-78901560D01*
X118964683Y-78945838D01*
X118748559Y-79084910D01*
X118748224Y-79085400D01*
X117967800Y-79085400D01*
X117637315Y-79151138D01*
X117357143Y-79338343D01*
X116264943Y-80430543D01*
X116077738Y-80710715D01*
X116012000Y-81041200D01*
X116012000Y-82923883D01*
X115929169Y-83045110D01*
X115926519Y-83058197D01*
X115789690Y-82845559D01*
X115577490Y-82700569D01*
X115325600Y-82649560D01*
X114899475Y-82649560D01*
X113178257Y-80928343D01*
X112898085Y-80741138D01*
X112567600Y-80675400D01*
X112422840Y-80675400D01*
X112422840Y-79935200D01*
X112378562Y-79699883D01*
X112239490Y-79483759D01*
X112027290Y-79338769D01*
X111775400Y-79287760D01*
X110475400Y-79287760D01*
X110240083Y-79332038D01*
X110023959Y-79471110D01*
X109959465Y-79565500D01*
X108953300Y-79565500D01*
X108677645Y-79620331D01*
X108622814Y-79631238D01*
X108342642Y-79818443D01*
X107466343Y-80694743D01*
X107392915Y-80804636D01*
X107376262Y-80720915D01*
X107369447Y-80710715D01*
X107189058Y-80440743D01*
X106630257Y-79881943D01*
X106350085Y-79694738D01*
X106034910Y-79632045D01*
X105939490Y-79483759D01*
X105727290Y-79338769D01*
X105475400Y-79287760D01*
X104175400Y-79287760D01*
X103940083Y-79332038D01*
X103723959Y-79471110D01*
X103578969Y-79683310D01*
X103527960Y-79935200D01*
X103527960Y-80735200D01*
X103531046Y-80751600D01*
X99918600Y-80751600D01*
X99588115Y-80817338D01*
X99307943Y-81004542D01*
X97804926Y-82507560D01*
X97622600Y-82507560D01*
X97387283Y-82551838D01*
X97217003Y-82661410D01*
X97053978Y-82693838D01*
X96987114Y-82707138D01*
X96706942Y-82894343D01*
X94232943Y-85368343D01*
X94126027Y-85528355D01*
X94100451Y-85490078D01*
X93857883Y-85328000D01*
X94100451Y-85165922D01*
X94357326Y-84781480D01*
X94447529Y-84328000D01*
X94357326Y-83874520D01*
X94100451Y-83490078D01*
X93716009Y-83233203D01*
X93262529Y-83143000D01*
X91788671Y-83143000D01*
X91335191Y-83233203D01*
X90950749Y-83490078D01*
X90693874Y-83874520D01*
X90603671Y-84328000D01*
X90693874Y-84781480D01*
X90950749Y-85165922D01*
X91193317Y-85328000D01*
X90950749Y-85490078D01*
X90693874Y-85874520D01*
X90603671Y-86328000D01*
X90693874Y-86781480D01*
X90950749Y-87165922D01*
X91193317Y-87328000D01*
X90950749Y-87490078D01*
X90693874Y-87874520D01*
X90603671Y-88328000D01*
X90693874Y-88781480D01*
X90950749Y-89165922D01*
X91193317Y-89328000D01*
X90950749Y-89490078D01*
X90693874Y-89874520D01*
X90641452Y-90138063D01*
X87274894Y-86771506D01*
X87044165Y-86617337D01*
X86772000Y-86563200D01*
X79000745Y-86563200D01*
X79047529Y-86328000D01*
X78957326Y-85874520D01*
X78700451Y-85490078D01*
X78649729Y-85456187D01*
X78827041Y-85342090D01*
X78972031Y-85129890D01*
X79023040Y-84878000D01*
X79023040Y-83778000D01*
X78978762Y-83542683D01*
X78839690Y-83326559D01*
X78627490Y-83181569D01*
X78375600Y-83130560D01*
X75875600Y-83130560D01*
X75640283Y-83174838D01*
X75424159Y-83313910D01*
X75321334Y-83464400D01*
X63982600Y-83464400D01*
X63652115Y-83530138D01*
X63371943Y-83717342D01*
X61466943Y-85622343D01*
X61279738Y-85902515D01*
X61214000Y-86233000D01*
X60693300Y-86233000D01*
X60693300Y-77597000D01*
X74472800Y-77597000D01*
X74472800Y-82346800D01*
X74481485Y-82392959D01*
X74508765Y-82435353D01*
X74550390Y-82463794D01*
X74599800Y-82473800D01*
X94538800Y-82473800D01*
X94584959Y-82465115D01*
X94627353Y-82437835D01*
X94655794Y-82396210D01*
X94665800Y-82346800D01*
X94665800Y-77571600D01*
X94657115Y-77525441D01*
X94629835Y-77483047D01*
X94588210Y-77454606D01*
X94538800Y-77444600D01*
X74676000Y-77444600D01*
X74619204Y-77458008D01*
X74592457Y-77471382D01*
X74553641Y-77478685D01*
X74511247Y-77505965D01*
X74482806Y-77547590D01*
X74472800Y-77597000D01*
X60693300Y-77597000D01*
X60693300Y-77355700D01*
X148297900Y-77355700D01*
X148297900Y-126860300D01*
X148297900Y-126860300D01*
G37*
X148297900Y-126860300D02*
X60693300Y-126860300D01*
X60693300Y-117641305D01*
X63240274Y-117641305D01*
X63526643Y-118334372D01*
X64056439Y-118865093D01*
X64749005Y-119152672D01*
X65498905Y-119153326D01*
X66191972Y-118866957D01*
X66722693Y-118337161D01*
X66808050Y-118131600D01*
X72347886Y-118131600D01*
X76105400Y-121889115D01*
X76045910Y-122032383D01*
X76045292Y-122740510D01*
X76315710Y-123394972D01*
X76815995Y-123896130D01*
X77469983Y-124167690D01*
X78178110Y-124168308D01*
X78832572Y-123897890D01*
X79333730Y-123397605D01*
X79605290Y-122743617D01*
X79605908Y-122035490D01*
X79335490Y-121381028D01*
X78835205Y-120879870D01*
X78181217Y-120608310D01*
X77473090Y-120607692D01*
X77326979Y-120668064D01*
X73316257Y-116657343D01*
X73036085Y-116470138D01*
X72705600Y-116404400D01*
X66808341Y-116404400D01*
X66724557Y-116201628D01*
X66194761Y-115670907D01*
X65502195Y-115383328D01*
X64752295Y-115382674D01*
X64059228Y-115669043D01*
X63528507Y-116198839D01*
X63240928Y-116891405D01*
X63240274Y-117641305D01*
X60693300Y-117641305D01*
X60693300Y-111018000D01*
X63228160Y-111018000D01*
X63228160Y-113518000D01*
X63272438Y-113753317D01*
X63411510Y-113969441D01*
X63623710Y-114114431D01*
X63875600Y-114165440D01*
X66375600Y-114165440D01*
X66610917Y-114121162D01*
X66827041Y-113982090D01*
X66972031Y-113769890D01*
X67023040Y-113518000D01*
X67023040Y-113131600D01*
X72745600Y-113131600D01*
X73076085Y-113065862D01*
X73356257Y-112878657D01*
X77326714Y-108908200D01*
X77469983Y-108967690D01*
X78178110Y-108968308D01*
X78832572Y-108697890D01*
X79085493Y-108445409D01*
X104747796Y-108445409D01*
X104864205Y-108727312D01*
X105526456Y-108978049D01*
X106234249Y-108956267D01*
X106786995Y-108727312D01*
X106903404Y-108445409D01*
X105825600Y-107367605D01*
X104747796Y-108445409D01*
X79085493Y-108445409D01*
X79333730Y-108197605D01*
X79605290Y-107543617D01*
X79605861Y-106888856D01*
X104035551Y-106888856D01*
X104057333Y-107596649D01*
X104286288Y-108149395D01*
X104568191Y-108265804D01*
X105645995Y-107188000D01*
X106005205Y-107188000D01*
X107083009Y-108265804D01*
X107364912Y-108149395D01*
X107615649Y-107487144D01*
X107593867Y-106779351D01*
X107364912Y-106226605D01*
X107083009Y-106110196D01*
X106005205Y-107188000D01*
X105645995Y-107188000D01*
X104568191Y-106110196D01*
X104286288Y-106226605D01*
X104035551Y-106888856D01*
X79605861Y-106888856D01*
X79605908Y-106835490D01*
X79335490Y-106181028D01*
X79085490Y-105930591D01*
X104747796Y-105930591D01*
X105825600Y-107008395D01*
X106903404Y-105930591D01*
X106786995Y-105648688D01*
X106124744Y-105397951D01*
X105416951Y-105419733D01*
X104864205Y-105648688D01*
X104747796Y-105930591D01*
X79085490Y-105930591D01*
X78835205Y-105679870D01*
X78181217Y-105408310D01*
X77473090Y-105407692D01*
X76818628Y-105678110D01*
X76317470Y-106178395D01*
X76045910Y-106832383D01*
X76045292Y-107540510D01*
X76105664Y-107686622D01*
X72387886Y-111404400D01*
X67023040Y-111404400D01*
X67023040Y-111018000D01*
X66978762Y-110782683D01*
X66839690Y-110566559D01*
X66627490Y-110421569D01*
X66375600Y-110370560D01*
X63875600Y-110370560D01*
X63640283Y-110414838D01*
X63424159Y-110553910D01*
X63279169Y-110766110D01*
X63228160Y-111018000D01*
X60693300Y-111018000D01*
X60693300Y-104011690D01*
X110785000Y-104011690D01*
X110785000Y-104602250D01*
X110943750Y-104761000D01*
X112293000Y-104761000D01*
X112293000Y-103661750D01*
X112547000Y-103661750D01*
X112547000Y-104761000D01*
X113896250Y-104761000D01*
X114055000Y-104602250D01*
X114055000Y-104011690D01*
X113958327Y-103778301D01*
X113779698Y-103599673D01*
X113546309Y-103503000D01*
X112705750Y-103503000D01*
X112547000Y-103661750D01*
X112293000Y-103661750D01*
X112134250Y-103503000D01*
X111293691Y-103503000D01*
X111060302Y-103599673D01*
X110881673Y-103778301D01*
X110785000Y-104011690D01*
X60693300Y-104011690D01*
X60693300Y-99853750D01*
X63640600Y-99853750D01*
X63640600Y-100544310D01*
X63737273Y-100777699D01*
X63915902Y-100956327D01*
X64149291Y-101053000D01*
X64839850Y-101053000D01*
X64998600Y-100894250D01*
X64998600Y-99695000D01*
X65252600Y-99695000D01*
X65252600Y-100894250D01*
X65411350Y-101053000D01*
X66101909Y-101053000D01*
X66335298Y-100956327D01*
X66513927Y-100777699D01*
X66610600Y-100544310D01*
X66610600Y-99863150D01*
X70876000Y-99863150D01*
X70876000Y-100203709D01*
X70972673Y-100437098D01*
X71151301Y-100615727D01*
X71384690Y-100712400D01*
X71850250Y-100712400D01*
X72009000Y-100553650D01*
X72009000Y-99704400D01*
X72263000Y-99704400D01*
X72263000Y-100553650D01*
X72421750Y-100712400D01*
X72887310Y-100712400D01*
X73120699Y-100615727D01*
X73299327Y-100437098D01*
X73396000Y-100203709D01*
X73396000Y-99863150D01*
X73237250Y-99704400D01*
X72263000Y-99704400D01*
X72009000Y-99704400D01*
X71034750Y-99704400D01*
X70876000Y-99863150D01*
X66610600Y-99863150D01*
X66610600Y-99853750D01*
X66451850Y-99695000D01*
X65252600Y-99695000D01*
X64998600Y-99695000D01*
X63799350Y-99695000D01*
X63640600Y-99853750D01*
X60693300Y-99853750D01*
X60693300Y-86233000D01*
X61214000Y-86233000D01*
X61214000Y-95885000D01*
X61277074Y-96202090D01*
X61279738Y-96215485D01*
X61466943Y-96495657D01*
X62609943Y-97638657D01*
X62890114Y-97825862D01*
X62944945Y-97836769D01*
X63220600Y-97891600D01*
X63921869Y-97891600D01*
X64046453Y-98078054D01*
X64090377Y-98107403D01*
X63915902Y-98179673D01*
X63737273Y-98358301D01*
X63640600Y-98591690D01*
X63640600Y-99282250D01*
X63799350Y-99441000D01*
X64998600Y-99441000D01*
X64998600Y-99421000D01*
X65252600Y-99421000D01*
X65252600Y-99441000D01*
X66451850Y-99441000D01*
X66610600Y-99282250D01*
X66610600Y-98591690D01*
X66513927Y-98358301D01*
X66335298Y-98179673D01*
X66160823Y-98107403D01*
X66204747Y-98078054D01*
X66329331Y-97891600D01*
X67980600Y-97891600D01*
X68311085Y-97825862D01*
X68591257Y-97638657D01*
X68905474Y-97324440D01*
X69331600Y-97324440D01*
X69566917Y-97280162D01*
X69783041Y-97141090D01*
X69928031Y-96928890D01*
X69979040Y-96677000D01*
X69979040Y-95977000D01*
X69934762Y-95741683D01*
X69795690Y-95525559D01*
X69583490Y-95380569D01*
X69570403Y-95377919D01*
X69706100Y-95290600D01*
X71207874Y-95290600D01*
X71223438Y-95373317D01*
X71313000Y-95512500D01*
X71313000Y-96467216D01*
X71275683Y-96474238D01*
X71059559Y-96613310D01*
X70914569Y-96825510D01*
X70863560Y-97077400D01*
X70863560Y-98077400D01*
X70907838Y-98312717D01*
X71046910Y-98528841D01*
X71115006Y-98575369D01*
X70972673Y-98717702D01*
X70876000Y-98951091D01*
X70876000Y-99291650D01*
X71034750Y-99450400D01*
X72009000Y-99450400D01*
X72009000Y-99430400D01*
X72263000Y-99430400D01*
X72263000Y-99450400D01*
X73237250Y-99450400D01*
X73396000Y-99291650D01*
X73396000Y-98963552D01*
X73638915Y-99125862D01*
X73969400Y-99191600D01*
X75589179Y-99191600D01*
X75935191Y-99422797D01*
X76388671Y-99513000D01*
X77075656Y-99513000D01*
X77214943Y-99721457D01*
X79170743Y-101677257D01*
X79450915Y-101864462D01*
X79781400Y-101930200D01*
X99441000Y-101930200D01*
X99771485Y-101864462D01*
X100051657Y-101677257D01*
X101113164Y-100615750D01*
X104273600Y-100615750D01*
X104273600Y-101256310D01*
X104370273Y-101489699D01*
X104548902Y-101668327D01*
X104782291Y-101765000D01*
X105122850Y-101765000D01*
X105281600Y-101606250D01*
X105281600Y-100457000D01*
X105535600Y-100457000D01*
X105535600Y-101606250D01*
X105694350Y-101765000D01*
X106034909Y-101765000D01*
X106268298Y-101668327D01*
X106446927Y-101489699D01*
X106543600Y-101256310D01*
X106543600Y-100615750D01*
X106384850Y-100457000D01*
X105535600Y-100457000D01*
X105281600Y-100457000D01*
X104432350Y-100457000D01*
X104273600Y-100615750D01*
X101113164Y-100615750D01*
X102325224Y-99403690D01*
X104273600Y-99403690D01*
X104273600Y-100044250D01*
X104432350Y-100203000D01*
X105281600Y-100203000D01*
X105281600Y-99053750D01*
X105122850Y-98895000D01*
X104782291Y-98895000D01*
X104548902Y-98991673D01*
X104370273Y-99170301D01*
X104273600Y-99403690D01*
X102325224Y-99403690D01*
X102872114Y-98856800D01*
X105714086Y-98856800D01*
X105752286Y-98895000D01*
X105694350Y-98895000D01*
X105535600Y-99053750D01*
X105535600Y-100203000D01*
X106384850Y-100203000D01*
X106543600Y-100044250D01*
X106543600Y-99686314D01*
X107261160Y-100403875D01*
X107261160Y-101130000D01*
X107305438Y-101365317D01*
X107444510Y-101581441D01*
X107656710Y-101726431D01*
X107908600Y-101777440D01*
X108908600Y-101777440D01*
X109143917Y-101733162D01*
X109360041Y-101594090D01*
X109505031Y-101381890D01*
X109512299Y-101346000D01*
X113535886Y-101346000D01*
X114909600Y-102719715D01*
X114909600Y-105788886D01*
X114374086Y-106324400D01*
X114046065Y-106324400D01*
X114023162Y-106202683D01*
X113917518Y-106038508D01*
X113958327Y-105997699D01*
X114055000Y-105764310D01*
X114055000Y-105173750D01*
X113896250Y-105015000D01*
X112547000Y-105015000D01*
X112547000Y-105035000D01*
X112293000Y-105035000D01*
X112293000Y-105015000D01*
X110943750Y-105015000D01*
X110785000Y-105173750D01*
X110785000Y-105764310D01*
X110881673Y-105997699D01*
X110923634Y-106039660D01*
X110823569Y-106186110D01*
X110772560Y-106438000D01*
X110772560Y-107938000D01*
X110816838Y-108173317D01*
X110923759Y-108339477D01*
X110823569Y-108486110D01*
X110772560Y-108738000D01*
X110772560Y-110238000D01*
X110816838Y-110473317D01*
X110955910Y-110689441D01*
X111168110Y-110834431D01*
X111420000Y-110885440D01*
X111948726Y-110885440D01*
X113559886Y-112496600D01*
X112132086Y-113924400D01*
X107394730Y-113924400D01*
X107335490Y-113781028D01*
X106835205Y-113279870D01*
X106181217Y-113008310D01*
X105473090Y-113007692D01*
X104818628Y-113278110D01*
X104317470Y-113778395D01*
X104045910Y-114432383D01*
X104045292Y-115140510D01*
X104315710Y-115794972D01*
X104815995Y-116296130D01*
X104962000Y-116356757D01*
X104962000Y-119236800D01*
X105025245Y-119554750D01*
X105027738Y-119567285D01*
X105214943Y-119847457D01*
X107136143Y-121768657D01*
X107416314Y-121955862D01*
X107471145Y-121966769D01*
X107746800Y-122021600D01*
X122436585Y-122021600D01*
X122682000Y-122267444D01*
X122682000Y-122427000D01*
X122747738Y-122757485D01*
X122934943Y-123037657D01*
X124735160Y-124837875D01*
X124735160Y-125314000D01*
X124779438Y-125549317D01*
X124918510Y-125765441D01*
X125130710Y-125910431D01*
X125382600Y-125961440D01*
X126282600Y-125961440D01*
X126517917Y-125917162D01*
X126734041Y-125778090D01*
X126879031Y-125565890D01*
X126930040Y-125314000D01*
X126930040Y-124114000D01*
X126885762Y-123878683D01*
X126746690Y-123662559D01*
X126534490Y-123517569D01*
X126282600Y-123466560D01*
X125806475Y-123466560D01*
X124508151Y-122168237D01*
X124727534Y-121949236D01*
X124940358Y-121436700D01*
X124940842Y-120881735D01*
X124728913Y-120368828D01*
X124336836Y-119976066D01*
X123824300Y-119763242D01*
X123269335Y-119762758D01*
X122756428Y-119974687D01*
X122436156Y-120294400D01*
X108104514Y-120294400D01*
X106689200Y-118879086D01*
X106689200Y-118692691D01*
X134133600Y-118692691D01*
X134133600Y-118983250D01*
X134292350Y-119142000D01*
X135041600Y-119142000D01*
X135041600Y-118342750D01*
X134882850Y-118184000D01*
X134642290Y-118184000D01*
X134408901Y-118280673D01*
X134230273Y-118459302D01*
X134133600Y-118692691D01*
X106689200Y-118692691D01*
X106689200Y-116357130D01*
X106832572Y-116297890D01*
X107333730Y-115797605D01*
X107394357Y-115651600D01*
X112489800Y-115651600D01*
X112820285Y-115585862D01*
X113100457Y-115398657D01*
X114555074Y-113944040D01*
X115281200Y-113944040D01*
X115516517Y-113899762D01*
X115732641Y-113760690D01*
X115877631Y-113548490D01*
X115928640Y-113296600D01*
X115928640Y-112782350D01*
X116646200Y-112782350D01*
X116646200Y-113422910D01*
X116742873Y-113656299D01*
X116921502Y-113834927D01*
X117154891Y-113931600D01*
X117495450Y-113931600D01*
X117654200Y-113772850D01*
X117654200Y-112623600D01*
X117908200Y-112623600D01*
X117908200Y-113772850D01*
X118066950Y-113931600D01*
X118407509Y-113931600D01*
X118640898Y-113834927D01*
X118819527Y-113656299D01*
X118916200Y-113422910D01*
X118916200Y-112782350D01*
X118757450Y-112623600D01*
X117908200Y-112623600D01*
X117654200Y-112623600D01*
X116804950Y-112623600D01*
X116646200Y-112782350D01*
X115928640Y-112782350D01*
X115928640Y-111696600D01*
X115904874Y-111570290D01*
X116646200Y-111570290D01*
X116646200Y-112210850D01*
X116804950Y-112369600D01*
X117654200Y-112369600D01*
X117654200Y-111220350D01*
X117908200Y-111220350D01*
X117908200Y-112369600D01*
X118757450Y-112369600D01*
X118916200Y-112210850D01*
X118916200Y-111570290D01*
X118819527Y-111336901D01*
X118640898Y-111158273D01*
X118407509Y-111061600D01*
X118066950Y-111061600D01*
X117908200Y-111220350D01*
X117654200Y-111220350D01*
X117495450Y-111061600D01*
X117154891Y-111061600D01*
X116921502Y-111158273D01*
X116742873Y-111336901D01*
X116646200Y-111570290D01*
X115904874Y-111570290D01*
X115884362Y-111461283D01*
X115745290Y-111245159D01*
X115533090Y-111100169D01*
X115281200Y-111049160D01*
X114555074Y-111049160D01*
X114008058Y-110502144D01*
X114016431Y-110489890D01*
X114067440Y-110238000D01*
X114067440Y-108738000D01*
X114023162Y-108502683D01*
X113916241Y-108336523D01*
X114016431Y-108189890D01*
X114044435Y-108051600D01*
X114731800Y-108051600D01*
X115062285Y-107985862D01*
X115342457Y-107798657D01*
X116383857Y-106757257D01*
X116571062Y-106477085D01*
X116636800Y-106146600D01*
X116636800Y-105288000D01*
X117072560Y-105288000D01*
X117072560Y-109088000D01*
X117116838Y-109323317D01*
X117255910Y-109539441D01*
X117468110Y-109684431D01*
X117720000Y-109735440D01*
X119720000Y-109735440D01*
X119955317Y-109691162D01*
X120171441Y-109552090D01*
X120316431Y-109339890D01*
X120367440Y-109088000D01*
X120367440Y-105288000D01*
X120323162Y-105052683D01*
X120184090Y-104836559D01*
X119971890Y-104691569D01*
X119720000Y-104640560D01*
X117720000Y-104640560D01*
X117484683Y-104684838D01*
X117268559Y-104823910D01*
X117123569Y-105036110D01*
X117072560Y-105288000D01*
X116636800Y-105288000D01*
X116636800Y-102362000D01*
X116571062Y-102031515D01*
X116544062Y-101991106D01*
X116383858Y-101751343D01*
X114504257Y-99871743D01*
X114224085Y-99684538D01*
X113893600Y-99618800D01*
X110339714Y-99618800D01*
X113869258Y-96089257D01*
X114056462Y-95809085D01*
X114122200Y-95478600D01*
X114122200Y-92574407D01*
X114222160Y-92706491D01*
X114222160Y-92978000D01*
X114266438Y-93213317D01*
X114270448Y-93219548D01*
X114222160Y-93458000D01*
X114222160Y-94258000D01*
X114266438Y-94493317D01*
X114405510Y-94709441D01*
X114617710Y-94854431D01*
X114869600Y-94905440D01*
X116169600Y-94905440D01*
X116404917Y-94861162D01*
X116621041Y-94722090D01*
X116621376Y-94721600D01*
X116893686Y-94721600D01*
X117283443Y-95111357D01*
X117513085Y-95264799D01*
X121412000Y-99163715D01*
X121412000Y-111379000D01*
X121467366Y-111657343D01*
X121477738Y-111709485D01*
X121664943Y-111989657D01*
X126490943Y-116815658D01*
X126771115Y-117002862D01*
X127101600Y-117068600D01*
X133957352Y-117068600D01*
X133961438Y-117090317D01*
X134100510Y-117306441D01*
X134312710Y-117451431D01*
X134564600Y-117502440D01*
X135264600Y-117502440D01*
X135499917Y-117458162D01*
X135716041Y-117319090D01*
X135861031Y-117106890D01*
X135863681Y-117093803D01*
X136000510Y-117306441D01*
X136205000Y-117446163D01*
X136205000Y-118372705D01*
X136121610Y-118494750D01*
X136106927Y-118459302D01*
X135928299Y-118280673D01*
X135694910Y-118184000D01*
X135454350Y-118184000D01*
X135295600Y-118342750D01*
X135295600Y-119142000D01*
X135315600Y-119142000D01*
X135315600Y-119396000D01*
X135295600Y-119396000D01*
X135295600Y-119416000D01*
X135041600Y-119416000D01*
X135041600Y-119396000D01*
X134292350Y-119396000D01*
X134133600Y-119554750D01*
X134133600Y-119845309D01*
X134230273Y-120078698D01*
X134408901Y-120257327D01*
X134498403Y-120294400D01*
X132274615Y-120294400D01*
X131956836Y-119976066D01*
X131444300Y-119763242D01*
X130889335Y-119762758D01*
X130376428Y-119974687D01*
X129983666Y-120366764D01*
X129770842Y-120879300D01*
X129770447Y-121331838D01*
X128521943Y-122580343D01*
X128334738Y-122860515D01*
X128269000Y-123191000D01*
X128269000Y-123625560D01*
X128231159Y-123649910D01*
X128086169Y-123862110D01*
X128035160Y-124114000D01*
X128035160Y-125314000D01*
X128079438Y-125549317D01*
X128218510Y-125765441D01*
X128430710Y-125910431D01*
X128682600Y-125961440D01*
X129582600Y-125961440D01*
X129817917Y-125917162D01*
X130034041Y-125778090D01*
X130179031Y-125565890D01*
X130230040Y-125314000D01*
X130230040Y-124114000D01*
X130185762Y-123878683D01*
X130046690Y-123662559D01*
X129996200Y-123628061D01*
X129996200Y-123548714D01*
X130992065Y-122552850D01*
X131441865Y-122553242D01*
X131954772Y-122341313D01*
X132275044Y-122021600D01*
X135158733Y-122021600D01*
X135254510Y-122170441D01*
X135466710Y-122315431D01*
X135718600Y-122366440D01*
X136518600Y-122366440D01*
X136753917Y-122322162D01*
X136970041Y-122183090D01*
X137115031Y-121970890D01*
X137166040Y-121719000D01*
X137166040Y-120819000D01*
X137121762Y-120583683D01*
X136982690Y-120367559D01*
X136981052Y-120366440D01*
X137468600Y-120366440D01*
X137703917Y-120322162D01*
X137920041Y-120183090D01*
X138065031Y-119970890D01*
X138116040Y-119719000D01*
X138116040Y-118819000D01*
X138071762Y-118583683D01*
X137932690Y-118367559D01*
X137932200Y-118367224D01*
X137932200Y-116459000D01*
X137866462Y-116128515D01*
X137866462Y-116128514D01*
X137812040Y-116047066D01*
X137812040Y-115555000D01*
X137767762Y-115319683D01*
X137628690Y-115103559D01*
X137416490Y-114958569D01*
X137164600Y-114907560D01*
X136464600Y-114907560D01*
X136229283Y-114951838D01*
X136013159Y-115090910D01*
X135868169Y-115303110D01*
X135865519Y-115316197D01*
X135728690Y-115103559D01*
X135516490Y-114958569D01*
X135264600Y-114907560D01*
X134564600Y-114907560D01*
X134329283Y-114951838D01*
X134113159Y-115090910D01*
X133968169Y-115303110D01*
X133960415Y-115341400D01*
X127459315Y-115341400D01*
X123439710Y-111321795D01*
X129530316Y-111321795D01*
X129778706Y-111922943D01*
X130238237Y-112383278D01*
X130838952Y-112632716D01*
X131489395Y-112633284D01*
X132090543Y-112384894D01*
X132550878Y-111925363D01*
X132577355Y-111861600D01*
X139697886Y-111861600D01*
X141968160Y-114131875D01*
X141968160Y-116058000D01*
X142012438Y-116293317D01*
X142151510Y-116509441D01*
X142363710Y-116654431D01*
X142615600Y-116705440D01*
X145115600Y-116705440D01*
X145350917Y-116661162D01*
X145567041Y-116522090D01*
X145712031Y-116309890D01*
X145763040Y-116058000D01*
X145763040Y-113558000D01*
X145718762Y-113322683D01*
X145579690Y-113106559D01*
X145367490Y-112961569D01*
X145115600Y-112910560D01*
X143189475Y-112910560D01*
X140666257Y-110387343D01*
X140386085Y-110200138D01*
X140055600Y-110134400D01*
X132577840Y-110134400D01*
X132552494Y-110073057D01*
X132092963Y-109612722D01*
X131492248Y-109363284D01*
X130841805Y-109362716D01*
X130240657Y-109611106D01*
X129780322Y-110070637D01*
X129530884Y-110671352D01*
X129530316Y-111321795D01*
X123439710Y-111321795D01*
X123139200Y-111021286D01*
X123139200Y-103701795D01*
X129530316Y-103701795D01*
X129778706Y-104302943D01*
X130238237Y-104763278D01*
X130838952Y-105012716D01*
X131489395Y-105013284D01*
X132090543Y-104764894D01*
X132550878Y-104305363D01*
X132577355Y-104241600D01*
X137077886Y-104241600D01*
X142065065Y-109228780D01*
X141980928Y-109431405D01*
X141980274Y-110181305D01*
X142266643Y-110874372D01*
X142796439Y-111405093D01*
X143489005Y-111692672D01*
X144238905Y-111693326D01*
X144931972Y-111406957D01*
X145462693Y-110877161D01*
X145750272Y-110184595D01*
X145750926Y-109434695D01*
X145464557Y-108741628D01*
X144934761Y-108210907D01*
X144242195Y-107923328D01*
X143492295Y-107922674D01*
X143286586Y-108007671D01*
X138046257Y-102767343D01*
X137766085Y-102580138D01*
X137435600Y-102514400D01*
X132577840Y-102514400D01*
X132552494Y-102453057D01*
X132092963Y-101992722D01*
X131492248Y-101743284D01*
X130841805Y-101742716D01*
X130240657Y-101991106D01*
X129780322Y-102450637D01*
X129530884Y-103051352D01*
X129530316Y-103701795D01*
X123139200Y-103701795D01*
X123139200Y-98806000D01*
X123073462Y-98475515D01*
X123023272Y-98400400D01*
X122886258Y-98195343D01*
X118580957Y-93890043D01*
X118351315Y-93736601D01*
X118137514Y-93522800D01*
X118390603Y-93522800D01*
X123674484Y-96906154D01*
X123674358Y-97050265D01*
X123886287Y-97563172D01*
X124261009Y-97938549D01*
X124261974Y-97943400D01*
X124271738Y-97992485D01*
X124458943Y-98272657D01*
X126259160Y-100072875D01*
X126259160Y-100549000D01*
X126303438Y-100784317D01*
X126442510Y-101000441D01*
X126654710Y-101145431D01*
X126906600Y-101196440D01*
X127806600Y-101196440D01*
X128041917Y-101152162D01*
X128258041Y-101013090D01*
X128403031Y-100800890D01*
X128454040Y-100549000D01*
X128454040Y-99349000D01*
X128409762Y-99113683D01*
X128270690Y-98897559D01*
X128058490Y-98752569D01*
X127806600Y-98701560D01*
X127330475Y-98701560D01*
X126222817Y-97593903D01*
X126251534Y-97565236D01*
X126464358Y-97052700D01*
X126464842Y-96497735D01*
X126252913Y-95984828D01*
X125860836Y-95592066D01*
X125348300Y-95379242D01*
X124793335Y-95378758D01*
X124610256Y-95454405D01*
X119109090Y-91931919D01*
X119037663Y-91903953D01*
X118973885Y-91861338D01*
X118882285Y-91843118D01*
X118795323Y-91809069D01*
X118718636Y-91810565D01*
X118643400Y-91795600D01*
X116678117Y-91795600D01*
X116633690Y-91726559D01*
X116421490Y-91581569D01*
X116169600Y-91530560D01*
X115498284Y-91530560D01*
X108940600Y-82865453D01*
X108940600Y-81663114D01*
X109311015Y-81292700D01*
X109827960Y-81292700D01*
X109827960Y-82015200D01*
X109872238Y-82250517D01*
X110011310Y-82466641D01*
X110223510Y-82611631D01*
X110475400Y-82662640D01*
X111775400Y-82662640D01*
X112010717Y-82618362D01*
X112226841Y-82479290D01*
X112251088Y-82443803D01*
X113978160Y-84170875D01*
X113978160Y-84597000D01*
X114022438Y-84832317D01*
X114161510Y-85048441D01*
X114373710Y-85193431D01*
X114625600Y-85244440D01*
X115325600Y-85244440D01*
X115560917Y-85200162D01*
X115777041Y-85061090D01*
X115922031Y-84848890D01*
X115924681Y-84835803D01*
X116061510Y-85048441D01*
X116273710Y-85193431D01*
X116525600Y-85244440D01*
X117225600Y-85244440D01*
X117460917Y-85200162D01*
X117677041Y-85061090D01*
X117822031Y-84848890D01*
X117873040Y-84597000D01*
X117873040Y-83297000D01*
X117828762Y-83061683D01*
X117739200Y-82922500D01*
X117739200Y-82134750D01*
X118565000Y-82134750D01*
X118565000Y-82375310D01*
X118661673Y-82608699D01*
X118840302Y-82787327D01*
X119073691Y-82884000D01*
X119364250Y-82884000D01*
X119523000Y-82725250D01*
X119523000Y-81976000D01*
X119777000Y-81976000D01*
X119777000Y-82725250D01*
X119935750Y-82884000D01*
X120226309Y-82884000D01*
X120459698Y-82787327D01*
X120638327Y-82608699D01*
X120735000Y-82375310D01*
X120735000Y-82134750D01*
X120576250Y-81976000D01*
X119777000Y-81976000D01*
X119523000Y-81976000D01*
X118723750Y-81976000D01*
X118565000Y-82134750D01*
X117739200Y-82134750D01*
X117739200Y-81398914D01*
X118325514Y-80812600D01*
X118753705Y-80812600D01*
X118875750Y-80895990D01*
X118840302Y-80910673D01*
X118661673Y-81089301D01*
X118565000Y-81322690D01*
X118565000Y-81563250D01*
X118723750Y-81722000D01*
X119523000Y-81722000D01*
X119523000Y-81702000D01*
X119777000Y-81702000D01*
X119777000Y-81722000D01*
X120576250Y-81722000D01*
X120662262Y-81635988D01*
X120735910Y-81750441D01*
X120948110Y-81895431D01*
X121200000Y-81946440D01*
X121476126Y-81946440D01*
X131826000Y-92296314D01*
X131826000Y-95664985D01*
X131507666Y-95982764D01*
X131294842Y-96495300D01*
X131294447Y-96947838D01*
X130045943Y-98196343D01*
X129858738Y-98476515D01*
X129793000Y-98807000D01*
X129793000Y-98860560D01*
X129755159Y-98884910D01*
X129610169Y-99097110D01*
X129559160Y-99349000D01*
X129559160Y-100549000D01*
X129603438Y-100784317D01*
X129742510Y-101000441D01*
X129954710Y-101145431D01*
X130206600Y-101196440D01*
X131106600Y-101196440D01*
X131341917Y-101152162D01*
X131558041Y-101013090D01*
X131703031Y-100800890D01*
X131754040Y-100549000D01*
X131754040Y-99349000D01*
X131709762Y-99113683D01*
X131655522Y-99029392D01*
X132516065Y-98168850D01*
X132965865Y-98169242D01*
X133478772Y-97957313D01*
X133871534Y-97565236D01*
X134084358Y-97052700D01*
X134084842Y-96497735D01*
X133872913Y-95984828D01*
X133553200Y-95664556D01*
X133553200Y-91938600D01*
X133487462Y-91608115D01*
X133300257Y-91327943D01*
X128910109Y-86937795D01*
X131054316Y-86937795D01*
X131302706Y-87538943D01*
X131762237Y-87999278D01*
X132362952Y-88248716D01*
X133013395Y-88249284D01*
X133614543Y-88000894D01*
X134074878Y-87541363D01*
X134101355Y-87477600D01*
X135633886Y-87477600D01*
X141968160Y-93811875D01*
X141968160Y-95738000D01*
X142012438Y-95973317D01*
X142151510Y-96189441D01*
X142363710Y-96334431D01*
X142615600Y-96385440D01*
X145115600Y-96385440D01*
X145350917Y-96341162D01*
X145567041Y-96202090D01*
X145712031Y-95989890D01*
X145763040Y-95738000D01*
X145763040Y-93238000D01*
X145718762Y-93002683D01*
X145579690Y-92786559D01*
X145367490Y-92641569D01*
X145115600Y-92590560D01*
X143189475Y-92590560D01*
X136602257Y-86003343D01*
X136322085Y-85816138D01*
X135991600Y-85750400D01*
X134101840Y-85750400D01*
X134076494Y-85689057D01*
X133616963Y-85228722D01*
X133016248Y-84979284D01*
X132365805Y-84978716D01*
X131764657Y-85227106D01*
X131304322Y-85686637D01*
X131054884Y-86287352D01*
X131054316Y-86937795D01*
X128910109Y-86937795D01*
X122747440Y-80775126D01*
X122747440Y-80499000D01*
X122703162Y-80263683D01*
X122564090Y-80047559D01*
X122351890Y-79902569D01*
X122100000Y-79851560D01*
X121200000Y-79851560D01*
X120964683Y-79895838D01*
X120748559Y-80034910D01*
X120747440Y-80036548D01*
X120747440Y-79549000D01*
X120703936Y-79317795D01*
X131054316Y-79317795D01*
X131302706Y-79918943D01*
X131762237Y-80379278D01*
X132362952Y-80628716D01*
X133013395Y-80629284D01*
X133559800Y-80403514D01*
X142065065Y-88908780D01*
X141980928Y-89111405D01*
X141980274Y-89861305D01*
X142266643Y-90554372D01*
X142796439Y-91085093D01*
X143489005Y-91372672D01*
X144238905Y-91373326D01*
X144931972Y-91086957D01*
X145462693Y-90557161D01*
X145750272Y-89864595D01*
X145750926Y-89114695D01*
X145464557Y-88421628D01*
X144934761Y-87890907D01*
X144242195Y-87603328D01*
X143492295Y-87602674D01*
X143286586Y-87687671D01*
X134324835Y-78725921D01*
X134324884Y-78670205D01*
X134076494Y-78069057D01*
X133616963Y-77608722D01*
X133016248Y-77359284D01*
X132365805Y-77358716D01*
X131764657Y-77607106D01*
X131304322Y-78066637D01*
X131054884Y-78667352D01*
X131054316Y-79317795D01*
X120703936Y-79317795D01*
X120703162Y-79313683D01*
X120564090Y-79097559D01*
X120351890Y-78952569D01*
X120100000Y-78901560D01*
X119200000Y-78901560D01*
X118964683Y-78945838D01*
X118748559Y-79084910D01*
X118748224Y-79085400D01*
X117967800Y-79085400D01*
X117637315Y-79151138D01*
X117357143Y-79338343D01*
X116264943Y-80430543D01*
X116077738Y-80710715D01*
X116012000Y-81041200D01*
X116012000Y-82923883D01*
X115929169Y-83045110D01*
X115926519Y-83058197D01*
X115789690Y-82845559D01*
X115577490Y-82700569D01*
X115325600Y-82649560D01*
X114899475Y-82649560D01*
X113178257Y-80928343D01*
X112898085Y-80741138D01*
X112567600Y-80675400D01*
X112422840Y-80675400D01*
X112422840Y-79935200D01*
X112378562Y-79699883D01*
X112239490Y-79483759D01*
X112027290Y-79338769D01*
X111775400Y-79287760D01*
X110475400Y-79287760D01*
X110240083Y-79332038D01*
X110023959Y-79471110D01*
X109959465Y-79565500D01*
X108953300Y-79565500D01*
X108677645Y-79620331D01*
X108622814Y-79631238D01*
X108342642Y-79818443D01*
X107466343Y-80694743D01*
X107392915Y-80804636D01*
X107376262Y-80720915D01*
X107369447Y-80710715D01*
X107189058Y-80440743D01*
X106630257Y-79881943D01*
X106350085Y-79694738D01*
X106034910Y-79632045D01*
X105939490Y-79483759D01*
X105727290Y-79338769D01*
X105475400Y-79287760D01*
X104175400Y-79287760D01*
X103940083Y-79332038D01*
X103723959Y-79471110D01*
X103578969Y-79683310D01*
X103527960Y-79935200D01*
X103527960Y-80735200D01*
X103531046Y-80751600D01*
X99918600Y-80751600D01*
X99588115Y-80817338D01*
X99307943Y-81004542D01*
X97804926Y-82507560D01*
X97622600Y-82507560D01*
X97387283Y-82551838D01*
X97217003Y-82661410D01*
X97053978Y-82693838D01*
X96987114Y-82707138D01*
X96706942Y-82894343D01*
X94232943Y-85368343D01*
X94126027Y-85528355D01*
X94100451Y-85490078D01*
X93857883Y-85328000D01*
X94100451Y-85165922D01*
X94357326Y-84781480D01*
X94447529Y-84328000D01*
X94357326Y-83874520D01*
X94100451Y-83490078D01*
X93716009Y-83233203D01*
X93262529Y-83143000D01*
X91788671Y-83143000D01*
X91335191Y-83233203D01*
X90950749Y-83490078D01*
X90693874Y-83874520D01*
X90603671Y-84328000D01*
X90693874Y-84781480D01*
X90950749Y-85165922D01*
X91193317Y-85328000D01*
X90950749Y-85490078D01*
X90693874Y-85874520D01*
X90603671Y-86328000D01*
X90693874Y-86781480D01*
X90950749Y-87165922D01*
X91193317Y-87328000D01*
X90950749Y-87490078D01*
X90693874Y-87874520D01*
X90603671Y-88328000D01*
X90693874Y-88781480D01*
X90950749Y-89165922D01*
X91193317Y-89328000D01*
X90950749Y-89490078D01*
X90693874Y-89874520D01*
X90641452Y-90138063D01*
X87274894Y-86771506D01*
X87044165Y-86617337D01*
X86772000Y-86563200D01*
X79000745Y-86563200D01*
X79047529Y-86328000D01*
X78957326Y-85874520D01*
X78700451Y-85490078D01*
X78649729Y-85456187D01*
X78827041Y-85342090D01*
X78972031Y-85129890D01*
X79023040Y-84878000D01*
X79023040Y-83778000D01*
X78978762Y-83542683D01*
X78839690Y-83326559D01*
X78627490Y-83181569D01*
X78375600Y-83130560D01*
X75875600Y-83130560D01*
X75640283Y-83174838D01*
X75424159Y-83313910D01*
X75321334Y-83464400D01*
X63982600Y-83464400D01*
X63652115Y-83530138D01*
X63371943Y-83717342D01*
X61466943Y-85622343D01*
X61279738Y-85902515D01*
X61214000Y-86233000D01*
X60693300Y-86233000D01*
X60693300Y-77597000D01*
X74472800Y-77597000D01*
X74472800Y-82346800D01*
X74481485Y-82392959D01*
X74508765Y-82435353D01*
X74550390Y-82463794D01*
X74599800Y-82473800D01*
X94538800Y-82473800D01*
X94584959Y-82465115D01*
X94627353Y-82437835D01*
X94655794Y-82396210D01*
X94665800Y-82346800D01*
X94665800Y-77571600D01*
X94657115Y-77525441D01*
X94629835Y-77483047D01*
X94588210Y-77454606D01*
X94538800Y-77444600D01*
X74676000Y-77444600D01*
X74619204Y-77458008D01*
X74592457Y-77471382D01*
X74553641Y-77478685D01*
X74511247Y-77505965D01*
X74482806Y-77547590D01*
X74472800Y-77597000D01*
X60693300Y-77597000D01*
X60693300Y-77355700D01*
X148297900Y-77355700D01*
X148297900Y-126860300D01*
G36*
X90639531Y-92147720D02*
X90603671Y-92328000D01*
X90693874Y-92781480D01*
X90950749Y-93165922D01*
X91193317Y-93328000D01*
X90950749Y-93490078D01*
X90693874Y-93874520D01*
X90603671Y-94328000D01*
X90693874Y-94781480D01*
X90950749Y-95165922D01*
X91143317Y-95294591D01*
X90850749Y-95490078D01*
X90593874Y-95874520D01*
X90503671Y-96328000D01*
X90593874Y-96781480D01*
X90850749Y-97165922D01*
X91152291Y-97367405D01*
X90897876Y-97579882D01*
X90682202Y-97991854D01*
X90681797Y-98018256D01*
X90807239Y-98201000D01*
X92398600Y-98201000D01*
X92398600Y-98181000D01*
X92652600Y-98181000D01*
X92652600Y-98201000D01*
X94243961Y-98201000D01*
X94369403Y-98018256D01*
X94368998Y-97991854D01*
X94153324Y-97579882D01*
X93810017Y-97293165D01*
X93962021Y-97191600D01*
X95071003Y-97191600D01*
X95160910Y-97253031D01*
X95194290Y-97259791D01*
X95053101Y-97318273D01*
X94874473Y-97496902D01*
X94777800Y-97730291D01*
X94777800Y-97920850D01*
X94936550Y-98079600D01*
X95935800Y-98079600D01*
X95935800Y-98059600D01*
X96189800Y-98059600D01*
X96189800Y-98079600D01*
X97189050Y-98079600D01*
X97347800Y-97920850D01*
X97347800Y-97730291D01*
X97251127Y-97496902D01*
X97072499Y-97318273D01*
X96936513Y-97261946D01*
X96948117Y-97259762D01*
X97164241Y-97120690D01*
X97309231Y-96908490D01*
X97360240Y-96656600D01*
X97360240Y-95956600D01*
X97315962Y-95721283D01*
X97176890Y-95505159D01*
X96964690Y-95360169D01*
X96712800Y-95309160D01*
X95412800Y-95309160D01*
X95177483Y-95353438D01*
X95005043Y-95464400D01*
X93962021Y-95464400D01*
X93807883Y-95361409D01*
X94100451Y-95165922D01*
X94357326Y-94781480D01*
X94447529Y-94328000D01*
X94357326Y-93874520D01*
X94100451Y-93490078D01*
X93857883Y-93328000D01*
X94100451Y-93165922D01*
X94185124Y-93039200D01*
X95360225Y-93039200D01*
X95378838Y-93138117D01*
X95517910Y-93354241D01*
X95730110Y-93499231D01*
X95982000Y-93550240D01*
X96682000Y-93550240D01*
X96917317Y-93505962D01*
X97133441Y-93366890D01*
X97278431Y-93154690D01*
X97281081Y-93141603D01*
X97417910Y-93354241D01*
X97630110Y-93499231D01*
X97882000Y-93550240D01*
X98582000Y-93550240D01*
X98817317Y-93505962D01*
X99033441Y-93366890D01*
X99178431Y-93154690D01*
X99186185Y-93116400D01*
X102032171Y-93116400D01*
X102048638Y-93203917D01*
X102187710Y-93420041D01*
X102396073Y-93562409D01*
X102345169Y-93636910D01*
X102294160Y-93888800D01*
X102294160Y-95188800D01*
X102338438Y-95424117D01*
X102477510Y-95640241D01*
X102626333Y-95741927D01*
X102680943Y-95823657D01*
X103986886Y-97129600D01*
X102514400Y-97129600D01*
X102202712Y-97191599D01*
X102183915Y-97195338D01*
X101903743Y-97382543D01*
X99083286Y-100203000D01*
X80139114Y-100203000D01*
X78861303Y-98925189D01*
X78957326Y-98781480D01*
X78985916Y-98637744D01*
X90681797Y-98637744D01*
X90682202Y-98664146D01*
X90897876Y-99076118D01*
X91254787Y-99374196D01*
X91698600Y-99513000D01*
X92398600Y-99513000D01*
X92398600Y-98455000D01*
X92652600Y-98455000D01*
X92652600Y-99513000D01*
X93352600Y-99513000D01*
X93796413Y-99374196D01*
X94153324Y-99076118D01*
X94368998Y-98664146D01*
X94369403Y-98637744D01*
X94269600Y-98492350D01*
X94777800Y-98492350D01*
X94777800Y-98682909D01*
X94874473Y-98916298D01*
X95053101Y-99094927D01*
X95286490Y-99191600D01*
X95777050Y-99191600D01*
X95935800Y-99032850D01*
X95935800Y-98333600D01*
X96189800Y-98333600D01*
X96189800Y-99032850D01*
X96348550Y-99191600D01*
X96839110Y-99191600D01*
X97072499Y-99094927D01*
X97251127Y-98916298D01*
X97347800Y-98682909D01*
X97347800Y-98492350D01*
X97189050Y-98333600D01*
X96189800Y-98333600D01*
X95935800Y-98333600D01*
X94936550Y-98333600D01*
X94777800Y-98492350D01*
X94269600Y-98492350D01*
X94243961Y-98455000D01*
X92652600Y-98455000D01*
X92398600Y-98455000D01*
X90807239Y-98455000D01*
X90681797Y-98637744D01*
X78985916Y-98637744D01*
X79047529Y-98328000D01*
X78957326Y-97874520D01*
X78700451Y-97490078D01*
X78457883Y-97328000D01*
X78700451Y-97165922D01*
X78957326Y-96781480D01*
X79047529Y-96328000D01*
X78957326Y-95874520D01*
X78700451Y-95490078D01*
X78457883Y-95328000D01*
X78700451Y-95165922D01*
X78957326Y-94781480D01*
X79047529Y-94328000D01*
X78957326Y-93874520D01*
X78700451Y-93490078D01*
X78457883Y-93328000D01*
X78700451Y-93165922D01*
X78957326Y-92781480D01*
X79047529Y-92328000D01*
X78957326Y-91874520D01*
X78700451Y-91490078D01*
X78457883Y-91328000D01*
X78700451Y-91165922D01*
X78957326Y-90781480D01*
X79047529Y-90328000D01*
X78957326Y-89874520D01*
X78700451Y-89490078D01*
X78457883Y-89328000D01*
X78700451Y-89165922D01*
X78957326Y-88781480D01*
X79047529Y-88328000D01*
X78979421Y-87985600D01*
X86477412Y-87985600D01*
X90639531Y-92147720D01*
X90639531Y-92147720D01*
G37*
X90639531Y-92147720D02*
X90603671Y-92328000D01*
X90693874Y-92781480D01*
X90950749Y-93165922D01*
X91193317Y-93328000D01*
X90950749Y-93490078D01*
X90693874Y-93874520D01*
X90603671Y-94328000D01*
X90693874Y-94781480D01*
X90950749Y-95165922D01*
X91143317Y-95294591D01*
X90850749Y-95490078D01*
X90593874Y-95874520D01*
X90503671Y-96328000D01*
X90593874Y-96781480D01*
X90850749Y-97165922D01*
X91152291Y-97367405D01*
X90897876Y-97579882D01*
X90682202Y-97991854D01*
X90681797Y-98018256D01*
X90807239Y-98201000D01*
X92398600Y-98201000D01*
X92398600Y-98181000D01*
X92652600Y-98181000D01*
X92652600Y-98201000D01*
X94243961Y-98201000D01*
X94369403Y-98018256D01*
X94368998Y-97991854D01*
X94153324Y-97579882D01*
X93810017Y-97293165D01*
X93962021Y-97191600D01*
X95071003Y-97191600D01*
X95160910Y-97253031D01*
X95194290Y-97259791D01*
X95053101Y-97318273D01*
X94874473Y-97496902D01*
X94777800Y-97730291D01*
X94777800Y-97920850D01*
X94936550Y-98079600D01*
X95935800Y-98079600D01*
X95935800Y-98059600D01*
X96189800Y-98059600D01*
X96189800Y-98079600D01*
X97189050Y-98079600D01*
X97347800Y-97920850D01*
X97347800Y-97730291D01*
X97251127Y-97496902D01*
X97072499Y-97318273D01*
X96936513Y-97261946D01*
X96948117Y-97259762D01*
X97164241Y-97120690D01*
X97309231Y-96908490D01*
X97360240Y-96656600D01*
X97360240Y-95956600D01*
X97315962Y-95721283D01*
X97176890Y-95505159D01*
X96964690Y-95360169D01*
X96712800Y-95309160D01*
X95412800Y-95309160D01*
X95177483Y-95353438D01*
X95005043Y-95464400D01*
X93962021Y-95464400D01*
X93807883Y-95361409D01*
X94100451Y-95165922D01*
X94357326Y-94781480D01*
X94447529Y-94328000D01*
X94357326Y-93874520D01*
X94100451Y-93490078D01*
X93857883Y-93328000D01*
X94100451Y-93165922D01*
X94185124Y-93039200D01*
X95360225Y-93039200D01*
X95378838Y-93138117D01*
X95517910Y-93354241D01*
X95730110Y-93499231D01*
X95982000Y-93550240D01*
X96682000Y-93550240D01*
X96917317Y-93505962D01*
X97133441Y-93366890D01*
X97278431Y-93154690D01*
X97281081Y-93141603D01*
X97417910Y-93354241D01*
X97630110Y-93499231D01*
X97882000Y-93550240D01*
X98582000Y-93550240D01*
X98817317Y-93505962D01*
X99033441Y-93366890D01*
X99178431Y-93154690D01*
X99186185Y-93116400D01*
X102032171Y-93116400D01*
X102048638Y-93203917D01*
X102187710Y-93420041D01*
X102396073Y-93562409D01*
X102345169Y-93636910D01*
X102294160Y-93888800D01*
X102294160Y-95188800D01*
X102338438Y-95424117D01*
X102477510Y-95640241D01*
X102626333Y-95741927D01*
X102680943Y-95823657D01*
X103986886Y-97129600D01*
X102514400Y-97129600D01*
X102202712Y-97191599D01*
X102183915Y-97195338D01*
X101903743Y-97382543D01*
X99083286Y-100203000D01*
X80139114Y-100203000D01*
X78861303Y-98925189D01*
X78957326Y-98781480D01*
X78985916Y-98637744D01*
X90681797Y-98637744D01*
X90682202Y-98664146D01*
X90897876Y-99076118D01*
X91254787Y-99374196D01*
X91698600Y-99513000D01*
X92398600Y-99513000D01*
X92398600Y-98455000D01*
X92652600Y-98455000D01*
X92652600Y-99513000D01*
X93352600Y-99513000D01*
X93796413Y-99374196D01*
X94153324Y-99076118D01*
X94368998Y-98664146D01*
X94369403Y-98637744D01*
X94269600Y-98492350D01*
X94777800Y-98492350D01*
X94777800Y-98682909D01*
X94874473Y-98916298D01*
X95053101Y-99094927D01*
X95286490Y-99191600D01*
X95777050Y-99191600D01*
X95935800Y-99032850D01*
X95935800Y-98333600D01*
X96189800Y-98333600D01*
X96189800Y-99032850D01*
X96348550Y-99191600D01*
X96839110Y-99191600D01*
X97072499Y-99094927D01*
X97251127Y-98916298D01*
X97347800Y-98682909D01*
X97347800Y-98492350D01*
X97189050Y-98333600D01*
X96189800Y-98333600D01*
X95935800Y-98333600D01*
X94936550Y-98333600D01*
X94777800Y-98492350D01*
X94269600Y-98492350D01*
X94243961Y-98455000D01*
X92652600Y-98455000D01*
X92398600Y-98455000D01*
X90807239Y-98455000D01*
X90681797Y-98637744D01*
X78985916Y-98637744D01*
X79047529Y-98328000D01*
X78957326Y-97874520D01*
X78700451Y-97490078D01*
X78457883Y-97328000D01*
X78700451Y-97165922D01*
X78957326Y-96781480D01*
X79047529Y-96328000D01*
X78957326Y-95874520D01*
X78700451Y-95490078D01*
X78457883Y-95328000D01*
X78700451Y-95165922D01*
X78957326Y-94781480D01*
X79047529Y-94328000D01*
X78957326Y-93874520D01*
X78700451Y-93490078D01*
X78457883Y-93328000D01*
X78700451Y-93165922D01*
X78957326Y-92781480D01*
X79047529Y-92328000D01*
X78957326Y-91874520D01*
X78700451Y-91490078D01*
X78457883Y-91328000D01*
X78700451Y-91165922D01*
X78957326Y-90781480D01*
X79047529Y-90328000D01*
X78957326Y-89874520D01*
X78700451Y-89490078D01*
X78457883Y-89328000D01*
X78700451Y-89165922D01*
X78957326Y-88781480D01*
X79047529Y-88328000D01*
X78979421Y-87985600D01*
X86477412Y-87985600D01*
X90639531Y-92147720D01*
M02*
