G04 #@! TF.FileFunction,Legend,Top*
%FSLAX46Y46*%
G04 Gerber Fmt 4.6, Leading zero omitted, Abs format (unit mm)*
G04 Created by KiCad (PCBNEW 4.0.6) date 04/16/17 19:40:35*
%MOMM*%
%LPD*%
G01*
G04 APERTURE LIST*
%ADD10C,0.100000*%
%ADD11C,0.300000*%
%ADD12C,0.120000*%
%ADD13C,0.152400*%
%ADD14C,0.150000*%
G04 APERTURE END LIST*
D10*
D11*
X141371914Y-102267400D02*
X141229057Y-102195971D01*
X141014771Y-102195971D01*
X140800486Y-102267400D01*
X140657628Y-102410257D01*
X140586200Y-102553114D01*
X140514771Y-102838829D01*
X140514771Y-103053114D01*
X140586200Y-103338829D01*
X140657628Y-103481686D01*
X140800486Y-103624543D01*
X141014771Y-103695971D01*
X141157628Y-103695971D01*
X141371914Y-103624543D01*
X141443343Y-103553114D01*
X141443343Y-103053114D01*
X141157628Y-103053114D01*
X142086200Y-103695971D02*
X142086200Y-102195971D01*
X142657628Y-102195971D01*
X142800486Y-102267400D01*
X142871914Y-102338829D01*
X142943343Y-102481686D01*
X142943343Y-102695971D01*
X142871914Y-102838829D01*
X142800486Y-102910257D01*
X142657628Y-102981686D01*
X142086200Y-102981686D01*
X143586200Y-103695971D02*
X143586200Y-102195971D01*
X144586200Y-102195971D02*
X144871914Y-102195971D01*
X145014772Y-102267400D01*
X145157629Y-102410257D01*
X145229057Y-102695971D01*
X145229057Y-103195971D01*
X145157629Y-103481686D01*
X145014772Y-103624543D01*
X144871914Y-103695971D01*
X144586200Y-103695971D01*
X144443343Y-103624543D01*
X144300486Y-103481686D01*
X144229057Y-103195971D01*
X144229057Y-102695971D01*
X144300486Y-102410257D01*
X144443343Y-102267400D01*
X144586200Y-102195971D01*
X146514772Y-102695971D02*
X146514772Y-103695971D01*
X146157629Y-102124543D02*
X145800486Y-103195971D01*
X146729058Y-103195971D01*
X140229057Y-101937400D02*
X146943343Y-101937400D01*
X140479058Y-106245971D02*
X139979058Y-105531686D01*
X139621915Y-106245971D02*
X139621915Y-104745971D01*
X140193343Y-104745971D01*
X140336201Y-104817400D01*
X140407629Y-104888829D01*
X140479058Y-105031686D01*
X140479058Y-105245971D01*
X140407629Y-105388829D01*
X140336201Y-105460257D01*
X140193343Y-105531686D01*
X139621915Y-105531686D01*
X141693343Y-106174543D02*
X141550486Y-106245971D01*
X141264772Y-106245971D01*
X141121915Y-106174543D01*
X141050486Y-106031686D01*
X141050486Y-105460257D01*
X141121915Y-105317400D01*
X141264772Y-105245971D01*
X141550486Y-105245971D01*
X141693343Y-105317400D01*
X141764772Y-105460257D01*
X141764772Y-105603114D01*
X141050486Y-105745971D01*
X142621915Y-106245971D02*
X142479057Y-106174543D01*
X142407629Y-106031686D01*
X142407629Y-104745971D01*
X143836200Y-106245971D02*
X143836200Y-105460257D01*
X143764771Y-105317400D01*
X143621914Y-105245971D01*
X143336200Y-105245971D01*
X143193343Y-105317400D01*
X143836200Y-106174543D02*
X143693343Y-106245971D01*
X143336200Y-106245971D01*
X143193343Y-106174543D01*
X143121914Y-106031686D01*
X143121914Y-105888829D01*
X143193343Y-105745971D01*
X143336200Y-105674543D01*
X143693343Y-105674543D01*
X143836200Y-105603114D01*
X144407629Y-105245971D02*
X144764772Y-106245971D01*
X145121914Y-105245971D02*
X144764772Y-106245971D01*
X144621914Y-106603114D01*
X144550486Y-106674543D01*
X144407629Y-106745971D01*
X146764771Y-104888829D02*
X146836200Y-104817400D01*
X146979057Y-104745971D01*
X147336200Y-104745971D01*
X147479057Y-104817400D01*
X147550486Y-104888829D01*
X147621914Y-105031686D01*
X147621914Y-105174543D01*
X147550486Y-105388829D01*
X146693343Y-106245971D01*
X147621914Y-106245971D01*
X141549714Y-82176000D02*
X141406857Y-82104571D01*
X141192571Y-82104571D01*
X140978286Y-82176000D01*
X140835428Y-82318857D01*
X140764000Y-82461714D01*
X140692571Y-82747429D01*
X140692571Y-82961714D01*
X140764000Y-83247429D01*
X140835428Y-83390286D01*
X140978286Y-83533143D01*
X141192571Y-83604571D01*
X141335428Y-83604571D01*
X141549714Y-83533143D01*
X141621143Y-83461714D01*
X141621143Y-82961714D01*
X141335428Y-82961714D01*
X142264000Y-83604571D02*
X142264000Y-82104571D01*
X142835428Y-82104571D01*
X142978286Y-82176000D01*
X143049714Y-82247429D01*
X143121143Y-82390286D01*
X143121143Y-82604571D01*
X143049714Y-82747429D01*
X142978286Y-82818857D01*
X142835428Y-82890286D01*
X142264000Y-82890286D01*
X143764000Y-83604571D02*
X143764000Y-82104571D01*
X144764000Y-82104571D02*
X145049714Y-82104571D01*
X145192572Y-82176000D01*
X145335429Y-82318857D01*
X145406857Y-82604571D01*
X145406857Y-83104571D01*
X145335429Y-83390286D01*
X145192572Y-83533143D01*
X145049714Y-83604571D01*
X144764000Y-83604571D01*
X144621143Y-83533143D01*
X144478286Y-83390286D01*
X144406857Y-83104571D01*
X144406857Y-82604571D01*
X144478286Y-82318857D01*
X144621143Y-82176000D01*
X144764000Y-82104571D01*
X146764001Y-82104571D02*
X146049715Y-82104571D01*
X145978286Y-82818857D01*
X146049715Y-82747429D01*
X146192572Y-82676000D01*
X146549715Y-82676000D01*
X146692572Y-82747429D01*
X146764001Y-82818857D01*
X146835429Y-82961714D01*
X146835429Y-83318857D01*
X146764001Y-83461714D01*
X146692572Y-83533143D01*
X146549715Y-83604571D01*
X146192572Y-83604571D01*
X146049715Y-83533143D01*
X145978286Y-83461714D01*
X140406857Y-81846000D02*
X147121143Y-81846000D01*
X140656858Y-86154571D02*
X140156858Y-85440286D01*
X139799715Y-86154571D02*
X139799715Y-84654571D01*
X140371143Y-84654571D01*
X140514001Y-84726000D01*
X140585429Y-84797429D01*
X140656858Y-84940286D01*
X140656858Y-85154571D01*
X140585429Y-85297429D01*
X140514001Y-85368857D01*
X140371143Y-85440286D01*
X139799715Y-85440286D01*
X141871143Y-86083143D02*
X141728286Y-86154571D01*
X141442572Y-86154571D01*
X141299715Y-86083143D01*
X141228286Y-85940286D01*
X141228286Y-85368857D01*
X141299715Y-85226000D01*
X141442572Y-85154571D01*
X141728286Y-85154571D01*
X141871143Y-85226000D01*
X141942572Y-85368857D01*
X141942572Y-85511714D01*
X141228286Y-85654571D01*
X142799715Y-86154571D02*
X142656857Y-86083143D01*
X142585429Y-85940286D01*
X142585429Y-84654571D01*
X144014000Y-86154571D02*
X144014000Y-85368857D01*
X143942571Y-85226000D01*
X143799714Y-85154571D01*
X143514000Y-85154571D01*
X143371143Y-85226000D01*
X144014000Y-86083143D02*
X143871143Y-86154571D01*
X143514000Y-86154571D01*
X143371143Y-86083143D01*
X143299714Y-85940286D01*
X143299714Y-85797429D01*
X143371143Y-85654571D01*
X143514000Y-85583143D01*
X143871143Y-85583143D01*
X144014000Y-85511714D01*
X144585429Y-85154571D02*
X144942572Y-86154571D01*
X145299714Y-85154571D02*
X144942572Y-86154571D01*
X144799714Y-86511714D01*
X144728286Y-86583143D01*
X144585429Y-86654571D01*
X147799714Y-86154571D02*
X146942571Y-86154571D01*
X147371143Y-86154571D02*
X147371143Y-84654571D01*
X147228286Y-84868857D01*
X147085428Y-85011714D01*
X146942571Y-85083143D01*
X62280458Y-122110971D02*
X61423315Y-122110971D01*
X61851887Y-122110971D02*
X61851887Y-120610971D01*
X61709030Y-120825257D01*
X61566172Y-120968114D01*
X61423315Y-121039543D01*
X62851886Y-120753829D02*
X62923315Y-120682400D01*
X63066172Y-120610971D01*
X63423315Y-120610971D01*
X63566172Y-120682400D01*
X63637601Y-120753829D01*
X63709029Y-120896686D01*
X63709029Y-121039543D01*
X63637601Y-121253829D01*
X62780458Y-122110971D01*
X63709029Y-122110971D01*
X64637600Y-120610971D02*
X64780457Y-120610971D01*
X64923314Y-120682400D01*
X64994743Y-120753829D01*
X65066172Y-120896686D01*
X65137600Y-121182400D01*
X65137600Y-121539543D01*
X65066172Y-121825257D01*
X64994743Y-121968114D01*
X64923314Y-122039543D01*
X64780457Y-122110971D01*
X64637600Y-122110971D01*
X64494743Y-122039543D01*
X64423314Y-121968114D01*
X64351886Y-121825257D01*
X64280457Y-121539543D01*
X64280457Y-121182400D01*
X64351886Y-120896686D01*
X64423314Y-120753829D01*
X64494743Y-120682400D01*
X64637600Y-120610971D01*
X65566171Y-120610971D02*
X66066171Y-122110971D01*
X66566171Y-120610971D01*
X68137599Y-121682400D02*
X68851885Y-121682400D01*
X67994742Y-122110971D02*
X68494742Y-120610971D01*
X68994742Y-122110971D01*
X70351885Y-121968114D02*
X70280456Y-122039543D01*
X70066170Y-122110971D01*
X69923313Y-122110971D01*
X69709028Y-122039543D01*
X69566170Y-121896686D01*
X69494742Y-121753829D01*
X69423313Y-121468114D01*
X69423313Y-121253829D01*
X69494742Y-120968114D01*
X69566170Y-120825257D01*
X69709028Y-120682400D01*
X69923313Y-120610971D01*
X70066170Y-120610971D01*
X70280456Y-120682400D01*
X70351885Y-120753829D01*
X64351886Y-124660971D02*
X64351886Y-123160971D01*
X64351886Y-123875257D02*
X65209029Y-123875257D01*
X65209029Y-124660971D02*
X65209029Y-123160971D01*
X66137601Y-124660971D02*
X65994743Y-124589543D01*
X65923315Y-124518114D01*
X65851886Y-124375257D01*
X65851886Y-123946686D01*
X65923315Y-123803829D01*
X65994743Y-123732400D01*
X66137601Y-123660971D01*
X66351886Y-123660971D01*
X66494743Y-123732400D01*
X66566172Y-123803829D01*
X66637601Y-123946686D01*
X66637601Y-124375257D01*
X66566172Y-124518114D01*
X66494743Y-124589543D01*
X66351886Y-124660971D01*
X66137601Y-124660971D01*
X67066172Y-123660971D02*
X67637601Y-123660971D01*
X67280458Y-123160971D02*
X67280458Y-124446686D01*
X67351886Y-124589543D01*
X67494744Y-124660971D01*
X67637601Y-124660971D01*
X62432858Y-106185171D02*
X61575715Y-106185171D01*
X62004287Y-106185171D02*
X62004287Y-104685171D01*
X61861430Y-104899457D01*
X61718572Y-105042314D01*
X61575715Y-105113743D01*
X63004286Y-104828029D02*
X63075715Y-104756600D01*
X63218572Y-104685171D01*
X63575715Y-104685171D01*
X63718572Y-104756600D01*
X63790001Y-104828029D01*
X63861429Y-104970886D01*
X63861429Y-105113743D01*
X63790001Y-105328029D01*
X62932858Y-106185171D01*
X63861429Y-106185171D01*
X64790000Y-104685171D02*
X64932857Y-104685171D01*
X65075714Y-104756600D01*
X65147143Y-104828029D01*
X65218572Y-104970886D01*
X65290000Y-105256600D01*
X65290000Y-105613743D01*
X65218572Y-105899457D01*
X65147143Y-106042314D01*
X65075714Y-106113743D01*
X64932857Y-106185171D01*
X64790000Y-106185171D01*
X64647143Y-106113743D01*
X64575714Y-106042314D01*
X64504286Y-105899457D01*
X64432857Y-105613743D01*
X64432857Y-105256600D01*
X64504286Y-104970886D01*
X64575714Y-104828029D01*
X64647143Y-104756600D01*
X64790000Y-104685171D01*
X65718571Y-104685171D02*
X66218571Y-106185171D01*
X66718571Y-104685171D01*
X68289999Y-105756600D02*
X69004285Y-105756600D01*
X68147142Y-106185171D02*
X68647142Y-104685171D01*
X69147142Y-106185171D01*
X70504285Y-106042314D02*
X70432856Y-106113743D01*
X70218570Y-106185171D01*
X70075713Y-106185171D01*
X69861428Y-106113743D01*
X69718570Y-105970886D01*
X69647142Y-105828029D01*
X69575713Y-105542314D01*
X69575713Y-105328029D01*
X69647142Y-105042314D01*
X69718570Y-104899457D01*
X69861428Y-104756600D01*
X70075713Y-104685171D01*
X70218570Y-104685171D01*
X70432856Y-104756600D01*
X70504285Y-104828029D01*
X62325715Y-108735171D02*
X62325715Y-107235171D01*
X63182858Y-108735171D01*
X63182858Y-107235171D01*
X64468572Y-108663743D02*
X64325715Y-108735171D01*
X64040001Y-108735171D01*
X63897144Y-108663743D01*
X63825715Y-108520886D01*
X63825715Y-107949457D01*
X63897144Y-107806600D01*
X64040001Y-107735171D01*
X64325715Y-107735171D01*
X64468572Y-107806600D01*
X64540001Y-107949457D01*
X64540001Y-108092314D01*
X63825715Y-108235171D01*
X65825715Y-107735171D02*
X65825715Y-108735171D01*
X65182858Y-107735171D02*
X65182858Y-108520886D01*
X65254286Y-108663743D01*
X65397144Y-108735171D01*
X65611429Y-108735171D01*
X65754286Y-108663743D01*
X65825715Y-108592314D01*
X66325715Y-107735171D02*
X66897144Y-107735171D01*
X66540001Y-107235171D02*
X66540001Y-108520886D01*
X66611429Y-108663743D01*
X66754287Y-108735171D01*
X66897144Y-108735171D01*
X67397144Y-108735171D02*
X67397144Y-107735171D01*
X67397144Y-108020886D02*
X67468572Y-107878029D01*
X67540001Y-107806600D01*
X67682858Y-107735171D01*
X67825715Y-107735171D01*
X68968572Y-108735171D02*
X68968572Y-107949457D01*
X68897143Y-107806600D01*
X68754286Y-107735171D01*
X68468572Y-107735171D01*
X68325715Y-107806600D01*
X68968572Y-108663743D02*
X68825715Y-108735171D01*
X68468572Y-108735171D01*
X68325715Y-108663743D01*
X68254286Y-108520886D01*
X68254286Y-108378029D01*
X68325715Y-108235171D01*
X68468572Y-108163743D01*
X68825715Y-108163743D01*
X68968572Y-108092314D01*
X69897144Y-108735171D02*
X69754286Y-108663743D01*
X69682858Y-108520886D01*
X69682858Y-107235171D01*
D12*
X105575400Y-79385200D02*
X105575400Y-79785200D01*
X105575400Y-79785200D02*
X104175400Y-79785200D01*
X105575400Y-79385200D02*
X110375400Y-79385200D01*
X105575400Y-82585200D02*
X110375400Y-82585200D01*
X109969600Y-91628000D02*
X109969600Y-92028000D01*
X109969600Y-92028000D02*
X108569600Y-92028000D01*
X109969600Y-91628000D02*
X114769600Y-91628000D01*
X109969600Y-94828000D02*
X114769600Y-94828000D01*
X117480000Y-110598000D02*
X117480000Y-109338000D01*
X117480000Y-103778000D02*
X117480000Y-105038000D01*
X113720000Y-110598000D02*
X117480000Y-110598000D01*
X111470000Y-103778000D02*
X117480000Y-103778000D01*
D13*
X76825600Y-77928000D02*
X92825600Y-77928000D01*
X92825600Y-77928000D02*
X92825600Y-83328000D01*
X76825600Y-77928000D02*
X76825600Y-83328000D01*
X76825600Y-99128000D02*
X76825600Y-99928000D01*
X76825600Y-99928000D02*
X92825600Y-99928000D01*
X92825600Y-99928000D02*
X92825600Y-99128000D01*
X92825600Y-77928000D02*
X76825600Y-81728000D01*
X76825600Y-77928000D02*
X92825600Y-81728000D01*
X76817600Y-81728000D02*
X92817600Y-81728000D01*
D12*
X117281200Y-111476600D02*
X115281200Y-111476600D01*
X115281200Y-113516600D02*
X117281200Y-113516600D01*
X105908600Y-101350000D02*
X107908600Y-101350000D01*
X107908600Y-99310000D02*
X105908600Y-99310000D01*
X72986000Y-99077400D02*
X72986000Y-98077400D01*
X71286000Y-98077400D02*
X71286000Y-99077400D01*
D14*
X61025600Y-114768000D02*
X60525600Y-114768000D01*
X67025600Y-117268000D02*
G75*
G03X67025600Y-117268000I-2000000J0D01*
G01*
X67025600Y-112268000D02*
G75*
G03X67025600Y-112268000I-2000000J0D01*
G01*
X62525600Y-109768000D02*
X62525600Y-119768000D01*
X67425600Y-109768000D02*
X67425600Y-119768000D01*
X61025600Y-109768000D02*
X61025600Y-119768000D01*
X60525600Y-109768000D02*
X60525600Y-119768000D01*
X60525600Y-119768000D02*
X70325600Y-119768000D01*
X70325600Y-119768000D02*
X70325600Y-109768000D01*
X70325600Y-109768000D02*
X60525600Y-109768000D01*
D12*
X66455600Y-98298000D02*
X66455600Y-85538000D01*
X66455600Y-85538000D02*
X63795600Y-85538000D01*
X63795600Y-85538000D02*
X63795600Y-98298000D01*
X63795600Y-98298000D02*
X66455600Y-98298000D01*
X66455600Y-99568000D02*
X66455600Y-100898000D01*
X66455600Y-100898000D02*
X65125600Y-100898000D01*
D14*
X147965600Y-91988000D02*
X148465600Y-91988000D01*
X145965600Y-89488000D02*
G75*
G03X145965600Y-89488000I-2000000J0D01*
G01*
X145965600Y-94488000D02*
G75*
G03X145965600Y-94488000I-2000000J0D01*
G01*
X146465600Y-96988000D02*
X146465600Y-86988000D01*
X141565600Y-96988000D02*
X141565600Y-86988000D01*
X147965600Y-96988000D02*
X147965600Y-86988000D01*
X148465600Y-96988000D02*
X148465600Y-86988000D01*
X148465600Y-86988000D02*
X138665600Y-86988000D01*
X138665600Y-86988000D02*
X138665600Y-96988000D01*
X138665600Y-96988000D02*
X148465600Y-96988000D01*
X147965600Y-112308000D02*
X148465600Y-112308000D01*
X145965600Y-109808000D02*
G75*
G03X145965600Y-109808000I-2000000J0D01*
G01*
X145965600Y-114808000D02*
G75*
G03X145965600Y-114808000I-2000000J0D01*
G01*
X146465600Y-117308000D02*
X146465600Y-107308000D01*
X141565600Y-117308000D02*
X141565600Y-107308000D01*
X147965600Y-117308000D02*
X147965600Y-107308000D01*
X148465600Y-117308000D02*
X148465600Y-107308000D01*
X148465600Y-107308000D02*
X138665600Y-107308000D01*
X138665600Y-107308000D02*
X138665600Y-117308000D01*
X138665600Y-117308000D02*
X148465600Y-117308000D01*
D12*
X73726600Y-95368000D02*
X72526600Y-95368000D01*
X72526600Y-93608000D02*
X73726600Y-93608000D01*
X67801600Y-95977000D02*
X67801600Y-94777000D01*
X69561600Y-94777000D02*
X69561600Y-95977000D01*
X95182800Y-97856600D02*
X95182800Y-96656600D01*
X96942800Y-96656600D02*
X96942800Y-97856600D01*
X96682000Y-91372800D02*
X97882000Y-91372800D01*
X97882000Y-93132800D02*
X96682000Y-93132800D01*
X99152600Y-83855000D02*
X99152600Y-85055000D01*
X97392600Y-85055000D02*
X97392600Y-83855000D01*
X104181800Y-91068600D02*
X104181800Y-92268600D01*
X102421800Y-92268600D02*
X102421800Y-91068600D01*
X101609600Y-84845000D02*
X102809600Y-84845000D01*
X102809600Y-86605000D02*
X101609600Y-86605000D01*
X103641600Y-93658800D02*
X104841600Y-93658800D01*
X104841600Y-95418800D02*
X103641600Y-95418800D01*
X115325600Y-83067000D02*
X116525600Y-83067000D01*
X116525600Y-84827000D02*
X115325600Y-84827000D01*
X135264600Y-115325000D02*
X136464600Y-115325000D01*
X136464600Y-117085000D02*
X135264600Y-117085000D01*
X128879600Y-81534000D02*
X127479600Y-78744000D01*
X131419600Y-78994000D02*
X130149600Y-78994000D01*
X131419600Y-86614000D02*
X128879600Y-86614000D01*
X128879600Y-86614000D02*
X128879600Y-81534000D01*
X129639600Y-94744000D02*
X128629600Y-93724000D01*
X125069600Y-94234000D02*
X125069600Y-95504000D01*
X127859600Y-94234000D02*
X125069600Y-94234000D01*
X132689600Y-94234000D02*
X130399600Y-94234000D01*
X132689600Y-95504000D02*
X132689600Y-94234000D01*
X130399600Y-94234000D02*
X130399600Y-94744000D01*
X130399600Y-94744000D02*
X127859600Y-94744000D01*
X127859600Y-94744000D02*
X127859600Y-94234000D01*
X127859600Y-94234000D02*
X127859600Y-93724000D01*
X127859600Y-93724000D02*
X130399600Y-93724000D01*
X130399600Y-93724000D02*
X130399600Y-94234000D01*
X134379600Y-98454000D02*
X134379600Y-77314000D01*
X134379600Y-77314000D02*
X123379600Y-77314000D01*
X134379600Y-98454000D02*
X123379600Y-98454000D01*
X123379600Y-98454000D02*
X123379600Y-77314000D01*
X129009600Y-81534000D02*
G75*
G03X129009600Y-81534000I-130000J0D01*
G01*
X127355600Y-105918000D02*
X125955600Y-103128000D01*
X129895600Y-103378000D02*
X128625600Y-103378000D01*
X129895600Y-110998000D02*
X127355600Y-110998000D01*
X127355600Y-110998000D02*
X127355600Y-105918000D01*
X128115600Y-119128000D02*
X127105600Y-118108000D01*
X123545600Y-118618000D02*
X123545600Y-119888000D01*
X126335600Y-118618000D02*
X123545600Y-118618000D01*
X131165600Y-118618000D02*
X128875600Y-118618000D01*
X131165600Y-119888000D02*
X131165600Y-118618000D01*
X128875600Y-118618000D02*
X128875600Y-119128000D01*
X128875600Y-119128000D02*
X126335600Y-119128000D01*
X126335600Y-119128000D02*
X126335600Y-118618000D01*
X126335600Y-118618000D02*
X126335600Y-118108000D01*
X126335600Y-118108000D02*
X128875600Y-118108000D01*
X128875600Y-118108000D02*
X128875600Y-118618000D01*
X132855600Y-122838000D02*
X132855600Y-101698000D01*
X132855600Y-101698000D02*
X121855600Y-101698000D01*
X132855600Y-122838000D02*
X121855600Y-122838000D01*
X121855600Y-122838000D02*
X121855600Y-101698000D01*
X127485600Y-105918000D02*
G75*
G03X127485600Y-105918000I-130000J0D01*
G01*
X74475600Y-126388000D02*
X74475600Y-103188000D01*
X109175600Y-103188000D02*
X109175600Y-126388000D01*
X74475600Y-103188000D02*
X109175600Y-103188000D01*
X74475600Y-126388000D02*
X109175600Y-126388000D01*
X131256600Y-100949000D02*
X131256600Y-98949000D01*
X131256600Y-98949000D02*
X127356600Y-98949000D01*
X131256600Y-100949000D02*
X127356600Y-100949000D01*
X129732600Y-125714000D02*
X129732600Y-123714000D01*
X129732600Y-123714000D02*
X125832600Y-123714000D01*
X129732600Y-125714000D02*
X125832600Y-125714000D01*
X121410000Y-82479000D02*
X121410000Y-81549000D01*
X121410000Y-79319000D02*
X121410000Y-80249000D01*
X121410000Y-79319000D02*
X119250000Y-79319000D01*
X121410000Y-82479000D02*
X119950000Y-82479000D01*
X134538600Y-121029000D02*
X135468600Y-121029000D01*
X137698600Y-121029000D02*
X136768600Y-121029000D01*
X137698600Y-121029000D02*
X137698600Y-118869000D01*
X134538600Y-121029000D02*
X134538600Y-119569000D01*
D14*
X107213495Y-78027581D02*
X107213495Y-78837105D01*
X107261114Y-78932343D01*
X107308733Y-78979962D01*
X107403971Y-79027581D01*
X107594448Y-79027581D01*
X107689686Y-78979962D01*
X107737305Y-78932343D01*
X107784924Y-78837105D01*
X107784924Y-78027581D01*
X108689686Y-78360914D02*
X108689686Y-79027581D01*
X108451590Y-77979962D02*
X108213495Y-78694248D01*
X108832543Y-78694248D01*
X111607695Y-90270381D02*
X111607695Y-91079905D01*
X111655314Y-91175143D01*
X111702933Y-91222762D01*
X111798171Y-91270381D01*
X111988648Y-91270381D01*
X112083886Y-91222762D01*
X112131505Y-91175143D01*
X112179124Y-91079905D01*
X112179124Y-90270381D01*
X113131505Y-90270381D02*
X112655314Y-90270381D01*
X112607695Y-90746571D01*
X112655314Y-90698952D01*
X112750552Y-90651333D01*
X112988648Y-90651333D01*
X113083886Y-90698952D01*
X113131505Y-90746571D01*
X113179124Y-90841810D01*
X113179124Y-91079905D01*
X113131505Y-91175143D01*
X113083886Y-91222762D01*
X112988648Y-91270381D01*
X112750552Y-91270381D01*
X112655314Y-91222762D01*
X112607695Y-91175143D01*
X116535295Y-102296981D02*
X116535295Y-103106505D01*
X116582914Y-103201743D01*
X116630533Y-103249362D01*
X116725771Y-103296981D01*
X116916248Y-103296981D01*
X117011486Y-103249362D01*
X117059105Y-103201743D01*
X117106724Y-103106505D01*
X117106724Y-102296981D01*
X117535295Y-102392219D02*
X117582914Y-102344600D01*
X117678152Y-102296981D01*
X117916248Y-102296981D01*
X118011486Y-102344600D01*
X118059105Y-102392219D01*
X118106724Y-102487457D01*
X118106724Y-102582695D01*
X118059105Y-102725552D01*
X117487676Y-103296981D01*
X118106724Y-103296981D01*
X74498295Y-79208381D02*
X74498295Y-80017905D01*
X74545914Y-80113143D01*
X74593533Y-80160762D01*
X74688771Y-80208381D01*
X74879248Y-80208381D01*
X74974486Y-80160762D01*
X75022105Y-80113143D01*
X75069724Y-80017905D01*
X75069724Y-79208381D01*
X75450676Y-79208381D02*
X76069724Y-79208381D01*
X75736390Y-79589333D01*
X75879248Y-79589333D01*
X75974486Y-79636952D01*
X76022105Y-79684571D01*
X76069724Y-79779810D01*
X76069724Y-80017905D01*
X76022105Y-80113143D01*
X75974486Y-80160762D01*
X75879248Y-80208381D01*
X75593533Y-80208381D01*
X75498295Y-80160762D01*
X75450676Y-80113143D01*
X81003314Y-79380381D02*
X81003314Y-78380381D01*
X81574743Y-79380381D01*
X81574743Y-78380381D01*
X82193790Y-79380381D02*
X82098552Y-79332762D01*
X82050933Y-79285143D01*
X82003314Y-79189905D01*
X82003314Y-78904190D01*
X82050933Y-78808952D01*
X82098552Y-78761333D01*
X82193790Y-78713714D01*
X82336648Y-78713714D01*
X82431886Y-78761333D01*
X82479505Y-78808952D01*
X82527124Y-78904190D01*
X82527124Y-79189905D01*
X82479505Y-79285143D01*
X82431886Y-79332762D01*
X82336648Y-79380381D01*
X82193790Y-79380381D01*
X84289029Y-79285143D02*
X84241410Y-79332762D01*
X84098553Y-79380381D01*
X84003315Y-79380381D01*
X83860457Y-79332762D01*
X83765219Y-79237524D01*
X83717600Y-79142286D01*
X83669981Y-78951810D01*
X83669981Y-78808952D01*
X83717600Y-78618476D01*
X83765219Y-78523238D01*
X83860457Y-78428000D01*
X84003315Y-78380381D01*
X84098553Y-78380381D01*
X84241410Y-78428000D01*
X84289029Y-78475619D01*
X84860457Y-79380381D02*
X84765219Y-79332762D01*
X84717600Y-79285143D01*
X84669981Y-79189905D01*
X84669981Y-78904190D01*
X84717600Y-78808952D01*
X84765219Y-78761333D01*
X84860457Y-78713714D01*
X85003315Y-78713714D01*
X85098553Y-78761333D01*
X85146172Y-78808952D01*
X85193791Y-78904190D01*
X85193791Y-79189905D01*
X85146172Y-79285143D01*
X85098553Y-79332762D01*
X85003315Y-79380381D01*
X84860457Y-79380381D01*
X85622362Y-78713714D02*
X85622362Y-79713714D01*
X85622362Y-78761333D02*
X85717600Y-78713714D01*
X85908077Y-78713714D01*
X86003315Y-78761333D01*
X86050934Y-78808952D01*
X86098553Y-78904190D01*
X86098553Y-79189905D01*
X86050934Y-79285143D01*
X86003315Y-79332762D01*
X85908077Y-79380381D01*
X85717600Y-79380381D01*
X85622362Y-79332762D01*
X86527124Y-78713714D02*
X86527124Y-79713714D01*
X86527124Y-78761333D02*
X86622362Y-78713714D01*
X86812839Y-78713714D01*
X86908077Y-78761333D01*
X86955696Y-78808952D01*
X87003315Y-78904190D01*
X87003315Y-79189905D01*
X86955696Y-79285143D01*
X86908077Y-79332762D01*
X86812839Y-79380381D01*
X86622362Y-79380381D01*
X86527124Y-79332762D01*
X87812839Y-79332762D02*
X87717601Y-79380381D01*
X87527124Y-79380381D01*
X87431886Y-79332762D01*
X87384267Y-79237524D01*
X87384267Y-78856571D01*
X87431886Y-78761333D01*
X87527124Y-78713714D01*
X87717601Y-78713714D01*
X87812839Y-78761333D01*
X87860458Y-78856571D01*
X87860458Y-78951810D01*
X87384267Y-79047048D01*
X88289029Y-79380381D02*
X88289029Y-78713714D01*
X88289029Y-78904190D02*
X88336648Y-78808952D01*
X88384267Y-78761333D01*
X88479505Y-78713714D01*
X88574744Y-78713714D01*
X115962134Y-115088943D02*
X115914515Y-115136562D01*
X115771658Y-115184181D01*
X115676420Y-115184181D01*
X115533562Y-115136562D01*
X115438324Y-115041324D01*
X115390705Y-114946086D01*
X115343086Y-114755610D01*
X115343086Y-114612752D01*
X115390705Y-114422276D01*
X115438324Y-114327038D01*
X115533562Y-114231800D01*
X115676420Y-114184181D01*
X115771658Y-114184181D01*
X115914515Y-114231800D01*
X115962134Y-114279419D01*
X116914515Y-115184181D02*
X116343086Y-115184181D01*
X116628800Y-115184181D02*
X116628800Y-114184181D01*
X116533562Y-114327038D01*
X116438324Y-114422276D01*
X116343086Y-114469895D01*
X106741934Y-102437143D02*
X106694315Y-102484762D01*
X106551458Y-102532381D01*
X106456220Y-102532381D01*
X106313362Y-102484762D01*
X106218124Y-102389524D01*
X106170505Y-102294286D01*
X106122886Y-102103810D01*
X106122886Y-101960952D01*
X106170505Y-101770476D01*
X106218124Y-101675238D01*
X106313362Y-101580000D01*
X106456220Y-101532381D01*
X106551458Y-101532381D01*
X106694315Y-101580000D01*
X106741934Y-101627619D01*
X107122886Y-101627619D02*
X107170505Y-101580000D01*
X107265743Y-101532381D01*
X107503839Y-101532381D01*
X107599077Y-101580000D01*
X107646696Y-101627619D01*
X107694315Y-101722857D01*
X107694315Y-101818095D01*
X107646696Y-101960952D01*
X107075267Y-102532381D01*
X107694315Y-102532381D01*
X71918534Y-101677743D02*
X71870915Y-101725362D01*
X71728058Y-101772981D01*
X71632820Y-101772981D01*
X71489962Y-101725362D01*
X71394724Y-101630124D01*
X71347105Y-101534886D01*
X71299486Y-101344410D01*
X71299486Y-101201552D01*
X71347105Y-101011076D01*
X71394724Y-100915838D01*
X71489962Y-100820600D01*
X71632820Y-100772981D01*
X71728058Y-100772981D01*
X71870915Y-100820600D01*
X71918534Y-100868219D01*
X72251867Y-100772981D02*
X72870915Y-100772981D01*
X72537581Y-101153933D01*
X72680439Y-101153933D01*
X72775677Y-101201552D01*
X72823296Y-101249171D01*
X72870915Y-101344410D01*
X72870915Y-101582505D01*
X72823296Y-101677743D01*
X72775677Y-101725362D01*
X72680439Y-101772981D01*
X72394724Y-101772981D01*
X72299486Y-101725362D01*
X72251867Y-101677743D01*
X71193067Y-114514381D02*
X71193067Y-115228667D01*
X71145447Y-115371524D01*
X71050209Y-115466762D01*
X70907352Y-115514381D01*
X70812114Y-115514381D01*
X72193067Y-115514381D02*
X71621638Y-115514381D01*
X71907352Y-115514381D02*
X71907352Y-114514381D01*
X71812114Y-114657238D01*
X71716876Y-114752476D01*
X71621638Y-114800095D01*
X64792267Y-101350381D02*
X64792267Y-102064667D01*
X64744647Y-102207524D01*
X64649409Y-102302762D01*
X64506552Y-102350381D01*
X64411314Y-102350381D01*
X65220838Y-101445619D02*
X65268457Y-101398000D01*
X65363695Y-101350381D01*
X65601791Y-101350381D01*
X65697029Y-101398000D01*
X65744648Y-101445619D01*
X65792267Y-101540857D01*
X65792267Y-101636095D01*
X65744648Y-101778952D01*
X65173219Y-102350381D01*
X65792267Y-102350381D01*
X143278267Y-97750381D02*
X143278267Y-98464667D01*
X143230647Y-98607524D01*
X143135409Y-98702762D01*
X142992552Y-98750381D01*
X142897314Y-98750381D01*
X143659219Y-97750381D02*
X144278267Y-97750381D01*
X143944933Y-98131333D01*
X144087791Y-98131333D01*
X144183029Y-98178952D01*
X144230648Y-98226571D01*
X144278267Y-98321810D01*
X144278267Y-98559905D01*
X144230648Y-98655143D01*
X144183029Y-98702762D01*
X144087791Y-98750381D01*
X143802076Y-98750381D01*
X143706838Y-98702762D01*
X143659219Y-98655143D01*
X143786267Y-118070381D02*
X143786267Y-118784667D01*
X143738647Y-118927524D01*
X143643409Y-119022762D01*
X143500552Y-119070381D01*
X143405314Y-119070381D01*
X144691029Y-118403714D02*
X144691029Y-119070381D01*
X144452933Y-118022762D02*
X144214838Y-118737048D01*
X144833886Y-118737048D01*
X72502734Y-92984581D02*
X72169400Y-92508390D01*
X71931305Y-92984581D02*
X71931305Y-91984581D01*
X72312258Y-91984581D01*
X72407496Y-92032200D01*
X72455115Y-92079819D01*
X72502734Y-92175057D01*
X72502734Y-92317914D01*
X72455115Y-92413152D01*
X72407496Y-92460771D01*
X72312258Y-92508390D01*
X71931305Y-92508390D01*
X73455115Y-92984581D02*
X72883686Y-92984581D01*
X73169400Y-92984581D02*
X73169400Y-91984581D01*
X73074162Y-92127438D01*
X72978924Y-92222676D01*
X72883686Y-92270295D01*
X68514934Y-93543381D02*
X68181600Y-93067190D01*
X67943505Y-93543381D02*
X67943505Y-92543381D01*
X68324458Y-92543381D01*
X68419696Y-92591000D01*
X68467315Y-92638619D01*
X68514934Y-92733857D01*
X68514934Y-92876714D01*
X68467315Y-92971952D01*
X68419696Y-93019571D01*
X68324458Y-93067190D01*
X67943505Y-93067190D01*
X68895886Y-92638619D02*
X68943505Y-92591000D01*
X69038743Y-92543381D01*
X69276839Y-92543381D01*
X69372077Y-92591000D01*
X69419696Y-92638619D01*
X69467315Y-92733857D01*
X69467315Y-92829095D01*
X69419696Y-92971952D01*
X68848267Y-93543381D01*
X69467315Y-93543381D01*
X98004334Y-97708981D02*
X97671000Y-97232790D01*
X97432905Y-97708981D02*
X97432905Y-96708981D01*
X97813858Y-96708981D01*
X97909096Y-96756600D01*
X97956715Y-96804219D01*
X98004334Y-96899457D01*
X98004334Y-97042314D01*
X97956715Y-97137552D01*
X97909096Y-97185171D01*
X97813858Y-97232790D01*
X97432905Y-97232790D01*
X98337667Y-96708981D02*
X98956715Y-96708981D01*
X98623381Y-97089933D01*
X98766239Y-97089933D01*
X98861477Y-97137552D01*
X98909096Y-97185171D01*
X98956715Y-97280410D01*
X98956715Y-97518505D01*
X98909096Y-97613743D01*
X98861477Y-97661362D01*
X98766239Y-97708981D01*
X98480524Y-97708981D01*
X98385286Y-97661362D01*
X98337667Y-97613743D01*
X97115334Y-94355181D02*
X96782000Y-93878990D01*
X96543905Y-94355181D02*
X96543905Y-93355181D01*
X96924858Y-93355181D01*
X97020096Y-93402800D01*
X97067715Y-93450419D01*
X97115334Y-93545657D01*
X97115334Y-93688514D01*
X97067715Y-93783752D01*
X97020096Y-93831371D01*
X96924858Y-93878990D01*
X96543905Y-93878990D01*
X97972477Y-93688514D02*
X97972477Y-94355181D01*
X97734381Y-93307562D02*
X97496286Y-94021848D01*
X98115334Y-94021848D01*
X98156734Y-82824581D02*
X97823400Y-82348390D01*
X97585305Y-82824581D02*
X97585305Y-81824581D01*
X97966258Y-81824581D01*
X98061496Y-81872200D01*
X98109115Y-81919819D01*
X98156734Y-82015057D01*
X98156734Y-82157914D01*
X98109115Y-82253152D01*
X98061496Y-82300771D01*
X97966258Y-82348390D01*
X97585305Y-82348390D01*
X99061496Y-81824581D02*
X98585305Y-81824581D01*
X98537686Y-82300771D01*
X98585305Y-82253152D01*
X98680543Y-82205533D01*
X98918639Y-82205533D01*
X99013877Y-82253152D01*
X99061496Y-82300771D01*
X99109115Y-82396010D01*
X99109115Y-82634105D01*
X99061496Y-82729343D01*
X99013877Y-82776962D01*
X98918639Y-82824581D01*
X98680543Y-82824581D01*
X98585305Y-82776962D01*
X98537686Y-82729343D01*
X103160534Y-90088981D02*
X102827200Y-89612790D01*
X102589105Y-90088981D02*
X102589105Y-89088981D01*
X102970058Y-89088981D01*
X103065296Y-89136600D01*
X103112915Y-89184219D01*
X103160534Y-89279457D01*
X103160534Y-89422314D01*
X103112915Y-89517552D01*
X103065296Y-89565171D01*
X102970058Y-89612790D01*
X102589105Y-89612790D01*
X104017677Y-89088981D02*
X103827200Y-89088981D01*
X103731962Y-89136600D01*
X103684343Y-89184219D01*
X103589105Y-89327076D01*
X103541486Y-89517552D01*
X103541486Y-89898505D01*
X103589105Y-89993743D01*
X103636724Y-90041362D01*
X103731962Y-90088981D01*
X103922439Y-90088981D01*
X104017677Y-90041362D01*
X104065296Y-89993743D01*
X104112915Y-89898505D01*
X104112915Y-89660410D01*
X104065296Y-89565171D01*
X104017677Y-89517552D01*
X103922439Y-89469933D01*
X103731962Y-89469933D01*
X103636724Y-89517552D01*
X103589105Y-89565171D01*
X103541486Y-89660410D01*
X102017534Y-88056981D02*
X101684200Y-87580790D01*
X101446105Y-88056981D02*
X101446105Y-87056981D01*
X101827058Y-87056981D01*
X101922296Y-87104600D01*
X101969915Y-87152219D01*
X102017534Y-87247457D01*
X102017534Y-87390314D01*
X101969915Y-87485552D01*
X101922296Y-87533171D01*
X101827058Y-87580790D01*
X101446105Y-87580790D01*
X102350867Y-87056981D02*
X103017534Y-87056981D01*
X102588962Y-88056981D01*
X101433334Y-94965781D02*
X101100000Y-94489590D01*
X100861905Y-94965781D02*
X100861905Y-93965781D01*
X101242858Y-93965781D01*
X101338096Y-94013400D01*
X101385715Y-94061019D01*
X101433334Y-94156257D01*
X101433334Y-94299114D01*
X101385715Y-94394352D01*
X101338096Y-94441971D01*
X101242858Y-94489590D01*
X100861905Y-94489590D01*
X102004762Y-94394352D02*
X101909524Y-94346733D01*
X101861905Y-94299114D01*
X101814286Y-94203876D01*
X101814286Y-94156257D01*
X101861905Y-94061019D01*
X101909524Y-94013400D01*
X102004762Y-93965781D01*
X102195239Y-93965781D01*
X102290477Y-94013400D01*
X102338096Y-94061019D01*
X102385715Y-94156257D01*
X102385715Y-94203876D01*
X102338096Y-94299114D01*
X102290477Y-94346733D01*
X102195239Y-94394352D01*
X102004762Y-94394352D01*
X101909524Y-94441971D01*
X101861905Y-94489590D01*
X101814286Y-94584829D01*
X101814286Y-94775305D01*
X101861905Y-94870543D01*
X101909524Y-94918162D01*
X102004762Y-94965781D01*
X102195239Y-94965781D01*
X102290477Y-94918162D01*
X102338096Y-94870543D01*
X102385715Y-94775305D01*
X102385715Y-94584829D01*
X102338096Y-94489590D01*
X102290477Y-94441971D01*
X102195239Y-94394352D01*
X115758934Y-86049381D02*
X115425600Y-85573190D01*
X115187505Y-86049381D02*
X115187505Y-85049381D01*
X115568458Y-85049381D01*
X115663696Y-85097000D01*
X115711315Y-85144619D01*
X115758934Y-85239857D01*
X115758934Y-85382714D01*
X115711315Y-85477952D01*
X115663696Y-85525571D01*
X115568458Y-85573190D01*
X115187505Y-85573190D01*
X116235124Y-86049381D02*
X116425600Y-86049381D01*
X116520839Y-86001762D01*
X116568458Y-85954143D01*
X116663696Y-85811286D01*
X116711315Y-85620810D01*
X116711315Y-85239857D01*
X116663696Y-85144619D01*
X116616077Y-85097000D01*
X116520839Y-85049381D01*
X116330362Y-85049381D01*
X116235124Y-85097000D01*
X116187505Y-85144619D01*
X116139886Y-85239857D01*
X116139886Y-85477952D01*
X116187505Y-85573190D01*
X116235124Y-85620810D01*
X116330362Y-85668429D01*
X116520839Y-85668429D01*
X116616077Y-85620810D01*
X116663696Y-85573190D01*
X116711315Y-85477952D01*
X135120143Y-114752381D02*
X134786809Y-114276190D01*
X134548714Y-114752381D02*
X134548714Y-113752381D01*
X134929667Y-113752381D01*
X135024905Y-113800000D01*
X135072524Y-113847619D01*
X135120143Y-113942857D01*
X135120143Y-114085714D01*
X135072524Y-114180952D01*
X135024905Y-114228571D01*
X134929667Y-114276190D01*
X134548714Y-114276190D01*
X136072524Y-114752381D02*
X135501095Y-114752381D01*
X135786809Y-114752381D02*
X135786809Y-113752381D01*
X135691571Y-113895238D01*
X135596333Y-113990476D01*
X135501095Y-114038095D01*
X136691571Y-113752381D02*
X136786810Y-113752381D01*
X136882048Y-113800000D01*
X136929667Y-113847619D01*
X136977286Y-113942857D01*
X137024905Y-114133333D01*
X137024905Y-114371429D01*
X136977286Y-114561905D01*
X136929667Y-114657143D01*
X136882048Y-114704762D01*
X136786810Y-114752381D01*
X136691571Y-114752381D01*
X136596333Y-114704762D01*
X136548714Y-114657143D01*
X136501095Y-114561905D01*
X136453476Y-114371429D01*
X136453476Y-114133333D01*
X136501095Y-113942857D01*
X136548714Y-113847619D01*
X136596333Y-113800000D01*
X136691571Y-113752381D01*
X135834381Y-90741428D02*
X135358190Y-91074762D01*
X135834381Y-91312857D02*
X134834381Y-91312857D01*
X134834381Y-90931904D01*
X134882000Y-90836666D01*
X134929619Y-90789047D01*
X135024857Y-90741428D01*
X135167714Y-90741428D01*
X135262952Y-90789047D01*
X135310571Y-90836666D01*
X135358190Y-90931904D01*
X135358190Y-91312857D01*
X135834381Y-89836666D02*
X135834381Y-90312857D01*
X134834381Y-90312857D01*
X135834381Y-88979523D02*
X135834381Y-89550952D01*
X135834381Y-89265238D02*
X134834381Y-89265238D01*
X134977238Y-89360476D01*
X135072476Y-89455714D01*
X135120095Y-89550952D01*
X134335781Y-108648428D02*
X133859590Y-108981762D01*
X134335781Y-109219857D02*
X133335781Y-109219857D01*
X133335781Y-108838904D01*
X133383400Y-108743666D01*
X133431019Y-108696047D01*
X133526257Y-108648428D01*
X133669114Y-108648428D01*
X133764352Y-108696047D01*
X133811971Y-108743666D01*
X133859590Y-108838904D01*
X133859590Y-109219857D01*
X134335781Y-107743666D02*
X134335781Y-108219857D01*
X133335781Y-108219857D01*
X133431019Y-107457952D02*
X133383400Y-107410333D01*
X133335781Y-107315095D01*
X133335781Y-107076999D01*
X133383400Y-106981761D01*
X133431019Y-106934142D01*
X133526257Y-106886523D01*
X133621495Y-106886523D01*
X133764352Y-106934142D01*
X134335781Y-107505571D01*
X134335781Y-106886523D01*
X72390095Y-123886981D02*
X72390095Y-124696505D01*
X72437714Y-124791743D01*
X72485333Y-124839362D01*
X72580571Y-124886981D01*
X72771048Y-124886981D01*
X72866286Y-124839362D01*
X72913905Y-124791743D01*
X72961524Y-124696505D01*
X72961524Y-123886981D01*
X73961524Y-124886981D02*
X73390095Y-124886981D01*
X73675809Y-124886981D02*
X73675809Y-123886981D01*
X73580571Y-124029838D01*
X73485333Y-124125076D01*
X73390095Y-124172695D01*
X131849905Y-100502981D02*
X131849905Y-99502981D01*
X132088000Y-99502981D01*
X132230858Y-99550600D01*
X132326096Y-99645838D01*
X132373715Y-99741076D01*
X132421334Y-99931552D01*
X132421334Y-100074410D01*
X132373715Y-100264886D01*
X132326096Y-100360124D01*
X132230858Y-100455362D01*
X132088000Y-100502981D01*
X131849905Y-100502981D01*
X133373715Y-100502981D02*
X132802286Y-100502981D01*
X133088000Y-100502981D02*
X133088000Y-99502981D01*
X132992762Y-99645838D01*
X132897524Y-99741076D01*
X132802286Y-99788695D01*
X130300505Y-125217181D02*
X130300505Y-124217181D01*
X130538600Y-124217181D01*
X130681458Y-124264800D01*
X130776696Y-124360038D01*
X130824315Y-124455276D01*
X130871934Y-124645752D01*
X130871934Y-124788610D01*
X130824315Y-124979086D01*
X130776696Y-125074324D01*
X130681458Y-125169562D01*
X130538600Y-125217181D01*
X130300505Y-125217181D01*
X131252886Y-124312419D02*
X131300505Y-124264800D01*
X131395743Y-124217181D01*
X131633839Y-124217181D01*
X131729077Y-124264800D01*
X131776696Y-124312419D01*
X131824315Y-124407657D01*
X131824315Y-124502895D01*
X131776696Y-124645752D01*
X131205267Y-125217181D01*
X131824315Y-125217181D01*
X120554762Y-78946619D02*
X120459524Y-78899000D01*
X120364286Y-78803762D01*
X120221429Y-78660905D01*
X120126190Y-78613286D01*
X120030952Y-78613286D01*
X120078571Y-78851381D02*
X119983333Y-78803762D01*
X119888095Y-78708524D01*
X119840476Y-78518048D01*
X119840476Y-78184714D01*
X119888095Y-77994238D01*
X119983333Y-77899000D01*
X120078571Y-77851381D01*
X120269048Y-77851381D01*
X120364286Y-77899000D01*
X120459524Y-77994238D01*
X120507143Y-78184714D01*
X120507143Y-78518048D01*
X120459524Y-78708524D01*
X120364286Y-78803762D01*
X120269048Y-78851381D01*
X120078571Y-78851381D01*
X121459524Y-78851381D02*
X120888095Y-78851381D01*
X121173809Y-78851381D02*
X121173809Y-77851381D01*
X121078571Y-77994238D01*
X120983333Y-78089476D01*
X120888095Y-78137095D01*
X139166219Y-120364238D02*
X139118600Y-120459476D01*
X139023362Y-120554714D01*
X138880505Y-120697571D01*
X138832886Y-120792810D01*
X138832886Y-120888048D01*
X139070981Y-120840429D02*
X139023362Y-120935667D01*
X138928124Y-121030905D01*
X138737648Y-121078524D01*
X138404314Y-121078524D01*
X138213838Y-121030905D01*
X138118600Y-120935667D01*
X138070981Y-120840429D01*
X138070981Y-120649952D01*
X138118600Y-120554714D01*
X138213838Y-120459476D01*
X138404314Y-120411857D01*
X138737648Y-120411857D01*
X138928124Y-120459476D01*
X139023362Y-120554714D01*
X139070981Y-120649952D01*
X139070981Y-120840429D01*
X138166219Y-120030905D02*
X138118600Y-119983286D01*
X138070981Y-119888048D01*
X138070981Y-119649952D01*
X138118600Y-119554714D01*
X138166219Y-119507095D01*
X138261457Y-119459476D01*
X138356695Y-119459476D01*
X138499552Y-119507095D01*
X139070981Y-120078524D01*
X139070981Y-119459476D01*
M02*
