G04 #@! TF.FileFunction,Copper,L2,Bot,Signal*
%FSLAX46Y46*%
G04 Gerber Fmt 4.6, Leading zero omitted, Abs format (unit mm)*
G04 Created by KiCad (PCBNEW 4.0.6) date 04/16/17 19:40:35*
%MOMM*%
%LPD*%
G01*
G04 APERTURE LIST*
%ADD10C,0.100000*%
%ADD11R,2.500000X1.100000*%
%ADD12O,2.500000X1.100000*%
%ADD13R,2.500000X2.500000*%
%ADD14C,2.500000*%
%ADD15R,1.700000X1.700000*%
%ADD16O,1.700000X1.700000*%
%ADD17C,1.520000*%
%ADD18C,2.000000*%
%ADD19C,2.290000*%
%ADD20C,0.457200*%
%ADD21C,0.152400*%
%ADD22C,0.254000*%
G04 APERTURE END LIST*
D10*
D11*
X77125600Y-84328000D03*
D12*
X77125600Y-86328000D03*
X77125600Y-88328000D03*
X77125600Y-90328000D03*
X77125600Y-92328000D03*
X77125600Y-94328000D03*
X77125600Y-96328000D03*
X77125600Y-98328000D03*
X92525600Y-98328000D03*
X92425600Y-96328000D03*
X92525600Y-94328000D03*
X92525600Y-92328000D03*
X92525600Y-90328000D03*
X92525600Y-88328000D03*
X92525600Y-86328000D03*
X92525600Y-84328000D03*
D13*
X65125600Y-112268000D03*
D14*
X65125600Y-117268000D03*
D15*
X65125600Y-99568000D03*
D16*
X65125600Y-97028000D03*
X65125600Y-94488000D03*
X65125600Y-91948000D03*
X65125600Y-89408000D03*
X65125600Y-86868000D03*
D13*
X143865600Y-94488000D03*
D14*
X143865600Y-89488000D03*
D13*
X143865600Y-114808000D03*
D14*
X143865600Y-109808000D03*
D17*
X132689600Y-96774000D03*
D18*
X132689600Y-86614000D03*
X132689600Y-78994000D03*
D17*
X125069600Y-96774000D03*
X131165600Y-121158000D03*
D18*
X131165600Y-110998000D03*
X131165600Y-103378000D03*
D17*
X123545600Y-121158000D03*
D19*
X77825600Y-107188000D03*
X77825600Y-122388000D03*
X105825600Y-107188000D03*
X105825600Y-114788000D03*
D20*
X123545600Y-121158000D02*
X123545600Y-120192800D01*
X125069600Y-118668800D02*
X125069600Y-96774000D01*
X123545600Y-120192800D02*
X125069600Y-118668800D01*
X77414600Y-97917000D02*
X77825600Y-98328000D01*
D21*
X65125600Y-89408000D02*
X70104000Y-89408000D01*
X86847200Y-89306400D02*
X91825600Y-84328000D01*
X70205600Y-89306400D02*
X86847200Y-89306400D01*
X70104000Y-89408000D02*
X70205600Y-89306400D01*
X65125600Y-91948000D02*
X70180200Y-91948000D01*
X86866000Y-91287600D02*
X91825600Y-86328000D01*
X70840600Y-91287600D02*
X86866000Y-91287600D01*
X70180200Y-91948000D02*
X70840600Y-91287600D01*
D22*
G36*
X148297900Y-126860300D02*
X60693300Y-126860300D01*
X60693300Y-122740510D01*
X76045292Y-122740510D01*
X76315710Y-123394972D01*
X76815995Y-123896130D01*
X77469983Y-124167690D01*
X78178110Y-124168308D01*
X78832572Y-123897890D01*
X79333730Y-123397605D01*
X79605290Y-122743617D01*
X79605908Y-122035490D01*
X79357488Y-121434265D01*
X122150358Y-121434265D01*
X122362287Y-121947172D01*
X122754364Y-122339934D01*
X123266900Y-122552758D01*
X123821865Y-122553242D01*
X124334772Y-122341313D01*
X124727534Y-121949236D01*
X124940358Y-121436700D01*
X124940360Y-121434265D01*
X129770358Y-121434265D01*
X129982287Y-121947172D01*
X130374364Y-122339934D01*
X130886900Y-122552758D01*
X131441865Y-122553242D01*
X131954772Y-122341313D01*
X132347534Y-121949236D01*
X132560358Y-121436700D01*
X132560842Y-120881735D01*
X132348913Y-120368828D01*
X131956836Y-119976066D01*
X131444300Y-119763242D01*
X130889335Y-119762758D01*
X130376428Y-119974687D01*
X129983666Y-120366764D01*
X129770842Y-120879300D01*
X129770358Y-121434265D01*
X124940360Y-121434265D01*
X124940842Y-120881735D01*
X124728913Y-120368828D01*
X124659960Y-120299754D01*
X125680257Y-119279458D01*
X125867461Y-118999286D01*
X125867462Y-118999285D01*
X125933200Y-118668800D01*
X125933200Y-113558000D01*
X141968160Y-113558000D01*
X141968160Y-116058000D01*
X142012438Y-116293317D01*
X142151510Y-116509441D01*
X142363710Y-116654431D01*
X142615600Y-116705440D01*
X145115600Y-116705440D01*
X145350917Y-116661162D01*
X145567041Y-116522090D01*
X145712031Y-116309890D01*
X145763040Y-116058000D01*
X145763040Y-113558000D01*
X145718762Y-113322683D01*
X145579690Y-113106559D01*
X145367490Y-112961569D01*
X145115600Y-112910560D01*
X142615600Y-112910560D01*
X142380283Y-112954838D01*
X142164159Y-113093910D01*
X142019169Y-113306110D01*
X141968160Y-113558000D01*
X125933200Y-113558000D01*
X125933200Y-111321795D01*
X129530316Y-111321795D01*
X129778706Y-111922943D01*
X130238237Y-112383278D01*
X130838952Y-112632716D01*
X131489395Y-112633284D01*
X132090543Y-112384894D01*
X132550878Y-111925363D01*
X132800316Y-111324648D01*
X132800884Y-110674205D01*
X132597222Y-110181305D01*
X141980274Y-110181305D01*
X142266643Y-110874372D01*
X142796439Y-111405093D01*
X143489005Y-111692672D01*
X144238905Y-111693326D01*
X144931972Y-111406957D01*
X145462693Y-110877161D01*
X145750272Y-110184595D01*
X145750926Y-109434695D01*
X145464557Y-108741628D01*
X144934761Y-108210907D01*
X144242195Y-107923328D01*
X143492295Y-107922674D01*
X142799228Y-108209043D01*
X142268507Y-108738839D01*
X141980928Y-109431405D01*
X141980274Y-110181305D01*
X132597222Y-110181305D01*
X132552494Y-110073057D01*
X132092963Y-109612722D01*
X131492248Y-109363284D01*
X130841805Y-109362716D01*
X130240657Y-109611106D01*
X129780322Y-110070637D01*
X129530884Y-110671352D01*
X129530316Y-111321795D01*
X125933200Y-111321795D01*
X125933200Y-103701795D01*
X129530316Y-103701795D01*
X129778706Y-104302943D01*
X130238237Y-104763278D01*
X130838952Y-105012716D01*
X131489395Y-105013284D01*
X132090543Y-104764894D01*
X132550878Y-104305363D01*
X132800316Y-103704648D01*
X132800884Y-103054205D01*
X132552494Y-102453057D01*
X132092963Y-101992722D01*
X131492248Y-101743284D01*
X130841805Y-101742716D01*
X130240657Y-101991106D01*
X129780322Y-102450637D01*
X129530884Y-103051352D01*
X129530316Y-103701795D01*
X125933200Y-103701795D01*
X125933200Y-97883015D01*
X126251534Y-97565236D01*
X126464358Y-97052700D01*
X126464360Y-97050265D01*
X131294358Y-97050265D01*
X131506287Y-97563172D01*
X131898364Y-97955934D01*
X132410900Y-98168758D01*
X132965865Y-98169242D01*
X133478772Y-97957313D01*
X133871534Y-97565236D01*
X134084358Y-97052700D01*
X134084842Y-96497735D01*
X133872913Y-95984828D01*
X133480836Y-95592066D01*
X132968300Y-95379242D01*
X132413335Y-95378758D01*
X131900428Y-95590687D01*
X131507666Y-95982764D01*
X131294842Y-96495300D01*
X131294358Y-97050265D01*
X126464360Y-97050265D01*
X126464842Y-96497735D01*
X126252913Y-95984828D01*
X125860836Y-95592066D01*
X125348300Y-95379242D01*
X124793335Y-95378758D01*
X124280428Y-95590687D01*
X123887666Y-95982764D01*
X123674842Y-96495300D01*
X123674358Y-97050265D01*
X123886287Y-97563172D01*
X124206000Y-97883444D01*
X124206000Y-118311085D01*
X122934943Y-119582143D01*
X122747738Y-119862315D01*
X122717694Y-120013353D01*
X122363666Y-120366764D01*
X122150842Y-120879300D01*
X122150358Y-121434265D01*
X79357488Y-121434265D01*
X79335490Y-121381028D01*
X78835205Y-120879870D01*
X78181217Y-120608310D01*
X77473090Y-120607692D01*
X76818628Y-120878110D01*
X76317470Y-121378395D01*
X76045910Y-122032383D01*
X76045292Y-122740510D01*
X60693300Y-122740510D01*
X60693300Y-117641305D01*
X63240274Y-117641305D01*
X63526643Y-118334372D01*
X64056439Y-118865093D01*
X64749005Y-119152672D01*
X65498905Y-119153326D01*
X66191972Y-118866957D01*
X66722693Y-118337161D01*
X67010272Y-117644595D01*
X67010926Y-116894695D01*
X66724557Y-116201628D01*
X66194761Y-115670907D01*
X65502195Y-115383328D01*
X64752295Y-115382674D01*
X64059228Y-115669043D01*
X63528507Y-116198839D01*
X63240928Y-116891405D01*
X63240274Y-117641305D01*
X60693300Y-117641305D01*
X60693300Y-115140510D01*
X104045292Y-115140510D01*
X104315710Y-115794972D01*
X104815995Y-116296130D01*
X105469983Y-116567690D01*
X106178110Y-116568308D01*
X106832572Y-116297890D01*
X107333730Y-115797605D01*
X107605290Y-115143617D01*
X107605908Y-114435490D01*
X107335490Y-113781028D01*
X106835205Y-113279870D01*
X106181217Y-113008310D01*
X105473090Y-113007692D01*
X104818628Y-113278110D01*
X104317470Y-113778395D01*
X104045910Y-114432383D01*
X104045292Y-115140510D01*
X60693300Y-115140510D01*
X60693300Y-111018000D01*
X63228160Y-111018000D01*
X63228160Y-113518000D01*
X63272438Y-113753317D01*
X63411510Y-113969441D01*
X63623710Y-114114431D01*
X63875600Y-114165440D01*
X66375600Y-114165440D01*
X66610917Y-114121162D01*
X66827041Y-113982090D01*
X66972031Y-113769890D01*
X67023040Y-113518000D01*
X67023040Y-111018000D01*
X66978762Y-110782683D01*
X66839690Y-110566559D01*
X66627490Y-110421569D01*
X66375600Y-110370560D01*
X63875600Y-110370560D01*
X63640283Y-110414838D01*
X63424159Y-110553910D01*
X63279169Y-110766110D01*
X63228160Y-111018000D01*
X60693300Y-111018000D01*
X60693300Y-107540510D01*
X76045292Y-107540510D01*
X76315710Y-108194972D01*
X76815995Y-108696130D01*
X77469983Y-108967690D01*
X78178110Y-108968308D01*
X78832572Y-108697890D01*
X79085493Y-108445409D01*
X104747796Y-108445409D01*
X104864205Y-108727312D01*
X105526456Y-108978049D01*
X106234249Y-108956267D01*
X106786995Y-108727312D01*
X106903404Y-108445409D01*
X105825600Y-107367605D01*
X104747796Y-108445409D01*
X79085493Y-108445409D01*
X79333730Y-108197605D01*
X79605290Y-107543617D01*
X79605861Y-106888856D01*
X104035551Y-106888856D01*
X104057333Y-107596649D01*
X104286288Y-108149395D01*
X104568191Y-108265804D01*
X105645995Y-107188000D01*
X106005205Y-107188000D01*
X107083009Y-108265804D01*
X107364912Y-108149395D01*
X107615649Y-107487144D01*
X107593867Y-106779351D01*
X107364912Y-106226605D01*
X107083009Y-106110196D01*
X106005205Y-107188000D01*
X105645995Y-107188000D01*
X104568191Y-106110196D01*
X104286288Y-106226605D01*
X104035551Y-106888856D01*
X79605861Y-106888856D01*
X79605908Y-106835490D01*
X79335490Y-106181028D01*
X79085490Y-105930591D01*
X104747796Y-105930591D01*
X105825600Y-107008395D01*
X106903404Y-105930591D01*
X106786995Y-105648688D01*
X106124744Y-105397951D01*
X105416951Y-105419733D01*
X104864205Y-105648688D01*
X104747796Y-105930591D01*
X79085490Y-105930591D01*
X78835205Y-105679870D01*
X78181217Y-105408310D01*
X77473090Y-105407692D01*
X76818628Y-105678110D01*
X76317470Y-106178395D01*
X76045910Y-106832383D01*
X76045292Y-107540510D01*
X60693300Y-107540510D01*
X60693300Y-99853750D01*
X63640600Y-99853750D01*
X63640600Y-100544310D01*
X63737273Y-100777699D01*
X63915902Y-100956327D01*
X64149291Y-101053000D01*
X64839850Y-101053000D01*
X64998600Y-100894250D01*
X64998600Y-99695000D01*
X65252600Y-99695000D01*
X65252600Y-100894250D01*
X65411350Y-101053000D01*
X66101909Y-101053000D01*
X66335298Y-100956327D01*
X66513927Y-100777699D01*
X66610600Y-100544310D01*
X66610600Y-99853750D01*
X66451850Y-99695000D01*
X65252600Y-99695000D01*
X64998600Y-99695000D01*
X63799350Y-99695000D01*
X63640600Y-99853750D01*
X60693300Y-99853750D01*
X60693300Y-86868000D01*
X63611507Y-86868000D01*
X63724546Y-87436285D01*
X64046453Y-87918054D01*
X64375626Y-88138000D01*
X64046453Y-88357946D01*
X63724546Y-88839715D01*
X63611507Y-89408000D01*
X63724546Y-89976285D01*
X64046453Y-90458054D01*
X64375626Y-90678000D01*
X64046453Y-90897946D01*
X63724546Y-91379715D01*
X63611507Y-91948000D01*
X63724546Y-92516285D01*
X64046453Y-92998054D01*
X64375626Y-93218000D01*
X64046453Y-93437946D01*
X63724546Y-93919715D01*
X63611507Y-94488000D01*
X63724546Y-95056285D01*
X64046453Y-95538054D01*
X64375626Y-95758000D01*
X64046453Y-95977946D01*
X63724546Y-96459715D01*
X63611507Y-97028000D01*
X63724546Y-97596285D01*
X64046453Y-98078054D01*
X64090377Y-98107403D01*
X63915902Y-98179673D01*
X63737273Y-98358301D01*
X63640600Y-98591690D01*
X63640600Y-99282250D01*
X63799350Y-99441000D01*
X64998600Y-99441000D01*
X64998600Y-99421000D01*
X65252600Y-99421000D01*
X65252600Y-99441000D01*
X66451850Y-99441000D01*
X66610600Y-99282250D01*
X66610600Y-98591690D01*
X66513927Y-98358301D01*
X66335298Y-98179673D01*
X66160823Y-98107403D01*
X66204747Y-98078054D01*
X66526654Y-97596285D01*
X66639693Y-97028000D01*
X66526654Y-96459715D01*
X66204747Y-95977946D01*
X65875574Y-95758000D01*
X66204747Y-95538054D01*
X66526654Y-95056285D01*
X66639693Y-94488000D01*
X66526654Y-93919715D01*
X66204747Y-93437946D01*
X65875574Y-93218000D01*
X66204747Y-92998054D01*
X66431161Y-92659200D01*
X70180200Y-92659200D01*
X70452365Y-92605063D01*
X70683094Y-92450894D01*
X71135189Y-91998800D01*
X75269153Y-91998800D01*
X75203671Y-92328000D01*
X75293874Y-92781480D01*
X75550749Y-93165922D01*
X75793317Y-93328000D01*
X75550749Y-93490078D01*
X75293874Y-93874520D01*
X75203671Y-94328000D01*
X75293874Y-94781480D01*
X75550749Y-95165922D01*
X75793317Y-95328000D01*
X75550749Y-95490078D01*
X75293874Y-95874520D01*
X75203671Y-96328000D01*
X75293874Y-96781480D01*
X75550749Y-97165922D01*
X75793317Y-97328000D01*
X75550749Y-97490078D01*
X75293874Y-97874520D01*
X75203671Y-98328000D01*
X75293874Y-98781480D01*
X75550749Y-99165922D01*
X75935191Y-99422797D01*
X76388671Y-99513000D01*
X77862529Y-99513000D01*
X78316009Y-99422797D01*
X78700451Y-99165922D01*
X78957326Y-98781480D01*
X78985916Y-98637744D01*
X90681797Y-98637744D01*
X90682202Y-98664146D01*
X90897876Y-99076118D01*
X91254787Y-99374196D01*
X91698600Y-99513000D01*
X92398600Y-99513000D01*
X92398600Y-98455000D01*
X92652600Y-98455000D01*
X92652600Y-99513000D01*
X93352600Y-99513000D01*
X93796413Y-99374196D01*
X94153324Y-99076118D01*
X94368998Y-98664146D01*
X94369403Y-98637744D01*
X94243961Y-98455000D01*
X92652600Y-98455000D01*
X92398600Y-98455000D01*
X90807239Y-98455000D01*
X90681797Y-98637744D01*
X78985916Y-98637744D01*
X79047529Y-98328000D01*
X78957326Y-97874520D01*
X78700451Y-97490078D01*
X78457883Y-97328000D01*
X78700451Y-97165922D01*
X78957326Y-96781480D01*
X79047529Y-96328000D01*
X78957326Y-95874520D01*
X78700451Y-95490078D01*
X78457883Y-95328000D01*
X78700451Y-95165922D01*
X78957326Y-94781480D01*
X79047529Y-94328000D01*
X78957326Y-93874520D01*
X78700451Y-93490078D01*
X78457883Y-93328000D01*
X78700451Y-93165922D01*
X78957326Y-92781480D01*
X79047529Y-92328000D01*
X78982047Y-91998800D01*
X86866000Y-91998800D01*
X87138165Y-91944663D01*
X87368894Y-91790494D01*
X90641452Y-88517937D01*
X90693874Y-88781480D01*
X90950749Y-89165922D01*
X91193317Y-89328000D01*
X90950749Y-89490078D01*
X90693874Y-89874520D01*
X90603671Y-90328000D01*
X90693874Y-90781480D01*
X90950749Y-91165922D01*
X91193317Y-91328000D01*
X90950749Y-91490078D01*
X90693874Y-91874520D01*
X90603671Y-92328000D01*
X90693874Y-92781480D01*
X90950749Y-93165922D01*
X91193317Y-93328000D01*
X90950749Y-93490078D01*
X90693874Y-93874520D01*
X90603671Y-94328000D01*
X90693874Y-94781480D01*
X90950749Y-95165922D01*
X91143317Y-95294591D01*
X90850749Y-95490078D01*
X90593874Y-95874520D01*
X90503671Y-96328000D01*
X90593874Y-96781480D01*
X90850749Y-97165922D01*
X91152291Y-97367405D01*
X90897876Y-97579882D01*
X90682202Y-97991854D01*
X90681797Y-98018256D01*
X90807239Y-98201000D01*
X92398600Y-98201000D01*
X92398600Y-98181000D01*
X92652600Y-98181000D01*
X92652600Y-98201000D01*
X94243961Y-98201000D01*
X94369403Y-98018256D01*
X94368998Y-97991854D01*
X94153324Y-97579882D01*
X93810017Y-97293165D01*
X94000451Y-97165922D01*
X94257326Y-96781480D01*
X94347529Y-96328000D01*
X94257326Y-95874520D01*
X94000451Y-95490078D01*
X93807883Y-95361409D01*
X94100451Y-95165922D01*
X94357326Y-94781480D01*
X94447529Y-94328000D01*
X94357326Y-93874520D01*
X94100451Y-93490078D01*
X93857883Y-93328000D01*
X93992578Y-93238000D01*
X141968160Y-93238000D01*
X141968160Y-95738000D01*
X142012438Y-95973317D01*
X142151510Y-96189441D01*
X142363710Y-96334431D01*
X142615600Y-96385440D01*
X145115600Y-96385440D01*
X145350917Y-96341162D01*
X145567041Y-96202090D01*
X145712031Y-95989890D01*
X145763040Y-95738000D01*
X145763040Y-93238000D01*
X145718762Y-93002683D01*
X145579690Y-92786559D01*
X145367490Y-92641569D01*
X145115600Y-92590560D01*
X142615600Y-92590560D01*
X142380283Y-92634838D01*
X142164159Y-92773910D01*
X142019169Y-92986110D01*
X141968160Y-93238000D01*
X93992578Y-93238000D01*
X94100451Y-93165922D01*
X94357326Y-92781480D01*
X94447529Y-92328000D01*
X94357326Y-91874520D01*
X94100451Y-91490078D01*
X93857883Y-91328000D01*
X94100451Y-91165922D01*
X94357326Y-90781480D01*
X94447529Y-90328000D01*
X94357326Y-89874520D01*
X94348497Y-89861305D01*
X141980274Y-89861305D01*
X142266643Y-90554372D01*
X142796439Y-91085093D01*
X143489005Y-91372672D01*
X144238905Y-91373326D01*
X144931972Y-91086957D01*
X145462693Y-90557161D01*
X145750272Y-89864595D01*
X145750926Y-89114695D01*
X145464557Y-88421628D01*
X144934761Y-87890907D01*
X144242195Y-87603328D01*
X143492295Y-87602674D01*
X142799228Y-87889043D01*
X142268507Y-88418839D01*
X141980928Y-89111405D01*
X141980274Y-89861305D01*
X94348497Y-89861305D01*
X94100451Y-89490078D01*
X93857883Y-89328000D01*
X94100451Y-89165922D01*
X94357326Y-88781480D01*
X94447529Y-88328000D01*
X94357326Y-87874520D01*
X94100451Y-87490078D01*
X93857883Y-87328000D01*
X94100451Y-87165922D01*
X94252880Y-86937795D01*
X131054316Y-86937795D01*
X131302706Y-87538943D01*
X131762237Y-87999278D01*
X132362952Y-88248716D01*
X133013395Y-88249284D01*
X133614543Y-88000894D01*
X134074878Y-87541363D01*
X134324316Y-86940648D01*
X134324884Y-86290205D01*
X134076494Y-85689057D01*
X133616963Y-85228722D01*
X133016248Y-84979284D01*
X132365805Y-84978716D01*
X131764657Y-85227106D01*
X131304322Y-85686637D01*
X131054884Y-86287352D01*
X131054316Y-86937795D01*
X94252880Y-86937795D01*
X94357326Y-86781480D01*
X94447529Y-86328000D01*
X94357326Y-85874520D01*
X94100451Y-85490078D01*
X93857883Y-85328000D01*
X94100451Y-85165922D01*
X94357326Y-84781480D01*
X94447529Y-84328000D01*
X94357326Y-83874520D01*
X94100451Y-83490078D01*
X93716009Y-83233203D01*
X93262529Y-83143000D01*
X91788671Y-83143000D01*
X91335191Y-83233203D01*
X90950749Y-83490078D01*
X90693874Y-83874520D01*
X90603671Y-84328000D01*
X90639531Y-84508281D01*
X86552612Y-88595200D01*
X78994379Y-88595200D01*
X79047529Y-88328000D01*
X78957326Y-87874520D01*
X78700451Y-87490078D01*
X78457883Y-87328000D01*
X78700451Y-87165922D01*
X78957326Y-86781480D01*
X79047529Y-86328000D01*
X78957326Y-85874520D01*
X78700451Y-85490078D01*
X78649729Y-85456187D01*
X78827041Y-85342090D01*
X78972031Y-85129890D01*
X79023040Y-84878000D01*
X79023040Y-83778000D01*
X78978762Y-83542683D01*
X78839690Y-83326559D01*
X78627490Y-83181569D01*
X78375600Y-83130560D01*
X75875600Y-83130560D01*
X75640283Y-83174838D01*
X75424159Y-83313910D01*
X75279169Y-83526110D01*
X75228160Y-83778000D01*
X75228160Y-84878000D01*
X75272438Y-85113317D01*
X75411510Y-85329441D01*
X75599215Y-85457694D01*
X75550749Y-85490078D01*
X75293874Y-85874520D01*
X75203671Y-86328000D01*
X75293874Y-86781480D01*
X75550749Y-87165922D01*
X75793317Y-87328000D01*
X75550749Y-87490078D01*
X75293874Y-87874520D01*
X75203671Y-88328000D01*
X75256821Y-88595200D01*
X70205600Y-88595200D01*
X69978590Y-88640355D01*
X69933435Y-88649337D01*
X69862402Y-88696800D01*
X66431161Y-88696800D01*
X66204747Y-88357946D01*
X65875574Y-88138000D01*
X66204747Y-87918054D01*
X66526654Y-87436285D01*
X66639693Y-86868000D01*
X66526654Y-86299715D01*
X66204747Y-85817946D01*
X65722978Y-85496039D01*
X65154693Y-85383000D01*
X65096507Y-85383000D01*
X64528222Y-85496039D01*
X64046453Y-85817946D01*
X63724546Y-86299715D01*
X63611507Y-86868000D01*
X60693300Y-86868000D01*
X60693300Y-77520800D01*
X73558400Y-77520800D01*
X73558400Y-77571600D01*
X73566459Y-77616120D01*
X73593151Y-77658887D01*
X73634378Y-77687900D01*
X73683646Y-77698588D01*
X73733189Y-77689266D01*
X73775203Y-77661403D01*
X73826003Y-77610603D01*
X73835435Y-77597000D01*
X74472800Y-77597000D01*
X74472800Y-82346800D01*
X74481485Y-82392959D01*
X74508765Y-82435353D01*
X74550390Y-82463794D01*
X74599800Y-82473800D01*
X94538800Y-82473800D01*
X94584959Y-82465115D01*
X94627353Y-82437835D01*
X94655794Y-82396210D01*
X94665800Y-82346800D01*
X94665800Y-79317795D01*
X131054316Y-79317795D01*
X131302706Y-79918943D01*
X131762237Y-80379278D01*
X132362952Y-80628716D01*
X133013395Y-80629284D01*
X133614543Y-80380894D01*
X134074878Y-79921363D01*
X134324316Y-79320648D01*
X134324884Y-78670205D01*
X134076494Y-78069057D01*
X133616963Y-77608722D01*
X133016248Y-77359284D01*
X132365805Y-77358716D01*
X131764657Y-77607106D01*
X131304322Y-78066637D01*
X131054884Y-78667352D01*
X131054316Y-79317795D01*
X94665800Y-79317795D01*
X94665800Y-77571600D01*
X94657115Y-77525441D01*
X94629835Y-77483047D01*
X94588210Y-77454606D01*
X94538800Y-77444600D01*
X74676000Y-77444600D01*
X74619204Y-77458008D01*
X74592457Y-77471382D01*
X74553641Y-77478685D01*
X74511247Y-77505965D01*
X74482806Y-77547590D01*
X74472800Y-77597000D01*
X73835435Y-77597000D01*
X73851784Y-77573423D01*
X73863152Y-77524309D01*
X73854515Y-77474641D01*
X73827235Y-77432247D01*
X73785610Y-77403806D01*
X73736200Y-77393800D01*
X73685400Y-77393800D01*
X73639241Y-77402485D01*
X73596847Y-77429765D01*
X73568406Y-77471390D01*
X73558400Y-77520800D01*
X60693300Y-77520800D01*
X60693300Y-77355700D01*
X148297900Y-77355700D01*
X148297900Y-126860300D01*
X148297900Y-126860300D01*
G37*
X148297900Y-126860300D02*
X60693300Y-126860300D01*
X60693300Y-122740510D01*
X76045292Y-122740510D01*
X76315710Y-123394972D01*
X76815995Y-123896130D01*
X77469983Y-124167690D01*
X78178110Y-124168308D01*
X78832572Y-123897890D01*
X79333730Y-123397605D01*
X79605290Y-122743617D01*
X79605908Y-122035490D01*
X79357488Y-121434265D01*
X122150358Y-121434265D01*
X122362287Y-121947172D01*
X122754364Y-122339934D01*
X123266900Y-122552758D01*
X123821865Y-122553242D01*
X124334772Y-122341313D01*
X124727534Y-121949236D01*
X124940358Y-121436700D01*
X124940360Y-121434265D01*
X129770358Y-121434265D01*
X129982287Y-121947172D01*
X130374364Y-122339934D01*
X130886900Y-122552758D01*
X131441865Y-122553242D01*
X131954772Y-122341313D01*
X132347534Y-121949236D01*
X132560358Y-121436700D01*
X132560842Y-120881735D01*
X132348913Y-120368828D01*
X131956836Y-119976066D01*
X131444300Y-119763242D01*
X130889335Y-119762758D01*
X130376428Y-119974687D01*
X129983666Y-120366764D01*
X129770842Y-120879300D01*
X129770358Y-121434265D01*
X124940360Y-121434265D01*
X124940842Y-120881735D01*
X124728913Y-120368828D01*
X124659960Y-120299754D01*
X125680257Y-119279458D01*
X125867461Y-118999286D01*
X125867462Y-118999285D01*
X125933200Y-118668800D01*
X125933200Y-113558000D01*
X141968160Y-113558000D01*
X141968160Y-116058000D01*
X142012438Y-116293317D01*
X142151510Y-116509441D01*
X142363710Y-116654431D01*
X142615600Y-116705440D01*
X145115600Y-116705440D01*
X145350917Y-116661162D01*
X145567041Y-116522090D01*
X145712031Y-116309890D01*
X145763040Y-116058000D01*
X145763040Y-113558000D01*
X145718762Y-113322683D01*
X145579690Y-113106559D01*
X145367490Y-112961569D01*
X145115600Y-112910560D01*
X142615600Y-112910560D01*
X142380283Y-112954838D01*
X142164159Y-113093910D01*
X142019169Y-113306110D01*
X141968160Y-113558000D01*
X125933200Y-113558000D01*
X125933200Y-111321795D01*
X129530316Y-111321795D01*
X129778706Y-111922943D01*
X130238237Y-112383278D01*
X130838952Y-112632716D01*
X131489395Y-112633284D01*
X132090543Y-112384894D01*
X132550878Y-111925363D01*
X132800316Y-111324648D01*
X132800884Y-110674205D01*
X132597222Y-110181305D01*
X141980274Y-110181305D01*
X142266643Y-110874372D01*
X142796439Y-111405093D01*
X143489005Y-111692672D01*
X144238905Y-111693326D01*
X144931972Y-111406957D01*
X145462693Y-110877161D01*
X145750272Y-110184595D01*
X145750926Y-109434695D01*
X145464557Y-108741628D01*
X144934761Y-108210907D01*
X144242195Y-107923328D01*
X143492295Y-107922674D01*
X142799228Y-108209043D01*
X142268507Y-108738839D01*
X141980928Y-109431405D01*
X141980274Y-110181305D01*
X132597222Y-110181305D01*
X132552494Y-110073057D01*
X132092963Y-109612722D01*
X131492248Y-109363284D01*
X130841805Y-109362716D01*
X130240657Y-109611106D01*
X129780322Y-110070637D01*
X129530884Y-110671352D01*
X129530316Y-111321795D01*
X125933200Y-111321795D01*
X125933200Y-103701795D01*
X129530316Y-103701795D01*
X129778706Y-104302943D01*
X130238237Y-104763278D01*
X130838952Y-105012716D01*
X131489395Y-105013284D01*
X132090543Y-104764894D01*
X132550878Y-104305363D01*
X132800316Y-103704648D01*
X132800884Y-103054205D01*
X132552494Y-102453057D01*
X132092963Y-101992722D01*
X131492248Y-101743284D01*
X130841805Y-101742716D01*
X130240657Y-101991106D01*
X129780322Y-102450637D01*
X129530884Y-103051352D01*
X129530316Y-103701795D01*
X125933200Y-103701795D01*
X125933200Y-97883015D01*
X126251534Y-97565236D01*
X126464358Y-97052700D01*
X126464360Y-97050265D01*
X131294358Y-97050265D01*
X131506287Y-97563172D01*
X131898364Y-97955934D01*
X132410900Y-98168758D01*
X132965865Y-98169242D01*
X133478772Y-97957313D01*
X133871534Y-97565236D01*
X134084358Y-97052700D01*
X134084842Y-96497735D01*
X133872913Y-95984828D01*
X133480836Y-95592066D01*
X132968300Y-95379242D01*
X132413335Y-95378758D01*
X131900428Y-95590687D01*
X131507666Y-95982764D01*
X131294842Y-96495300D01*
X131294358Y-97050265D01*
X126464360Y-97050265D01*
X126464842Y-96497735D01*
X126252913Y-95984828D01*
X125860836Y-95592066D01*
X125348300Y-95379242D01*
X124793335Y-95378758D01*
X124280428Y-95590687D01*
X123887666Y-95982764D01*
X123674842Y-96495300D01*
X123674358Y-97050265D01*
X123886287Y-97563172D01*
X124206000Y-97883444D01*
X124206000Y-118311085D01*
X122934943Y-119582143D01*
X122747738Y-119862315D01*
X122717694Y-120013353D01*
X122363666Y-120366764D01*
X122150842Y-120879300D01*
X122150358Y-121434265D01*
X79357488Y-121434265D01*
X79335490Y-121381028D01*
X78835205Y-120879870D01*
X78181217Y-120608310D01*
X77473090Y-120607692D01*
X76818628Y-120878110D01*
X76317470Y-121378395D01*
X76045910Y-122032383D01*
X76045292Y-122740510D01*
X60693300Y-122740510D01*
X60693300Y-117641305D01*
X63240274Y-117641305D01*
X63526643Y-118334372D01*
X64056439Y-118865093D01*
X64749005Y-119152672D01*
X65498905Y-119153326D01*
X66191972Y-118866957D01*
X66722693Y-118337161D01*
X67010272Y-117644595D01*
X67010926Y-116894695D01*
X66724557Y-116201628D01*
X66194761Y-115670907D01*
X65502195Y-115383328D01*
X64752295Y-115382674D01*
X64059228Y-115669043D01*
X63528507Y-116198839D01*
X63240928Y-116891405D01*
X63240274Y-117641305D01*
X60693300Y-117641305D01*
X60693300Y-115140510D01*
X104045292Y-115140510D01*
X104315710Y-115794972D01*
X104815995Y-116296130D01*
X105469983Y-116567690D01*
X106178110Y-116568308D01*
X106832572Y-116297890D01*
X107333730Y-115797605D01*
X107605290Y-115143617D01*
X107605908Y-114435490D01*
X107335490Y-113781028D01*
X106835205Y-113279870D01*
X106181217Y-113008310D01*
X105473090Y-113007692D01*
X104818628Y-113278110D01*
X104317470Y-113778395D01*
X104045910Y-114432383D01*
X104045292Y-115140510D01*
X60693300Y-115140510D01*
X60693300Y-111018000D01*
X63228160Y-111018000D01*
X63228160Y-113518000D01*
X63272438Y-113753317D01*
X63411510Y-113969441D01*
X63623710Y-114114431D01*
X63875600Y-114165440D01*
X66375600Y-114165440D01*
X66610917Y-114121162D01*
X66827041Y-113982090D01*
X66972031Y-113769890D01*
X67023040Y-113518000D01*
X67023040Y-111018000D01*
X66978762Y-110782683D01*
X66839690Y-110566559D01*
X66627490Y-110421569D01*
X66375600Y-110370560D01*
X63875600Y-110370560D01*
X63640283Y-110414838D01*
X63424159Y-110553910D01*
X63279169Y-110766110D01*
X63228160Y-111018000D01*
X60693300Y-111018000D01*
X60693300Y-107540510D01*
X76045292Y-107540510D01*
X76315710Y-108194972D01*
X76815995Y-108696130D01*
X77469983Y-108967690D01*
X78178110Y-108968308D01*
X78832572Y-108697890D01*
X79085493Y-108445409D01*
X104747796Y-108445409D01*
X104864205Y-108727312D01*
X105526456Y-108978049D01*
X106234249Y-108956267D01*
X106786995Y-108727312D01*
X106903404Y-108445409D01*
X105825600Y-107367605D01*
X104747796Y-108445409D01*
X79085493Y-108445409D01*
X79333730Y-108197605D01*
X79605290Y-107543617D01*
X79605861Y-106888856D01*
X104035551Y-106888856D01*
X104057333Y-107596649D01*
X104286288Y-108149395D01*
X104568191Y-108265804D01*
X105645995Y-107188000D01*
X106005205Y-107188000D01*
X107083009Y-108265804D01*
X107364912Y-108149395D01*
X107615649Y-107487144D01*
X107593867Y-106779351D01*
X107364912Y-106226605D01*
X107083009Y-106110196D01*
X106005205Y-107188000D01*
X105645995Y-107188000D01*
X104568191Y-106110196D01*
X104286288Y-106226605D01*
X104035551Y-106888856D01*
X79605861Y-106888856D01*
X79605908Y-106835490D01*
X79335490Y-106181028D01*
X79085490Y-105930591D01*
X104747796Y-105930591D01*
X105825600Y-107008395D01*
X106903404Y-105930591D01*
X106786995Y-105648688D01*
X106124744Y-105397951D01*
X105416951Y-105419733D01*
X104864205Y-105648688D01*
X104747796Y-105930591D01*
X79085490Y-105930591D01*
X78835205Y-105679870D01*
X78181217Y-105408310D01*
X77473090Y-105407692D01*
X76818628Y-105678110D01*
X76317470Y-106178395D01*
X76045910Y-106832383D01*
X76045292Y-107540510D01*
X60693300Y-107540510D01*
X60693300Y-99853750D01*
X63640600Y-99853750D01*
X63640600Y-100544310D01*
X63737273Y-100777699D01*
X63915902Y-100956327D01*
X64149291Y-101053000D01*
X64839850Y-101053000D01*
X64998600Y-100894250D01*
X64998600Y-99695000D01*
X65252600Y-99695000D01*
X65252600Y-100894250D01*
X65411350Y-101053000D01*
X66101909Y-101053000D01*
X66335298Y-100956327D01*
X66513927Y-100777699D01*
X66610600Y-100544310D01*
X66610600Y-99853750D01*
X66451850Y-99695000D01*
X65252600Y-99695000D01*
X64998600Y-99695000D01*
X63799350Y-99695000D01*
X63640600Y-99853750D01*
X60693300Y-99853750D01*
X60693300Y-86868000D01*
X63611507Y-86868000D01*
X63724546Y-87436285D01*
X64046453Y-87918054D01*
X64375626Y-88138000D01*
X64046453Y-88357946D01*
X63724546Y-88839715D01*
X63611507Y-89408000D01*
X63724546Y-89976285D01*
X64046453Y-90458054D01*
X64375626Y-90678000D01*
X64046453Y-90897946D01*
X63724546Y-91379715D01*
X63611507Y-91948000D01*
X63724546Y-92516285D01*
X64046453Y-92998054D01*
X64375626Y-93218000D01*
X64046453Y-93437946D01*
X63724546Y-93919715D01*
X63611507Y-94488000D01*
X63724546Y-95056285D01*
X64046453Y-95538054D01*
X64375626Y-95758000D01*
X64046453Y-95977946D01*
X63724546Y-96459715D01*
X63611507Y-97028000D01*
X63724546Y-97596285D01*
X64046453Y-98078054D01*
X64090377Y-98107403D01*
X63915902Y-98179673D01*
X63737273Y-98358301D01*
X63640600Y-98591690D01*
X63640600Y-99282250D01*
X63799350Y-99441000D01*
X64998600Y-99441000D01*
X64998600Y-99421000D01*
X65252600Y-99421000D01*
X65252600Y-99441000D01*
X66451850Y-99441000D01*
X66610600Y-99282250D01*
X66610600Y-98591690D01*
X66513927Y-98358301D01*
X66335298Y-98179673D01*
X66160823Y-98107403D01*
X66204747Y-98078054D01*
X66526654Y-97596285D01*
X66639693Y-97028000D01*
X66526654Y-96459715D01*
X66204747Y-95977946D01*
X65875574Y-95758000D01*
X66204747Y-95538054D01*
X66526654Y-95056285D01*
X66639693Y-94488000D01*
X66526654Y-93919715D01*
X66204747Y-93437946D01*
X65875574Y-93218000D01*
X66204747Y-92998054D01*
X66431161Y-92659200D01*
X70180200Y-92659200D01*
X70452365Y-92605063D01*
X70683094Y-92450894D01*
X71135189Y-91998800D01*
X75269153Y-91998800D01*
X75203671Y-92328000D01*
X75293874Y-92781480D01*
X75550749Y-93165922D01*
X75793317Y-93328000D01*
X75550749Y-93490078D01*
X75293874Y-93874520D01*
X75203671Y-94328000D01*
X75293874Y-94781480D01*
X75550749Y-95165922D01*
X75793317Y-95328000D01*
X75550749Y-95490078D01*
X75293874Y-95874520D01*
X75203671Y-96328000D01*
X75293874Y-96781480D01*
X75550749Y-97165922D01*
X75793317Y-97328000D01*
X75550749Y-97490078D01*
X75293874Y-97874520D01*
X75203671Y-98328000D01*
X75293874Y-98781480D01*
X75550749Y-99165922D01*
X75935191Y-99422797D01*
X76388671Y-99513000D01*
X77862529Y-99513000D01*
X78316009Y-99422797D01*
X78700451Y-99165922D01*
X78957326Y-98781480D01*
X78985916Y-98637744D01*
X90681797Y-98637744D01*
X90682202Y-98664146D01*
X90897876Y-99076118D01*
X91254787Y-99374196D01*
X91698600Y-99513000D01*
X92398600Y-99513000D01*
X92398600Y-98455000D01*
X92652600Y-98455000D01*
X92652600Y-99513000D01*
X93352600Y-99513000D01*
X93796413Y-99374196D01*
X94153324Y-99076118D01*
X94368998Y-98664146D01*
X94369403Y-98637744D01*
X94243961Y-98455000D01*
X92652600Y-98455000D01*
X92398600Y-98455000D01*
X90807239Y-98455000D01*
X90681797Y-98637744D01*
X78985916Y-98637744D01*
X79047529Y-98328000D01*
X78957326Y-97874520D01*
X78700451Y-97490078D01*
X78457883Y-97328000D01*
X78700451Y-97165922D01*
X78957326Y-96781480D01*
X79047529Y-96328000D01*
X78957326Y-95874520D01*
X78700451Y-95490078D01*
X78457883Y-95328000D01*
X78700451Y-95165922D01*
X78957326Y-94781480D01*
X79047529Y-94328000D01*
X78957326Y-93874520D01*
X78700451Y-93490078D01*
X78457883Y-93328000D01*
X78700451Y-93165922D01*
X78957326Y-92781480D01*
X79047529Y-92328000D01*
X78982047Y-91998800D01*
X86866000Y-91998800D01*
X87138165Y-91944663D01*
X87368894Y-91790494D01*
X90641452Y-88517937D01*
X90693874Y-88781480D01*
X90950749Y-89165922D01*
X91193317Y-89328000D01*
X90950749Y-89490078D01*
X90693874Y-89874520D01*
X90603671Y-90328000D01*
X90693874Y-90781480D01*
X90950749Y-91165922D01*
X91193317Y-91328000D01*
X90950749Y-91490078D01*
X90693874Y-91874520D01*
X90603671Y-92328000D01*
X90693874Y-92781480D01*
X90950749Y-93165922D01*
X91193317Y-93328000D01*
X90950749Y-93490078D01*
X90693874Y-93874520D01*
X90603671Y-94328000D01*
X90693874Y-94781480D01*
X90950749Y-95165922D01*
X91143317Y-95294591D01*
X90850749Y-95490078D01*
X90593874Y-95874520D01*
X90503671Y-96328000D01*
X90593874Y-96781480D01*
X90850749Y-97165922D01*
X91152291Y-97367405D01*
X90897876Y-97579882D01*
X90682202Y-97991854D01*
X90681797Y-98018256D01*
X90807239Y-98201000D01*
X92398600Y-98201000D01*
X92398600Y-98181000D01*
X92652600Y-98181000D01*
X92652600Y-98201000D01*
X94243961Y-98201000D01*
X94369403Y-98018256D01*
X94368998Y-97991854D01*
X94153324Y-97579882D01*
X93810017Y-97293165D01*
X94000451Y-97165922D01*
X94257326Y-96781480D01*
X94347529Y-96328000D01*
X94257326Y-95874520D01*
X94000451Y-95490078D01*
X93807883Y-95361409D01*
X94100451Y-95165922D01*
X94357326Y-94781480D01*
X94447529Y-94328000D01*
X94357326Y-93874520D01*
X94100451Y-93490078D01*
X93857883Y-93328000D01*
X93992578Y-93238000D01*
X141968160Y-93238000D01*
X141968160Y-95738000D01*
X142012438Y-95973317D01*
X142151510Y-96189441D01*
X142363710Y-96334431D01*
X142615600Y-96385440D01*
X145115600Y-96385440D01*
X145350917Y-96341162D01*
X145567041Y-96202090D01*
X145712031Y-95989890D01*
X145763040Y-95738000D01*
X145763040Y-93238000D01*
X145718762Y-93002683D01*
X145579690Y-92786559D01*
X145367490Y-92641569D01*
X145115600Y-92590560D01*
X142615600Y-92590560D01*
X142380283Y-92634838D01*
X142164159Y-92773910D01*
X142019169Y-92986110D01*
X141968160Y-93238000D01*
X93992578Y-93238000D01*
X94100451Y-93165922D01*
X94357326Y-92781480D01*
X94447529Y-92328000D01*
X94357326Y-91874520D01*
X94100451Y-91490078D01*
X93857883Y-91328000D01*
X94100451Y-91165922D01*
X94357326Y-90781480D01*
X94447529Y-90328000D01*
X94357326Y-89874520D01*
X94348497Y-89861305D01*
X141980274Y-89861305D01*
X142266643Y-90554372D01*
X142796439Y-91085093D01*
X143489005Y-91372672D01*
X144238905Y-91373326D01*
X144931972Y-91086957D01*
X145462693Y-90557161D01*
X145750272Y-89864595D01*
X145750926Y-89114695D01*
X145464557Y-88421628D01*
X144934761Y-87890907D01*
X144242195Y-87603328D01*
X143492295Y-87602674D01*
X142799228Y-87889043D01*
X142268507Y-88418839D01*
X141980928Y-89111405D01*
X141980274Y-89861305D01*
X94348497Y-89861305D01*
X94100451Y-89490078D01*
X93857883Y-89328000D01*
X94100451Y-89165922D01*
X94357326Y-88781480D01*
X94447529Y-88328000D01*
X94357326Y-87874520D01*
X94100451Y-87490078D01*
X93857883Y-87328000D01*
X94100451Y-87165922D01*
X94252880Y-86937795D01*
X131054316Y-86937795D01*
X131302706Y-87538943D01*
X131762237Y-87999278D01*
X132362952Y-88248716D01*
X133013395Y-88249284D01*
X133614543Y-88000894D01*
X134074878Y-87541363D01*
X134324316Y-86940648D01*
X134324884Y-86290205D01*
X134076494Y-85689057D01*
X133616963Y-85228722D01*
X133016248Y-84979284D01*
X132365805Y-84978716D01*
X131764657Y-85227106D01*
X131304322Y-85686637D01*
X131054884Y-86287352D01*
X131054316Y-86937795D01*
X94252880Y-86937795D01*
X94357326Y-86781480D01*
X94447529Y-86328000D01*
X94357326Y-85874520D01*
X94100451Y-85490078D01*
X93857883Y-85328000D01*
X94100451Y-85165922D01*
X94357326Y-84781480D01*
X94447529Y-84328000D01*
X94357326Y-83874520D01*
X94100451Y-83490078D01*
X93716009Y-83233203D01*
X93262529Y-83143000D01*
X91788671Y-83143000D01*
X91335191Y-83233203D01*
X90950749Y-83490078D01*
X90693874Y-83874520D01*
X90603671Y-84328000D01*
X90639531Y-84508281D01*
X86552612Y-88595200D01*
X78994379Y-88595200D01*
X79047529Y-88328000D01*
X78957326Y-87874520D01*
X78700451Y-87490078D01*
X78457883Y-87328000D01*
X78700451Y-87165922D01*
X78957326Y-86781480D01*
X79047529Y-86328000D01*
X78957326Y-85874520D01*
X78700451Y-85490078D01*
X78649729Y-85456187D01*
X78827041Y-85342090D01*
X78972031Y-85129890D01*
X79023040Y-84878000D01*
X79023040Y-83778000D01*
X78978762Y-83542683D01*
X78839690Y-83326559D01*
X78627490Y-83181569D01*
X78375600Y-83130560D01*
X75875600Y-83130560D01*
X75640283Y-83174838D01*
X75424159Y-83313910D01*
X75279169Y-83526110D01*
X75228160Y-83778000D01*
X75228160Y-84878000D01*
X75272438Y-85113317D01*
X75411510Y-85329441D01*
X75599215Y-85457694D01*
X75550749Y-85490078D01*
X75293874Y-85874520D01*
X75203671Y-86328000D01*
X75293874Y-86781480D01*
X75550749Y-87165922D01*
X75793317Y-87328000D01*
X75550749Y-87490078D01*
X75293874Y-87874520D01*
X75203671Y-88328000D01*
X75256821Y-88595200D01*
X70205600Y-88595200D01*
X69978590Y-88640355D01*
X69933435Y-88649337D01*
X69862402Y-88696800D01*
X66431161Y-88696800D01*
X66204747Y-88357946D01*
X65875574Y-88138000D01*
X66204747Y-87918054D01*
X66526654Y-87436285D01*
X66639693Y-86868000D01*
X66526654Y-86299715D01*
X66204747Y-85817946D01*
X65722978Y-85496039D01*
X65154693Y-85383000D01*
X65096507Y-85383000D01*
X64528222Y-85496039D01*
X64046453Y-85817946D01*
X63724546Y-86299715D01*
X63611507Y-86868000D01*
X60693300Y-86868000D01*
X60693300Y-77520800D01*
X73558400Y-77520800D01*
X73558400Y-77571600D01*
X73566459Y-77616120D01*
X73593151Y-77658887D01*
X73634378Y-77687900D01*
X73683646Y-77698588D01*
X73733189Y-77689266D01*
X73775203Y-77661403D01*
X73826003Y-77610603D01*
X73835435Y-77597000D01*
X74472800Y-77597000D01*
X74472800Y-82346800D01*
X74481485Y-82392959D01*
X74508765Y-82435353D01*
X74550390Y-82463794D01*
X74599800Y-82473800D01*
X94538800Y-82473800D01*
X94584959Y-82465115D01*
X94627353Y-82437835D01*
X94655794Y-82396210D01*
X94665800Y-82346800D01*
X94665800Y-79317795D01*
X131054316Y-79317795D01*
X131302706Y-79918943D01*
X131762237Y-80379278D01*
X132362952Y-80628716D01*
X133013395Y-80629284D01*
X133614543Y-80380894D01*
X134074878Y-79921363D01*
X134324316Y-79320648D01*
X134324884Y-78670205D01*
X134076494Y-78069057D01*
X133616963Y-77608722D01*
X133016248Y-77359284D01*
X132365805Y-77358716D01*
X131764657Y-77607106D01*
X131304322Y-78066637D01*
X131054884Y-78667352D01*
X131054316Y-79317795D01*
X94665800Y-79317795D01*
X94665800Y-77571600D01*
X94657115Y-77525441D01*
X94629835Y-77483047D01*
X94588210Y-77454606D01*
X94538800Y-77444600D01*
X74676000Y-77444600D01*
X74619204Y-77458008D01*
X74592457Y-77471382D01*
X74553641Y-77478685D01*
X74511247Y-77505965D01*
X74482806Y-77547590D01*
X74472800Y-77597000D01*
X73835435Y-77597000D01*
X73851784Y-77573423D01*
X73863152Y-77524309D01*
X73854515Y-77474641D01*
X73827235Y-77432247D01*
X73785610Y-77403806D01*
X73736200Y-77393800D01*
X73685400Y-77393800D01*
X73639241Y-77402485D01*
X73596847Y-77429765D01*
X73568406Y-77471390D01*
X73558400Y-77520800D01*
X60693300Y-77520800D01*
X60693300Y-77355700D01*
X148297900Y-77355700D01*
X148297900Y-126860300D01*
M02*
