G04 #@! TF.GenerationSoftware,KiCad,Pcbnew,(2017-04-22 revision b38541345)-makepkg*
G04 #@! TF.CreationDate,2017-04-30T17:34:09-07:00*
G04 #@! TF.ProjectId,Pool Lights,506F6F6C204C69676874732E6B696361,rev?*
G04 #@! TF.FileFunction,Paste,Top*
G04 #@! TF.FilePolarity,Positive*
%FSLAX46Y46*%
G04 Gerber Fmt 4.6, Leading zero omitted, Abs format (unit mm)*
G04 Created by KiCad (PCBNEW (2017-04-22 revision b38541345)-makepkg) date 04/30/17 17:34:09*
%MOMM*%
%LPD*%
G01*
G04 APERTURE LIST*
%ADD10C,0.100000*%
%ADD11R,1.100000X2.500000*%
%ADD12O,1.100000X2.500000*%
%ADD13R,1.250000X1.000000*%
%ADD14R,0.700000X1.300000*%
%ADD15R,1.300000X0.700000*%
%ADD16R,0.900000X1.200000*%
%ADD17R,0.900000X0.800000*%
%ADD18R,1.950000X1.500000*%
%ADD19R,2.000000X3.800000*%
%ADD20R,2.000000X1.500000*%
%ADD21R,1.300000X0.800000*%
%ADD22R,0.900000X1.700000*%
G04 APERTURE END LIST*
D10*
D11*
X103352600Y-83882000D03*
D12*
X101352600Y-83882000D03*
X99352600Y-83882000D03*
X97352600Y-83882000D03*
X95352600Y-83882000D03*
X93352600Y-83882000D03*
X91352600Y-83882000D03*
X89352600Y-83882000D03*
X89352600Y-99282000D03*
X91352600Y-99182000D03*
X93352600Y-99282000D03*
X95352600Y-99282000D03*
X97352600Y-99282000D03*
X99352600Y-99282000D03*
X101352600Y-99282000D03*
X103352600Y-99282000D03*
D13*
X90144600Y-80502000D03*
X90144600Y-78502000D03*
D14*
X96687600Y-80391000D03*
X98587600Y-80391000D03*
X101640600Y-80518000D03*
X103540600Y-80518000D03*
X91348600Y-101854000D03*
X89448600Y-101854000D03*
X84871600Y-100711000D03*
X82971600Y-100711000D03*
D15*
X112655600Y-86696000D03*
X112655600Y-88596000D03*
X111385600Y-106254000D03*
X111385600Y-108154000D03*
X115417600Y-88580000D03*
X115417600Y-86680000D03*
X114687600Y-108154000D03*
X114687600Y-106254000D03*
X121767600Y-93914000D03*
X121767600Y-92014000D03*
X117989600Y-106254000D03*
X117989600Y-108154000D03*
D16*
X131545600Y-100203000D03*
X128245600Y-100203000D03*
X131545600Y-103378000D03*
X128245600Y-103378000D03*
D17*
X120767600Y-95951000D03*
X120767600Y-97851000D03*
X122767600Y-96901000D03*
X120545600Y-106254000D03*
X120545600Y-108154000D03*
X122545600Y-107204000D03*
D18*
X68913600Y-86995000D03*
X66163600Y-86995000D03*
X66163600Y-97409000D03*
X68913600Y-97409000D03*
D19*
X62712200Y-92075000D03*
D20*
X69012200Y-92075000D03*
X69012200Y-89775000D03*
X69012200Y-94375000D03*
D21*
X113791600Y-111882000D03*
X113791600Y-113162000D03*
X120091600Y-113162000D03*
X120091600Y-111882000D03*
D13*
X108305600Y-80248000D03*
X108305600Y-78248000D03*
D15*
X78460600Y-87183000D03*
X78460600Y-85283000D03*
D14*
X78145600Y-99568000D03*
X80045600Y-99568000D03*
D22*
X75715600Y-86233000D03*
X72315600Y-86233000D03*
X75715600Y-98933000D03*
X72315600Y-98933000D03*
D14*
X86903600Y-79756000D03*
X85003600Y-79756000D03*
D21*
X118980600Y-92238400D03*
X118980600Y-93518400D03*
X112680600Y-93518400D03*
X112680600Y-92238400D03*
M02*
