M48
;DRILL file {KiCad 4.0.6} date 04/16/17 19:41:31
;FORMAT={-:-/ absolute / inch / decimal}
FMAT,2
INCH,TZ
T1C0.026
T2C0.030
T3C0.039
T4C0.051
%
G90
G05
M72
T1
X3.064Y-3.32
X3.064Y-3.3987
X3.064Y-3.4775
X3.064Y-3.5562
X3.064Y-3.635
X3.064Y-3.7137
X3.064Y-3.7924
X3.064Y-3.8712
X3.6152Y-3.32
X3.6152Y-3.3987
X3.6152Y-3.4775
X3.6152Y-3.5562
X3.6152Y-3.635
X3.6152Y-3.7137
X3.6152Y-3.7924
X3.6152Y-3.8712
T2
X3.064Y-4.22
X3.064Y-4.8184
X4.1664Y-4.22
X4.1664Y-4.5192
X4.864Y-4.77
X4.924Y-3.81
X5.164Y-4.77
X5.224Y-3.81
T3
X2.564Y-3.42
X2.564Y-3.52
X2.564Y-3.62
X2.564Y-3.72
X2.564Y-3.82
X2.564Y-3.92
X5.164Y-4.07
X5.164Y-4.37
X5.224Y-3.11
X5.224Y-3.41
T4
X2.564Y-4.42
X2.564Y-4.6169
X5.664Y-3.5231
X5.664Y-3.72
X5.664Y-4.3231
X5.664Y-4.52
T0
M30
