G04 #@! TF.GenerationSoftware,KiCad,Pcbnew,(2017-04-22 revision b38541345)-makepkg*
G04 #@! TF.CreationDate,2017-06-22T14:02:37-07:00*
G04 #@! TF.ProjectId,WifiRelay,5769666952656C61792E6B696361645F,rev?*
G04 #@! TF.FileFunction,Legend,Top*
G04 #@! TF.FilePolarity,Positive*
%FSLAX46Y46*%
G04 Gerber Fmt 4.6, Leading zero omitted, Abs format (unit mm)*
G04 Created by KiCad (PCBNEW (2017-04-22 revision b38541345)-makepkg) date 06/22/17 14:02:37*
%MOMM*%
%LPD*%
G01*
G04 APERTURE LIST*
%ADD10C,0.100000*%
%ADD11C,0.300000*%
%ADD12C,0.125000*%
%ADD13C,0.200000*%
%ADD14C,0.150000*%
%ADD15C,0.120000*%
%ADD16C,0.152400*%
G04 APERTURE END LIST*
D10*
D11*
X111004742Y-76812200D02*
X110861885Y-76740771D01*
X110647600Y-76740771D01*
X110433314Y-76812200D01*
X110290457Y-76955057D01*
X110219028Y-77097914D01*
X110147600Y-77383628D01*
X110147600Y-77597914D01*
X110219028Y-77883628D01*
X110290457Y-78026485D01*
X110433314Y-78169342D01*
X110647600Y-78240771D01*
X110790457Y-78240771D01*
X111004742Y-78169342D01*
X111076171Y-78097914D01*
X111076171Y-77597914D01*
X110790457Y-77597914D01*
X111719028Y-78240771D02*
X111719028Y-76740771D01*
X112576171Y-78240771D01*
X112576171Y-76740771D01*
X113290457Y-78240771D02*
X113290457Y-76740771D01*
X113647600Y-76740771D01*
X113861885Y-76812200D01*
X114004742Y-76955057D01*
X114076171Y-77097914D01*
X114147600Y-77383628D01*
X114147600Y-77597914D01*
X114076171Y-77883628D01*
X114004742Y-78026485D01*
X113861885Y-78169342D01*
X113647600Y-78240771D01*
X113290457Y-78240771D01*
D12*
X83805247Y-76602590D02*
X83805247Y-77007352D01*
X83829057Y-77054971D01*
X83852866Y-77078780D01*
X83900485Y-77102590D01*
X83995723Y-77102590D01*
X84043342Y-77078780D01*
X84067152Y-77054971D01*
X84090961Y-77007352D01*
X84090961Y-76602590D01*
X84305247Y-77078780D02*
X84376676Y-77102590D01*
X84495723Y-77102590D01*
X84543342Y-77078780D01*
X84567152Y-77054971D01*
X84590961Y-77007352D01*
X84590961Y-76959733D01*
X84567152Y-76912114D01*
X84543342Y-76888304D01*
X84495723Y-76864495D01*
X84400485Y-76840685D01*
X84352866Y-76816876D01*
X84329057Y-76793066D01*
X84305247Y-76745447D01*
X84305247Y-76697828D01*
X84329057Y-76650209D01*
X84352866Y-76626400D01*
X84400485Y-76602590D01*
X84519533Y-76602590D01*
X84590961Y-76626400D01*
X84971914Y-76840685D02*
X85043342Y-76864495D01*
X85067152Y-76888304D01*
X85090961Y-76935923D01*
X85090961Y-77007352D01*
X85067152Y-77054971D01*
X85043342Y-77078780D01*
X84995723Y-77102590D01*
X84805247Y-77102590D01*
X84805247Y-76602590D01*
X84971914Y-76602590D01*
X85019533Y-76626400D01*
X85043342Y-76650209D01*
X85067152Y-76697828D01*
X85067152Y-76745447D01*
X85043342Y-76793066D01*
X85019533Y-76816876D01*
X84971914Y-76840685D01*
X84805247Y-76840685D01*
D11*
X73440635Y-89607497D02*
X74964444Y-89607497D01*
X74202540Y-90369401D02*
X74202540Y-88845592D01*
X70773635Y-86940497D02*
X72297444Y-86940497D01*
X71535540Y-87702401D02*
X71535540Y-86178592D01*
D13*
X113981480Y-83851240D02*
X114921280Y-83851240D01*
X114451380Y-84610700D02*
X113981480Y-83851240D01*
X114921280Y-83851240D02*
X114466620Y-84610700D01*
X114466620Y-83406740D02*
X114456460Y-85060280D01*
X113973860Y-84613240D02*
X114921280Y-84625940D01*
X114794280Y-116670580D02*
X114339620Y-117430040D01*
X113854480Y-116670580D02*
X114794280Y-116670580D01*
X114324380Y-117430040D02*
X113854480Y-116670580D01*
X113846860Y-117432580D02*
X114794280Y-117445280D01*
X114339620Y-116226080D02*
X114329460Y-117879620D01*
D11*
X108461348Y-127963882D02*
X109604205Y-127963882D01*
X109032777Y-128535311D02*
X109032777Y-127392454D01*
X111032777Y-127035311D02*
X110318491Y-127035311D01*
X110247062Y-127749597D01*
X110318491Y-127678168D01*
X110461348Y-127606740D01*
X110818491Y-127606740D01*
X110961348Y-127678168D01*
X111032777Y-127749597D01*
X111104205Y-127892454D01*
X111104205Y-128249597D01*
X111032777Y-128392454D01*
X110961348Y-128463882D01*
X110818491Y-128535311D01*
X110461348Y-128535311D01*
X110318491Y-128463882D01*
X110247062Y-128392454D01*
X111532777Y-127035311D02*
X112032777Y-128535311D01*
X112532777Y-127035311D01*
D13*
X61201635Y-102423588D02*
X59901635Y-102423588D01*
X59901635Y-101928350D01*
X59963540Y-101804540D01*
X60025444Y-101742636D01*
X60149254Y-101680731D01*
X60334968Y-101680731D01*
X60458778Y-101742636D01*
X60520682Y-101804540D01*
X60582587Y-101928350D01*
X60582587Y-102423588D01*
X61201635Y-100380731D02*
X60582587Y-100814064D01*
X61201635Y-101123588D02*
X59901635Y-101123588D01*
X59901635Y-100628350D01*
X59963540Y-100504540D01*
X60025444Y-100442636D01*
X60149254Y-100380731D01*
X60334968Y-100380731D01*
X60458778Y-100442636D01*
X60520682Y-100504540D01*
X60582587Y-100628350D01*
X60582587Y-101123588D01*
X59901635Y-99575969D02*
X59901635Y-99328350D01*
X59963540Y-99204540D01*
X60087349Y-99080731D01*
X60334968Y-99018826D01*
X60768301Y-99018826D01*
X61015920Y-99080731D01*
X61139730Y-99204540D01*
X61201635Y-99328350D01*
X61201635Y-99575969D01*
X61139730Y-99699779D01*
X61015920Y-99823588D01*
X60768301Y-99885493D01*
X60334968Y-99885493D01*
X60087349Y-99823588D01*
X59963540Y-99699779D01*
X59901635Y-99575969D01*
X59963540Y-97780731D02*
X59901635Y-97904540D01*
X59901635Y-98090255D01*
X59963540Y-98275969D01*
X60087349Y-98399779D01*
X60211159Y-98461683D01*
X60458778Y-98523588D01*
X60644492Y-98523588D01*
X60892111Y-98461683D01*
X61015920Y-98399779D01*
X61139730Y-98275969D01*
X61201635Y-98090255D01*
X61201635Y-97966445D01*
X61139730Y-97780731D01*
X61077825Y-97718826D01*
X60644492Y-97718826D01*
X60644492Y-97966445D01*
D14*
X65999695Y-81964895D02*
X65380647Y-82398228D01*
X65999695Y-82707752D02*
X64699695Y-82707752D01*
X64699695Y-82212514D01*
X64761600Y-82088704D01*
X64823504Y-82026800D01*
X64947314Y-81964895D01*
X65133028Y-81964895D01*
X65256838Y-82026800D01*
X65318742Y-82088704D01*
X65380647Y-82212514D01*
X65380647Y-82707752D01*
X65318742Y-81407752D02*
X65318742Y-80974419D01*
X65999695Y-80788704D02*
X65999695Y-81407752D01*
X64699695Y-81407752D01*
X64699695Y-80788704D01*
X65937790Y-80293466D02*
X65999695Y-80107752D01*
X65999695Y-79798228D01*
X65937790Y-79674419D01*
X65875885Y-79612514D01*
X65752076Y-79550609D01*
X65628266Y-79550609D01*
X65504457Y-79612514D01*
X65442552Y-79674419D01*
X65380647Y-79798228D01*
X65318742Y-80045847D01*
X65256838Y-80169657D01*
X65194933Y-80231561D01*
X65071123Y-80293466D01*
X64947314Y-80293466D01*
X64823504Y-80231561D01*
X64761600Y-80169657D01*
X64699695Y-80045847D01*
X64699695Y-79736323D01*
X64761600Y-79550609D01*
X65318742Y-78993466D02*
X65318742Y-78560133D01*
X65999695Y-78374419D02*
X65999695Y-78993466D01*
X64699695Y-78993466D01*
X64699695Y-78374419D01*
X64699695Y-78002990D02*
X64699695Y-77260133D01*
X65999695Y-77631561D02*
X64699695Y-77631561D01*
D12*
X77891866Y-77026390D02*
X77653771Y-77026390D01*
X77653771Y-76526390D01*
X78058533Y-77026390D02*
X78058533Y-76526390D01*
X78225200Y-76883533D01*
X78391866Y-76526390D01*
X78391866Y-77026390D01*
X78891866Y-77026390D02*
X78606152Y-77026390D01*
X78749009Y-77026390D02*
X78749009Y-76526390D01*
X78701390Y-76597819D01*
X78653771Y-76645438D01*
X78606152Y-76669247D01*
X79368057Y-77026390D02*
X79082342Y-77026390D01*
X79225200Y-77026390D02*
X79225200Y-76526390D01*
X79177580Y-76597819D01*
X79129961Y-76645438D01*
X79082342Y-76669247D01*
X79844247Y-77026390D02*
X79558533Y-77026390D01*
X79701390Y-77026390D02*
X79701390Y-76526390D01*
X79653771Y-76597819D01*
X79606152Y-76645438D01*
X79558533Y-76669247D01*
X80010914Y-76526390D02*
X80344247Y-76526390D01*
X80129961Y-77026390D01*
X81378752Y-76602590D02*
X81688276Y-76602590D01*
X81521609Y-76793066D01*
X81593038Y-76793066D01*
X81640657Y-76816876D01*
X81664466Y-76840685D01*
X81688276Y-76888304D01*
X81688276Y-77007352D01*
X81664466Y-77054971D01*
X81640657Y-77078780D01*
X81593038Y-77102590D01*
X81450180Y-77102590D01*
X81402561Y-77078780D01*
X81378752Y-77054971D01*
X81831133Y-76602590D02*
X81997800Y-77102590D01*
X82164466Y-76602590D01*
X82283514Y-76602590D02*
X82593038Y-76602590D01*
X82426371Y-76793066D01*
X82497800Y-76793066D01*
X82545419Y-76816876D01*
X82569228Y-76840685D01*
X82593038Y-76888304D01*
X82593038Y-77007352D01*
X82569228Y-77054971D01*
X82545419Y-77078780D01*
X82497800Y-77102590D01*
X82354942Y-77102590D01*
X82307323Y-77078780D01*
X82283514Y-77054971D01*
X84531285Y-84690800D02*
X84445571Y-84647942D01*
X84317000Y-84647942D01*
X84188428Y-84690800D01*
X84102714Y-84776514D01*
X84059857Y-84862228D01*
X84017000Y-85033657D01*
X84017000Y-85162228D01*
X84059857Y-85333657D01*
X84102714Y-85419371D01*
X84188428Y-85505085D01*
X84317000Y-85547942D01*
X84402714Y-85547942D01*
X84531285Y-85505085D01*
X84574142Y-85462228D01*
X84574142Y-85162228D01*
X84402714Y-85162228D01*
X84959857Y-85547942D02*
X84959857Y-84647942D01*
X85474142Y-85547942D01*
X85474142Y-84647942D01*
X85902714Y-85547942D02*
X85902714Y-84647942D01*
X86117000Y-84647942D01*
X86245571Y-84690800D01*
X86331285Y-84776514D01*
X86374142Y-84862228D01*
X86417000Y-85033657D01*
X86417000Y-85162228D01*
X86374142Y-85333657D01*
X86331285Y-85419371D01*
X86245571Y-85505085D01*
X86117000Y-85547942D01*
X85902714Y-85547942D01*
X83909857Y-88087942D02*
X83609857Y-87659371D01*
X83395571Y-88087942D02*
X83395571Y-87187942D01*
X83738428Y-87187942D01*
X83824142Y-87230800D01*
X83867000Y-87273657D01*
X83909857Y-87359371D01*
X83909857Y-87487942D01*
X83867000Y-87573657D01*
X83824142Y-87616514D01*
X83738428Y-87659371D01*
X83395571Y-87659371D01*
X84295571Y-87616514D02*
X84595571Y-87616514D01*
X84724142Y-88087942D02*
X84295571Y-88087942D01*
X84295571Y-87187942D01*
X84724142Y-87187942D01*
X85067000Y-88045085D02*
X85195571Y-88087942D01*
X85409857Y-88087942D01*
X85495571Y-88045085D01*
X85538428Y-88002228D01*
X85581285Y-87916514D01*
X85581285Y-87830800D01*
X85538428Y-87745085D01*
X85495571Y-87702228D01*
X85409857Y-87659371D01*
X85238428Y-87616514D01*
X85152714Y-87573657D01*
X85109857Y-87530800D01*
X85067000Y-87445085D01*
X85067000Y-87359371D01*
X85109857Y-87273657D01*
X85152714Y-87230800D01*
X85238428Y-87187942D01*
X85452714Y-87187942D01*
X85581285Y-87230800D01*
X85967000Y-87616514D02*
X86267000Y-87616514D01*
X86395571Y-88087942D02*
X85967000Y-88087942D01*
X85967000Y-87187942D01*
X86395571Y-87187942D01*
X86652714Y-87187942D02*
X87167000Y-87187942D01*
X86909857Y-88087942D02*
X86909857Y-87187942D01*
X84102714Y-89727942D02*
X84659857Y-89727942D01*
X84359857Y-90070800D01*
X84488428Y-90070800D01*
X84574142Y-90113657D01*
X84617000Y-90156514D01*
X84659857Y-90242228D01*
X84659857Y-90456514D01*
X84617000Y-90542228D01*
X84574142Y-90585085D01*
X84488428Y-90627942D01*
X84231285Y-90627942D01*
X84145571Y-90585085D01*
X84102714Y-90542228D01*
X84917000Y-89727942D02*
X85217000Y-90627942D01*
X85517000Y-89727942D01*
X85731285Y-89727942D02*
X86288428Y-89727942D01*
X85988428Y-90070800D01*
X86117000Y-90070800D01*
X86202714Y-90113657D01*
X86245571Y-90156514D01*
X86288428Y-90242228D01*
X86288428Y-90456514D01*
X86245571Y-90542228D01*
X86202714Y-90585085D01*
X86117000Y-90627942D01*
X85859857Y-90627942D01*
X85774142Y-90585085D01*
X85731285Y-90542228D01*
X84681285Y-95707942D02*
X84381285Y-95279371D01*
X84167000Y-95707942D02*
X84167000Y-94807942D01*
X84509857Y-94807942D01*
X84595571Y-94850800D01*
X84638428Y-94893657D01*
X84681285Y-94979371D01*
X84681285Y-95107942D01*
X84638428Y-95193657D01*
X84595571Y-95236514D01*
X84509857Y-95279371D01*
X84167000Y-95279371D01*
X84981285Y-95707942D02*
X85452714Y-95107942D01*
X84981285Y-95107942D02*
X85452714Y-95707942D01*
X85795571Y-95707942D02*
X85795571Y-94807942D01*
X86009857Y-94807942D01*
X86138428Y-94850800D01*
X86224142Y-94936514D01*
X86267000Y-95022228D01*
X86309857Y-95193657D01*
X86309857Y-95322228D01*
X86267000Y-95493657D01*
X86224142Y-95579371D01*
X86138428Y-95665085D01*
X86009857Y-95707942D01*
X85795571Y-95707942D01*
X84145571Y-92267942D02*
X84659857Y-92267942D01*
X84402714Y-93167942D02*
X84402714Y-92267942D01*
X84874142Y-93167942D02*
X85345571Y-92567942D01*
X84874142Y-92567942D02*
X85345571Y-93167942D01*
X85688428Y-93167942D02*
X85688428Y-92267942D01*
X85902714Y-92267942D01*
X86031285Y-92310800D01*
X86117000Y-92396514D01*
X86159857Y-92482228D01*
X86202714Y-92653657D01*
X86202714Y-92782228D01*
X86159857Y-92953657D01*
X86117000Y-93039371D01*
X86031285Y-93125085D01*
X85902714Y-93167942D01*
X85688428Y-93167942D01*
X83545571Y-97390800D02*
X83459857Y-97347942D01*
X83331285Y-97347942D01*
X83202714Y-97390800D01*
X83117000Y-97476514D01*
X83074142Y-97562228D01*
X83031285Y-97733657D01*
X83031285Y-97862228D01*
X83074142Y-98033657D01*
X83117000Y-98119371D01*
X83202714Y-98205085D01*
X83331285Y-98247942D01*
X83417000Y-98247942D01*
X83545571Y-98205085D01*
X83588428Y-98162228D01*
X83588428Y-97862228D01*
X83417000Y-97862228D01*
X83974142Y-98247942D02*
X83974142Y-97347942D01*
X84317000Y-97347942D01*
X84402714Y-97390800D01*
X84445571Y-97433657D01*
X84488428Y-97519371D01*
X84488428Y-97647942D01*
X84445571Y-97733657D01*
X84402714Y-97776514D01*
X84317000Y-97819371D01*
X83974142Y-97819371D01*
X84874142Y-98247942D02*
X84874142Y-97347942D01*
X85474142Y-97347942D02*
X85645571Y-97347942D01*
X85731285Y-97390800D01*
X85817000Y-97476514D01*
X85859857Y-97647942D01*
X85859857Y-97947942D01*
X85817000Y-98119371D01*
X85731285Y-98205085D01*
X85645571Y-98247942D01*
X85474142Y-98247942D01*
X85388428Y-98205085D01*
X85302714Y-98119371D01*
X85259857Y-97947942D01*
X85259857Y-97647942D01*
X85302714Y-97476514D01*
X85388428Y-97390800D01*
X85474142Y-97347942D01*
X87102714Y-97347942D02*
X87188428Y-97347942D01*
X87274142Y-97390800D01*
X87317000Y-97433657D01*
X87359857Y-97519371D01*
X87402714Y-97690800D01*
X87402714Y-97905085D01*
X87359857Y-98076514D01*
X87317000Y-98162228D01*
X87274142Y-98205085D01*
X87188428Y-98247942D01*
X87102714Y-98247942D01*
X87017000Y-98205085D01*
X86974142Y-98162228D01*
X86931285Y-98076514D01*
X86888428Y-97905085D01*
X86888428Y-97690800D01*
X86931285Y-97519371D01*
X86974142Y-97433657D01*
X87017000Y-97390800D01*
X87102714Y-97347942D01*
D11*
X61858457Y-120519666D02*
X62477504Y-120519666D01*
X61734647Y-120891095D02*
X62167980Y-119591095D01*
X62601314Y-120891095D01*
X63777504Y-120767285D02*
X63715600Y-120829190D01*
X63529885Y-120891095D01*
X63406076Y-120891095D01*
X63220361Y-120829190D01*
X63096552Y-120705380D01*
X63034647Y-120581571D01*
X62972742Y-120333952D01*
X62972742Y-120148238D01*
X63034647Y-119900619D01*
X63096552Y-119776809D01*
X63220361Y-119653000D01*
X63406076Y-119591095D01*
X63529885Y-119591095D01*
X63715600Y-119653000D01*
X63777504Y-119714904D01*
X66006076Y-120891095D02*
X65263219Y-120891095D01*
X65634647Y-120891095D02*
X65634647Y-119591095D01*
X65510838Y-119776809D01*
X65387028Y-119900619D01*
X65263219Y-119962523D01*
X66501314Y-119714904D02*
X66563219Y-119653000D01*
X66687028Y-119591095D01*
X66996552Y-119591095D01*
X67120361Y-119653000D01*
X67182266Y-119714904D01*
X67244171Y-119838714D01*
X67244171Y-119962523D01*
X67182266Y-120148238D01*
X66439409Y-120891095D01*
X67244171Y-120891095D01*
X68048933Y-119591095D02*
X68172742Y-119591095D01*
X68296552Y-119653000D01*
X68358457Y-119714904D01*
X68420361Y-119838714D01*
X68482266Y-120086333D01*
X68482266Y-120395857D01*
X68420361Y-120643476D01*
X68358457Y-120767285D01*
X68296552Y-120829190D01*
X68172742Y-120891095D01*
X68048933Y-120891095D01*
X67925123Y-120829190D01*
X67863219Y-120767285D01*
X67801314Y-120643476D01*
X67739409Y-120395857D01*
X67739409Y-120086333D01*
X67801314Y-119838714D01*
X67863219Y-119714904D01*
X67925123Y-119653000D01*
X68048933Y-119591095D01*
X68915600Y-120024428D02*
X69225123Y-120891095D01*
X69534647Y-120024428D01*
X64334647Y-123141095D02*
X64334647Y-121841095D01*
X64334647Y-122460142D02*
X65077504Y-122460142D01*
X65077504Y-123141095D02*
X65077504Y-121841095D01*
X65882266Y-123141095D02*
X65758457Y-123079190D01*
X65696552Y-123017285D01*
X65634647Y-122893476D01*
X65634647Y-122522047D01*
X65696552Y-122398238D01*
X65758457Y-122336333D01*
X65882266Y-122274428D01*
X66067980Y-122274428D01*
X66191790Y-122336333D01*
X66253695Y-122398238D01*
X66315600Y-122522047D01*
X66315600Y-122893476D01*
X66253695Y-123017285D01*
X66191790Y-123079190D01*
X66067980Y-123141095D01*
X65882266Y-123141095D01*
X66687028Y-122274428D02*
X67182266Y-122274428D01*
X66872742Y-121841095D02*
X66872742Y-122955380D01*
X66934647Y-123079190D01*
X67058457Y-123141095D01*
X67182266Y-123141095D01*
X61858457Y-105279666D02*
X62477504Y-105279666D01*
X61734647Y-105651095D02*
X62167980Y-104351095D01*
X62601314Y-105651095D01*
X63777504Y-105527285D02*
X63715600Y-105589190D01*
X63529885Y-105651095D01*
X63406076Y-105651095D01*
X63220361Y-105589190D01*
X63096552Y-105465380D01*
X63034647Y-105341571D01*
X62972742Y-105093952D01*
X62972742Y-104908238D01*
X63034647Y-104660619D01*
X63096552Y-104536809D01*
X63220361Y-104413000D01*
X63406076Y-104351095D01*
X63529885Y-104351095D01*
X63715600Y-104413000D01*
X63777504Y-104474904D01*
X66006076Y-105651095D02*
X65263219Y-105651095D01*
X65634647Y-105651095D02*
X65634647Y-104351095D01*
X65510838Y-104536809D01*
X65387028Y-104660619D01*
X65263219Y-104722523D01*
X66501314Y-104474904D02*
X66563219Y-104413000D01*
X66687028Y-104351095D01*
X66996552Y-104351095D01*
X67120361Y-104413000D01*
X67182266Y-104474904D01*
X67244171Y-104598714D01*
X67244171Y-104722523D01*
X67182266Y-104908238D01*
X66439409Y-105651095D01*
X67244171Y-105651095D01*
X68048933Y-104351095D02*
X68172742Y-104351095D01*
X68296552Y-104413000D01*
X68358457Y-104474904D01*
X68420361Y-104598714D01*
X68482266Y-104846333D01*
X68482266Y-105155857D01*
X68420361Y-105403476D01*
X68358457Y-105527285D01*
X68296552Y-105589190D01*
X68172742Y-105651095D01*
X68048933Y-105651095D01*
X67925123Y-105589190D01*
X67863219Y-105527285D01*
X67801314Y-105403476D01*
X67739409Y-105155857D01*
X67739409Y-104846333D01*
X67801314Y-104598714D01*
X67863219Y-104474904D01*
X67925123Y-104413000D01*
X68048933Y-104351095D01*
X68915600Y-104784428D02*
X69225123Y-105651095D01*
X69534647Y-104784428D01*
X62446552Y-107901095D02*
X62446552Y-106601095D01*
X63189409Y-107901095D01*
X63189409Y-106601095D01*
X64303695Y-107839190D02*
X64179885Y-107901095D01*
X63932266Y-107901095D01*
X63808457Y-107839190D01*
X63746552Y-107715380D01*
X63746552Y-107220142D01*
X63808457Y-107096333D01*
X63932266Y-107034428D01*
X64179885Y-107034428D01*
X64303695Y-107096333D01*
X64365600Y-107220142D01*
X64365600Y-107343952D01*
X63746552Y-107467761D01*
X65479885Y-107034428D02*
X65479885Y-107901095D01*
X64922742Y-107034428D02*
X64922742Y-107715380D01*
X64984647Y-107839190D01*
X65108457Y-107901095D01*
X65294171Y-107901095D01*
X65417980Y-107839190D01*
X65479885Y-107777285D01*
X65913219Y-107034428D02*
X66408457Y-107034428D01*
X66098933Y-106601095D02*
X66098933Y-107715380D01*
X66160838Y-107839190D01*
X66284647Y-107901095D01*
X66408457Y-107901095D01*
X66841790Y-107901095D02*
X66841790Y-107034428D01*
X66841790Y-107282047D02*
X66903695Y-107158238D01*
X66965600Y-107096333D01*
X67089409Y-107034428D01*
X67213219Y-107034428D01*
X68203695Y-107901095D02*
X68203695Y-107220142D01*
X68141790Y-107096333D01*
X68017980Y-107034428D01*
X67770361Y-107034428D01*
X67646552Y-107096333D01*
X68203695Y-107839190D02*
X68079885Y-107901095D01*
X67770361Y-107901095D01*
X67646552Y-107839190D01*
X67584647Y-107715380D01*
X67584647Y-107591571D01*
X67646552Y-107467761D01*
X67770361Y-107405857D01*
X68079885Y-107405857D01*
X68203695Y-107343952D01*
X69008457Y-107901095D02*
X68884647Y-107839190D01*
X68822742Y-107715380D01*
X68822742Y-106601095D01*
D14*
X150145600Y-113848000D02*
X150645600Y-113848000D01*
X148145600Y-111348000D02*
G75*
G03X148145600Y-111348000I-2000000J0D01*
G01*
X148145600Y-116348000D02*
G75*
G03X148145600Y-116348000I-2000000J0D01*
G01*
X148645600Y-118848000D02*
X148645600Y-108848000D01*
X143745600Y-118848000D02*
X143745600Y-108848000D01*
X150145600Y-118848000D02*
X150145600Y-108848000D01*
X150645600Y-118848000D02*
X150645600Y-108848000D01*
X150645600Y-108848000D02*
X140845600Y-108848000D01*
X140845600Y-108848000D02*
X140845600Y-118848000D01*
X140845600Y-118848000D02*
X150645600Y-118848000D01*
D15*
X90206180Y-80137380D02*
X90206180Y-79137380D01*
X88506180Y-79137380D02*
X88506180Y-80137380D01*
D14*
X61565600Y-113768000D02*
X61065600Y-113768000D01*
X67565600Y-116268000D02*
G75*
G03X67565600Y-116268000I-2000000J0D01*
G01*
X67565600Y-111268000D02*
G75*
G03X67565600Y-111268000I-2000000J0D01*
G01*
X63065600Y-108768000D02*
X63065600Y-118768000D01*
X67965600Y-108768000D02*
X67965600Y-118768000D01*
X61565600Y-108768000D02*
X61565600Y-118768000D01*
X61065600Y-108768000D02*
X61065600Y-118768000D01*
X61065600Y-118768000D02*
X70865600Y-118768000D01*
X70865600Y-118768000D02*
X70865600Y-108768000D01*
X70865600Y-108768000D02*
X61065600Y-108768000D01*
D15*
X79829600Y-86274400D02*
X79829600Y-99034400D01*
X79829600Y-99034400D02*
X82489600Y-99034400D01*
X82489600Y-99034400D02*
X82489600Y-86274400D01*
X82489600Y-86274400D02*
X79829600Y-86274400D01*
X79829600Y-85004400D02*
X79829600Y-83674400D01*
X79829600Y-83674400D02*
X81159600Y-83674400D01*
D14*
X150145600Y-88448000D02*
X150645600Y-88448000D01*
X148145600Y-85948000D02*
G75*
G03X148145600Y-85948000I-2000000J0D01*
G01*
X148145600Y-90948000D02*
G75*
G03X148145600Y-90948000I-2000000J0D01*
G01*
X148645600Y-93448000D02*
X148645600Y-83448000D01*
X143745600Y-93448000D02*
X143745600Y-83448000D01*
X150145600Y-93448000D02*
X150145600Y-83448000D01*
X150645600Y-93448000D02*
X150645600Y-83448000D01*
X150645600Y-83448000D02*
X140845600Y-83448000D01*
X140845600Y-83448000D02*
X140845600Y-93448000D01*
X140845600Y-93448000D02*
X150645600Y-93448000D01*
D15*
X98432980Y-80265320D02*
X98432980Y-79065320D01*
X100192980Y-79065320D02*
X100192980Y-80265320D01*
X102387760Y-80252620D02*
X102387760Y-79052620D01*
X104147760Y-79052620D02*
X104147760Y-80252620D01*
X89798600Y-100974000D02*
X90998600Y-100974000D01*
X90998600Y-102734000D02*
X89798600Y-102734000D01*
X78305800Y-100457200D02*
X78305800Y-101657200D01*
X76545800Y-101657200D02*
X76545800Y-100457200D01*
X112402980Y-104562960D02*
X112402980Y-103362960D01*
X114162980Y-103362960D02*
X114162980Y-104562960D01*
X98211780Y-102214880D02*
X98211780Y-103414880D01*
X96451780Y-103414880D02*
X96451780Y-102214880D01*
X131190500Y-102366460D02*
X129990500Y-102366460D01*
X129990500Y-100606460D02*
X131190500Y-100606460D01*
X131218480Y-104868360D02*
X130018480Y-104868360D01*
X130018480Y-103108360D02*
X131218480Y-103108360D01*
X116829380Y-95071580D02*
X115629380Y-95071580D01*
X115629380Y-93311580D02*
X116829380Y-93311580D01*
X129972760Y-96293540D02*
X131172760Y-96293540D01*
X131172760Y-98053540D02*
X129972760Y-98053540D01*
X115272560Y-86486320D02*
X117272560Y-86486320D01*
X117272560Y-86486320D02*
X117272560Y-82586320D01*
X115272560Y-86486320D02*
X115272560Y-82586320D01*
X115272560Y-119260940D02*
X117272560Y-119260940D01*
X117272560Y-119260940D02*
X117272560Y-115360940D01*
X115272560Y-119260940D02*
X115272560Y-115360940D01*
X114433720Y-88450640D02*
X113503720Y-88450640D01*
X111273720Y-88450640D02*
X112203720Y-88450640D01*
X111273720Y-88450640D02*
X111273720Y-90610640D01*
X114433720Y-88450640D02*
X114433720Y-89910640D01*
X110585420Y-112913700D02*
X111515420Y-112913700D01*
X113745420Y-112913700D02*
X112815420Y-112913700D01*
X113745420Y-112913700D02*
X113745420Y-110753700D01*
X110585420Y-112913700D02*
X110585420Y-111453700D01*
X70188600Y-88045000D02*
X65938600Y-88045000D01*
X70188600Y-85945000D02*
X65938600Y-85945000D01*
X70188600Y-88045000D02*
X70188600Y-85945000D01*
X105526720Y-79157700D02*
X105526720Y-80157700D01*
X107226720Y-80157700D02*
X107226720Y-79157700D01*
X76324600Y-85572800D02*
X76324600Y-86772800D01*
X74564600Y-86772800D02*
X74564600Y-85572800D01*
X75613400Y-100457200D02*
X75613400Y-101657200D01*
X73853400Y-101657200D02*
X73853400Y-100457200D01*
D16*
X109733800Y-83547200D02*
X109733800Y-99547200D01*
X109733800Y-99547200D02*
X104333800Y-99547200D01*
X109733800Y-83547200D02*
X104333800Y-83547200D01*
X88533800Y-83547200D02*
X87733800Y-83547200D01*
X87733800Y-83547200D02*
X87733800Y-99547200D01*
X87733800Y-99547200D02*
X88533800Y-99547200D01*
X109733800Y-99547200D02*
X105933800Y-83547200D01*
X109733800Y-83547200D02*
X105933800Y-99547200D01*
X105933800Y-83539200D02*
X105933800Y-99539200D01*
D15*
X75794120Y-90890200D02*
X72494120Y-90890200D01*
X72494120Y-90890200D02*
X72494120Y-95440200D01*
X75794120Y-90890200D02*
X75794120Y-95440200D01*
X128070200Y-86364460D02*
X124070200Y-86364460D01*
X128070200Y-82764460D02*
X128070200Y-86364460D01*
X124070200Y-82764460D02*
X128070200Y-82764460D01*
X124070200Y-86364460D02*
X124070200Y-82764460D01*
X128070200Y-86364460D02*
X124070200Y-82764460D01*
X126070200Y-86364460D02*
X126070200Y-90564460D01*
X126070200Y-78564460D02*
X126070200Y-82764460D01*
X122670200Y-84564460D02*
X122670200Y-88164460D01*
X129470200Y-84564460D02*
X129470200Y-88164460D01*
X129470200Y-88164460D02*
X122670200Y-88164460D01*
X130970200Y-84564460D02*
X135570200Y-82064460D01*
X129470200Y-84564460D02*
X130970200Y-84564460D01*
X126070200Y-78564460D02*
X123570200Y-78564460D01*
X122670200Y-84564460D02*
X121870200Y-84564460D01*
X123570200Y-90564460D02*
X126070200Y-90564460D01*
X134170200Y-80314460D02*
X134170200Y-82814460D01*
X134170200Y-88714460D02*
X134170200Y-86264460D01*
X138420200Y-92314460D02*
X118620200Y-92314460D01*
X138420200Y-76714460D02*
X138420200Y-92314460D01*
X118620200Y-76714460D02*
X138420200Y-76714460D01*
X118620200Y-76714460D02*
X118620200Y-83314460D01*
X118620200Y-85714460D02*
X118620200Y-92314460D01*
X118620200Y-119915800D02*
X118620200Y-126515800D01*
X118620200Y-110915800D02*
X118620200Y-117515800D01*
X118620200Y-110915800D02*
X138420200Y-110915800D01*
X138420200Y-110915800D02*
X138420200Y-126515800D01*
X138420200Y-126515800D02*
X118620200Y-126515800D01*
X134170200Y-122915800D02*
X134170200Y-120465800D01*
X134170200Y-114515800D02*
X134170200Y-117015800D01*
X123570200Y-124765800D02*
X126070200Y-124765800D01*
X122670200Y-118765800D02*
X121870200Y-118765800D01*
X126070200Y-112765800D02*
X123570200Y-112765800D01*
X129470200Y-118765800D02*
X130970200Y-118765800D01*
X130970200Y-118765800D02*
X135570200Y-116265800D01*
X129470200Y-122365800D02*
X122670200Y-122365800D01*
X129470200Y-118765800D02*
X129470200Y-122365800D01*
X122670200Y-118765800D02*
X122670200Y-122365800D01*
X126070200Y-112765800D02*
X126070200Y-116965800D01*
X126070200Y-120565800D02*
X126070200Y-124765800D01*
X128070200Y-120565800D02*
X124070200Y-116965800D01*
X124070200Y-120565800D02*
X124070200Y-116965800D01*
X124070200Y-116965800D02*
X128070200Y-116965800D01*
X128070200Y-116965800D02*
X128070200Y-120565800D01*
X128070200Y-120565800D02*
X124070200Y-120565800D01*
X69962200Y-95485000D02*
X63952200Y-95485000D01*
X67712200Y-88665000D02*
X63952200Y-88665000D01*
X63952200Y-95485000D02*
X63952200Y-94225000D01*
X63952200Y-88665000D02*
X63952200Y-89925000D01*
D14*
X118530200Y-107286320D02*
X117730200Y-106486320D01*
X117730200Y-106486320D02*
X117730200Y-95986320D01*
X117730200Y-95986320D02*
X127850200Y-95986320D01*
X127850200Y-95986320D02*
X127850200Y-107286320D01*
X127850200Y-107286320D02*
X118530200Y-107286320D01*
X72625420Y-107131920D02*
X72625420Y-127331920D01*
X106625420Y-107131920D02*
X72625420Y-107131920D01*
X106625420Y-107331920D02*
X106625420Y-107131920D01*
X106625420Y-127331920D02*
X106625420Y-107331920D01*
X72625420Y-127331920D02*
X106625420Y-127331920D01*
D15*
X109458700Y-123781000D02*
X110788700Y-123781000D01*
X109458700Y-125111000D02*
X109458700Y-123781000D01*
X112118700Y-126381000D02*
X109458700Y-126381000D01*
X112118700Y-126441000D02*
X112118700Y-126381000D01*
X109458700Y-126441000D02*
X112118700Y-126441000D01*
X109458700Y-126381000D02*
X109458700Y-126441000D01*
X73049720Y-77952140D02*
X72599720Y-77502140D01*
X69649720Y-77952140D02*
X70099720Y-77502140D01*
X69649720Y-82552140D02*
X70099720Y-83002140D01*
X73049720Y-82552140D02*
X72599720Y-83002140D01*
X68599720Y-81252140D02*
X68599720Y-79252140D01*
X72599720Y-77502140D02*
X70099720Y-77502140D01*
X74099720Y-81252140D02*
X74099720Y-79252140D01*
X72599720Y-83002140D02*
X70099720Y-83002140D01*
X67997640Y-102852160D02*
X65497640Y-102852160D01*
X69497640Y-101102160D02*
X69497640Y-99102160D01*
X67997640Y-97352160D02*
X65497640Y-97352160D01*
X63997640Y-101102160D02*
X63997640Y-99102160D01*
X68447640Y-102402160D02*
X67997640Y-102852160D01*
X65047640Y-102402160D02*
X65497640Y-102852160D01*
X65047640Y-97802160D02*
X65497640Y-97352160D01*
X68447640Y-97802160D02*
X67997640Y-97352160D01*
X110766800Y-78746800D02*
X112096800Y-78746800D01*
X110766800Y-80076800D02*
X110766800Y-78746800D01*
X113426800Y-81346800D02*
X110766800Y-81346800D01*
X113426800Y-81406800D02*
X113426800Y-81346800D01*
X110766800Y-81406800D02*
X113426800Y-81406800D01*
X110766800Y-81346800D02*
X110766800Y-81406800D01*
X85613800Y-77603800D02*
X85613800Y-78933800D01*
X84283800Y-77603800D02*
X85613800Y-77603800D01*
X83013800Y-80263800D02*
X83013800Y-77603800D01*
X77873800Y-80263800D02*
X83013800Y-80263800D01*
X77873800Y-77603800D02*
X77873800Y-80263800D01*
X83013800Y-77603800D02*
X77873800Y-77603800D01*
D14*
X145966266Y-119610380D02*
X145966266Y-120324666D01*
X145918647Y-120467523D01*
X145823409Y-120562761D01*
X145680552Y-120610380D01*
X145585314Y-120610380D01*
X146871028Y-119943714D02*
X146871028Y-120610380D01*
X146632933Y-119562761D02*
X146394838Y-120277047D01*
X147013885Y-120277047D01*
X89232693Y-77543422D02*
X89185074Y-77591041D01*
X89042217Y-77638660D01*
X88946979Y-77638660D01*
X88804121Y-77591041D01*
X88708883Y-77495803D01*
X88661264Y-77400565D01*
X88613645Y-77210089D01*
X88613645Y-77067232D01*
X88661264Y-76876756D01*
X88708883Y-76781518D01*
X88804121Y-76686280D01*
X88946979Y-76638660D01*
X89042217Y-76638660D01*
X89185074Y-76686280D01*
X89232693Y-76733899D01*
X89566026Y-76638660D02*
X90185074Y-76638660D01*
X89851740Y-77019613D01*
X89994598Y-77019613D01*
X90089836Y-77067232D01*
X90137455Y-77114851D01*
X90185074Y-77210089D01*
X90185074Y-77448184D01*
X90137455Y-77543422D01*
X90089836Y-77591041D01*
X89994598Y-77638660D01*
X89708883Y-77638660D01*
X89613645Y-77591041D01*
X89566026Y-77543422D01*
X59495346Y-113816640D02*
X59495346Y-114530926D01*
X59447727Y-114673783D01*
X59352489Y-114769021D01*
X59209632Y-114816640D01*
X59114394Y-114816640D01*
X60495346Y-114816640D02*
X59923918Y-114816640D01*
X60209632Y-114816640D02*
X60209632Y-113816640D01*
X60114394Y-113959498D01*
X60019156Y-114054736D01*
X59923918Y-114102355D01*
X78282706Y-90967560D02*
X78282706Y-91681846D01*
X78235087Y-91824703D01*
X78139849Y-91919941D01*
X77996992Y-91967560D01*
X77901754Y-91967560D01*
X78711278Y-91062799D02*
X78758897Y-91015180D01*
X78854135Y-90967560D01*
X79092230Y-90967560D01*
X79187468Y-91015180D01*
X79235087Y-91062799D01*
X79282706Y-91158037D01*
X79282706Y-91253275D01*
X79235087Y-91396132D01*
X78663659Y-91967560D01*
X79282706Y-91967560D01*
X145458266Y-94210380D02*
X145458266Y-94924666D01*
X145410647Y-95067523D01*
X145315409Y-95162761D01*
X145172552Y-95210380D01*
X145077314Y-95210380D01*
X145839219Y-94210380D02*
X146458266Y-94210380D01*
X146124933Y-94591333D01*
X146267790Y-94591333D01*
X146363028Y-94638952D01*
X146410647Y-94686571D01*
X146458266Y-94781809D01*
X146458266Y-95019904D01*
X146410647Y-95115142D01*
X146363028Y-95162761D01*
X146267790Y-95210380D01*
X145982076Y-95210380D01*
X145886838Y-95162761D01*
X145839219Y-95115142D01*
X99146313Y-77582780D02*
X98812980Y-77106590D01*
X98574884Y-77582780D02*
X98574884Y-76582780D01*
X98955837Y-76582780D01*
X99051075Y-76630400D01*
X99098694Y-76678019D01*
X99146313Y-76773257D01*
X99146313Y-76916114D01*
X99098694Y-77011352D01*
X99051075Y-77058971D01*
X98955837Y-77106590D01*
X98574884Y-77106590D01*
X100098694Y-77582780D02*
X99527265Y-77582780D01*
X99812980Y-77582780D02*
X99812980Y-76582780D01*
X99717741Y-76725638D01*
X99622503Y-76820876D01*
X99527265Y-76868495D01*
X103045213Y-77582780D02*
X102711880Y-77106590D01*
X102473784Y-77582780D02*
X102473784Y-76582780D01*
X102854737Y-76582780D01*
X102949975Y-76630400D01*
X102997594Y-76678019D01*
X103045213Y-76773257D01*
X103045213Y-76916114D01*
X102997594Y-77011352D01*
X102949975Y-77058971D01*
X102854737Y-77106590D01*
X102473784Y-77106590D01*
X103426165Y-76678019D02*
X103473784Y-76630400D01*
X103569022Y-76582780D01*
X103807118Y-76582780D01*
X103902356Y-76630400D01*
X103949975Y-76678019D01*
X103997594Y-76773257D01*
X103997594Y-76868495D01*
X103949975Y-77011352D01*
X103378546Y-77582780D01*
X103997594Y-77582780D01*
X90202973Y-104562660D02*
X89869640Y-104086470D01*
X89631544Y-104562660D02*
X89631544Y-103562660D01*
X90012497Y-103562660D01*
X90107735Y-103610280D01*
X90155354Y-103657899D01*
X90202973Y-103753137D01*
X90202973Y-103895994D01*
X90155354Y-103991232D01*
X90107735Y-104038851D01*
X90012497Y-104086470D01*
X89631544Y-104086470D01*
X90536306Y-103562660D02*
X91155354Y-103562660D01*
X90822020Y-103943613D01*
X90964878Y-103943613D01*
X91060116Y-103991232D01*
X91107735Y-104038851D01*
X91155354Y-104134089D01*
X91155354Y-104372184D01*
X91107735Y-104467422D01*
X91060116Y-104515041D01*
X90964878Y-104562660D01*
X90679163Y-104562660D01*
X90583925Y-104515041D01*
X90536306Y-104467422D01*
X77284533Y-104191780D02*
X76951200Y-103715590D01*
X76713104Y-104191780D02*
X76713104Y-103191780D01*
X77094057Y-103191780D01*
X77189295Y-103239400D01*
X77236914Y-103287019D01*
X77284533Y-103382257D01*
X77284533Y-103525114D01*
X77236914Y-103620352D01*
X77189295Y-103667971D01*
X77094057Y-103715590D01*
X76713104Y-103715590D01*
X78141676Y-103525114D02*
X78141676Y-104191780D01*
X77903580Y-103144161D02*
X77665485Y-103858447D01*
X78284533Y-103858447D01*
X112963913Y-101857560D02*
X112630580Y-101381370D01*
X112392484Y-101857560D02*
X112392484Y-100857560D01*
X112773437Y-100857560D01*
X112868675Y-100905180D01*
X112916294Y-100952799D01*
X112963913Y-101048037D01*
X112963913Y-101190894D01*
X112916294Y-101286132D01*
X112868675Y-101333751D01*
X112773437Y-101381370D01*
X112392484Y-101381370D01*
X113868675Y-100857560D02*
X113392484Y-100857560D01*
X113344865Y-101333751D01*
X113392484Y-101286132D01*
X113487722Y-101238513D01*
X113725818Y-101238513D01*
X113821056Y-101286132D01*
X113868675Y-101333751D01*
X113916294Y-101428989D01*
X113916294Y-101667084D01*
X113868675Y-101762322D01*
X113821056Y-101809941D01*
X113725818Y-101857560D01*
X113487722Y-101857560D01*
X113392484Y-101809941D01*
X113344865Y-101762322D01*
X97101613Y-105891080D02*
X96768280Y-105414890D01*
X96530184Y-105891080D02*
X96530184Y-104891080D01*
X96911137Y-104891080D01*
X97006375Y-104938700D01*
X97053994Y-104986319D01*
X97101613Y-105081557D01*
X97101613Y-105224414D01*
X97053994Y-105319652D01*
X97006375Y-105367271D01*
X96911137Y-105414890D01*
X96530184Y-105414890D01*
X97958756Y-104891080D02*
X97768280Y-104891080D01*
X97673041Y-104938700D01*
X97625422Y-104986319D01*
X97530184Y-105129176D01*
X97482565Y-105319652D01*
X97482565Y-105700604D01*
X97530184Y-105795842D01*
X97577803Y-105843461D01*
X97673041Y-105891080D01*
X97863518Y-105891080D01*
X97958756Y-105843461D01*
X98006375Y-105795842D01*
X98053994Y-105700604D01*
X98053994Y-105462509D01*
X98006375Y-105367271D01*
X97958756Y-105319652D01*
X97863518Y-105272033D01*
X97673041Y-105272033D01*
X97577803Y-105319652D01*
X97530184Y-105367271D01*
X97482565Y-105462509D01*
X133850333Y-102042980D02*
X133517000Y-101566790D01*
X133278904Y-102042980D02*
X133278904Y-101042980D01*
X133659857Y-101042980D01*
X133755095Y-101090600D01*
X133802714Y-101138219D01*
X133850333Y-101233457D01*
X133850333Y-101376314D01*
X133802714Y-101471552D01*
X133755095Y-101519171D01*
X133659857Y-101566790D01*
X133278904Y-101566790D01*
X134183666Y-101042980D02*
X134850333Y-101042980D01*
X134421761Y-102042980D01*
X133921413Y-104466140D02*
X133588080Y-103989950D01*
X133349984Y-104466140D02*
X133349984Y-103466140D01*
X133730937Y-103466140D01*
X133826175Y-103513760D01*
X133873794Y-103561379D01*
X133921413Y-103656617D01*
X133921413Y-103799474D01*
X133873794Y-103894712D01*
X133826175Y-103942331D01*
X133730937Y-103989950D01*
X133349984Y-103989950D01*
X134492841Y-103894712D02*
X134397603Y-103847093D01*
X134349984Y-103799474D01*
X134302365Y-103704236D01*
X134302365Y-103656617D01*
X134349984Y-103561379D01*
X134397603Y-103513760D01*
X134492841Y-103466140D01*
X134683318Y-103466140D01*
X134778556Y-103513760D01*
X134826175Y-103561379D01*
X134873794Y-103656617D01*
X134873794Y-103704236D01*
X134826175Y-103799474D01*
X134778556Y-103847093D01*
X134683318Y-103894712D01*
X134492841Y-103894712D01*
X134397603Y-103942331D01*
X134349984Y-103989950D01*
X134302365Y-104085188D01*
X134302365Y-104275664D01*
X134349984Y-104370902D01*
X134397603Y-104418521D01*
X134492841Y-104466140D01*
X134683318Y-104466140D01*
X134778556Y-104418521D01*
X134826175Y-104370902D01*
X134873794Y-104275664D01*
X134873794Y-104085188D01*
X134826175Y-103989950D01*
X134778556Y-103942331D01*
X134683318Y-103894712D01*
X116062713Y-92675460D02*
X115729380Y-92199270D01*
X115491284Y-92675460D02*
X115491284Y-91675460D01*
X115872237Y-91675460D01*
X115967475Y-91723080D01*
X116015094Y-91770699D01*
X116062713Y-91865937D01*
X116062713Y-92008794D01*
X116015094Y-92104032D01*
X115967475Y-92151651D01*
X115872237Y-92199270D01*
X115491284Y-92199270D01*
X116538903Y-92675460D02*
X116729380Y-92675460D01*
X116824618Y-92627841D01*
X116872237Y-92580222D01*
X116967475Y-92437365D01*
X117015094Y-92246889D01*
X117015094Y-91865937D01*
X116967475Y-91770699D01*
X116919856Y-91723080D01*
X116824618Y-91675460D01*
X116634141Y-91675460D01*
X116538903Y-91723080D01*
X116491284Y-91770699D01*
X116443665Y-91865937D01*
X116443665Y-92104032D01*
X116491284Y-92199270D01*
X116538903Y-92246889D01*
X116634141Y-92294508D01*
X116824618Y-92294508D01*
X116919856Y-92246889D01*
X116967475Y-92199270D01*
X117015094Y-92104032D01*
X133369062Y-97686880D02*
X133035729Y-97210690D01*
X132797634Y-97686880D02*
X132797634Y-96686880D01*
X133178586Y-96686880D01*
X133273824Y-96734500D01*
X133321443Y-96782119D01*
X133369062Y-96877357D01*
X133369062Y-97020214D01*
X133321443Y-97115452D01*
X133273824Y-97163071D01*
X133178586Y-97210690D01*
X132797634Y-97210690D01*
X134321443Y-97686880D02*
X133750015Y-97686880D01*
X134035729Y-97686880D02*
X134035729Y-96686880D01*
X133940491Y-96829738D01*
X133845253Y-96924976D01*
X133750015Y-96972595D01*
X134940491Y-96686880D02*
X135035729Y-96686880D01*
X135130967Y-96734500D01*
X135178586Y-96782119D01*
X135226205Y-96877357D01*
X135273824Y-97067833D01*
X135273824Y-97305928D01*
X135226205Y-97496404D01*
X135178586Y-97591642D01*
X135130967Y-97639261D01*
X135035729Y-97686880D01*
X134940491Y-97686880D01*
X134845253Y-97639261D01*
X134797634Y-97591642D01*
X134750015Y-97496404D01*
X134702396Y-97305928D01*
X134702396Y-97067833D01*
X134750015Y-96877357D01*
X134797634Y-96782119D01*
X134845253Y-96734500D01*
X134940491Y-96686880D01*
X115425244Y-81164180D02*
X115425244Y-80164180D01*
X115663340Y-80164180D01*
X115806197Y-80211800D01*
X115901435Y-80307038D01*
X115949054Y-80402276D01*
X115996673Y-80592752D01*
X115996673Y-80735609D01*
X115949054Y-80926085D01*
X115901435Y-81021323D01*
X115806197Y-81116561D01*
X115663340Y-81164180D01*
X115425244Y-81164180D01*
X116949054Y-81164180D02*
X116377625Y-81164180D01*
X116663340Y-81164180D02*
X116663340Y-80164180D01*
X116568101Y-80307038D01*
X116472863Y-80402276D01*
X116377625Y-80449895D01*
X115503984Y-114247680D02*
X115503984Y-113247680D01*
X115742080Y-113247680D01*
X115884937Y-113295300D01*
X115980175Y-113390538D01*
X116027794Y-113485776D01*
X116075413Y-113676252D01*
X116075413Y-113819109D01*
X116027794Y-114009585D01*
X115980175Y-114104823D01*
X115884937Y-114200061D01*
X115742080Y-114247680D01*
X115503984Y-114247680D01*
X116456365Y-113342919D02*
X116503984Y-113295300D01*
X116599222Y-113247680D01*
X116837318Y-113247680D01*
X116932556Y-113295300D01*
X116980175Y-113342919D01*
X117027794Y-113438157D01*
X117027794Y-113533395D01*
X116980175Y-113676252D01*
X116408746Y-114247680D01*
X117027794Y-114247680D01*
X112755941Y-86997279D02*
X112660703Y-86949660D01*
X112565465Y-86854421D01*
X112422608Y-86711564D01*
X112327370Y-86663945D01*
X112232132Y-86663945D01*
X112279751Y-86902040D02*
X112184513Y-86854421D01*
X112089275Y-86759183D01*
X112041656Y-86568707D01*
X112041656Y-86235374D01*
X112089275Y-86044898D01*
X112184513Y-85949660D01*
X112279751Y-85902040D01*
X112470227Y-85902040D01*
X112565465Y-85949660D01*
X112660703Y-86044898D01*
X112708322Y-86235374D01*
X112708322Y-86568707D01*
X112660703Y-86759183D01*
X112565465Y-86854421D01*
X112470227Y-86902040D01*
X112279751Y-86902040D01*
X113660703Y-86902040D02*
X113089275Y-86902040D01*
X113374989Y-86902040D02*
X113374989Y-85902040D01*
X113279751Y-86044898D01*
X113184513Y-86140136D01*
X113089275Y-86187755D01*
X112148881Y-109801399D02*
X112053643Y-109753780D01*
X111958405Y-109658541D01*
X111815548Y-109515684D01*
X111720310Y-109468065D01*
X111625072Y-109468065D01*
X111672691Y-109706160D02*
X111577453Y-109658541D01*
X111482215Y-109563303D01*
X111434596Y-109372827D01*
X111434596Y-109039494D01*
X111482215Y-108849018D01*
X111577453Y-108753780D01*
X111672691Y-108706160D01*
X111863167Y-108706160D01*
X111958405Y-108753780D01*
X112053643Y-108849018D01*
X112101262Y-109039494D01*
X112101262Y-109372827D01*
X112053643Y-109563303D01*
X111958405Y-109658541D01*
X111863167Y-109706160D01*
X111672691Y-109706160D01*
X112482215Y-108801399D02*
X112529834Y-108753780D01*
X112625072Y-108706160D01*
X112863167Y-108706160D01*
X112958405Y-108753780D01*
X113006024Y-108801399D01*
X113053643Y-108896637D01*
X113053643Y-108991875D01*
X113006024Y-109134732D01*
X112434596Y-109706160D01*
X113053643Y-109706160D01*
X67321133Y-85294742D02*
X67273514Y-85342361D01*
X67130657Y-85389980D01*
X67035419Y-85389980D01*
X66892561Y-85342361D01*
X66797323Y-85247123D01*
X66749704Y-85151885D01*
X66702085Y-84961409D01*
X66702085Y-84818552D01*
X66749704Y-84628076D01*
X66797323Y-84532838D01*
X66892561Y-84437600D01*
X67035419Y-84389980D01*
X67130657Y-84389980D01*
X67273514Y-84437600D01*
X67321133Y-84485219D01*
X68273514Y-85389980D02*
X67702085Y-85389980D01*
X67987800Y-85389980D02*
X67987800Y-84389980D01*
X67892561Y-84532838D01*
X67797323Y-84628076D01*
X67702085Y-84675695D01*
X106159253Y-77439282D02*
X106111634Y-77486901D01*
X105968777Y-77534520D01*
X105873539Y-77534520D01*
X105730681Y-77486901D01*
X105635443Y-77391663D01*
X105587824Y-77296425D01*
X105540205Y-77105949D01*
X105540205Y-76963092D01*
X105587824Y-76772616D01*
X105635443Y-76677378D01*
X105730681Y-76582140D01*
X105873539Y-76534520D01*
X105968777Y-76534520D01*
X106111634Y-76582140D01*
X106159253Y-76629759D01*
X107016396Y-76867854D02*
X107016396Y-77534520D01*
X106778300Y-76486901D02*
X106540205Y-77201187D01*
X107159253Y-77201187D01*
X74760082Y-84146900D02*
X74426749Y-83670710D01*
X74188654Y-84146900D02*
X74188654Y-83146900D01*
X74569606Y-83146900D01*
X74664844Y-83194520D01*
X74712463Y-83242139D01*
X74760082Y-83337377D01*
X74760082Y-83480234D01*
X74712463Y-83575472D01*
X74664844Y-83623091D01*
X74569606Y-83670710D01*
X74188654Y-83670710D01*
X75712463Y-84146900D02*
X75141035Y-84146900D01*
X75426749Y-84146900D02*
X75426749Y-83146900D01*
X75331511Y-83289758D01*
X75236273Y-83384996D01*
X75141035Y-83432615D01*
X76664844Y-84146900D02*
X76093416Y-84146900D01*
X76379130Y-84146900D02*
X76379130Y-83146900D01*
X76283892Y-83289758D01*
X76188654Y-83384996D01*
X76093416Y-83432615D01*
X74090542Y-104328980D02*
X73757209Y-103852790D01*
X73519114Y-104328980D02*
X73519114Y-103328980D01*
X73900066Y-103328980D01*
X73995304Y-103376600D01*
X74042923Y-103424219D01*
X74090542Y-103519457D01*
X74090542Y-103662314D01*
X74042923Y-103757552D01*
X73995304Y-103805171D01*
X73900066Y-103852790D01*
X73519114Y-103852790D01*
X75042923Y-104328980D02*
X74471495Y-104328980D01*
X74757209Y-104328980D02*
X74757209Y-103328980D01*
X74661971Y-103471838D01*
X74566733Y-103567076D01*
X74471495Y-103614695D01*
X75423876Y-103424219D02*
X75471495Y-103376600D01*
X75566733Y-103328980D01*
X75804828Y-103328980D01*
X75900066Y-103376600D01*
X75947685Y-103424219D01*
X75995304Y-103519457D01*
X75995304Y-103614695D01*
X75947685Y-103757552D01*
X75376257Y-104328980D01*
X75995304Y-104328980D01*
X108086235Y-100463860D02*
X108086235Y-101273384D01*
X108133854Y-101368622D01*
X108181473Y-101416241D01*
X108276711Y-101463860D01*
X108467187Y-101463860D01*
X108562425Y-101416241D01*
X108610044Y-101368622D01*
X108657663Y-101273384D01*
X108657663Y-100463860D01*
X109038616Y-100463860D02*
X109657663Y-100463860D01*
X109324330Y-100844813D01*
X109467187Y-100844813D01*
X109562425Y-100892432D01*
X109610044Y-100940051D01*
X109657663Y-101035289D01*
X109657663Y-101273384D01*
X109610044Y-101368622D01*
X109562425Y-101416241D01*
X109467187Y-101463860D01*
X109181473Y-101463860D01*
X109086235Y-101416241D01*
X109038616Y-101368622D01*
X109186180Y-95153485D02*
X108186180Y-95153485D01*
X109186180Y-94582057D01*
X108186180Y-94582057D01*
X109186180Y-93963009D02*
X109138561Y-94058247D01*
X109090942Y-94105866D01*
X108995704Y-94153485D01*
X108709990Y-94153485D01*
X108614752Y-94105866D01*
X108567133Y-94058247D01*
X108519514Y-93963009D01*
X108519514Y-93820152D01*
X108567133Y-93724914D01*
X108614752Y-93677295D01*
X108709990Y-93629676D01*
X108995704Y-93629676D01*
X109090942Y-93677295D01*
X109138561Y-93724914D01*
X109186180Y-93820152D01*
X109186180Y-93963009D01*
X109090942Y-91867771D02*
X109138561Y-91915390D01*
X109186180Y-92058247D01*
X109186180Y-92153485D01*
X109138561Y-92296342D01*
X109043323Y-92391580D01*
X108948085Y-92439200D01*
X108757609Y-92486819D01*
X108614752Y-92486819D01*
X108424276Y-92439200D01*
X108329038Y-92391580D01*
X108233800Y-92296342D01*
X108186180Y-92153485D01*
X108186180Y-92058247D01*
X108233800Y-91915390D01*
X108281419Y-91867771D01*
X109186180Y-91296342D02*
X109138561Y-91391580D01*
X109090942Y-91439200D01*
X108995704Y-91486819D01*
X108709990Y-91486819D01*
X108614752Y-91439200D01*
X108567133Y-91391580D01*
X108519514Y-91296342D01*
X108519514Y-91153485D01*
X108567133Y-91058247D01*
X108614752Y-91010628D01*
X108709990Y-90963009D01*
X108995704Y-90963009D01*
X109090942Y-91010628D01*
X109138561Y-91058247D01*
X109186180Y-91153485D01*
X109186180Y-91296342D01*
X108519514Y-90534438D02*
X109519514Y-90534438D01*
X108567133Y-90534438D02*
X108519514Y-90439200D01*
X108519514Y-90248723D01*
X108567133Y-90153485D01*
X108614752Y-90105866D01*
X108709990Y-90058247D01*
X108995704Y-90058247D01*
X109090942Y-90105866D01*
X109138561Y-90153485D01*
X109186180Y-90248723D01*
X109186180Y-90439200D01*
X109138561Y-90534438D01*
X108519514Y-89629676D02*
X109519514Y-89629676D01*
X108567133Y-89629676D02*
X108519514Y-89534438D01*
X108519514Y-89343961D01*
X108567133Y-89248723D01*
X108614752Y-89201104D01*
X108709990Y-89153485D01*
X108995704Y-89153485D01*
X109090942Y-89201104D01*
X109138561Y-89248723D01*
X109186180Y-89343961D01*
X109186180Y-89534438D01*
X109138561Y-89629676D01*
X109138561Y-88343961D02*
X109186180Y-88439200D01*
X109186180Y-88629676D01*
X109138561Y-88724914D01*
X109043323Y-88772533D01*
X108662371Y-88772533D01*
X108567133Y-88724914D01*
X108519514Y-88629676D01*
X108519514Y-88439200D01*
X108567133Y-88343961D01*
X108662371Y-88296342D01*
X108757609Y-88296342D01*
X108852847Y-88772533D01*
X109186180Y-87867771D02*
X108519514Y-87867771D01*
X108709990Y-87867771D02*
X108614752Y-87820152D01*
X108567133Y-87772533D01*
X108519514Y-87677295D01*
X108519514Y-87582057D01*
X77127453Y-94047342D02*
X77079834Y-94094961D01*
X76936977Y-94142580D01*
X76841739Y-94142580D01*
X76698881Y-94094961D01*
X76603643Y-93999723D01*
X76556024Y-93904485D01*
X76508405Y-93714009D01*
X76508405Y-93571152D01*
X76556024Y-93380676D01*
X76603643Y-93285438D01*
X76698881Y-93190200D01*
X76841739Y-93142580D01*
X76936977Y-93142580D01*
X77079834Y-93190200D01*
X77127453Y-93237819D01*
X77508405Y-93237819D02*
X77556024Y-93190200D01*
X77651262Y-93142580D01*
X77889358Y-93142580D01*
X77984596Y-93190200D01*
X78032215Y-93237819D01*
X78079834Y-93333057D01*
X78079834Y-93428295D01*
X78032215Y-93571152D01*
X77460786Y-94142580D01*
X78079834Y-94142580D01*
X127382104Y-94166840D02*
X127382104Y-93166840D01*
X127953533Y-94166840D02*
X127524961Y-93595412D01*
X127953533Y-93166840D02*
X127382104Y-93738269D01*
X128905914Y-94166840D02*
X128334485Y-94166840D01*
X128620200Y-94166840D02*
X128620200Y-93166840D01*
X128524961Y-93309698D01*
X128429723Y-93404936D01*
X128334485Y-93452555D01*
X127382104Y-128368180D02*
X127382104Y-127368180D01*
X127953533Y-128368180D02*
X127524961Y-127796752D01*
X127953533Y-127368180D02*
X127382104Y-127939609D01*
X128334485Y-127463419D02*
X128382104Y-127415800D01*
X128477342Y-127368180D01*
X128715438Y-127368180D01*
X128810676Y-127415800D01*
X128858295Y-127463419D01*
X128905914Y-127558657D01*
X128905914Y-127653895D01*
X128858295Y-127796752D01*
X128286866Y-128368180D01*
X128905914Y-128368180D01*
X59066775Y-91375740D02*
X59066775Y-92185264D01*
X59114394Y-92280502D01*
X59162013Y-92328121D01*
X59257251Y-92375740D01*
X59447727Y-92375740D01*
X59542965Y-92328121D01*
X59590584Y-92280502D01*
X59638203Y-92185264D01*
X59638203Y-91375740D01*
X60066775Y-91470979D02*
X60114394Y-91423360D01*
X60209632Y-91375740D01*
X60447727Y-91375740D01*
X60542965Y-91423360D01*
X60590584Y-91470979D01*
X60638203Y-91566217D01*
X60638203Y-91661455D01*
X60590584Y-91804312D01*
X60019156Y-92375740D01*
X60638203Y-92375740D01*
X122170535Y-107900980D02*
X122170535Y-108710504D01*
X122218154Y-108805742D01*
X122265773Y-108853361D01*
X122361011Y-108900980D01*
X122551487Y-108900980D01*
X122646725Y-108853361D01*
X122694344Y-108805742D01*
X122741963Y-108710504D01*
X122741963Y-107900980D01*
X123646725Y-108234314D02*
X123646725Y-108900980D01*
X123408630Y-107853361D02*
X123170535Y-108567647D01*
X123789582Y-108567647D01*
X89770295Y-127994920D02*
X89770295Y-128804444D01*
X89817914Y-128899682D01*
X89865533Y-128947301D01*
X89960771Y-128994920D01*
X90151247Y-128994920D01*
X90246485Y-128947301D01*
X90294104Y-128899682D01*
X90341723Y-128804444D01*
X90341723Y-127994920D01*
X91341723Y-128994920D02*
X90770295Y-128994920D01*
X91056009Y-128994920D02*
X91056009Y-127994920D01*
X90960771Y-128137778D01*
X90865533Y-128233016D01*
X90770295Y-128280635D01*
X110455366Y-122233380D02*
X110455366Y-122947666D01*
X110407747Y-123090523D01*
X110312509Y-123185761D01*
X110169652Y-123233380D01*
X110074414Y-123233380D01*
X111407747Y-122233380D02*
X110931557Y-122233380D01*
X110883938Y-122709571D01*
X110931557Y-122661952D01*
X111026795Y-122614333D01*
X111264890Y-122614333D01*
X111360128Y-122661952D01*
X111407747Y-122709571D01*
X111455366Y-122804809D01*
X111455366Y-123042904D01*
X111407747Y-123138142D01*
X111360128Y-123185761D01*
X111264890Y-123233380D01*
X111026795Y-123233380D01*
X110931557Y-123185761D01*
X110883938Y-123138142D01*
X69932966Y-84614141D02*
X70075823Y-84661760D01*
X70313919Y-84661760D01*
X70409157Y-84614141D01*
X70456776Y-84566522D01*
X70504395Y-84471284D01*
X70504395Y-84376046D01*
X70456776Y-84280808D01*
X70409157Y-84233189D01*
X70313919Y-84185570D01*
X70123442Y-84137951D01*
X70028204Y-84090332D01*
X69980585Y-84042713D01*
X69932966Y-83947475D01*
X69932966Y-83852237D01*
X69980585Y-83756999D01*
X70028204Y-83709380D01*
X70123442Y-83661760D01*
X70361538Y-83661760D01*
X70504395Y-83709380D01*
X70837728Y-83661760D02*
X71075823Y-84661760D01*
X71266300Y-83947475D01*
X71456776Y-84661760D01*
X71694871Y-83661760D01*
X72599633Y-84661760D02*
X72028204Y-84661760D01*
X72313919Y-84661760D02*
X72313919Y-83661760D01*
X72218680Y-83804618D01*
X72123442Y-83899856D01*
X72028204Y-83947475D01*
X70151406Y-100280861D02*
X70294263Y-100328480D01*
X70532359Y-100328480D01*
X70627597Y-100280861D01*
X70675216Y-100233242D01*
X70722835Y-100138004D01*
X70722835Y-100042766D01*
X70675216Y-99947528D01*
X70627597Y-99899909D01*
X70532359Y-99852290D01*
X70341882Y-99804671D01*
X70246644Y-99757052D01*
X70199025Y-99709433D01*
X70151406Y-99614195D01*
X70151406Y-99518957D01*
X70199025Y-99423719D01*
X70246644Y-99376100D01*
X70341882Y-99328480D01*
X70579978Y-99328480D01*
X70722835Y-99376100D01*
X71056168Y-99328480D02*
X71294263Y-100328480D01*
X71484740Y-99614195D01*
X71675216Y-100328480D01*
X71913311Y-99328480D01*
X72246644Y-99423719D02*
X72294263Y-99376100D01*
X72389501Y-99328480D01*
X72627597Y-99328480D01*
X72722835Y-99376100D01*
X72770454Y-99423719D01*
X72818073Y-99518957D01*
X72818073Y-99614195D01*
X72770454Y-99757052D01*
X72199025Y-100328480D01*
X72818073Y-100328480D01*
X111661866Y-81764380D02*
X111661866Y-82478666D01*
X111614247Y-82621523D01*
X111519009Y-82716761D01*
X111376152Y-82764380D01*
X111280914Y-82764380D01*
X112566628Y-81764380D02*
X112376152Y-81764380D01*
X112280914Y-81812000D01*
X112233295Y-81859619D01*
X112138057Y-82002476D01*
X112090438Y-82192952D01*
X112090438Y-82573904D01*
X112138057Y-82669142D01*
X112185676Y-82716761D01*
X112280914Y-82764380D01*
X112471390Y-82764380D01*
X112566628Y-82716761D01*
X112614247Y-82669142D01*
X112661866Y-82573904D01*
X112661866Y-82335809D01*
X112614247Y-82240571D01*
X112566628Y-82192952D01*
X112471390Y-82145333D01*
X112280914Y-82145333D01*
X112185676Y-82192952D01*
X112138057Y-82240571D01*
X112090438Y-82335809D01*
X86066180Y-79767133D02*
X86780466Y-79767133D01*
X86923323Y-79814752D01*
X87018561Y-79909990D01*
X87066180Y-80052847D01*
X87066180Y-80148085D01*
X87066180Y-79290942D02*
X86066180Y-79290942D01*
X86066180Y-78909990D01*
X86113800Y-78814752D01*
X86161419Y-78767133D01*
X86256657Y-78719514D01*
X86399514Y-78719514D01*
X86494752Y-78767133D01*
X86542371Y-78814752D01*
X86589990Y-78909990D01*
X86589990Y-79290942D01*
X87066180Y-77767133D02*
X87066180Y-78338561D01*
X87066180Y-78052847D02*
X86066180Y-78052847D01*
X86209038Y-78148085D01*
X86304276Y-78243323D01*
X86351895Y-78338561D01*
M02*
