G04 #@! TF.GenerationSoftware,KiCad,Pcbnew,(2017-04-22 revision b38541345)-makepkg*
G04 #@! TF.CreationDate,2017-05-30T09:40:34-07:00*
G04 #@! TF.ProjectId,WifiRelay,5769666952656C61792E6B696361645F,rev?*
G04 #@! TF.FileFunction,Legend,Bot*
G04 #@! TF.FilePolarity,Positive*
%FSLAX46Y46*%
G04 Gerber Fmt 4.6, Leading zero omitted, Abs format (unit mm)*
G04 Created by KiCad (PCBNEW (2017-04-22 revision b38541345)-makepkg) date 05/30/17 09:40:34*
%MOMM*%
%LPD*%
G01*
G04 APERTURE LIST*
%ADD10C,0.100000*%
%ADD11C,0.200000*%
%ADD12C,0.300000*%
G04 APERTURE END LIST*
D10*
D11*
X137964847Y-103219000D02*
X137964847Y-102219000D01*
X137393419Y-103219000D02*
X137821990Y-102647572D01*
X137393419Y-102219000D02*
X137964847Y-102790429D01*
X137012466Y-102314239D02*
X136964847Y-102266620D01*
X136869609Y-102219000D01*
X136631514Y-102219000D01*
X136536276Y-102266620D01*
X136488657Y-102314239D01*
X136441038Y-102409477D01*
X136441038Y-102504715D01*
X136488657Y-102647572D01*
X137060085Y-103219000D01*
X136441038Y-103219000D01*
X135298180Y-102171381D02*
X136155323Y-103457096D01*
X134679133Y-102219000D02*
X134679133Y-102933286D01*
X134726752Y-103076143D01*
X134821990Y-103171381D01*
X134964847Y-103219000D01*
X135060085Y-103219000D01*
X133774371Y-102552334D02*
X133774371Y-103219000D01*
X134012466Y-102171381D02*
X134250561Y-102885667D01*
X133631514Y-102885667D01*
X145518895Y-101786620D02*
X144703895Y-101786620D01*
X144941990Y-102266620D02*
X145037228Y-102219000D01*
X145180085Y-102219000D01*
X145322942Y-102266620D01*
X145418180Y-102361858D01*
X145465800Y-102457096D01*
X145513419Y-102647572D01*
X145513419Y-102790429D01*
X145465800Y-102980905D01*
X145418180Y-103076143D01*
X145322942Y-103171381D01*
X145180085Y-103219000D01*
X145084847Y-103219000D01*
X144941990Y-103171381D01*
X144894371Y-103123762D01*
X144894371Y-102790429D01*
X145084847Y-102790429D01*
X144703895Y-101786620D02*
X143703895Y-101786620D01*
X144465800Y-103219000D02*
X144465800Y-102219000D01*
X144084847Y-102219000D01*
X143989609Y-102266620D01*
X143941990Y-102314239D01*
X143894371Y-102409477D01*
X143894371Y-102552334D01*
X143941990Y-102647572D01*
X143989609Y-102695191D01*
X144084847Y-102742810D01*
X144465800Y-102742810D01*
X143703895Y-101786620D02*
X143227704Y-101786620D01*
X143465800Y-103219000D02*
X143465800Y-102219000D01*
X143227704Y-101786620D02*
X142180085Y-101786620D01*
X142799133Y-102219000D02*
X142608657Y-102219000D01*
X142513419Y-102266620D01*
X142418180Y-102361858D01*
X142370561Y-102552334D01*
X142370561Y-102885667D01*
X142418180Y-103076143D01*
X142513419Y-103171381D01*
X142608657Y-103219000D01*
X142799133Y-103219000D01*
X142894371Y-103171381D01*
X142989609Y-103076143D01*
X143037228Y-102885667D01*
X143037228Y-102552334D01*
X142989609Y-102361858D01*
X142894371Y-102266620D01*
X142799133Y-102219000D01*
X142180085Y-101786620D02*
X141227704Y-101786620D01*
X141513419Y-102552334D02*
X141513419Y-103219000D01*
X141751514Y-102171381D02*
X141989609Y-102885667D01*
X141370561Y-102885667D01*
X145544295Y-99297420D02*
X144729295Y-99297420D01*
X144967390Y-99777420D02*
X145062628Y-99729800D01*
X145205485Y-99729800D01*
X145348342Y-99777420D01*
X145443580Y-99872658D01*
X145491200Y-99967896D01*
X145538819Y-100158372D01*
X145538819Y-100301229D01*
X145491200Y-100491705D01*
X145443580Y-100586943D01*
X145348342Y-100682181D01*
X145205485Y-100729800D01*
X145110247Y-100729800D01*
X144967390Y-100682181D01*
X144919771Y-100634562D01*
X144919771Y-100301229D01*
X145110247Y-100301229D01*
X144729295Y-99297420D02*
X143729295Y-99297420D01*
X144491200Y-100729800D02*
X144491200Y-99729800D01*
X144110247Y-99729800D01*
X144015009Y-99777420D01*
X143967390Y-99825039D01*
X143919771Y-99920277D01*
X143919771Y-100063134D01*
X143967390Y-100158372D01*
X144015009Y-100205991D01*
X144110247Y-100253610D01*
X144491200Y-100253610D01*
X143729295Y-99297420D02*
X143253104Y-99297420D01*
X143491200Y-100729800D02*
X143491200Y-99729800D01*
X143253104Y-99297420D02*
X142205485Y-99297420D01*
X142824533Y-99729800D02*
X142634057Y-99729800D01*
X142538819Y-99777420D01*
X142443580Y-99872658D01*
X142395961Y-100063134D01*
X142395961Y-100396467D01*
X142443580Y-100586943D01*
X142538819Y-100682181D01*
X142634057Y-100729800D01*
X142824533Y-100729800D01*
X142919771Y-100682181D01*
X143015009Y-100586943D01*
X143062628Y-100396467D01*
X143062628Y-100063134D01*
X143015009Y-99872658D01*
X142919771Y-99777420D01*
X142824533Y-99729800D01*
X142205485Y-99297420D02*
X141253104Y-99297420D01*
X141491200Y-99729800D02*
X141967390Y-99729800D01*
X142015009Y-100205991D01*
X141967390Y-100158372D01*
X141872152Y-100110753D01*
X141634057Y-100110753D01*
X141538819Y-100158372D01*
X141491200Y-100205991D01*
X141443580Y-100301229D01*
X141443580Y-100539324D01*
X141491200Y-100634562D01*
X141538819Y-100682181D01*
X141634057Y-100729800D01*
X141872152Y-100729800D01*
X141967390Y-100682181D01*
X142015009Y-100634562D01*
X137964847Y-100729800D02*
X137964847Y-99729800D01*
X137393419Y-100729800D02*
X137821990Y-100158372D01*
X137393419Y-99729800D02*
X137964847Y-100301229D01*
X136441038Y-100729800D02*
X137012466Y-100729800D01*
X136726752Y-100729800D02*
X136726752Y-99729800D01*
X136821990Y-99872658D01*
X136917228Y-99967896D01*
X137012466Y-100015515D01*
X135298180Y-99682181D02*
X136155323Y-100967896D01*
X134679133Y-99729800D02*
X134679133Y-100444086D01*
X134726752Y-100586943D01*
X134821990Y-100682181D01*
X134964847Y-100729800D01*
X135060085Y-100729800D01*
X134298180Y-99729800D02*
X133679133Y-99729800D01*
X134012466Y-100110753D01*
X133869609Y-100110753D01*
X133774371Y-100158372D01*
X133726752Y-100205991D01*
X133679133Y-100301229D01*
X133679133Y-100539324D01*
X133726752Y-100634562D01*
X133774371Y-100682181D01*
X133869609Y-100729800D01*
X134155323Y-100729800D01*
X134250561Y-100682181D01*
X134298180Y-100634562D01*
X130297228Y-103219000D02*
X130630561Y-102742810D01*
X130868657Y-103219000D02*
X130868657Y-102219000D01*
X130487704Y-102219000D01*
X130392466Y-102266620D01*
X130344847Y-102314239D01*
X130297228Y-102409477D01*
X130297228Y-102552334D01*
X130344847Y-102647572D01*
X130392466Y-102695191D01*
X130487704Y-102742810D01*
X130868657Y-102742810D01*
X129487704Y-103171381D02*
X129582942Y-103219000D01*
X129773419Y-103219000D01*
X129868657Y-103171381D01*
X129916276Y-103076143D01*
X129916276Y-102695191D01*
X129868657Y-102599953D01*
X129773419Y-102552334D01*
X129582942Y-102552334D01*
X129487704Y-102599953D01*
X129440085Y-102695191D01*
X129440085Y-102790429D01*
X129916276Y-102885667D01*
X128868657Y-103219000D02*
X128963895Y-103171381D01*
X129011514Y-103076143D01*
X129011514Y-102219000D01*
X128059133Y-103219000D02*
X128059133Y-102695191D01*
X128106752Y-102599953D01*
X128201990Y-102552334D01*
X128392466Y-102552334D01*
X128487704Y-102599953D01*
X128059133Y-103171381D02*
X128154371Y-103219000D01*
X128392466Y-103219000D01*
X128487704Y-103171381D01*
X128535323Y-103076143D01*
X128535323Y-102980905D01*
X128487704Y-102885667D01*
X128392466Y-102838048D01*
X128154371Y-102838048D01*
X128059133Y-102790429D01*
X127678180Y-102552334D02*
X127440085Y-103219000D01*
X127201990Y-102552334D02*
X127440085Y-103219000D01*
X127535323Y-103457096D01*
X127582942Y-103504715D01*
X127678180Y-103552334D01*
X126106752Y-102314239D02*
X126059133Y-102266620D01*
X125963895Y-102219000D01*
X125725800Y-102219000D01*
X125630561Y-102266620D01*
X125582942Y-102314239D01*
X125535323Y-102409477D01*
X125535323Y-102504715D01*
X125582942Y-102647572D01*
X126154371Y-103219000D01*
X125535323Y-103219000D01*
X130297228Y-100729800D02*
X130630561Y-100253610D01*
X130868657Y-100729800D02*
X130868657Y-99729800D01*
X130487704Y-99729800D01*
X130392466Y-99777420D01*
X130344847Y-99825039D01*
X130297228Y-99920277D01*
X130297228Y-100063134D01*
X130344847Y-100158372D01*
X130392466Y-100205991D01*
X130487704Y-100253610D01*
X130868657Y-100253610D01*
X129487704Y-100682181D02*
X129582942Y-100729800D01*
X129773419Y-100729800D01*
X129868657Y-100682181D01*
X129916276Y-100586943D01*
X129916276Y-100205991D01*
X129868657Y-100110753D01*
X129773419Y-100063134D01*
X129582942Y-100063134D01*
X129487704Y-100110753D01*
X129440085Y-100205991D01*
X129440085Y-100301229D01*
X129916276Y-100396467D01*
X128868657Y-100729800D02*
X128963895Y-100682181D01*
X129011514Y-100586943D01*
X129011514Y-99729800D01*
X128059133Y-100729800D02*
X128059133Y-100205991D01*
X128106752Y-100110753D01*
X128201990Y-100063134D01*
X128392466Y-100063134D01*
X128487704Y-100110753D01*
X128059133Y-100682181D02*
X128154371Y-100729800D01*
X128392466Y-100729800D01*
X128487704Y-100682181D01*
X128535323Y-100586943D01*
X128535323Y-100491705D01*
X128487704Y-100396467D01*
X128392466Y-100348848D01*
X128154371Y-100348848D01*
X128059133Y-100301229D01*
X127678180Y-100063134D02*
X127440085Y-100729800D01*
X127201990Y-100063134D02*
X127440085Y-100729800D01*
X127535323Y-100967896D01*
X127582942Y-101015515D01*
X127678180Y-101063134D01*
X125535323Y-100729800D02*
X126106752Y-100729800D01*
X125821038Y-100729800D02*
X125821038Y-99729800D01*
X125916276Y-99872658D01*
X126011514Y-99967896D01*
X126106752Y-100015515D01*
X139655800Y-98778820D02*
X139655800Y-103858820D01*
X132035800Y-98778820D02*
X132035800Y-103858820D01*
X147275800Y-101318820D02*
X132035800Y-101318820D01*
X124415800Y-101318820D02*
X147275800Y-101318820D01*
X124415800Y-98778820D02*
X124415800Y-101318820D01*
X147275800Y-98778820D02*
X124415800Y-98778820D01*
X147275800Y-103858820D02*
X147275800Y-98778820D01*
X124415800Y-103858820D02*
X147275800Y-103858820D01*
X124415800Y-98778820D02*
X124415800Y-103858820D01*
D12*
X102748171Y-109318971D02*
X102391028Y-110818971D01*
X102105314Y-109747542D01*
X101819600Y-110818971D01*
X101462457Y-109318971D01*
X100891028Y-110818971D02*
X100891028Y-109818971D01*
X100891028Y-109318971D02*
X100962457Y-109390400D01*
X100891028Y-109461828D01*
X100819600Y-109390400D01*
X100891028Y-109318971D01*
X100891028Y-109461828D01*
X99676742Y-110033257D02*
X100176742Y-110033257D01*
X100176742Y-110818971D02*
X100176742Y-109318971D01*
X99462457Y-109318971D01*
X98891028Y-110818971D02*
X98891028Y-109818971D01*
X98891028Y-109318971D02*
X98962457Y-109390400D01*
X98891028Y-109461828D01*
X98819600Y-109390400D01*
X98891028Y-109318971D01*
X98891028Y-109461828D01*
X96176742Y-110676114D02*
X96248171Y-110747542D01*
X96462457Y-110818971D01*
X96605314Y-110818971D01*
X96819600Y-110747542D01*
X96962457Y-110604685D01*
X97033885Y-110461828D01*
X97105314Y-110176114D01*
X97105314Y-109961828D01*
X97033885Y-109676114D01*
X96962457Y-109533257D01*
X96819600Y-109390400D01*
X96605314Y-109318971D01*
X96462457Y-109318971D01*
X96248171Y-109390400D01*
X96176742Y-109461828D01*
X95319600Y-110818971D02*
X95462457Y-110747542D01*
X95533885Y-110676114D01*
X95605314Y-110533257D01*
X95605314Y-110104685D01*
X95533885Y-109961828D01*
X95462457Y-109890400D01*
X95319600Y-109818971D01*
X95105314Y-109818971D01*
X94962457Y-109890400D01*
X94891028Y-109961828D01*
X94819600Y-110104685D01*
X94819600Y-110533257D01*
X94891028Y-110676114D01*
X94962457Y-110747542D01*
X95105314Y-110818971D01*
X95319600Y-110818971D01*
X94176742Y-109818971D02*
X94176742Y-110818971D01*
X94176742Y-109961828D02*
X94105314Y-109890400D01*
X93962457Y-109818971D01*
X93748171Y-109818971D01*
X93605314Y-109890400D01*
X93533885Y-110033257D01*
X93533885Y-110818971D01*
X93033885Y-109818971D02*
X92462457Y-109818971D01*
X92819600Y-109318971D02*
X92819600Y-110604685D01*
X92748171Y-110747542D01*
X92605314Y-110818971D01*
X92462457Y-110818971D01*
X91962457Y-110818971D02*
X91962457Y-109818971D01*
X91962457Y-110104685D02*
X91891028Y-109961828D01*
X91819600Y-109890400D01*
X91676742Y-109818971D01*
X91533885Y-109818971D01*
X90819600Y-110818971D02*
X90962457Y-110747542D01*
X91033885Y-110676114D01*
X91105314Y-110533257D01*
X91105314Y-110104685D01*
X91033885Y-109961828D01*
X90962457Y-109890400D01*
X90819600Y-109818971D01*
X90605314Y-109818971D01*
X90462457Y-109890400D01*
X90391028Y-109961828D01*
X90319600Y-110104685D01*
X90319600Y-110533257D01*
X90391028Y-110676114D01*
X90462457Y-110747542D01*
X90605314Y-110818971D01*
X90819600Y-110818971D01*
X89462457Y-110818971D02*
X89605314Y-110747542D01*
X89676742Y-110604685D01*
X89676742Y-109318971D01*
X88676742Y-110818971D02*
X88819600Y-110747542D01*
X88891028Y-110604685D01*
X88891028Y-109318971D01*
X87533885Y-110747542D02*
X87676742Y-110818971D01*
X87962457Y-110818971D01*
X88105314Y-110747542D01*
X88176742Y-110604685D01*
X88176742Y-110033257D01*
X88105314Y-109890400D01*
X87962457Y-109818971D01*
X87676742Y-109818971D01*
X87533885Y-109890400D01*
X87462457Y-110033257D01*
X87462457Y-110176114D01*
X88176742Y-110318971D01*
X86819600Y-110818971D02*
X86819600Y-109818971D01*
X86819600Y-110104685D02*
X86748171Y-109961828D01*
X86676742Y-109890400D01*
X86533885Y-109818971D01*
X86391028Y-109818971D01*
X85819600Y-110747542D02*
X85819600Y-110818971D01*
X85891028Y-110961828D01*
X85962457Y-111033257D01*
X84176742Y-109818971D02*
X83819600Y-110818971D01*
X83462457Y-109818971D01*
X82105314Y-110818971D02*
X82962457Y-110818971D01*
X82533885Y-110818971D02*
X82533885Y-109318971D01*
X82676742Y-109533257D01*
X82819600Y-109676114D01*
X82962457Y-109747542D01*
X81462457Y-110676114D02*
X81391028Y-110747542D01*
X81462457Y-110818971D01*
X81533885Y-110747542D01*
X81462457Y-110676114D01*
X81462457Y-110818971D01*
X79962457Y-110818971D02*
X80819600Y-110818971D01*
X80391028Y-110818971D02*
X80391028Y-109318971D01*
X80533885Y-109533257D01*
X80676742Y-109676114D01*
X80819600Y-109747542D01*
X99962457Y-111868971D02*
X99962457Y-112940400D01*
X100033885Y-113154685D01*
X100176742Y-113297542D01*
X100391028Y-113368971D01*
X100533885Y-113368971D01*
X98676742Y-113297542D02*
X98819600Y-113368971D01*
X99105314Y-113368971D01*
X99248171Y-113297542D01*
X99319600Y-113154685D01*
X99319600Y-112583257D01*
X99248171Y-112440400D01*
X99105314Y-112368971D01*
X98819600Y-112368971D01*
X98676742Y-112440400D01*
X98605314Y-112583257D01*
X98605314Y-112726114D01*
X99319600Y-112868971D01*
X98176742Y-112368971D02*
X97605314Y-112368971D01*
X97962457Y-113368971D02*
X97962457Y-112083257D01*
X97891028Y-111940400D01*
X97748171Y-111868971D01*
X97605314Y-111868971D01*
X97319600Y-112368971D02*
X96748171Y-112368971D01*
X97105314Y-113368971D02*
X97105314Y-112083257D01*
X97033885Y-111940400D01*
X96891028Y-111868971D01*
X96748171Y-111868971D01*
X95105314Y-113368971D02*
X95105314Y-111868971D01*
X94748171Y-111868971D01*
X94533885Y-111940400D01*
X94391028Y-112083257D01*
X94319600Y-112226114D01*
X94248171Y-112511828D01*
X94248171Y-112726114D01*
X94319600Y-113011828D01*
X94391028Y-113154685D01*
X94533885Y-113297542D01*
X94748171Y-113368971D01*
X95105314Y-113368971D01*
X92962457Y-113368971D02*
X92962457Y-112583257D01*
X93033885Y-112440400D01*
X93176742Y-112368971D01*
X93462457Y-112368971D01*
X93605314Y-112440400D01*
X92962457Y-113297542D02*
X93105314Y-113368971D01*
X93462457Y-113368971D01*
X93605314Y-113297542D01*
X93676742Y-113154685D01*
X93676742Y-113011828D01*
X93605314Y-112868971D01*
X93462457Y-112797542D01*
X93105314Y-112797542D01*
X92962457Y-112726114D01*
X92391028Y-112368971D02*
X92033885Y-113368971D01*
X91676742Y-112368971D01*
X91105314Y-113368971D02*
X91105314Y-112368971D01*
X91105314Y-111868971D02*
X91176742Y-111940400D01*
X91105314Y-112011828D01*
X91033885Y-111940400D01*
X91105314Y-111868971D01*
X91105314Y-112011828D01*
X90462457Y-113297542D02*
X90319600Y-113368971D01*
X90033885Y-113368971D01*
X89891028Y-113297542D01*
X89819600Y-113154685D01*
X89819600Y-113083257D01*
X89891028Y-112940400D01*
X90033885Y-112868971D01*
X90248171Y-112868971D01*
X90391028Y-112797542D01*
X90462457Y-112654685D01*
X90462457Y-112583257D01*
X90391028Y-112440400D01*
X90248171Y-112368971D01*
X90033885Y-112368971D01*
X89891028Y-112440400D01*
X89105314Y-113297542D02*
X89105314Y-113368971D01*
X89176742Y-113511828D01*
X89248171Y-113583257D01*
X87319600Y-113368971D02*
X87319600Y-111868971D01*
X86462457Y-113368971D01*
X86462457Y-111868971D01*
X85462457Y-111868971D02*
X85319600Y-111868971D01*
X85176742Y-111940400D01*
X85105314Y-112011828D01*
X85033885Y-112154685D01*
X84962457Y-112440400D01*
X84962457Y-112797542D01*
X85033885Y-113083257D01*
X85105314Y-113226114D01*
X85176742Y-113297542D01*
X85319600Y-113368971D01*
X85462457Y-113368971D01*
X85605314Y-113297542D01*
X85676742Y-113226114D01*
X85748171Y-113083257D01*
X85819600Y-112797542D01*
X85819600Y-112440400D01*
X85748171Y-112154685D01*
X85676742Y-112011828D01*
X85605314Y-111940400D01*
X85462457Y-111868971D01*
X84319600Y-113368971D02*
X84319600Y-111868971D01*
X83962457Y-111868971D01*
X83748171Y-111940400D01*
X83605314Y-112083257D01*
X83533885Y-112226114D01*
X83462457Y-112511828D01*
X83462457Y-112726114D01*
X83533885Y-113011828D01*
X83605314Y-113154685D01*
X83748171Y-113297542D01*
X83962457Y-113368971D01*
X84319600Y-113368971D01*
X82533885Y-112654685D02*
X82533885Y-113368971D01*
X83033885Y-111868971D02*
X82533885Y-112654685D01*
X82033885Y-111868971D01*
X96819600Y-114418971D02*
X97533885Y-114418971D01*
X97605314Y-115133257D01*
X97533885Y-115061828D01*
X97391028Y-114990400D01*
X97033885Y-114990400D01*
X96891028Y-115061828D01*
X96819600Y-115133257D01*
X96748171Y-115276114D01*
X96748171Y-115633257D01*
X96819600Y-115776114D01*
X96891028Y-115847542D01*
X97033885Y-115918971D01*
X97391028Y-115918971D01*
X97533885Y-115847542D01*
X97605314Y-115776114D01*
X95033885Y-114347542D02*
X96319600Y-116276114D01*
X94605314Y-114561828D02*
X94533885Y-114490400D01*
X94391028Y-114418971D01*
X94033885Y-114418971D01*
X93891028Y-114490400D01*
X93819600Y-114561828D01*
X93748171Y-114704685D01*
X93748171Y-114847542D01*
X93819600Y-115061828D01*
X94676742Y-115918971D01*
X93748171Y-115918971D01*
X92891028Y-115061828D02*
X93033885Y-114990400D01*
X93105314Y-114918971D01*
X93176742Y-114776114D01*
X93176742Y-114704685D01*
X93105314Y-114561828D01*
X93033885Y-114490400D01*
X92891028Y-114418971D01*
X92605314Y-114418971D01*
X92462457Y-114490400D01*
X92391028Y-114561828D01*
X92319600Y-114704685D01*
X92319600Y-114776114D01*
X92391028Y-114918971D01*
X92462457Y-114990400D01*
X92605314Y-115061828D01*
X92891028Y-115061828D01*
X93033885Y-115133257D01*
X93105314Y-115204685D01*
X93176742Y-115347542D01*
X93176742Y-115633257D01*
X93105314Y-115776114D01*
X93033885Y-115847542D01*
X92891028Y-115918971D01*
X92605314Y-115918971D01*
X92462457Y-115847542D01*
X92391028Y-115776114D01*
X92319600Y-115633257D01*
X92319600Y-115347542D01*
X92391028Y-115204685D01*
X92462457Y-115133257D01*
X92605314Y-115061828D01*
X90605314Y-114347542D02*
X91891028Y-116276114D01*
X90176742Y-114561828D02*
X90105314Y-114490400D01*
X89962457Y-114418971D01*
X89605314Y-114418971D01*
X89462457Y-114490400D01*
X89391028Y-114561828D01*
X89319600Y-114704685D01*
X89319600Y-114847542D01*
X89391028Y-115061828D01*
X90248171Y-115918971D01*
X89319600Y-115918971D01*
X88391028Y-114418971D02*
X88248171Y-114418971D01*
X88105314Y-114490400D01*
X88033885Y-114561828D01*
X87962457Y-114704685D01*
X87891028Y-114990400D01*
X87891028Y-115347542D01*
X87962457Y-115633257D01*
X88033885Y-115776114D01*
X88105314Y-115847542D01*
X88248171Y-115918971D01*
X88391028Y-115918971D01*
X88533885Y-115847542D01*
X88605314Y-115776114D01*
X88676742Y-115633257D01*
X88748171Y-115347542D01*
X88748171Y-114990400D01*
X88676742Y-114704685D01*
X88605314Y-114561828D01*
X88533885Y-114490400D01*
X88391028Y-114418971D01*
X86462457Y-115918971D02*
X87319600Y-115918971D01*
X86891028Y-115918971D02*
X86891028Y-114418971D01*
X87033885Y-114633257D01*
X87176742Y-114776114D01*
X87319600Y-114847542D01*
X85962457Y-114418971D02*
X84962457Y-114418971D01*
X85605314Y-115918971D01*
M02*
