G04 #@! TF.GenerationSoftware,KiCad,Pcbnew,(2017-04-22 revision b38541345)-makepkg*
G04 #@! TF.CreationDate,2017-06-22T14:02:37-07:00*
G04 #@! TF.ProjectId,WifiRelay,5769666952656C61792E6B696361645F,rev?*
G04 #@! TF.FileFunction,Legend,Bot*
G04 #@! TF.FilePolarity,Positive*
%FSLAX46Y46*%
G04 Gerber Fmt 4.6, Leading zero omitted, Abs format (unit mm)*
G04 Created by KiCad (PCBNEW (2017-04-22 revision b38541345)-makepkg) date 06/22/17 14:02:37*
%MOMM*%
%LPD*%
G01*
G04 APERTURE LIST*
%ADD10C,0.100000*%
%ADD11C,0.200000*%
%ADD12C,0.300000*%
G04 APERTURE END LIST*
D10*
D11*
X137964847Y-103219000D02*
X137964847Y-102219000D01*
X137393419Y-103219000D02*
X137821990Y-102647572D01*
X137393419Y-102219000D02*
X137964847Y-102790429D01*
X137012466Y-102314239D02*
X136964847Y-102266620D01*
X136869609Y-102219000D01*
X136631514Y-102219000D01*
X136536276Y-102266620D01*
X136488657Y-102314239D01*
X136441038Y-102409477D01*
X136441038Y-102504715D01*
X136488657Y-102647572D01*
X137060085Y-103219000D01*
X136441038Y-103219000D01*
X135298180Y-102171381D02*
X136155323Y-103457096D01*
X134679133Y-102219000D02*
X134679133Y-102933286D01*
X134726752Y-103076143D01*
X134821990Y-103171381D01*
X134964847Y-103219000D01*
X135060085Y-103219000D01*
X133774371Y-102552334D02*
X133774371Y-103219000D01*
X134012466Y-102171381D02*
X134250561Y-102885667D01*
X133631514Y-102885667D01*
X145518895Y-101786620D02*
X144703895Y-101786620D01*
X144941990Y-102266620D02*
X145037228Y-102219000D01*
X145180085Y-102219000D01*
X145322942Y-102266620D01*
X145418180Y-102361858D01*
X145465800Y-102457096D01*
X145513419Y-102647572D01*
X145513419Y-102790429D01*
X145465800Y-102980905D01*
X145418180Y-103076143D01*
X145322942Y-103171381D01*
X145180085Y-103219000D01*
X145084847Y-103219000D01*
X144941990Y-103171381D01*
X144894371Y-103123762D01*
X144894371Y-102790429D01*
X145084847Y-102790429D01*
X144703895Y-101786620D02*
X143703895Y-101786620D01*
X144465800Y-103219000D02*
X144465800Y-102219000D01*
X144084847Y-102219000D01*
X143989609Y-102266620D01*
X143941990Y-102314239D01*
X143894371Y-102409477D01*
X143894371Y-102552334D01*
X143941990Y-102647572D01*
X143989609Y-102695191D01*
X144084847Y-102742810D01*
X144465800Y-102742810D01*
X143703895Y-101786620D02*
X143227704Y-101786620D01*
X143465800Y-103219000D02*
X143465800Y-102219000D01*
X143227704Y-101786620D02*
X142180085Y-101786620D01*
X142799133Y-102219000D02*
X142608657Y-102219000D01*
X142513419Y-102266620D01*
X142418180Y-102361858D01*
X142370561Y-102552334D01*
X142370561Y-102885667D01*
X142418180Y-103076143D01*
X142513419Y-103171381D01*
X142608657Y-103219000D01*
X142799133Y-103219000D01*
X142894371Y-103171381D01*
X142989609Y-103076143D01*
X143037228Y-102885667D01*
X143037228Y-102552334D01*
X142989609Y-102361858D01*
X142894371Y-102266620D01*
X142799133Y-102219000D01*
X142180085Y-101786620D02*
X141227704Y-101786620D01*
X141513419Y-102552334D02*
X141513419Y-103219000D01*
X141751514Y-102171381D02*
X141989609Y-102885667D01*
X141370561Y-102885667D01*
X145544295Y-99297420D02*
X144729295Y-99297420D01*
X144967390Y-99777420D02*
X145062628Y-99729800D01*
X145205485Y-99729800D01*
X145348342Y-99777420D01*
X145443580Y-99872658D01*
X145491200Y-99967896D01*
X145538819Y-100158372D01*
X145538819Y-100301229D01*
X145491200Y-100491705D01*
X145443580Y-100586943D01*
X145348342Y-100682181D01*
X145205485Y-100729800D01*
X145110247Y-100729800D01*
X144967390Y-100682181D01*
X144919771Y-100634562D01*
X144919771Y-100301229D01*
X145110247Y-100301229D01*
X144729295Y-99297420D02*
X143729295Y-99297420D01*
X144491200Y-100729800D02*
X144491200Y-99729800D01*
X144110247Y-99729800D01*
X144015009Y-99777420D01*
X143967390Y-99825039D01*
X143919771Y-99920277D01*
X143919771Y-100063134D01*
X143967390Y-100158372D01*
X144015009Y-100205991D01*
X144110247Y-100253610D01*
X144491200Y-100253610D01*
X143729295Y-99297420D02*
X143253104Y-99297420D01*
X143491200Y-100729800D02*
X143491200Y-99729800D01*
X143253104Y-99297420D02*
X142205485Y-99297420D01*
X142824533Y-99729800D02*
X142634057Y-99729800D01*
X142538819Y-99777420D01*
X142443580Y-99872658D01*
X142395961Y-100063134D01*
X142395961Y-100396467D01*
X142443580Y-100586943D01*
X142538819Y-100682181D01*
X142634057Y-100729800D01*
X142824533Y-100729800D01*
X142919771Y-100682181D01*
X143015009Y-100586943D01*
X143062628Y-100396467D01*
X143062628Y-100063134D01*
X143015009Y-99872658D01*
X142919771Y-99777420D01*
X142824533Y-99729800D01*
X142205485Y-99297420D02*
X141253104Y-99297420D01*
X141491200Y-99729800D02*
X141967390Y-99729800D01*
X142015009Y-100205991D01*
X141967390Y-100158372D01*
X141872152Y-100110753D01*
X141634057Y-100110753D01*
X141538819Y-100158372D01*
X141491200Y-100205991D01*
X141443580Y-100301229D01*
X141443580Y-100539324D01*
X141491200Y-100634562D01*
X141538819Y-100682181D01*
X141634057Y-100729800D01*
X141872152Y-100729800D01*
X141967390Y-100682181D01*
X142015009Y-100634562D01*
X137964847Y-100729800D02*
X137964847Y-99729800D01*
X137393419Y-100729800D02*
X137821990Y-100158372D01*
X137393419Y-99729800D02*
X137964847Y-100301229D01*
X136441038Y-100729800D02*
X137012466Y-100729800D01*
X136726752Y-100729800D02*
X136726752Y-99729800D01*
X136821990Y-99872658D01*
X136917228Y-99967896D01*
X137012466Y-100015515D01*
X135298180Y-99682181D02*
X136155323Y-100967896D01*
X134679133Y-99729800D02*
X134679133Y-100444086D01*
X134726752Y-100586943D01*
X134821990Y-100682181D01*
X134964847Y-100729800D01*
X135060085Y-100729800D01*
X134298180Y-99729800D02*
X133679133Y-99729800D01*
X134012466Y-100110753D01*
X133869609Y-100110753D01*
X133774371Y-100158372D01*
X133726752Y-100205991D01*
X133679133Y-100301229D01*
X133679133Y-100539324D01*
X133726752Y-100634562D01*
X133774371Y-100682181D01*
X133869609Y-100729800D01*
X134155323Y-100729800D01*
X134250561Y-100682181D01*
X134298180Y-100634562D01*
X130297228Y-103219000D02*
X130630561Y-102742810D01*
X130868657Y-103219000D02*
X130868657Y-102219000D01*
X130487704Y-102219000D01*
X130392466Y-102266620D01*
X130344847Y-102314239D01*
X130297228Y-102409477D01*
X130297228Y-102552334D01*
X130344847Y-102647572D01*
X130392466Y-102695191D01*
X130487704Y-102742810D01*
X130868657Y-102742810D01*
X129487704Y-103171381D02*
X129582942Y-103219000D01*
X129773419Y-103219000D01*
X129868657Y-103171381D01*
X129916276Y-103076143D01*
X129916276Y-102695191D01*
X129868657Y-102599953D01*
X129773419Y-102552334D01*
X129582942Y-102552334D01*
X129487704Y-102599953D01*
X129440085Y-102695191D01*
X129440085Y-102790429D01*
X129916276Y-102885667D01*
X128868657Y-103219000D02*
X128963895Y-103171381D01*
X129011514Y-103076143D01*
X129011514Y-102219000D01*
X128059133Y-103219000D02*
X128059133Y-102695191D01*
X128106752Y-102599953D01*
X128201990Y-102552334D01*
X128392466Y-102552334D01*
X128487704Y-102599953D01*
X128059133Y-103171381D02*
X128154371Y-103219000D01*
X128392466Y-103219000D01*
X128487704Y-103171381D01*
X128535323Y-103076143D01*
X128535323Y-102980905D01*
X128487704Y-102885667D01*
X128392466Y-102838048D01*
X128154371Y-102838048D01*
X128059133Y-102790429D01*
X127678180Y-102552334D02*
X127440085Y-103219000D01*
X127201990Y-102552334D02*
X127440085Y-103219000D01*
X127535323Y-103457096D01*
X127582942Y-103504715D01*
X127678180Y-103552334D01*
X126106752Y-102314239D02*
X126059133Y-102266620D01*
X125963895Y-102219000D01*
X125725800Y-102219000D01*
X125630561Y-102266620D01*
X125582942Y-102314239D01*
X125535323Y-102409477D01*
X125535323Y-102504715D01*
X125582942Y-102647572D01*
X126154371Y-103219000D01*
X125535323Y-103219000D01*
X130297228Y-100729800D02*
X130630561Y-100253610D01*
X130868657Y-100729800D02*
X130868657Y-99729800D01*
X130487704Y-99729800D01*
X130392466Y-99777420D01*
X130344847Y-99825039D01*
X130297228Y-99920277D01*
X130297228Y-100063134D01*
X130344847Y-100158372D01*
X130392466Y-100205991D01*
X130487704Y-100253610D01*
X130868657Y-100253610D01*
X129487704Y-100682181D02*
X129582942Y-100729800D01*
X129773419Y-100729800D01*
X129868657Y-100682181D01*
X129916276Y-100586943D01*
X129916276Y-100205991D01*
X129868657Y-100110753D01*
X129773419Y-100063134D01*
X129582942Y-100063134D01*
X129487704Y-100110753D01*
X129440085Y-100205991D01*
X129440085Y-100301229D01*
X129916276Y-100396467D01*
X128868657Y-100729800D02*
X128963895Y-100682181D01*
X129011514Y-100586943D01*
X129011514Y-99729800D01*
X128059133Y-100729800D02*
X128059133Y-100205991D01*
X128106752Y-100110753D01*
X128201990Y-100063134D01*
X128392466Y-100063134D01*
X128487704Y-100110753D01*
X128059133Y-100682181D02*
X128154371Y-100729800D01*
X128392466Y-100729800D01*
X128487704Y-100682181D01*
X128535323Y-100586943D01*
X128535323Y-100491705D01*
X128487704Y-100396467D01*
X128392466Y-100348848D01*
X128154371Y-100348848D01*
X128059133Y-100301229D01*
X127678180Y-100063134D02*
X127440085Y-100729800D01*
X127201990Y-100063134D02*
X127440085Y-100729800D01*
X127535323Y-100967896D01*
X127582942Y-101015515D01*
X127678180Y-101063134D01*
X125535323Y-100729800D02*
X126106752Y-100729800D01*
X125821038Y-100729800D02*
X125821038Y-99729800D01*
X125916276Y-99872658D01*
X126011514Y-99967896D01*
X126106752Y-100015515D01*
X139655800Y-98778820D02*
X139655800Y-103858820D01*
X132035800Y-98778820D02*
X132035800Y-103858820D01*
X147275800Y-101318820D02*
X132035800Y-101318820D01*
X124415800Y-101318820D02*
X147275800Y-101318820D01*
X124415800Y-98778820D02*
X124415800Y-101318820D01*
X147275800Y-98778820D02*
X124415800Y-98778820D01*
X147275800Y-103858820D02*
X147275800Y-98778820D01*
X124415800Y-103858820D02*
X147275800Y-103858820D01*
X124415800Y-98778820D02*
X124415800Y-103858820D01*
D12*
X97989257Y-112082571D02*
X97632114Y-113582571D01*
X97346400Y-112511142D01*
X97060685Y-113582571D01*
X96703542Y-112082571D01*
X96132114Y-113582571D02*
X96132114Y-112582571D01*
X96132114Y-112082571D02*
X96203542Y-112154000D01*
X96132114Y-112225428D01*
X96060685Y-112154000D01*
X96132114Y-112082571D01*
X96132114Y-112225428D01*
X94917828Y-112796857D02*
X95417828Y-112796857D01*
X95417828Y-113582571D02*
X95417828Y-112082571D01*
X94703542Y-112082571D01*
X94132114Y-113582571D02*
X94132114Y-112582571D01*
X94132114Y-112082571D02*
X94203542Y-112154000D01*
X94132114Y-112225428D01*
X94060685Y-112154000D01*
X94132114Y-112082571D01*
X94132114Y-112225428D01*
X91417828Y-113439714D02*
X91489257Y-113511142D01*
X91703542Y-113582571D01*
X91846400Y-113582571D01*
X92060685Y-113511142D01*
X92203542Y-113368285D01*
X92274971Y-113225428D01*
X92346400Y-112939714D01*
X92346400Y-112725428D01*
X92274971Y-112439714D01*
X92203542Y-112296857D01*
X92060685Y-112154000D01*
X91846400Y-112082571D01*
X91703542Y-112082571D01*
X91489257Y-112154000D01*
X91417828Y-112225428D01*
X90560685Y-113582571D02*
X90703542Y-113511142D01*
X90774971Y-113439714D01*
X90846400Y-113296857D01*
X90846400Y-112868285D01*
X90774971Y-112725428D01*
X90703542Y-112654000D01*
X90560685Y-112582571D01*
X90346400Y-112582571D01*
X90203542Y-112654000D01*
X90132114Y-112725428D01*
X90060685Y-112868285D01*
X90060685Y-113296857D01*
X90132114Y-113439714D01*
X90203542Y-113511142D01*
X90346400Y-113582571D01*
X90560685Y-113582571D01*
X89417828Y-112582571D02*
X89417828Y-113582571D01*
X89417828Y-112725428D02*
X89346400Y-112654000D01*
X89203542Y-112582571D01*
X88989257Y-112582571D01*
X88846400Y-112654000D01*
X88774971Y-112796857D01*
X88774971Y-113582571D01*
X88274971Y-112582571D02*
X87703542Y-112582571D01*
X88060685Y-112082571D02*
X88060685Y-113368285D01*
X87989257Y-113511142D01*
X87846400Y-113582571D01*
X87703542Y-113582571D01*
X87203542Y-113582571D02*
X87203542Y-112582571D01*
X87203542Y-112868285D02*
X87132114Y-112725428D01*
X87060685Y-112654000D01*
X86917828Y-112582571D01*
X86774971Y-112582571D01*
X86060685Y-113582571D02*
X86203542Y-113511142D01*
X86274971Y-113439714D01*
X86346400Y-113296857D01*
X86346400Y-112868285D01*
X86274971Y-112725428D01*
X86203542Y-112654000D01*
X86060685Y-112582571D01*
X85846400Y-112582571D01*
X85703542Y-112654000D01*
X85632114Y-112725428D01*
X85560685Y-112868285D01*
X85560685Y-113296857D01*
X85632114Y-113439714D01*
X85703542Y-113511142D01*
X85846400Y-113582571D01*
X86060685Y-113582571D01*
X84703542Y-113582571D02*
X84846400Y-113511142D01*
X84917828Y-113368285D01*
X84917828Y-112082571D01*
X83917828Y-113582571D02*
X84060685Y-113511142D01*
X84132114Y-113368285D01*
X84132114Y-112082571D01*
X82774971Y-113511142D02*
X82917828Y-113582571D01*
X83203542Y-113582571D01*
X83346400Y-113511142D01*
X83417828Y-113368285D01*
X83417828Y-112796857D01*
X83346400Y-112654000D01*
X83203542Y-112582571D01*
X82917828Y-112582571D01*
X82774971Y-112654000D01*
X82703542Y-112796857D01*
X82703542Y-112939714D01*
X83417828Y-113082571D01*
X82060685Y-113582571D02*
X82060685Y-112582571D01*
X82060685Y-112868285D02*
X81989257Y-112725428D01*
X81917828Y-112654000D01*
X81774971Y-112582571D01*
X81632114Y-112582571D01*
X95739257Y-115132571D02*
X95382114Y-116132571D01*
X95024971Y-115132571D01*
X93667828Y-116132571D02*
X94524971Y-116132571D01*
X94096400Y-116132571D02*
X94096400Y-114632571D01*
X94239257Y-114846857D01*
X94382114Y-114989714D01*
X94524971Y-115061142D01*
X93024971Y-115989714D02*
X92953542Y-116061142D01*
X93024971Y-116132571D01*
X93096400Y-116061142D01*
X93024971Y-115989714D01*
X93024971Y-116132571D01*
X91524971Y-116132571D02*
X92382114Y-116132571D01*
X91953542Y-116132571D02*
X91953542Y-114632571D01*
X92096400Y-114846857D01*
X92239257Y-114989714D01*
X92382114Y-115061142D01*
X88882114Y-116132571D02*
X89382114Y-115418285D01*
X89739257Y-116132571D02*
X89739257Y-114632571D01*
X89167828Y-114632571D01*
X89024971Y-114704000D01*
X88953542Y-114775428D01*
X88882114Y-114918285D01*
X88882114Y-115132571D01*
X88953542Y-115275428D01*
X89024971Y-115346857D01*
X89167828Y-115418285D01*
X89739257Y-115418285D01*
X87667828Y-116061142D02*
X87810685Y-116132571D01*
X88096400Y-116132571D01*
X88239257Y-116061142D01*
X88310685Y-115918285D01*
X88310685Y-115346857D01*
X88239257Y-115204000D01*
X88096400Y-115132571D01*
X87810685Y-115132571D01*
X87667828Y-115204000D01*
X87596400Y-115346857D01*
X87596400Y-115489714D01*
X88310685Y-115632571D01*
X87096400Y-115132571D02*
X86739257Y-116132571D01*
X86382114Y-115132571D01*
X84739257Y-115704000D02*
X84024971Y-115704000D01*
X84882114Y-116132571D02*
X84382114Y-114632571D01*
X83882114Y-116132571D01*
X98489257Y-117182571D02*
X98489257Y-118254000D01*
X98560685Y-118468285D01*
X98703542Y-118611142D01*
X98917828Y-118682571D01*
X99060685Y-118682571D01*
X97203542Y-118611142D02*
X97346400Y-118682571D01*
X97632114Y-118682571D01*
X97774971Y-118611142D01*
X97846400Y-118468285D01*
X97846400Y-117896857D01*
X97774971Y-117754000D01*
X97632114Y-117682571D01*
X97346400Y-117682571D01*
X97203542Y-117754000D01*
X97132114Y-117896857D01*
X97132114Y-118039714D01*
X97846400Y-118182571D01*
X96703542Y-117682571D02*
X96132114Y-117682571D01*
X96489257Y-118682571D02*
X96489257Y-117396857D01*
X96417828Y-117254000D01*
X96274971Y-117182571D01*
X96132114Y-117182571D01*
X95846400Y-117682571D02*
X95274971Y-117682571D01*
X95632114Y-118682571D02*
X95632114Y-117396857D01*
X95560685Y-117254000D01*
X95417828Y-117182571D01*
X95274971Y-117182571D01*
X93632114Y-118682571D02*
X93632114Y-117182571D01*
X93274971Y-117182571D01*
X93060685Y-117254000D01*
X92917828Y-117396857D01*
X92846400Y-117539714D01*
X92774971Y-117825428D01*
X92774971Y-118039714D01*
X92846400Y-118325428D01*
X92917828Y-118468285D01*
X93060685Y-118611142D01*
X93274971Y-118682571D01*
X93632114Y-118682571D01*
X91489257Y-118682571D02*
X91489257Y-117896857D01*
X91560685Y-117754000D01*
X91703542Y-117682571D01*
X91989257Y-117682571D01*
X92132114Y-117754000D01*
X91489257Y-118611142D02*
X91632114Y-118682571D01*
X91989257Y-118682571D01*
X92132114Y-118611142D01*
X92203542Y-118468285D01*
X92203542Y-118325428D01*
X92132114Y-118182571D01*
X91989257Y-118111142D01*
X91632114Y-118111142D01*
X91489257Y-118039714D01*
X90917828Y-117682571D02*
X90560685Y-118682571D01*
X90203542Y-117682571D01*
X89632114Y-118682571D02*
X89632114Y-117682571D01*
X89632114Y-117182571D02*
X89703542Y-117254000D01*
X89632114Y-117325428D01*
X89560685Y-117254000D01*
X89632114Y-117182571D01*
X89632114Y-117325428D01*
X88989257Y-118611142D02*
X88846400Y-118682571D01*
X88560685Y-118682571D01*
X88417828Y-118611142D01*
X88346400Y-118468285D01*
X88346400Y-118396857D01*
X88417828Y-118254000D01*
X88560685Y-118182571D01*
X88774971Y-118182571D01*
X88917828Y-118111142D01*
X88989257Y-117968285D01*
X88989257Y-117896857D01*
X88917828Y-117754000D01*
X88774971Y-117682571D01*
X88560685Y-117682571D01*
X88417828Y-117754000D01*
X87632114Y-118611142D02*
X87632114Y-118682571D01*
X87703542Y-118825428D01*
X87774971Y-118896857D01*
X85846400Y-118682571D02*
X85846400Y-117182571D01*
X84989257Y-118682571D01*
X84989257Y-117182571D01*
X83989257Y-117182571D02*
X83846400Y-117182571D01*
X83703542Y-117254000D01*
X83632114Y-117325428D01*
X83560685Y-117468285D01*
X83489257Y-117754000D01*
X83489257Y-118111142D01*
X83560685Y-118396857D01*
X83632114Y-118539714D01*
X83703542Y-118611142D01*
X83846400Y-118682571D01*
X83989257Y-118682571D01*
X84132114Y-118611142D01*
X84203542Y-118539714D01*
X84274971Y-118396857D01*
X84346400Y-118111142D01*
X84346400Y-117754000D01*
X84274971Y-117468285D01*
X84203542Y-117325428D01*
X84132114Y-117254000D01*
X83989257Y-117182571D01*
X82846400Y-118682571D02*
X82846400Y-117182571D01*
X82489257Y-117182571D01*
X82274971Y-117254000D01*
X82132114Y-117396857D01*
X82060685Y-117539714D01*
X81989257Y-117825428D01*
X81989257Y-118039714D01*
X82060685Y-118325428D01*
X82132114Y-118468285D01*
X82274971Y-118611142D01*
X82489257Y-118682571D01*
X82846400Y-118682571D01*
X81060685Y-117968285D02*
X81060685Y-118682571D01*
X81560685Y-117182571D02*
X81060685Y-117968285D01*
X80560685Y-117182571D01*
X95417828Y-119732571D02*
X95703542Y-119732571D01*
X95846400Y-119804000D01*
X95917828Y-119875428D01*
X96060685Y-120089714D01*
X96132114Y-120375428D01*
X96132114Y-120946857D01*
X96060685Y-121089714D01*
X95989257Y-121161142D01*
X95846400Y-121232571D01*
X95560685Y-121232571D01*
X95417828Y-121161142D01*
X95346400Y-121089714D01*
X95274971Y-120946857D01*
X95274971Y-120589714D01*
X95346400Y-120446857D01*
X95417828Y-120375428D01*
X95560685Y-120304000D01*
X95846400Y-120304000D01*
X95989257Y-120375428D01*
X96060685Y-120446857D01*
X96132114Y-120589714D01*
X93560685Y-119661142D02*
X94846400Y-121589714D01*
X92274971Y-121232571D02*
X93132114Y-121232571D01*
X92703542Y-121232571D02*
X92703542Y-119732571D01*
X92846400Y-119946857D01*
X92989257Y-120089714D01*
X93132114Y-120161142D01*
X91774971Y-119732571D02*
X90774971Y-119732571D01*
X91417828Y-121232571D01*
X89132114Y-119661142D02*
X90417828Y-121589714D01*
X88703542Y-119875428D02*
X88632114Y-119804000D01*
X88489257Y-119732571D01*
X88132114Y-119732571D01*
X87989257Y-119804000D01*
X87917828Y-119875428D01*
X87846400Y-120018285D01*
X87846400Y-120161142D01*
X87917828Y-120375428D01*
X88774971Y-121232571D01*
X87846400Y-121232571D01*
X86917828Y-119732571D02*
X86774971Y-119732571D01*
X86632114Y-119804000D01*
X86560685Y-119875428D01*
X86489257Y-120018285D01*
X86417828Y-120304000D01*
X86417828Y-120661142D01*
X86489257Y-120946857D01*
X86560685Y-121089714D01*
X86632114Y-121161142D01*
X86774971Y-121232571D01*
X86917828Y-121232571D01*
X87060685Y-121161142D01*
X87132114Y-121089714D01*
X87203542Y-120946857D01*
X87274971Y-120661142D01*
X87274971Y-120304000D01*
X87203542Y-120018285D01*
X87132114Y-119875428D01*
X87060685Y-119804000D01*
X86917828Y-119732571D01*
X84989257Y-121232571D02*
X85846400Y-121232571D01*
X85417828Y-121232571D02*
X85417828Y-119732571D01*
X85560685Y-119946857D01*
X85703542Y-120089714D01*
X85846400Y-120161142D01*
X84489257Y-119732571D02*
X83489257Y-119732571D01*
X84132114Y-121232571D01*
M02*
