M48
INCH,TZ
T1C0.013
T2C0.026
T3C0.039
T4C0.051
%
G90
G05
T1
X27879Y-35400
X30033Y-38326
X30213Y-36296
X37643Y-40866
X45294Y-40567
X51792Y-41631
T2
X35171Y-33286
X35171Y-38798
X35958Y-33286
X35958Y-38798
X36746Y-33286
X36746Y-38798
X37533Y-33286
X37533Y-38798
X38320Y-33286
X38320Y-38798
X39108Y-33286
X39108Y-38798
X39895Y-33286
X39895Y-38798
X40683Y-33286
X40683Y-38798
T3
X29498Y-45170
X29498Y-47139
X31183Y-31076
X31953Y-33466
X31953Y-34466
X31953Y-35466
X31953Y-36466
X31953Y-37466
X31953Y-38466
X32183Y-31076
X33183Y-31076
X41073Y-43123
X41073Y-49186
X43618Y-49256
X44133Y-31526
X48020Y-30931
X48020Y-35655
X48020Y-44396
X48020Y-49120
T4
X25853Y-43806
X25853Y-45775
X47252Y-33273
X47252Y-46739
X52823Y-35655
X52823Y-49120
X52843Y-30911
X52843Y-44376
X57498Y-33838
X57498Y-35806
X57498Y-43838
X57498Y-45806
T0
M30
