G04 #@! TF.GenerationSoftware,KiCad,Pcbnew,(2017-04-22 revision b38541345)-makepkg*
G04 #@! TF.CreationDate,2017-06-22T14:02:37-07:00*
G04 #@! TF.ProjectId,WifiRelay,5769666952656C61792E6B696361645F,rev?*
G04 #@! TF.FileFunction,Copper,L2,Bot,Signal*
G04 #@! TF.FilePolarity,Positive*
%FSLAX46Y46*%
G04 Gerber Fmt 4.6, Leading zero omitted, Abs format (unit mm)*
G04 Created by KiCad (PCBNEW (2017-04-22 revision b38541345)-makepkg) date 06/22/17 14:02:37*
%MOMM*%
%LPD*%
G01*
G04 APERTURE LIST*
%ADD10C,0.100000*%
%ADD11R,2.500000X2.500000*%
%ADD12C,2.500000*%
%ADD13R,1.700000X1.700000*%
%ADD14O,1.700000X1.700000*%
%ADD15R,1.100000X2.500000*%
%ADD16O,1.100000X2.500000*%
%ADD17C,3.000000*%
%ADD18C,0.685800*%
%ADD19C,0.457200*%
%ADD20C,0.203200*%
%ADD21C,0.304800*%
%ADD22C,0.254000*%
G04 APERTURE END LIST*
D10*
D11*
X146045600Y-116348000D03*
D12*
X146045600Y-111348000D03*
D11*
X65665600Y-111268000D03*
D12*
X65665600Y-116268000D03*
D13*
X81159600Y-85004400D03*
D14*
X81159600Y-87544400D03*
X81159600Y-90084400D03*
X81159600Y-92624400D03*
X81159600Y-95164400D03*
X81159600Y-97704400D03*
D11*
X146045600Y-90948000D03*
D12*
X146045600Y-85948000D03*
D15*
X103333800Y-83847200D03*
D16*
X101333800Y-83847200D03*
X99333800Y-83847200D03*
X97333800Y-83847200D03*
X95333800Y-83847200D03*
X93333800Y-83847200D03*
X91333800Y-83847200D03*
X89333800Y-83847200D03*
X89333800Y-99247200D03*
X91333800Y-99147200D03*
X93333800Y-99247200D03*
X95333800Y-99247200D03*
X97333800Y-99247200D03*
X99333800Y-99247200D03*
X101333800Y-99247200D03*
X103333800Y-99247200D03*
D17*
X120020200Y-84514460D03*
D12*
X121970200Y-78564460D03*
D17*
X134220200Y-78514460D03*
X134170200Y-90564460D03*
D12*
X121970200Y-90564460D03*
X121970200Y-124765800D03*
D17*
X134170200Y-124765800D03*
X134220200Y-112715800D03*
D12*
X121970200Y-112765800D03*
D17*
X120020200Y-118715800D03*
D12*
X74925420Y-114731920D03*
X74925420Y-119731920D03*
X104325420Y-109531920D03*
X104325420Y-124931920D03*
D13*
X110788700Y-125111000D03*
X112096800Y-80076800D03*
D14*
X79203800Y-78933800D03*
X81743800Y-78933800D03*
D13*
X84283800Y-78933800D03*
D18*
X70811640Y-89916760D03*
X76282800Y-97348800D03*
X95612200Y-103800400D03*
X115045740Y-103040940D03*
X131550660Y-105743500D03*
X76740000Y-92192600D03*
D19*
X104325420Y-124931920D02*
X104115880Y-124722380D01*
X104115880Y-124722380D02*
X100839520Y-124722380D01*
X100839520Y-124722380D02*
X71553320Y-95436180D01*
X71553320Y-90658440D02*
X70811640Y-89916760D01*
X71553320Y-95436180D02*
X71553320Y-90658440D01*
X121970200Y-124765800D02*
X125271780Y-121464220D01*
X125271780Y-121464220D02*
X125271780Y-93866040D01*
X125271780Y-93866040D02*
X121970200Y-90564460D01*
X121804080Y-124931920D02*
X121970200Y-124765800D01*
X89333800Y-98547200D02*
X86158800Y-98547200D01*
X79508600Y-100574600D02*
X76282800Y-97348800D01*
X84131400Y-100574600D02*
X79508600Y-100574600D01*
X86158800Y-98547200D02*
X84131400Y-100574600D01*
X81743800Y-78933800D02*
X81743800Y-81143600D01*
X85147400Y-84547200D02*
X89333800Y-84547200D01*
X81743800Y-81143600D02*
X85147400Y-84547200D01*
X65665600Y-116268000D02*
X65691000Y-116221000D01*
D20*
X103333800Y-100457760D02*
X103333800Y-98547200D01*
X103199180Y-98412580D02*
X103333800Y-98547200D01*
X81159600Y-92624400D02*
X98380800Y-92624400D01*
X101333800Y-95577400D02*
X101333800Y-98547200D01*
X98380800Y-92624400D02*
X101333800Y-95577400D01*
X97333800Y-98547200D02*
X97333800Y-99084241D01*
X97333800Y-99084241D02*
X97354640Y-99105081D01*
D21*
X81159600Y-87544400D02*
X102190800Y-87544400D01*
X103333800Y-86401400D02*
X103333800Y-84547200D01*
X102190800Y-87544400D02*
X103333800Y-86401400D01*
X79203800Y-89728800D02*
X76740000Y-92192600D01*
X79203800Y-89728800D02*
X79203800Y-78933800D01*
D22*
G36*
X151397900Y-129060300D02*
X58693300Y-129060300D01*
X58693300Y-126708000D01*
X58897900Y-126708000D01*
X59061384Y-127529889D01*
X59526947Y-128226653D01*
X60223711Y-128692216D01*
X61045600Y-128855700D01*
X61867489Y-128692216D01*
X62564253Y-128226653D01*
X63029816Y-127529889D01*
X63193300Y-126708000D01*
X63029816Y-125886111D01*
X62564253Y-125189347D01*
X61867489Y-124723784D01*
X61045600Y-124560300D01*
X60223711Y-124723784D01*
X59526947Y-125189347D01*
X59061384Y-125886111D01*
X58897900Y-126708000D01*
X58693300Y-126708000D01*
X58693300Y-120105225D01*
X73040094Y-120105225D01*
X73326463Y-120798292D01*
X73856259Y-121329013D01*
X74548825Y-121616592D01*
X75298725Y-121617246D01*
X75991792Y-121330877D01*
X76522513Y-120801081D01*
X76810092Y-120108515D01*
X76810746Y-119358615D01*
X76524377Y-118665548D01*
X75994581Y-118134827D01*
X75302015Y-117847248D01*
X74552115Y-117846594D01*
X73859048Y-118132963D01*
X73328327Y-118662759D01*
X73040748Y-119355325D01*
X73040094Y-120105225D01*
X58693300Y-120105225D01*
X58693300Y-116641305D01*
X63780274Y-116641305D01*
X64066643Y-117334372D01*
X64596439Y-117865093D01*
X65289005Y-118152672D01*
X66038905Y-118153326D01*
X66731972Y-117866957D01*
X67262693Y-117337161D01*
X67550272Y-116644595D01*
X67550926Y-115894695D01*
X67264557Y-115201628D01*
X67168323Y-115105225D01*
X73040094Y-115105225D01*
X73326463Y-115798292D01*
X73856259Y-116329013D01*
X74548825Y-116616592D01*
X75298725Y-116617246D01*
X75991792Y-116330877D01*
X76522513Y-115801081D01*
X76810092Y-115108515D01*
X76810746Y-114358615D01*
X76524377Y-113665548D01*
X75994581Y-113134827D01*
X75302015Y-112847248D01*
X74552115Y-112846594D01*
X73859048Y-113132963D01*
X73328327Y-113662759D01*
X73040748Y-114355325D01*
X73040094Y-115105225D01*
X67168323Y-115105225D01*
X66734761Y-114670907D01*
X66042195Y-114383328D01*
X65292295Y-114382674D01*
X64599228Y-114669043D01*
X64068507Y-115198839D01*
X63780928Y-115891405D01*
X63780274Y-116641305D01*
X58693300Y-116641305D01*
X58693300Y-110018000D01*
X63768160Y-110018000D01*
X63768160Y-112518000D01*
X63817443Y-112765765D01*
X63957791Y-112975809D01*
X64167835Y-113116157D01*
X64415600Y-113165440D01*
X66915600Y-113165440D01*
X67163365Y-113116157D01*
X67373409Y-112975809D01*
X67513757Y-112765765D01*
X67563040Y-112518000D01*
X67563040Y-110018000D01*
X67513757Y-109770235D01*
X67373409Y-109560191D01*
X67163365Y-109419843D01*
X66915600Y-109370560D01*
X64415600Y-109370560D01*
X64167835Y-109419843D01*
X63957791Y-109560191D01*
X63817443Y-109770235D01*
X63768160Y-110018000D01*
X58693300Y-110018000D01*
X58693300Y-90110423D01*
X69833571Y-90110423D01*
X69982133Y-90469972D01*
X70256981Y-90745300D01*
X70533820Y-90860254D01*
X70689720Y-91016154D01*
X70689720Y-95436180D01*
X70717811Y-95577400D01*
X70755458Y-95766665D01*
X70942663Y-96046837D01*
X100228862Y-125333037D01*
X100509034Y-125520242D01*
X100563865Y-125531149D01*
X100839520Y-125585980D01*
X102556099Y-125585980D01*
X102726463Y-125998292D01*
X103256259Y-126529013D01*
X103948825Y-126816592D01*
X104698725Y-126817246D01*
X105391792Y-126530877D01*
X105922513Y-126001081D01*
X106210092Y-125308515D01*
X106210746Y-124558615D01*
X106087775Y-124261000D01*
X109291260Y-124261000D01*
X109291260Y-125961000D01*
X109340543Y-126208765D01*
X109480891Y-126418809D01*
X109690935Y-126559157D01*
X109938700Y-126608440D01*
X111638700Y-126608440D01*
X111886465Y-126559157D01*
X112096509Y-126418809D01*
X112236857Y-126208765D01*
X112286140Y-125961000D01*
X112286140Y-124261000D01*
X112236857Y-124013235D01*
X112096509Y-123803191D01*
X111886465Y-123662843D01*
X111638700Y-123613560D01*
X109938700Y-123613560D01*
X109690935Y-123662843D01*
X109480891Y-123803191D01*
X109340543Y-124013235D01*
X109291260Y-124261000D01*
X106087775Y-124261000D01*
X105924377Y-123865548D01*
X105394581Y-123334827D01*
X104702015Y-123047248D01*
X103952115Y-123046594D01*
X103259048Y-123332963D01*
X102732313Y-123858780D01*
X101197235Y-123858780D01*
X96477070Y-119138615D01*
X117884830Y-119138615D01*
X118209180Y-119923600D01*
X118809241Y-120524709D01*
X119593659Y-120850428D01*
X120443015Y-120851170D01*
X121228000Y-120526820D01*
X121829109Y-119926759D01*
X122154828Y-119142341D01*
X122155570Y-118292985D01*
X121831220Y-117508000D01*
X121231159Y-116906891D01*
X120446741Y-116581172D01*
X119597385Y-116580430D01*
X118812400Y-116904780D01*
X118211291Y-117504841D01*
X117885572Y-118289259D01*
X117884830Y-119138615D01*
X96477070Y-119138615D01*
X90477560Y-113139105D01*
X120084874Y-113139105D01*
X120371243Y-113832172D01*
X120901039Y-114362893D01*
X121593605Y-114650472D01*
X122343505Y-114651126D01*
X123036572Y-114364757D01*
X123567293Y-113834961D01*
X123854872Y-113142395D01*
X123855526Y-112392495D01*
X123569157Y-111699428D01*
X123039361Y-111168707D01*
X122346795Y-110881128D01*
X121596895Y-110880474D01*
X120903828Y-111166843D01*
X120373107Y-111696639D01*
X120085528Y-112389205D01*
X120084874Y-113139105D01*
X90477560Y-113139105D01*
X87243680Y-109905225D01*
X102440094Y-109905225D01*
X102726463Y-110598292D01*
X103256259Y-111129013D01*
X103948825Y-111416592D01*
X104698725Y-111417246D01*
X105391792Y-111130877D01*
X105922513Y-110601081D01*
X106210092Y-109908515D01*
X106210746Y-109158615D01*
X105924377Y-108465548D01*
X105394581Y-107934827D01*
X104702015Y-107647248D01*
X103952115Y-107646594D01*
X103259048Y-107932963D01*
X102728327Y-108462759D01*
X102440748Y-109155325D01*
X102440094Y-109905225D01*
X87243680Y-109905225D01*
X74880918Y-97542463D01*
X75304731Y-97542463D01*
X75453293Y-97902012D01*
X75728141Y-98177340D01*
X76004980Y-98292294D01*
X78897943Y-101185257D01*
X79178114Y-101372462D01*
X79232945Y-101383369D01*
X79508600Y-101438200D01*
X84131400Y-101438200D01*
X84461885Y-101372462D01*
X84742057Y-101185257D01*
X86516515Y-99410800D01*
X88148800Y-99410800D01*
X88148800Y-99984129D01*
X88239003Y-100437609D01*
X88495878Y-100822051D01*
X88880320Y-101078926D01*
X89333800Y-101169129D01*
X89787280Y-101078926D01*
X90171722Y-100822051D01*
X90367209Y-100529483D01*
X90495878Y-100722051D01*
X90880320Y-100978926D01*
X91333800Y-101069129D01*
X91787280Y-100978926D01*
X92171722Y-100722051D01*
X92300391Y-100529483D01*
X92495878Y-100822051D01*
X92880320Y-101078926D01*
X93333800Y-101169129D01*
X93787280Y-101078926D01*
X94171722Y-100822051D01*
X94333800Y-100579483D01*
X94495878Y-100822051D01*
X94880320Y-101078926D01*
X95333800Y-101169129D01*
X95787280Y-101078926D01*
X96171722Y-100822051D01*
X96333800Y-100579483D01*
X96495878Y-100822051D01*
X96880320Y-101078926D01*
X97333800Y-101169129D01*
X97787280Y-101078926D01*
X98171722Y-100822051D01*
X98333800Y-100579483D01*
X98495878Y-100822051D01*
X98880320Y-101078926D01*
X99333800Y-101169129D01*
X99787280Y-101078926D01*
X100171722Y-100822051D01*
X100333800Y-100579483D01*
X100495878Y-100822051D01*
X100880320Y-101078926D01*
X101333800Y-101169129D01*
X101787280Y-101078926D01*
X102171722Y-100822051D01*
X102333800Y-100579483D01*
X102495878Y-100822051D01*
X102880320Y-101078926D01*
X102998147Y-101102363D01*
X103051915Y-101138290D01*
X103333800Y-101194360D01*
X103615685Y-101138290D01*
X103669453Y-101102363D01*
X103787280Y-101078926D01*
X104171722Y-100822051D01*
X104428597Y-100437609D01*
X104518800Y-99984129D01*
X104518800Y-98510271D01*
X104428597Y-98056791D01*
X104171722Y-97672349D01*
X103787280Y-97415474D01*
X103333800Y-97325271D01*
X102880320Y-97415474D01*
X102495878Y-97672349D01*
X102333800Y-97914917D01*
X102171722Y-97672349D01*
X102070400Y-97604648D01*
X102070400Y-95577400D01*
X102014330Y-95295515D01*
X101854655Y-95056545D01*
X98901655Y-92103545D01*
X98662685Y-91943870D01*
X98380800Y-91887800D01*
X82448190Y-91887800D01*
X82238747Y-91574346D01*
X81909574Y-91354400D01*
X82238747Y-91134454D01*
X82560654Y-90652685D01*
X82673693Y-90084400D01*
X82560654Y-89516115D01*
X82238747Y-89034346D01*
X81909574Y-88814400D01*
X82238747Y-88594454D01*
X82414246Y-88331800D01*
X102190800Y-88331800D01*
X102492125Y-88271863D01*
X102747576Y-88101176D01*
X103890576Y-86958176D01*
X104061263Y-86702725D01*
X104121200Y-86401400D01*
X104121200Y-85697419D01*
X104131565Y-85695357D01*
X104341609Y-85555009D01*
X104481957Y-85344965D01*
X104531240Y-85097200D01*
X104531240Y-83508000D01*
X105718600Y-83508000D01*
X105718600Y-99708000D01*
X105728267Y-99756601D01*
X105755797Y-99797803D01*
X105796999Y-99825333D01*
X105845600Y-99835000D01*
X109845600Y-99835000D01*
X109894201Y-99825333D01*
X109935403Y-99797803D01*
X109962933Y-99756601D01*
X109972600Y-99708000D01*
X109972600Y-90937765D01*
X120084874Y-90937765D01*
X120371243Y-91630832D01*
X120901039Y-92161553D01*
X121593605Y-92449132D01*
X122343505Y-92449786D01*
X122549214Y-92364789D01*
X124408180Y-94223755D01*
X124408180Y-121106505D01*
X122549420Y-122965265D01*
X122346795Y-122881128D01*
X121596895Y-122880474D01*
X120903828Y-123166843D01*
X120373107Y-123696639D01*
X120085528Y-124389205D01*
X120084874Y-125139105D01*
X120371243Y-125832172D01*
X120901039Y-126362893D01*
X121593605Y-126650472D01*
X122343505Y-126651126D01*
X123036572Y-126364757D01*
X123567293Y-125834961D01*
X123835679Y-125188615D01*
X132034830Y-125188615D01*
X132359180Y-125973600D01*
X132959241Y-126574709D01*
X133743659Y-126900428D01*
X134593015Y-126901170D01*
X135060520Y-126708000D01*
X146897900Y-126708000D01*
X147061384Y-127529889D01*
X147526947Y-128226653D01*
X148223711Y-128692216D01*
X149045600Y-128855700D01*
X149867489Y-128692216D01*
X150564253Y-128226653D01*
X151029816Y-127529889D01*
X151193300Y-126708000D01*
X151029816Y-125886111D01*
X150564253Y-125189347D01*
X149867489Y-124723784D01*
X149045600Y-124560300D01*
X148223711Y-124723784D01*
X147526947Y-125189347D01*
X147061384Y-125886111D01*
X146897900Y-126708000D01*
X135060520Y-126708000D01*
X135378000Y-126576820D01*
X135979109Y-125976759D01*
X136304828Y-125192341D01*
X136305570Y-124342985D01*
X135981220Y-123558000D01*
X135381159Y-122956891D01*
X134596741Y-122631172D01*
X133747385Y-122630430D01*
X132962400Y-122954780D01*
X132361291Y-123554841D01*
X132035572Y-124339259D01*
X132034830Y-125188615D01*
X123835679Y-125188615D01*
X123854872Y-125142395D01*
X123855526Y-124392495D01*
X123770529Y-124186786D01*
X125882437Y-122074878D01*
X126069642Y-121794706D01*
X126105071Y-121616592D01*
X126135380Y-121464220D01*
X126135380Y-115098000D01*
X144148160Y-115098000D01*
X144148160Y-117598000D01*
X144197443Y-117845765D01*
X144337791Y-118055809D01*
X144547835Y-118196157D01*
X144795600Y-118245440D01*
X147295600Y-118245440D01*
X147543365Y-118196157D01*
X147753409Y-118055809D01*
X147893757Y-117845765D01*
X147943040Y-117598000D01*
X147943040Y-115098000D01*
X147893757Y-114850235D01*
X147753409Y-114640191D01*
X147543365Y-114499843D01*
X147295600Y-114450560D01*
X144795600Y-114450560D01*
X144547835Y-114499843D01*
X144337791Y-114640191D01*
X144197443Y-114850235D01*
X144148160Y-115098000D01*
X126135380Y-115098000D01*
X126135380Y-113138615D01*
X132084830Y-113138615D01*
X132409180Y-113923600D01*
X133009241Y-114524709D01*
X133793659Y-114850428D01*
X134643015Y-114851170D01*
X135428000Y-114526820D01*
X136029109Y-113926759D01*
X136354828Y-113142341D01*
X136355570Y-112292985D01*
X136119357Y-111721305D01*
X144160274Y-111721305D01*
X144446643Y-112414372D01*
X144976439Y-112945093D01*
X145669005Y-113232672D01*
X146418905Y-113233326D01*
X147111972Y-112946957D01*
X147642693Y-112417161D01*
X147930272Y-111724595D01*
X147930926Y-110974695D01*
X147644557Y-110281628D01*
X147114761Y-109750907D01*
X146422195Y-109463328D01*
X145672295Y-109462674D01*
X144979228Y-109749043D01*
X144448507Y-110278839D01*
X144160928Y-110971405D01*
X144160274Y-111721305D01*
X136119357Y-111721305D01*
X136031220Y-111508000D01*
X135431159Y-110906891D01*
X134646741Y-110581172D01*
X133797385Y-110580430D01*
X133012400Y-110904780D01*
X132411291Y-111504841D01*
X132085572Y-112289259D01*
X132084830Y-113138615D01*
X126135380Y-113138615D01*
X126135380Y-93866040D01*
X126069642Y-93535555D01*
X126069642Y-93535554D01*
X125882437Y-93255382D01*
X123770735Y-91143680D01*
X123835679Y-90987275D01*
X132034830Y-90987275D01*
X132359180Y-91772260D01*
X132959241Y-92373369D01*
X133743659Y-92699088D01*
X134593015Y-92699830D01*
X135378000Y-92375480D01*
X135979109Y-91775419D01*
X136304828Y-90991001D01*
X136305570Y-90141645D01*
X136122260Y-89698000D01*
X144148160Y-89698000D01*
X144148160Y-92198000D01*
X144197443Y-92445765D01*
X144337791Y-92655809D01*
X144547835Y-92796157D01*
X144795600Y-92845440D01*
X147295600Y-92845440D01*
X147543365Y-92796157D01*
X147753409Y-92655809D01*
X147893757Y-92445765D01*
X147943040Y-92198000D01*
X147943040Y-89698000D01*
X147893757Y-89450235D01*
X147753409Y-89240191D01*
X147543365Y-89099843D01*
X147295600Y-89050560D01*
X144795600Y-89050560D01*
X144547835Y-89099843D01*
X144337791Y-89240191D01*
X144197443Y-89450235D01*
X144148160Y-89698000D01*
X136122260Y-89698000D01*
X135981220Y-89356660D01*
X135381159Y-88755551D01*
X134596741Y-88429832D01*
X133747385Y-88429090D01*
X132962400Y-88753440D01*
X132361291Y-89353501D01*
X132035572Y-90137919D01*
X132034830Y-90987275D01*
X123835679Y-90987275D01*
X123854872Y-90941055D01*
X123855526Y-90191155D01*
X123569157Y-89498088D01*
X123039361Y-88967367D01*
X122346795Y-88679788D01*
X121596895Y-88679134D01*
X120903828Y-88965503D01*
X120373107Y-89495299D01*
X120085528Y-90187865D01*
X120084874Y-90937765D01*
X109972600Y-90937765D01*
X109972600Y-84937275D01*
X117884830Y-84937275D01*
X118209180Y-85722260D01*
X118809241Y-86323369D01*
X119593659Y-86649088D01*
X120443015Y-86649830D01*
X121228000Y-86325480D01*
X121232182Y-86321305D01*
X144160274Y-86321305D01*
X144446643Y-87014372D01*
X144976439Y-87545093D01*
X145669005Y-87832672D01*
X146418905Y-87833326D01*
X147111972Y-87546957D01*
X147642693Y-87017161D01*
X147930272Y-86324595D01*
X147930926Y-85574695D01*
X147644557Y-84881628D01*
X147114761Y-84350907D01*
X146422195Y-84063328D01*
X145672295Y-84062674D01*
X144979228Y-84349043D01*
X144448507Y-84878839D01*
X144160928Y-85571405D01*
X144160274Y-86321305D01*
X121232182Y-86321305D01*
X121829109Y-85725419D01*
X122154828Y-84941001D01*
X122155570Y-84091645D01*
X121831220Y-83306660D01*
X121231159Y-82705551D01*
X120446741Y-82379832D01*
X119597385Y-82379090D01*
X118812400Y-82703440D01*
X118211291Y-83303501D01*
X117885572Y-84087919D01*
X117884830Y-84937275D01*
X109972600Y-84937275D01*
X109972600Y-83508000D01*
X109962933Y-83459399D01*
X109935403Y-83418197D01*
X109894201Y-83390667D01*
X109845600Y-83381000D01*
X105845600Y-83381000D01*
X105796999Y-83390667D01*
X105755797Y-83418197D01*
X105728267Y-83459399D01*
X105718600Y-83508000D01*
X104531240Y-83508000D01*
X104531240Y-82597200D01*
X104481957Y-82349435D01*
X104341609Y-82139391D01*
X104131565Y-81999043D01*
X103883800Y-81949760D01*
X102783800Y-81949760D01*
X102536035Y-81999043D01*
X102325991Y-82139391D01*
X102204436Y-82321309D01*
X102171722Y-82272349D01*
X101787280Y-82015474D01*
X101333800Y-81925271D01*
X100880320Y-82015474D01*
X100495878Y-82272349D01*
X100333800Y-82514917D01*
X100171722Y-82272349D01*
X99787280Y-82015474D01*
X99333800Y-81925271D01*
X98880320Y-82015474D01*
X98495878Y-82272349D01*
X98333800Y-82514917D01*
X98171722Y-82272349D01*
X97787280Y-82015474D01*
X97333800Y-81925271D01*
X96880320Y-82015474D01*
X96495878Y-82272349D01*
X96333800Y-82514917D01*
X96171722Y-82272349D01*
X95787280Y-82015474D01*
X95333800Y-81925271D01*
X94880320Y-82015474D01*
X94495878Y-82272349D01*
X94333800Y-82514917D01*
X94171722Y-82272349D01*
X93787280Y-82015474D01*
X93333800Y-81925271D01*
X92880320Y-82015474D01*
X92495878Y-82272349D01*
X92333800Y-82514917D01*
X92171722Y-82272349D01*
X91787280Y-82015474D01*
X91333800Y-81925271D01*
X90880320Y-82015474D01*
X90495878Y-82272349D01*
X90331515Y-82518337D01*
X90081918Y-82219476D01*
X89669946Y-82003802D01*
X89643544Y-82003397D01*
X89460800Y-82128839D01*
X89460800Y-83720200D01*
X89480800Y-83720200D01*
X89480800Y-83974200D01*
X89460800Y-83974200D01*
X89460800Y-85565561D01*
X89643544Y-85691003D01*
X89669946Y-85690598D01*
X90081918Y-85474924D01*
X90331515Y-85176063D01*
X90495878Y-85422051D01*
X90880320Y-85678926D01*
X91333800Y-85769129D01*
X91787280Y-85678926D01*
X92171722Y-85422051D01*
X92333800Y-85179483D01*
X92495878Y-85422051D01*
X92880320Y-85678926D01*
X93333800Y-85769129D01*
X93787280Y-85678926D01*
X94171722Y-85422051D01*
X94333800Y-85179483D01*
X94495878Y-85422051D01*
X94880320Y-85678926D01*
X95333800Y-85769129D01*
X95787280Y-85678926D01*
X96171722Y-85422051D01*
X96333800Y-85179483D01*
X96495878Y-85422051D01*
X96880320Y-85678926D01*
X97333800Y-85769129D01*
X97787280Y-85678926D01*
X98171722Y-85422051D01*
X98333800Y-85179483D01*
X98495878Y-85422051D01*
X98880320Y-85678926D01*
X99333800Y-85769129D01*
X99787280Y-85678926D01*
X100171722Y-85422051D01*
X100333800Y-85179483D01*
X100495878Y-85422051D01*
X100880320Y-85678926D01*
X101333800Y-85769129D01*
X101787280Y-85678926D01*
X102171722Y-85422051D01*
X102204436Y-85373091D01*
X102325991Y-85555009D01*
X102536035Y-85695357D01*
X102546400Y-85697419D01*
X102546400Y-86075248D01*
X101864648Y-86757000D01*
X82414246Y-86757000D01*
X82238747Y-86494346D01*
X82194823Y-86464997D01*
X82257365Y-86452557D01*
X82467409Y-86312209D01*
X82607757Y-86102165D01*
X82657040Y-85854400D01*
X82657040Y-84154400D01*
X82621197Y-83974200D01*
X88148800Y-83974200D01*
X88148800Y-84674200D01*
X88287604Y-85118013D01*
X88585682Y-85474924D01*
X88997654Y-85690598D01*
X89024056Y-85691003D01*
X89206800Y-85565561D01*
X89206800Y-83974200D01*
X88148800Y-83974200D01*
X82621197Y-83974200D01*
X82607757Y-83906635D01*
X82467409Y-83696591D01*
X82257365Y-83556243D01*
X82009600Y-83506960D01*
X80309600Y-83506960D01*
X80061835Y-83556243D01*
X79991200Y-83603440D01*
X79991200Y-83020200D01*
X88148800Y-83020200D01*
X88148800Y-83720200D01*
X89206800Y-83720200D01*
X89206800Y-82128839D01*
X89024056Y-82003397D01*
X88997654Y-82003802D01*
X88585682Y-82219476D01*
X88287604Y-82576387D01*
X88148800Y-83020200D01*
X79991200Y-83020200D01*
X79991200Y-80188446D01*
X80253854Y-80012947D01*
X80481502Y-79672247D01*
X80548617Y-79815158D01*
X80976876Y-80205445D01*
X81386910Y-80375276D01*
X81616800Y-80253955D01*
X81616800Y-79060800D01*
X81596800Y-79060800D01*
X81596800Y-78806800D01*
X81616800Y-78806800D01*
X81616800Y-77613645D01*
X81870800Y-77613645D01*
X81870800Y-78806800D01*
X81890800Y-78806800D01*
X81890800Y-79060800D01*
X81870800Y-79060800D01*
X81870800Y-80253955D01*
X82100690Y-80375276D01*
X82510724Y-80205445D01*
X82815061Y-79928092D01*
X82835643Y-80031565D01*
X82975991Y-80241609D01*
X83186035Y-80381957D01*
X83433800Y-80431240D01*
X85133800Y-80431240D01*
X85381565Y-80381957D01*
X85591609Y-80241609D01*
X85731957Y-80031565D01*
X85781240Y-79783800D01*
X85781240Y-79226800D01*
X110599360Y-79226800D01*
X110599360Y-80926800D01*
X110648643Y-81174565D01*
X110788991Y-81384609D01*
X110999035Y-81524957D01*
X111246800Y-81574240D01*
X112946800Y-81574240D01*
X113194565Y-81524957D01*
X113404609Y-81384609D01*
X113544957Y-81174565D01*
X113594240Y-80926800D01*
X113594240Y-79226800D01*
X113544957Y-78979035D01*
X113517382Y-78937765D01*
X120084874Y-78937765D01*
X120371243Y-79630832D01*
X120901039Y-80161553D01*
X121593605Y-80449132D01*
X122343505Y-80449786D01*
X123036572Y-80163417D01*
X123567293Y-79633621D01*
X123854872Y-78941055D01*
X123854875Y-78937275D01*
X132084830Y-78937275D01*
X132409180Y-79722260D01*
X133009241Y-80323369D01*
X133793659Y-80649088D01*
X134643015Y-80649830D01*
X135428000Y-80325480D01*
X136029109Y-79725419D01*
X136354828Y-78941001D01*
X136355031Y-78708000D01*
X146897900Y-78708000D01*
X147061384Y-79529889D01*
X147526947Y-80226653D01*
X148223711Y-80692216D01*
X149045600Y-80855700D01*
X149867489Y-80692216D01*
X150564253Y-80226653D01*
X151029816Y-79529889D01*
X151193300Y-78708000D01*
X151029816Y-77886111D01*
X150564253Y-77189347D01*
X149867489Y-76723784D01*
X149045600Y-76560300D01*
X148223711Y-76723784D01*
X147526947Y-77189347D01*
X147061384Y-77886111D01*
X146897900Y-78708000D01*
X136355031Y-78708000D01*
X136355570Y-78091645D01*
X136031220Y-77306660D01*
X135431159Y-76705551D01*
X134646741Y-76379832D01*
X133797385Y-76379090D01*
X133012400Y-76703440D01*
X132411291Y-77303501D01*
X132085572Y-78087919D01*
X132084830Y-78937275D01*
X123854875Y-78937275D01*
X123855526Y-78191155D01*
X123569157Y-77498088D01*
X123039361Y-76967367D01*
X122346795Y-76679788D01*
X121596895Y-76679134D01*
X120903828Y-76965503D01*
X120373107Y-77495299D01*
X120085528Y-78187865D01*
X120084874Y-78937765D01*
X113517382Y-78937765D01*
X113404609Y-78768991D01*
X113194565Y-78628643D01*
X112946800Y-78579360D01*
X111246800Y-78579360D01*
X110999035Y-78628643D01*
X110788991Y-78768991D01*
X110648643Y-78979035D01*
X110599360Y-79226800D01*
X85781240Y-79226800D01*
X85781240Y-78083800D01*
X85731957Y-77836035D01*
X85591609Y-77625991D01*
X85381565Y-77485643D01*
X85133800Y-77436360D01*
X83433800Y-77436360D01*
X83186035Y-77485643D01*
X82975991Y-77625991D01*
X82835643Y-77836035D01*
X82815061Y-77939508D01*
X82510724Y-77662155D01*
X82100690Y-77492324D01*
X81870800Y-77613645D01*
X81616800Y-77613645D01*
X81386910Y-77492324D01*
X80976876Y-77662155D01*
X80548617Y-78052442D01*
X80481502Y-78195353D01*
X80253854Y-77854653D01*
X79772085Y-77532746D01*
X79203800Y-77419707D01*
X78635515Y-77532746D01*
X78153746Y-77854653D01*
X77831839Y-78336422D01*
X77718800Y-78904707D01*
X77718800Y-78962893D01*
X77831839Y-79531178D01*
X78153746Y-80012947D01*
X78416400Y-80188446D01*
X78416400Y-89402648D01*
X76604466Y-91214582D01*
X76546337Y-91214531D01*
X76186788Y-91363093D01*
X75911460Y-91637941D01*
X75762270Y-91997230D01*
X75761931Y-92386263D01*
X75910493Y-92745812D01*
X76185341Y-93021140D01*
X76544630Y-93170330D01*
X76933663Y-93170669D01*
X77293212Y-93022107D01*
X77568540Y-92747259D01*
X77717730Y-92387970D01*
X77717782Y-92328370D01*
X79697975Y-90348177D01*
X79758546Y-90652685D01*
X80080453Y-91134454D01*
X80409626Y-91354400D01*
X80080453Y-91574346D01*
X79758546Y-92056115D01*
X79645507Y-92624400D01*
X79758546Y-93192685D01*
X80080453Y-93674454D01*
X80409626Y-93894400D01*
X80080453Y-94114346D01*
X79758546Y-94596115D01*
X79645507Y-95164400D01*
X79758546Y-95732685D01*
X80080453Y-96214454D01*
X80409626Y-96434400D01*
X80080453Y-96654346D01*
X79758546Y-97136115D01*
X79645507Y-97704400D01*
X79758546Y-98272685D01*
X80080453Y-98754454D01*
X80562222Y-99076361D01*
X81130507Y-99189400D01*
X81188693Y-99189400D01*
X81756978Y-99076361D01*
X82238747Y-98754454D01*
X82560654Y-98272685D01*
X82673693Y-97704400D01*
X82560654Y-97136115D01*
X82238747Y-96654346D01*
X81909574Y-96434400D01*
X82238747Y-96214454D01*
X82560654Y-95732685D01*
X82673693Y-95164400D01*
X82560654Y-94596115D01*
X82238747Y-94114346D01*
X81909574Y-93894400D01*
X82238747Y-93674454D01*
X82448190Y-93361000D01*
X98075690Y-93361000D01*
X100597200Y-95882510D01*
X100597200Y-97604648D01*
X100495878Y-97672349D01*
X100333800Y-97914917D01*
X100171722Y-97672349D01*
X99787280Y-97415474D01*
X99333800Y-97325271D01*
X98880320Y-97415474D01*
X98495878Y-97672349D01*
X98333800Y-97914917D01*
X98171722Y-97672349D01*
X97787280Y-97415474D01*
X97333800Y-97325271D01*
X96880320Y-97415474D01*
X96495878Y-97672349D01*
X96333800Y-97914917D01*
X96171722Y-97672349D01*
X95787280Y-97415474D01*
X95333800Y-97325271D01*
X94880320Y-97415474D01*
X94495878Y-97672349D01*
X94333800Y-97914917D01*
X94171722Y-97672349D01*
X93787280Y-97415474D01*
X93333800Y-97325271D01*
X92880320Y-97415474D01*
X92495878Y-97672349D01*
X92367209Y-97864917D01*
X92171722Y-97572349D01*
X91787280Y-97315474D01*
X91333800Y-97225271D01*
X90880320Y-97315474D01*
X90495878Y-97572349D01*
X90300391Y-97864917D01*
X90171722Y-97672349D01*
X89787280Y-97415474D01*
X89333800Y-97325271D01*
X88880320Y-97415474D01*
X88495878Y-97672349D01*
X88488360Y-97683600D01*
X86158800Y-97683600D01*
X85828315Y-97749338D01*
X85548143Y-97936542D01*
X83773686Y-99711000D01*
X79866314Y-99711000D01*
X77225957Y-97070643D01*
X77112307Y-96795588D01*
X76837459Y-96520260D01*
X76478170Y-96371070D01*
X76089137Y-96370731D01*
X75729588Y-96519293D01*
X75454260Y-96794141D01*
X75305070Y-97153430D01*
X75304731Y-97542463D01*
X74880918Y-97542463D01*
X72416920Y-95078466D01*
X72416920Y-90658440D01*
X72351182Y-90327955D01*
X72163977Y-90047783D01*
X71754797Y-89638603D01*
X71641147Y-89363548D01*
X71366299Y-89088220D01*
X71007010Y-88939030D01*
X70617977Y-88938691D01*
X70258428Y-89087253D01*
X69983100Y-89362101D01*
X69833910Y-89721390D01*
X69833571Y-90110423D01*
X58693300Y-90110423D01*
X58693300Y-78708000D01*
X58897900Y-78708000D01*
X59061384Y-79529889D01*
X59526947Y-80226653D01*
X60223711Y-80692216D01*
X61045600Y-80855700D01*
X61867489Y-80692216D01*
X62564253Y-80226653D01*
X63029816Y-79529889D01*
X63193300Y-78708000D01*
X63029816Y-77886111D01*
X62564253Y-77189347D01*
X61867489Y-76723784D01*
X61045600Y-76560300D01*
X60223711Y-76723784D01*
X59526947Y-77189347D01*
X59061384Y-77886111D01*
X58897900Y-78708000D01*
X58693300Y-78708000D01*
X58693300Y-76355700D01*
X151397900Y-76355700D01*
X151397900Y-129060300D01*
X151397900Y-129060300D01*
G37*
X151397900Y-129060300D02*
X58693300Y-129060300D01*
X58693300Y-126708000D01*
X58897900Y-126708000D01*
X59061384Y-127529889D01*
X59526947Y-128226653D01*
X60223711Y-128692216D01*
X61045600Y-128855700D01*
X61867489Y-128692216D01*
X62564253Y-128226653D01*
X63029816Y-127529889D01*
X63193300Y-126708000D01*
X63029816Y-125886111D01*
X62564253Y-125189347D01*
X61867489Y-124723784D01*
X61045600Y-124560300D01*
X60223711Y-124723784D01*
X59526947Y-125189347D01*
X59061384Y-125886111D01*
X58897900Y-126708000D01*
X58693300Y-126708000D01*
X58693300Y-120105225D01*
X73040094Y-120105225D01*
X73326463Y-120798292D01*
X73856259Y-121329013D01*
X74548825Y-121616592D01*
X75298725Y-121617246D01*
X75991792Y-121330877D01*
X76522513Y-120801081D01*
X76810092Y-120108515D01*
X76810746Y-119358615D01*
X76524377Y-118665548D01*
X75994581Y-118134827D01*
X75302015Y-117847248D01*
X74552115Y-117846594D01*
X73859048Y-118132963D01*
X73328327Y-118662759D01*
X73040748Y-119355325D01*
X73040094Y-120105225D01*
X58693300Y-120105225D01*
X58693300Y-116641305D01*
X63780274Y-116641305D01*
X64066643Y-117334372D01*
X64596439Y-117865093D01*
X65289005Y-118152672D01*
X66038905Y-118153326D01*
X66731972Y-117866957D01*
X67262693Y-117337161D01*
X67550272Y-116644595D01*
X67550926Y-115894695D01*
X67264557Y-115201628D01*
X67168323Y-115105225D01*
X73040094Y-115105225D01*
X73326463Y-115798292D01*
X73856259Y-116329013D01*
X74548825Y-116616592D01*
X75298725Y-116617246D01*
X75991792Y-116330877D01*
X76522513Y-115801081D01*
X76810092Y-115108515D01*
X76810746Y-114358615D01*
X76524377Y-113665548D01*
X75994581Y-113134827D01*
X75302015Y-112847248D01*
X74552115Y-112846594D01*
X73859048Y-113132963D01*
X73328327Y-113662759D01*
X73040748Y-114355325D01*
X73040094Y-115105225D01*
X67168323Y-115105225D01*
X66734761Y-114670907D01*
X66042195Y-114383328D01*
X65292295Y-114382674D01*
X64599228Y-114669043D01*
X64068507Y-115198839D01*
X63780928Y-115891405D01*
X63780274Y-116641305D01*
X58693300Y-116641305D01*
X58693300Y-110018000D01*
X63768160Y-110018000D01*
X63768160Y-112518000D01*
X63817443Y-112765765D01*
X63957791Y-112975809D01*
X64167835Y-113116157D01*
X64415600Y-113165440D01*
X66915600Y-113165440D01*
X67163365Y-113116157D01*
X67373409Y-112975809D01*
X67513757Y-112765765D01*
X67563040Y-112518000D01*
X67563040Y-110018000D01*
X67513757Y-109770235D01*
X67373409Y-109560191D01*
X67163365Y-109419843D01*
X66915600Y-109370560D01*
X64415600Y-109370560D01*
X64167835Y-109419843D01*
X63957791Y-109560191D01*
X63817443Y-109770235D01*
X63768160Y-110018000D01*
X58693300Y-110018000D01*
X58693300Y-90110423D01*
X69833571Y-90110423D01*
X69982133Y-90469972D01*
X70256981Y-90745300D01*
X70533820Y-90860254D01*
X70689720Y-91016154D01*
X70689720Y-95436180D01*
X70717811Y-95577400D01*
X70755458Y-95766665D01*
X70942663Y-96046837D01*
X100228862Y-125333037D01*
X100509034Y-125520242D01*
X100563865Y-125531149D01*
X100839520Y-125585980D01*
X102556099Y-125585980D01*
X102726463Y-125998292D01*
X103256259Y-126529013D01*
X103948825Y-126816592D01*
X104698725Y-126817246D01*
X105391792Y-126530877D01*
X105922513Y-126001081D01*
X106210092Y-125308515D01*
X106210746Y-124558615D01*
X106087775Y-124261000D01*
X109291260Y-124261000D01*
X109291260Y-125961000D01*
X109340543Y-126208765D01*
X109480891Y-126418809D01*
X109690935Y-126559157D01*
X109938700Y-126608440D01*
X111638700Y-126608440D01*
X111886465Y-126559157D01*
X112096509Y-126418809D01*
X112236857Y-126208765D01*
X112286140Y-125961000D01*
X112286140Y-124261000D01*
X112236857Y-124013235D01*
X112096509Y-123803191D01*
X111886465Y-123662843D01*
X111638700Y-123613560D01*
X109938700Y-123613560D01*
X109690935Y-123662843D01*
X109480891Y-123803191D01*
X109340543Y-124013235D01*
X109291260Y-124261000D01*
X106087775Y-124261000D01*
X105924377Y-123865548D01*
X105394581Y-123334827D01*
X104702015Y-123047248D01*
X103952115Y-123046594D01*
X103259048Y-123332963D01*
X102732313Y-123858780D01*
X101197235Y-123858780D01*
X96477070Y-119138615D01*
X117884830Y-119138615D01*
X118209180Y-119923600D01*
X118809241Y-120524709D01*
X119593659Y-120850428D01*
X120443015Y-120851170D01*
X121228000Y-120526820D01*
X121829109Y-119926759D01*
X122154828Y-119142341D01*
X122155570Y-118292985D01*
X121831220Y-117508000D01*
X121231159Y-116906891D01*
X120446741Y-116581172D01*
X119597385Y-116580430D01*
X118812400Y-116904780D01*
X118211291Y-117504841D01*
X117885572Y-118289259D01*
X117884830Y-119138615D01*
X96477070Y-119138615D01*
X90477560Y-113139105D01*
X120084874Y-113139105D01*
X120371243Y-113832172D01*
X120901039Y-114362893D01*
X121593605Y-114650472D01*
X122343505Y-114651126D01*
X123036572Y-114364757D01*
X123567293Y-113834961D01*
X123854872Y-113142395D01*
X123855526Y-112392495D01*
X123569157Y-111699428D01*
X123039361Y-111168707D01*
X122346795Y-110881128D01*
X121596895Y-110880474D01*
X120903828Y-111166843D01*
X120373107Y-111696639D01*
X120085528Y-112389205D01*
X120084874Y-113139105D01*
X90477560Y-113139105D01*
X87243680Y-109905225D01*
X102440094Y-109905225D01*
X102726463Y-110598292D01*
X103256259Y-111129013D01*
X103948825Y-111416592D01*
X104698725Y-111417246D01*
X105391792Y-111130877D01*
X105922513Y-110601081D01*
X106210092Y-109908515D01*
X106210746Y-109158615D01*
X105924377Y-108465548D01*
X105394581Y-107934827D01*
X104702015Y-107647248D01*
X103952115Y-107646594D01*
X103259048Y-107932963D01*
X102728327Y-108462759D01*
X102440748Y-109155325D01*
X102440094Y-109905225D01*
X87243680Y-109905225D01*
X74880918Y-97542463D01*
X75304731Y-97542463D01*
X75453293Y-97902012D01*
X75728141Y-98177340D01*
X76004980Y-98292294D01*
X78897943Y-101185257D01*
X79178114Y-101372462D01*
X79232945Y-101383369D01*
X79508600Y-101438200D01*
X84131400Y-101438200D01*
X84461885Y-101372462D01*
X84742057Y-101185257D01*
X86516515Y-99410800D01*
X88148800Y-99410800D01*
X88148800Y-99984129D01*
X88239003Y-100437609D01*
X88495878Y-100822051D01*
X88880320Y-101078926D01*
X89333800Y-101169129D01*
X89787280Y-101078926D01*
X90171722Y-100822051D01*
X90367209Y-100529483D01*
X90495878Y-100722051D01*
X90880320Y-100978926D01*
X91333800Y-101069129D01*
X91787280Y-100978926D01*
X92171722Y-100722051D01*
X92300391Y-100529483D01*
X92495878Y-100822051D01*
X92880320Y-101078926D01*
X93333800Y-101169129D01*
X93787280Y-101078926D01*
X94171722Y-100822051D01*
X94333800Y-100579483D01*
X94495878Y-100822051D01*
X94880320Y-101078926D01*
X95333800Y-101169129D01*
X95787280Y-101078926D01*
X96171722Y-100822051D01*
X96333800Y-100579483D01*
X96495878Y-100822051D01*
X96880320Y-101078926D01*
X97333800Y-101169129D01*
X97787280Y-101078926D01*
X98171722Y-100822051D01*
X98333800Y-100579483D01*
X98495878Y-100822051D01*
X98880320Y-101078926D01*
X99333800Y-101169129D01*
X99787280Y-101078926D01*
X100171722Y-100822051D01*
X100333800Y-100579483D01*
X100495878Y-100822051D01*
X100880320Y-101078926D01*
X101333800Y-101169129D01*
X101787280Y-101078926D01*
X102171722Y-100822051D01*
X102333800Y-100579483D01*
X102495878Y-100822051D01*
X102880320Y-101078926D01*
X102998147Y-101102363D01*
X103051915Y-101138290D01*
X103333800Y-101194360D01*
X103615685Y-101138290D01*
X103669453Y-101102363D01*
X103787280Y-101078926D01*
X104171722Y-100822051D01*
X104428597Y-100437609D01*
X104518800Y-99984129D01*
X104518800Y-98510271D01*
X104428597Y-98056791D01*
X104171722Y-97672349D01*
X103787280Y-97415474D01*
X103333800Y-97325271D01*
X102880320Y-97415474D01*
X102495878Y-97672349D01*
X102333800Y-97914917D01*
X102171722Y-97672349D01*
X102070400Y-97604648D01*
X102070400Y-95577400D01*
X102014330Y-95295515D01*
X101854655Y-95056545D01*
X98901655Y-92103545D01*
X98662685Y-91943870D01*
X98380800Y-91887800D01*
X82448190Y-91887800D01*
X82238747Y-91574346D01*
X81909574Y-91354400D01*
X82238747Y-91134454D01*
X82560654Y-90652685D01*
X82673693Y-90084400D01*
X82560654Y-89516115D01*
X82238747Y-89034346D01*
X81909574Y-88814400D01*
X82238747Y-88594454D01*
X82414246Y-88331800D01*
X102190800Y-88331800D01*
X102492125Y-88271863D01*
X102747576Y-88101176D01*
X103890576Y-86958176D01*
X104061263Y-86702725D01*
X104121200Y-86401400D01*
X104121200Y-85697419D01*
X104131565Y-85695357D01*
X104341609Y-85555009D01*
X104481957Y-85344965D01*
X104531240Y-85097200D01*
X104531240Y-83508000D01*
X105718600Y-83508000D01*
X105718600Y-99708000D01*
X105728267Y-99756601D01*
X105755797Y-99797803D01*
X105796999Y-99825333D01*
X105845600Y-99835000D01*
X109845600Y-99835000D01*
X109894201Y-99825333D01*
X109935403Y-99797803D01*
X109962933Y-99756601D01*
X109972600Y-99708000D01*
X109972600Y-90937765D01*
X120084874Y-90937765D01*
X120371243Y-91630832D01*
X120901039Y-92161553D01*
X121593605Y-92449132D01*
X122343505Y-92449786D01*
X122549214Y-92364789D01*
X124408180Y-94223755D01*
X124408180Y-121106505D01*
X122549420Y-122965265D01*
X122346795Y-122881128D01*
X121596895Y-122880474D01*
X120903828Y-123166843D01*
X120373107Y-123696639D01*
X120085528Y-124389205D01*
X120084874Y-125139105D01*
X120371243Y-125832172D01*
X120901039Y-126362893D01*
X121593605Y-126650472D01*
X122343505Y-126651126D01*
X123036572Y-126364757D01*
X123567293Y-125834961D01*
X123835679Y-125188615D01*
X132034830Y-125188615D01*
X132359180Y-125973600D01*
X132959241Y-126574709D01*
X133743659Y-126900428D01*
X134593015Y-126901170D01*
X135060520Y-126708000D01*
X146897900Y-126708000D01*
X147061384Y-127529889D01*
X147526947Y-128226653D01*
X148223711Y-128692216D01*
X149045600Y-128855700D01*
X149867489Y-128692216D01*
X150564253Y-128226653D01*
X151029816Y-127529889D01*
X151193300Y-126708000D01*
X151029816Y-125886111D01*
X150564253Y-125189347D01*
X149867489Y-124723784D01*
X149045600Y-124560300D01*
X148223711Y-124723784D01*
X147526947Y-125189347D01*
X147061384Y-125886111D01*
X146897900Y-126708000D01*
X135060520Y-126708000D01*
X135378000Y-126576820D01*
X135979109Y-125976759D01*
X136304828Y-125192341D01*
X136305570Y-124342985D01*
X135981220Y-123558000D01*
X135381159Y-122956891D01*
X134596741Y-122631172D01*
X133747385Y-122630430D01*
X132962400Y-122954780D01*
X132361291Y-123554841D01*
X132035572Y-124339259D01*
X132034830Y-125188615D01*
X123835679Y-125188615D01*
X123854872Y-125142395D01*
X123855526Y-124392495D01*
X123770529Y-124186786D01*
X125882437Y-122074878D01*
X126069642Y-121794706D01*
X126105071Y-121616592D01*
X126135380Y-121464220D01*
X126135380Y-115098000D01*
X144148160Y-115098000D01*
X144148160Y-117598000D01*
X144197443Y-117845765D01*
X144337791Y-118055809D01*
X144547835Y-118196157D01*
X144795600Y-118245440D01*
X147295600Y-118245440D01*
X147543365Y-118196157D01*
X147753409Y-118055809D01*
X147893757Y-117845765D01*
X147943040Y-117598000D01*
X147943040Y-115098000D01*
X147893757Y-114850235D01*
X147753409Y-114640191D01*
X147543365Y-114499843D01*
X147295600Y-114450560D01*
X144795600Y-114450560D01*
X144547835Y-114499843D01*
X144337791Y-114640191D01*
X144197443Y-114850235D01*
X144148160Y-115098000D01*
X126135380Y-115098000D01*
X126135380Y-113138615D01*
X132084830Y-113138615D01*
X132409180Y-113923600D01*
X133009241Y-114524709D01*
X133793659Y-114850428D01*
X134643015Y-114851170D01*
X135428000Y-114526820D01*
X136029109Y-113926759D01*
X136354828Y-113142341D01*
X136355570Y-112292985D01*
X136119357Y-111721305D01*
X144160274Y-111721305D01*
X144446643Y-112414372D01*
X144976439Y-112945093D01*
X145669005Y-113232672D01*
X146418905Y-113233326D01*
X147111972Y-112946957D01*
X147642693Y-112417161D01*
X147930272Y-111724595D01*
X147930926Y-110974695D01*
X147644557Y-110281628D01*
X147114761Y-109750907D01*
X146422195Y-109463328D01*
X145672295Y-109462674D01*
X144979228Y-109749043D01*
X144448507Y-110278839D01*
X144160928Y-110971405D01*
X144160274Y-111721305D01*
X136119357Y-111721305D01*
X136031220Y-111508000D01*
X135431159Y-110906891D01*
X134646741Y-110581172D01*
X133797385Y-110580430D01*
X133012400Y-110904780D01*
X132411291Y-111504841D01*
X132085572Y-112289259D01*
X132084830Y-113138615D01*
X126135380Y-113138615D01*
X126135380Y-93866040D01*
X126069642Y-93535555D01*
X126069642Y-93535554D01*
X125882437Y-93255382D01*
X123770735Y-91143680D01*
X123835679Y-90987275D01*
X132034830Y-90987275D01*
X132359180Y-91772260D01*
X132959241Y-92373369D01*
X133743659Y-92699088D01*
X134593015Y-92699830D01*
X135378000Y-92375480D01*
X135979109Y-91775419D01*
X136304828Y-90991001D01*
X136305570Y-90141645D01*
X136122260Y-89698000D01*
X144148160Y-89698000D01*
X144148160Y-92198000D01*
X144197443Y-92445765D01*
X144337791Y-92655809D01*
X144547835Y-92796157D01*
X144795600Y-92845440D01*
X147295600Y-92845440D01*
X147543365Y-92796157D01*
X147753409Y-92655809D01*
X147893757Y-92445765D01*
X147943040Y-92198000D01*
X147943040Y-89698000D01*
X147893757Y-89450235D01*
X147753409Y-89240191D01*
X147543365Y-89099843D01*
X147295600Y-89050560D01*
X144795600Y-89050560D01*
X144547835Y-89099843D01*
X144337791Y-89240191D01*
X144197443Y-89450235D01*
X144148160Y-89698000D01*
X136122260Y-89698000D01*
X135981220Y-89356660D01*
X135381159Y-88755551D01*
X134596741Y-88429832D01*
X133747385Y-88429090D01*
X132962400Y-88753440D01*
X132361291Y-89353501D01*
X132035572Y-90137919D01*
X132034830Y-90987275D01*
X123835679Y-90987275D01*
X123854872Y-90941055D01*
X123855526Y-90191155D01*
X123569157Y-89498088D01*
X123039361Y-88967367D01*
X122346795Y-88679788D01*
X121596895Y-88679134D01*
X120903828Y-88965503D01*
X120373107Y-89495299D01*
X120085528Y-90187865D01*
X120084874Y-90937765D01*
X109972600Y-90937765D01*
X109972600Y-84937275D01*
X117884830Y-84937275D01*
X118209180Y-85722260D01*
X118809241Y-86323369D01*
X119593659Y-86649088D01*
X120443015Y-86649830D01*
X121228000Y-86325480D01*
X121232182Y-86321305D01*
X144160274Y-86321305D01*
X144446643Y-87014372D01*
X144976439Y-87545093D01*
X145669005Y-87832672D01*
X146418905Y-87833326D01*
X147111972Y-87546957D01*
X147642693Y-87017161D01*
X147930272Y-86324595D01*
X147930926Y-85574695D01*
X147644557Y-84881628D01*
X147114761Y-84350907D01*
X146422195Y-84063328D01*
X145672295Y-84062674D01*
X144979228Y-84349043D01*
X144448507Y-84878839D01*
X144160928Y-85571405D01*
X144160274Y-86321305D01*
X121232182Y-86321305D01*
X121829109Y-85725419D01*
X122154828Y-84941001D01*
X122155570Y-84091645D01*
X121831220Y-83306660D01*
X121231159Y-82705551D01*
X120446741Y-82379832D01*
X119597385Y-82379090D01*
X118812400Y-82703440D01*
X118211291Y-83303501D01*
X117885572Y-84087919D01*
X117884830Y-84937275D01*
X109972600Y-84937275D01*
X109972600Y-83508000D01*
X109962933Y-83459399D01*
X109935403Y-83418197D01*
X109894201Y-83390667D01*
X109845600Y-83381000D01*
X105845600Y-83381000D01*
X105796999Y-83390667D01*
X105755797Y-83418197D01*
X105728267Y-83459399D01*
X105718600Y-83508000D01*
X104531240Y-83508000D01*
X104531240Y-82597200D01*
X104481957Y-82349435D01*
X104341609Y-82139391D01*
X104131565Y-81999043D01*
X103883800Y-81949760D01*
X102783800Y-81949760D01*
X102536035Y-81999043D01*
X102325991Y-82139391D01*
X102204436Y-82321309D01*
X102171722Y-82272349D01*
X101787280Y-82015474D01*
X101333800Y-81925271D01*
X100880320Y-82015474D01*
X100495878Y-82272349D01*
X100333800Y-82514917D01*
X100171722Y-82272349D01*
X99787280Y-82015474D01*
X99333800Y-81925271D01*
X98880320Y-82015474D01*
X98495878Y-82272349D01*
X98333800Y-82514917D01*
X98171722Y-82272349D01*
X97787280Y-82015474D01*
X97333800Y-81925271D01*
X96880320Y-82015474D01*
X96495878Y-82272349D01*
X96333800Y-82514917D01*
X96171722Y-82272349D01*
X95787280Y-82015474D01*
X95333800Y-81925271D01*
X94880320Y-82015474D01*
X94495878Y-82272349D01*
X94333800Y-82514917D01*
X94171722Y-82272349D01*
X93787280Y-82015474D01*
X93333800Y-81925271D01*
X92880320Y-82015474D01*
X92495878Y-82272349D01*
X92333800Y-82514917D01*
X92171722Y-82272349D01*
X91787280Y-82015474D01*
X91333800Y-81925271D01*
X90880320Y-82015474D01*
X90495878Y-82272349D01*
X90331515Y-82518337D01*
X90081918Y-82219476D01*
X89669946Y-82003802D01*
X89643544Y-82003397D01*
X89460800Y-82128839D01*
X89460800Y-83720200D01*
X89480800Y-83720200D01*
X89480800Y-83974200D01*
X89460800Y-83974200D01*
X89460800Y-85565561D01*
X89643544Y-85691003D01*
X89669946Y-85690598D01*
X90081918Y-85474924D01*
X90331515Y-85176063D01*
X90495878Y-85422051D01*
X90880320Y-85678926D01*
X91333800Y-85769129D01*
X91787280Y-85678926D01*
X92171722Y-85422051D01*
X92333800Y-85179483D01*
X92495878Y-85422051D01*
X92880320Y-85678926D01*
X93333800Y-85769129D01*
X93787280Y-85678926D01*
X94171722Y-85422051D01*
X94333800Y-85179483D01*
X94495878Y-85422051D01*
X94880320Y-85678926D01*
X95333800Y-85769129D01*
X95787280Y-85678926D01*
X96171722Y-85422051D01*
X96333800Y-85179483D01*
X96495878Y-85422051D01*
X96880320Y-85678926D01*
X97333800Y-85769129D01*
X97787280Y-85678926D01*
X98171722Y-85422051D01*
X98333800Y-85179483D01*
X98495878Y-85422051D01*
X98880320Y-85678926D01*
X99333800Y-85769129D01*
X99787280Y-85678926D01*
X100171722Y-85422051D01*
X100333800Y-85179483D01*
X100495878Y-85422051D01*
X100880320Y-85678926D01*
X101333800Y-85769129D01*
X101787280Y-85678926D01*
X102171722Y-85422051D01*
X102204436Y-85373091D01*
X102325991Y-85555009D01*
X102536035Y-85695357D01*
X102546400Y-85697419D01*
X102546400Y-86075248D01*
X101864648Y-86757000D01*
X82414246Y-86757000D01*
X82238747Y-86494346D01*
X82194823Y-86464997D01*
X82257365Y-86452557D01*
X82467409Y-86312209D01*
X82607757Y-86102165D01*
X82657040Y-85854400D01*
X82657040Y-84154400D01*
X82621197Y-83974200D01*
X88148800Y-83974200D01*
X88148800Y-84674200D01*
X88287604Y-85118013D01*
X88585682Y-85474924D01*
X88997654Y-85690598D01*
X89024056Y-85691003D01*
X89206800Y-85565561D01*
X89206800Y-83974200D01*
X88148800Y-83974200D01*
X82621197Y-83974200D01*
X82607757Y-83906635D01*
X82467409Y-83696591D01*
X82257365Y-83556243D01*
X82009600Y-83506960D01*
X80309600Y-83506960D01*
X80061835Y-83556243D01*
X79991200Y-83603440D01*
X79991200Y-83020200D01*
X88148800Y-83020200D01*
X88148800Y-83720200D01*
X89206800Y-83720200D01*
X89206800Y-82128839D01*
X89024056Y-82003397D01*
X88997654Y-82003802D01*
X88585682Y-82219476D01*
X88287604Y-82576387D01*
X88148800Y-83020200D01*
X79991200Y-83020200D01*
X79991200Y-80188446D01*
X80253854Y-80012947D01*
X80481502Y-79672247D01*
X80548617Y-79815158D01*
X80976876Y-80205445D01*
X81386910Y-80375276D01*
X81616800Y-80253955D01*
X81616800Y-79060800D01*
X81596800Y-79060800D01*
X81596800Y-78806800D01*
X81616800Y-78806800D01*
X81616800Y-77613645D01*
X81870800Y-77613645D01*
X81870800Y-78806800D01*
X81890800Y-78806800D01*
X81890800Y-79060800D01*
X81870800Y-79060800D01*
X81870800Y-80253955D01*
X82100690Y-80375276D01*
X82510724Y-80205445D01*
X82815061Y-79928092D01*
X82835643Y-80031565D01*
X82975991Y-80241609D01*
X83186035Y-80381957D01*
X83433800Y-80431240D01*
X85133800Y-80431240D01*
X85381565Y-80381957D01*
X85591609Y-80241609D01*
X85731957Y-80031565D01*
X85781240Y-79783800D01*
X85781240Y-79226800D01*
X110599360Y-79226800D01*
X110599360Y-80926800D01*
X110648643Y-81174565D01*
X110788991Y-81384609D01*
X110999035Y-81524957D01*
X111246800Y-81574240D01*
X112946800Y-81574240D01*
X113194565Y-81524957D01*
X113404609Y-81384609D01*
X113544957Y-81174565D01*
X113594240Y-80926800D01*
X113594240Y-79226800D01*
X113544957Y-78979035D01*
X113517382Y-78937765D01*
X120084874Y-78937765D01*
X120371243Y-79630832D01*
X120901039Y-80161553D01*
X121593605Y-80449132D01*
X122343505Y-80449786D01*
X123036572Y-80163417D01*
X123567293Y-79633621D01*
X123854872Y-78941055D01*
X123854875Y-78937275D01*
X132084830Y-78937275D01*
X132409180Y-79722260D01*
X133009241Y-80323369D01*
X133793659Y-80649088D01*
X134643015Y-80649830D01*
X135428000Y-80325480D01*
X136029109Y-79725419D01*
X136354828Y-78941001D01*
X136355031Y-78708000D01*
X146897900Y-78708000D01*
X147061384Y-79529889D01*
X147526947Y-80226653D01*
X148223711Y-80692216D01*
X149045600Y-80855700D01*
X149867489Y-80692216D01*
X150564253Y-80226653D01*
X151029816Y-79529889D01*
X151193300Y-78708000D01*
X151029816Y-77886111D01*
X150564253Y-77189347D01*
X149867489Y-76723784D01*
X149045600Y-76560300D01*
X148223711Y-76723784D01*
X147526947Y-77189347D01*
X147061384Y-77886111D01*
X146897900Y-78708000D01*
X136355031Y-78708000D01*
X136355570Y-78091645D01*
X136031220Y-77306660D01*
X135431159Y-76705551D01*
X134646741Y-76379832D01*
X133797385Y-76379090D01*
X133012400Y-76703440D01*
X132411291Y-77303501D01*
X132085572Y-78087919D01*
X132084830Y-78937275D01*
X123854875Y-78937275D01*
X123855526Y-78191155D01*
X123569157Y-77498088D01*
X123039361Y-76967367D01*
X122346795Y-76679788D01*
X121596895Y-76679134D01*
X120903828Y-76965503D01*
X120373107Y-77495299D01*
X120085528Y-78187865D01*
X120084874Y-78937765D01*
X113517382Y-78937765D01*
X113404609Y-78768991D01*
X113194565Y-78628643D01*
X112946800Y-78579360D01*
X111246800Y-78579360D01*
X110999035Y-78628643D01*
X110788991Y-78768991D01*
X110648643Y-78979035D01*
X110599360Y-79226800D01*
X85781240Y-79226800D01*
X85781240Y-78083800D01*
X85731957Y-77836035D01*
X85591609Y-77625991D01*
X85381565Y-77485643D01*
X85133800Y-77436360D01*
X83433800Y-77436360D01*
X83186035Y-77485643D01*
X82975991Y-77625991D01*
X82835643Y-77836035D01*
X82815061Y-77939508D01*
X82510724Y-77662155D01*
X82100690Y-77492324D01*
X81870800Y-77613645D01*
X81616800Y-77613645D01*
X81386910Y-77492324D01*
X80976876Y-77662155D01*
X80548617Y-78052442D01*
X80481502Y-78195353D01*
X80253854Y-77854653D01*
X79772085Y-77532746D01*
X79203800Y-77419707D01*
X78635515Y-77532746D01*
X78153746Y-77854653D01*
X77831839Y-78336422D01*
X77718800Y-78904707D01*
X77718800Y-78962893D01*
X77831839Y-79531178D01*
X78153746Y-80012947D01*
X78416400Y-80188446D01*
X78416400Y-89402648D01*
X76604466Y-91214582D01*
X76546337Y-91214531D01*
X76186788Y-91363093D01*
X75911460Y-91637941D01*
X75762270Y-91997230D01*
X75761931Y-92386263D01*
X75910493Y-92745812D01*
X76185341Y-93021140D01*
X76544630Y-93170330D01*
X76933663Y-93170669D01*
X77293212Y-93022107D01*
X77568540Y-92747259D01*
X77717730Y-92387970D01*
X77717782Y-92328370D01*
X79697975Y-90348177D01*
X79758546Y-90652685D01*
X80080453Y-91134454D01*
X80409626Y-91354400D01*
X80080453Y-91574346D01*
X79758546Y-92056115D01*
X79645507Y-92624400D01*
X79758546Y-93192685D01*
X80080453Y-93674454D01*
X80409626Y-93894400D01*
X80080453Y-94114346D01*
X79758546Y-94596115D01*
X79645507Y-95164400D01*
X79758546Y-95732685D01*
X80080453Y-96214454D01*
X80409626Y-96434400D01*
X80080453Y-96654346D01*
X79758546Y-97136115D01*
X79645507Y-97704400D01*
X79758546Y-98272685D01*
X80080453Y-98754454D01*
X80562222Y-99076361D01*
X81130507Y-99189400D01*
X81188693Y-99189400D01*
X81756978Y-99076361D01*
X82238747Y-98754454D01*
X82560654Y-98272685D01*
X82673693Y-97704400D01*
X82560654Y-97136115D01*
X82238747Y-96654346D01*
X81909574Y-96434400D01*
X82238747Y-96214454D01*
X82560654Y-95732685D01*
X82673693Y-95164400D01*
X82560654Y-94596115D01*
X82238747Y-94114346D01*
X81909574Y-93894400D01*
X82238747Y-93674454D01*
X82448190Y-93361000D01*
X98075690Y-93361000D01*
X100597200Y-95882510D01*
X100597200Y-97604648D01*
X100495878Y-97672349D01*
X100333800Y-97914917D01*
X100171722Y-97672349D01*
X99787280Y-97415474D01*
X99333800Y-97325271D01*
X98880320Y-97415474D01*
X98495878Y-97672349D01*
X98333800Y-97914917D01*
X98171722Y-97672349D01*
X97787280Y-97415474D01*
X97333800Y-97325271D01*
X96880320Y-97415474D01*
X96495878Y-97672349D01*
X96333800Y-97914917D01*
X96171722Y-97672349D01*
X95787280Y-97415474D01*
X95333800Y-97325271D01*
X94880320Y-97415474D01*
X94495878Y-97672349D01*
X94333800Y-97914917D01*
X94171722Y-97672349D01*
X93787280Y-97415474D01*
X93333800Y-97325271D01*
X92880320Y-97415474D01*
X92495878Y-97672349D01*
X92367209Y-97864917D01*
X92171722Y-97572349D01*
X91787280Y-97315474D01*
X91333800Y-97225271D01*
X90880320Y-97315474D01*
X90495878Y-97572349D01*
X90300391Y-97864917D01*
X90171722Y-97672349D01*
X89787280Y-97415474D01*
X89333800Y-97325271D01*
X88880320Y-97415474D01*
X88495878Y-97672349D01*
X88488360Y-97683600D01*
X86158800Y-97683600D01*
X85828315Y-97749338D01*
X85548143Y-97936542D01*
X83773686Y-99711000D01*
X79866314Y-99711000D01*
X77225957Y-97070643D01*
X77112307Y-96795588D01*
X76837459Y-96520260D01*
X76478170Y-96371070D01*
X76089137Y-96370731D01*
X75729588Y-96519293D01*
X75454260Y-96794141D01*
X75305070Y-97153430D01*
X75304731Y-97542463D01*
X74880918Y-97542463D01*
X72416920Y-95078466D01*
X72416920Y-90658440D01*
X72351182Y-90327955D01*
X72163977Y-90047783D01*
X71754797Y-89638603D01*
X71641147Y-89363548D01*
X71366299Y-89088220D01*
X71007010Y-88939030D01*
X70617977Y-88938691D01*
X70258428Y-89087253D01*
X69983100Y-89362101D01*
X69833910Y-89721390D01*
X69833571Y-90110423D01*
X58693300Y-90110423D01*
X58693300Y-78708000D01*
X58897900Y-78708000D01*
X59061384Y-79529889D01*
X59526947Y-80226653D01*
X60223711Y-80692216D01*
X61045600Y-80855700D01*
X61867489Y-80692216D01*
X62564253Y-80226653D01*
X63029816Y-79529889D01*
X63193300Y-78708000D01*
X63029816Y-77886111D01*
X62564253Y-77189347D01*
X61867489Y-76723784D01*
X61045600Y-76560300D01*
X60223711Y-76723784D01*
X59526947Y-77189347D01*
X59061384Y-77886111D01*
X58897900Y-78708000D01*
X58693300Y-78708000D01*
X58693300Y-76355700D01*
X151397900Y-76355700D01*
X151397900Y-129060300D01*
M02*
