G04 #@! TF.GenerationSoftware,KiCad,Pcbnew,(2017-04-22 revision b38541345)-makepkg*
G04 #@! TF.CreationDate,2017-05-30T09:40:34-07:00*
G04 #@! TF.ProjectId,WifiRelay,5769666952656C61792E6B696361645F,rev?*
G04 #@! TF.FileFunction,Legend,Top*
G04 #@! TF.FilePolarity,Positive*
%FSLAX46Y46*%
G04 Gerber Fmt 4.6, Leading zero omitted, Abs format (unit mm)*
G04 Created by KiCad (PCBNEW (2017-04-22 revision b38541345)-makepkg) date 05/30/17 09:40:34*
%MOMM*%
%LPD*%
G01*
G04 APERTURE LIST*
%ADD10C,0.100000*%
%ADD11C,0.300000*%
%ADD12C,0.200000*%
%ADD13C,0.150000*%
%ADD14C,0.125000*%
%ADD15C,0.120000*%
%ADD16C,0.152400*%
G04 APERTURE END LIST*
D10*
D11*
X73440635Y-89607497D02*
X74964444Y-89607497D01*
X74202540Y-90369401D02*
X74202540Y-88845592D01*
X70773635Y-86940497D02*
X72297444Y-86940497D01*
X71535540Y-87702401D02*
X71535540Y-86178592D01*
D12*
X113981480Y-83851240D02*
X114921280Y-83851240D01*
X114451380Y-84610700D02*
X113981480Y-83851240D01*
X114921280Y-83851240D02*
X114466620Y-84610700D01*
X114466620Y-83406740D02*
X114456460Y-85060280D01*
X113973860Y-84613240D02*
X114921280Y-84625940D01*
X114794280Y-116670580D02*
X114339620Y-117430040D01*
X113854480Y-116670580D02*
X114794280Y-116670580D01*
X114324380Y-117430040D02*
X113854480Y-116670580D01*
X113846860Y-117432580D02*
X114794280Y-117445280D01*
X114339620Y-116226080D02*
X114329460Y-117879620D01*
D11*
X108461348Y-127963882D02*
X109604205Y-127963882D01*
X109032777Y-128535311D02*
X109032777Y-127392454D01*
X111032777Y-127035311D02*
X110318491Y-127035311D01*
X110247062Y-127749597D01*
X110318491Y-127678168D01*
X110461348Y-127606740D01*
X110818491Y-127606740D01*
X110961348Y-127678168D01*
X111032777Y-127749597D01*
X111104205Y-127892454D01*
X111104205Y-128249597D01*
X111032777Y-128392454D01*
X110961348Y-128463882D01*
X110818491Y-128535311D01*
X110461348Y-128535311D01*
X110318491Y-128463882D01*
X110247062Y-128392454D01*
X111532777Y-127035311D02*
X112032777Y-128535311D01*
X112532777Y-127035311D01*
D12*
X61201635Y-102423588D02*
X59901635Y-102423588D01*
X59901635Y-101928350D01*
X59963540Y-101804540D01*
X60025444Y-101742636D01*
X60149254Y-101680731D01*
X60334968Y-101680731D01*
X60458778Y-101742636D01*
X60520682Y-101804540D01*
X60582587Y-101928350D01*
X60582587Y-102423588D01*
X61201635Y-100380731D02*
X60582587Y-100814064D01*
X61201635Y-101123588D02*
X59901635Y-101123588D01*
X59901635Y-100628350D01*
X59963540Y-100504540D01*
X60025444Y-100442636D01*
X60149254Y-100380731D01*
X60334968Y-100380731D01*
X60458778Y-100442636D01*
X60520682Y-100504540D01*
X60582587Y-100628350D01*
X60582587Y-101123588D01*
X59901635Y-99575969D02*
X59901635Y-99328350D01*
X59963540Y-99204540D01*
X60087349Y-99080731D01*
X60334968Y-99018826D01*
X60768301Y-99018826D01*
X61015920Y-99080731D01*
X61139730Y-99204540D01*
X61201635Y-99328350D01*
X61201635Y-99575969D01*
X61139730Y-99699779D01*
X61015920Y-99823588D01*
X60768301Y-99885493D01*
X60334968Y-99885493D01*
X60087349Y-99823588D01*
X59963540Y-99699779D01*
X59901635Y-99575969D01*
X59963540Y-97780731D02*
X59901635Y-97904540D01*
X59901635Y-98090255D01*
X59963540Y-98275969D01*
X60087349Y-98399779D01*
X60211159Y-98461683D01*
X60458778Y-98523588D01*
X60644492Y-98523588D01*
X60892111Y-98461683D01*
X61015920Y-98399779D01*
X61139730Y-98275969D01*
X61201635Y-98090255D01*
X61201635Y-97966445D01*
X61139730Y-97780731D01*
X61077825Y-97718826D01*
X60644492Y-97718826D01*
X60644492Y-97966445D01*
D13*
X61417844Y-82623235D02*
X60984511Y-82004187D01*
X60674987Y-82623235D02*
X60674987Y-81323235D01*
X61170225Y-81323235D01*
X61294035Y-81385140D01*
X61355940Y-81447044D01*
X61417844Y-81570854D01*
X61417844Y-81756568D01*
X61355940Y-81880378D01*
X61294035Y-81942282D01*
X61170225Y-82004187D01*
X60674987Y-82004187D01*
X61974987Y-81942282D02*
X62408320Y-81942282D01*
X62594035Y-82623235D02*
X61974987Y-82623235D01*
X61974987Y-81323235D01*
X62594035Y-81323235D01*
X63089273Y-82561330D02*
X63274987Y-82623235D01*
X63584511Y-82623235D01*
X63708320Y-82561330D01*
X63770225Y-82499425D01*
X63832130Y-82375616D01*
X63832130Y-82251806D01*
X63770225Y-82127997D01*
X63708320Y-82066092D01*
X63584511Y-82004187D01*
X63336892Y-81942282D01*
X63213082Y-81880378D01*
X63151178Y-81818473D01*
X63089273Y-81694663D01*
X63089273Y-81570854D01*
X63151178Y-81447044D01*
X63213082Y-81385140D01*
X63336892Y-81323235D01*
X63646416Y-81323235D01*
X63832130Y-81385140D01*
X64389273Y-81942282D02*
X64822606Y-81942282D01*
X65008320Y-82623235D02*
X64389273Y-82623235D01*
X64389273Y-81323235D01*
X65008320Y-81323235D01*
X65379749Y-81323235D02*
X66122606Y-81323235D01*
X65751178Y-82623235D02*
X65751178Y-81323235D01*
D14*
X78463366Y-82291810D02*
X78225271Y-82291810D01*
X78225271Y-81791810D01*
X78630033Y-82291810D02*
X78630033Y-81791810D01*
X78796700Y-82148953D01*
X78963366Y-81791810D01*
X78963366Y-82291810D01*
X79463366Y-82291810D02*
X79177652Y-82291810D01*
X79320509Y-82291810D02*
X79320509Y-81791810D01*
X79272890Y-81863239D01*
X79225271Y-81910858D01*
X79177652Y-81934667D01*
X79939557Y-82291810D02*
X79653842Y-82291810D01*
X79796700Y-82291810D02*
X79796700Y-81791810D01*
X79749080Y-81863239D01*
X79701461Y-81910858D01*
X79653842Y-81934667D01*
X80415747Y-82291810D02*
X80130033Y-82291810D01*
X80272890Y-82291810D02*
X80272890Y-81791810D01*
X80225271Y-81863239D01*
X80177652Y-81910858D01*
X80130033Y-81934667D01*
X80582414Y-81791810D02*
X80915747Y-81791810D01*
X80701461Y-82291810D01*
X81856272Y-81847690D02*
X82165796Y-81847690D01*
X81999129Y-82038166D01*
X82070558Y-82038166D01*
X82118177Y-82061976D01*
X82141986Y-82085785D01*
X82165796Y-82133404D01*
X82165796Y-82252452D01*
X82141986Y-82300071D01*
X82118177Y-82323880D01*
X82070558Y-82347690D01*
X81927700Y-82347690D01*
X81880081Y-82323880D01*
X81856272Y-82300071D01*
X82308653Y-81847690D02*
X82475320Y-82347690D01*
X82641986Y-81847690D01*
X82761034Y-81847690D02*
X83070558Y-81847690D01*
X82903891Y-82038166D01*
X82975320Y-82038166D01*
X83022939Y-82061976D01*
X83046748Y-82085785D01*
X83070558Y-82133404D01*
X83070558Y-82252452D01*
X83046748Y-82300071D01*
X83022939Y-82323880D01*
X82975320Y-82347690D01*
X82832462Y-82347690D01*
X82784843Y-82323880D01*
X82761034Y-82300071D01*
X85267885Y-84640000D02*
X85182171Y-84597142D01*
X85053600Y-84597142D01*
X84925028Y-84640000D01*
X84839314Y-84725714D01*
X84796457Y-84811428D01*
X84753600Y-84982857D01*
X84753600Y-85111428D01*
X84796457Y-85282857D01*
X84839314Y-85368571D01*
X84925028Y-85454285D01*
X85053600Y-85497142D01*
X85139314Y-85497142D01*
X85267885Y-85454285D01*
X85310742Y-85411428D01*
X85310742Y-85111428D01*
X85139314Y-85111428D01*
X85696457Y-85497142D02*
X85696457Y-84597142D01*
X86210742Y-85497142D01*
X86210742Y-84597142D01*
X86639314Y-85497142D02*
X86639314Y-84597142D01*
X86853600Y-84597142D01*
X86982171Y-84640000D01*
X87067885Y-84725714D01*
X87110742Y-84811428D01*
X87153600Y-84982857D01*
X87153600Y-85111428D01*
X87110742Y-85282857D01*
X87067885Y-85368571D01*
X86982171Y-85454285D01*
X86853600Y-85497142D01*
X86639314Y-85497142D01*
X85460742Y-88037142D02*
X85160742Y-87608571D01*
X84946457Y-88037142D02*
X84946457Y-87137142D01*
X85289314Y-87137142D01*
X85375028Y-87180000D01*
X85417885Y-87222857D01*
X85460742Y-87308571D01*
X85460742Y-87437142D01*
X85417885Y-87522857D01*
X85375028Y-87565714D01*
X85289314Y-87608571D01*
X84946457Y-87608571D01*
X85717885Y-87137142D02*
X86232171Y-87137142D01*
X85975028Y-88037142D02*
X85975028Y-87137142D01*
X86489314Y-87994285D02*
X86617885Y-88037142D01*
X86832171Y-88037142D01*
X86917885Y-87994285D01*
X86960742Y-87951428D01*
X87003600Y-87865714D01*
X87003600Y-87780000D01*
X86960742Y-87694285D01*
X86917885Y-87651428D01*
X86832171Y-87608571D01*
X86660742Y-87565714D01*
X86575028Y-87522857D01*
X86532171Y-87480000D01*
X86489314Y-87394285D01*
X86489314Y-87308571D01*
X86532171Y-87222857D01*
X86575028Y-87180000D01*
X86660742Y-87137142D01*
X86875028Y-87137142D01*
X87003600Y-87180000D01*
X84839314Y-89677142D02*
X85396457Y-89677142D01*
X85096457Y-90020000D01*
X85225028Y-90020000D01*
X85310742Y-90062857D01*
X85353600Y-90105714D01*
X85396457Y-90191428D01*
X85396457Y-90405714D01*
X85353600Y-90491428D01*
X85310742Y-90534285D01*
X85225028Y-90577142D01*
X84967885Y-90577142D01*
X84882171Y-90534285D01*
X84839314Y-90491428D01*
X85653600Y-89677142D02*
X85953600Y-90577142D01*
X86253600Y-89677142D01*
X86467885Y-89677142D02*
X87025028Y-89677142D01*
X86725028Y-90020000D01*
X86853600Y-90020000D01*
X86939314Y-90062857D01*
X86982171Y-90105714D01*
X87025028Y-90191428D01*
X87025028Y-90405714D01*
X86982171Y-90491428D01*
X86939314Y-90534285D01*
X86853600Y-90577142D01*
X86596457Y-90577142D01*
X86510742Y-90534285D01*
X86467885Y-90491428D01*
X84882171Y-94757142D02*
X85396457Y-94757142D01*
X85139314Y-95657142D02*
X85139314Y-94757142D01*
X85610742Y-95657142D02*
X86082171Y-95057142D01*
X85610742Y-95057142D02*
X86082171Y-95657142D01*
X86425028Y-95657142D02*
X86425028Y-94757142D01*
X86639314Y-94757142D01*
X86767885Y-94800000D01*
X86853600Y-94885714D01*
X86896457Y-94971428D01*
X86939314Y-95142857D01*
X86939314Y-95271428D01*
X86896457Y-95442857D01*
X86853600Y-95528571D01*
X86767885Y-95614285D01*
X86639314Y-95657142D01*
X86425028Y-95657142D01*
X85417885Y-93117142D02*
X85117885Y-92688571D01*
X84903600Y-93117142D02*
X84903600Y-92217142D01*
X85246457Y-92217142D01*
X85332171Y-92260000D01*
X85375028Y-92302857D01*
X85417885Y-92388571D01*
X85417885Y-92517142D01*
X85375028Y-92602857D01*
X85332171Y-92645714D01*
X85246457Y-92688571D01*
X84903600Y-92688571D01*
X85717885Y-93117142D02*
X86189314Y-92517142D01*
X85717885Y-92517142D02*
X86189314Y-93117142D01*
X86532171Y-93117142D02*
X86532171Y-92217142D01*
X86746457Y-92217142D01*
X86875028Y-92260000D01*
X86960742Y-92345714D01*
X87003600Y-92431428D01*
X87046457Y-92602857D01*
X87046457Y-92731428D01*
X87003600Y-92902857D01*
X86960742Y-92988571D01*
X86875028Y-93074285D01*
X86746457Y-93117142D01*
X86532171Y-93117142D01*
X84925028Y-98197142D02*
X84925028Y-97297142D01*
X85139314Y-97297142D01*
X85267885Y-97340000D01*
X85353600Y-97425714D01*
X85396457Y-97511428D01*
X85439314Y-97682857D01*
X85439314Y-97811428D01*
X85396457Y-97982857D01*
X85353600Y-98068571D01*
X85267885Y-98154285D01*
X85139314Y-98197142D01*
X84925028Y-98197142D01*
X85696457Y-97297142D02*
X86210742Y-97297142D01*
X85953600Y-98197142D02*
X85953600Y-97297142D01*
X87025028Y-98197142D02*
X86725028Y-97768571D01*
X86510742Y-98197142D02*
X86510742Y-97297142D01*
X86853600Y-97297142D01*
X86939314Y-97340000D01*
X86982171Y-97382857D01*
X87025028Y-97468571D01*
X87025028Y-97597142D01*
X86982171Y-97682857D01*
X86939314Y-97725714D01*
X86853600Y-97768571D01*
X86510742Y-97768571D01*
D11*
X61858457Y-120519666D02*
X62477504Y-120519666D01*
X61734647Y-120891095D02*
X62167980Y-119591095D01*
X62601314Y-120891095D01*
X63777504Y-120767285D02*
X63715600Y-120829190D01*
X63529885Y-120891095D01*
X63406076Y-120891095D01*
X63220361Y-120829190D01*
X63096552Y-120705380D01*
X63034647Y-120581571D01*
X62972742Y-120333952D01*
X62972742Y-120148238D01*
X63034647Y-119900619D01*
X63096552Y-119776809D01*
X63220361Y-119653000D01*
X63406076Y-119591095D01*
X63529885Y-119591095D01*
X63715600Y-119653000D01*
X63777504Y-119714904D01*
X66006076Y-120891095D02*
X65263219Y-120891095D01*
X65634647Y-120891095D02*
X65634647Y-119591095D01*
X65510838Y-119776809D01*
X65387028Y-119900619D01*
X65263219Y-119962523D01*
X66501314Y-119714904D02*
X66563219Y-119653000D01*
X66687028Y-119591095D01*
X66996552Y-119591095D01*
X67120361Y-119653000D01*
X67182266Y-119714904D01*
X67244171Y-119838714D01*
X67244171Y-119962523D01*
X67182266Y-120148238D01*
X66439409Y-120891095D01*
X67244171Y-120891095D01*
X68048933Y-119591095D02*
X68172742Y-119591095D01*
X68296552Y-119653000D01*
X68358457Y-119714904D01*
X68420361Y-119838714D01*
X68482266Y-120086333D01*
X68482266Y-120395857D01*
X68420361Y-120643476D01*
X68358457Y-120767285D01*
X68296552Y-120829190D01*
X68172742Y-120891095D01*
X68048933Y-120891095D01*
X67925123Y-120829190D01*
X67863219Y-120767285D01*
X67801314Y-120643476D01*
X67739409Y-120395857D01*
X67739409Y-120086333D01*
X67801314Y-119838714D01*
X67863219Y-119714904D01*
X67925123Y-119653000D01*
X68048933Y-119591095D01*
X68915600Y-120024428D02*
X69225123Y-120891095D01*
X69534647Y-120024428D01*
X64334647Y-123141095D02*
X64334647Y-121841095D01*
X64334647Y-122460142D02*
X65077504Y-122460142D01*
X65077504Y-123141095D02*
X65077504Y-121841095D01*
X65882266Y-123141095D02*
X65758457Y-123079190D01*
X65696552Y-123017285D01*
X65634647Y-122893476D01*
X65634647Y-122522047D01*
X65696552Y-122398238D01*
X65758457Y-122336333D01*
X65882266Y-122274428D01*
X66067980Y-122274428D01*
X66191790Y-122336333D01*
X66253695Y-122398238D01*
X66315600Y-122522047D01*
X66315600Y-122893476D01*
X66253695Y-123017285D01*
X66191790Y-123079190D01*
X66067980Y-123141095D01*
X65882266Y-123141095D01*
X66687028Y-122274428D02*
X67182266Y-122274428D01*
X66872742Y-121841095D02*
X66872742Y-122955380D01*
X66934647Y-123079190D01*
X67058457Y-123141095D01*
X67182266Y-123141095D01*
X61858457Y-105279666D02*
X62477504Y-105279666D01*
X61734647Y-105651095D02*
X62167980Y-104351095D01*
X62601314Y-105651095D01*
X63777504Y-105527285D02*
X63715600Y-105589190D01*
X63529885Y-105651095D01*
X63406076Y-105651095D01*
X63220361Y-105589190D01*
X63096552Y-105465380D01*
X63034647Y-105341571D01*
X62972742Y-105093952D01*
X62972742Y-104908238D01*
X63034647Y-104660619D01*
X63096552Y-104536809D01*
X63220361Y-104413000D01*
X63406076Y-104351095D01*
X63529885Y-104351095D01*
X63715600Y-104413000D01*
X63777504Y-104474904D01*
X66006076Y-105651095D02*
X65263219Y-105651095D01*
X65634647Y-105651095D02*
X65634647Y-104351095D01*
X65510838Y-104536809D01*
X65387028Y-104660619D01*
X65263219Y-104722523D01*
X66501314Y-104474904D02*
X66563219Y-104413000D01*
X66687028Y-104351095D01*
X66996552Y-104351095D01*
X67120361Y-104413000D01*
X67182266Y-104474904D01*
X67244171Y-104598714D01*
X67244171Y-104722523D01*
X67182266Y-104908238D01*
X66439409Y-105651095D01*
X67244171Y-105651095D01*
X68048933Y-104351095D02*
X68172742Y-104351095D01*
X68296552Y-104413000D01*
X68358457Y-104474904D01*
X68420361Y-104598714D01*
X68482266Y-104846333D01*
X68482266Y-105155857D01*
X68420361Y-105403476D01*
X68358457Y-105527285D01*
X68296552Y-105589190D01*
X68172742Y-105651095D01*
X68048933Y-105651095D01*
X67925123Y-105589190D01*
X67863219Y-105527285D01*
X67801314Y-105403476D01*
X67739409Y-105155857D01*
X67739409Y-104846333D01*
X67801314Y-104598714D01*
X67863219Y-104474904D01*
X67925123Y-104413000D01*
X68048933Y-104351095D01*
X68915600Y-104784428D02*
X69225123Y-105651095D01*
X69534647Y-104784428D01*
X62446552Y-107901095D02*
X62446552Y-106601095D01*
X63189409Y-107901095D01*
X63189409Y-106601095D01*
X64303695Y-107839190D02*
X64179885Y-107901095D01*
X63932266Y-107901095D01*
X63808457Y-107839190D01*
X63746552Y-107715380D01*
X63746552Y-107220142D01*
X63808457Y-107096333D01*
X63932266Y-107034428D01*
X64179885Y-107034428D01*
X64303695Y-107096333D01*
X64365600Y-107220142D01*
X64365600Y-107343952D01*
X63746552Y-107467761D01*
X65479885Y-107034428D02*
X65479885Y-107901095D01*
X64922742Y-107034428D02*
X64922742Y-107715380D01*
X64984647Y-107839190D01*
X65108457Y-107901095D01*
X65294171Y-107901095D01*
X65417980Y-107839190D01*
X65479885Y-107777285D01*
X65913219Y-107034428D02*
X66408457Y-107034428D01*
X66098933Y-106601095D02*
X66098933Y-107715380D01*
X66160838Y-107839190D01*
X66284647Y-107901095D01*
X66408457Y-107901095D01*
X66841790Y-107901095D02*
X66841790Y-107034428D01*
X66841790Y-107282047D02*
X66903695Y-107158238D01*
X66965600Y-107096333D01*
X67089409Y-107034428D01*
X67213219Y-107034428D01*
X68203695Y-107901095D02*
X68203695Y-107220142D01*
X68141790Y-107096333D01*
X68017980Y-107034428D01*
X67770361Y-107034428D01*
X67646552Y-107096333D01*
X68203695Y-107839190D02*
X68079885Y-107901095D01*
X67770361Y-107901095D01*
X67646552Y-107839190D01*
X67584647Y-107715380D01*
X67584647Y-107591571D01*
X67646552Y-107467761D01*
X67770361Y-107405857D01*
X68079885Y-107405857D01*
X68203695Y-107343952D01*
X69008457Y-107901095D02*
X68884647Y-107839190D01*
X68822742Y-107715380D01*
X68822742Y-106601095D01*
D13*
X150145600Y-113848000D02*
X150645600Y-113848000D01*
X148145600Y-111348000D02*
G75*
G03X148145600Y-111348000I-2000000J0D01*
G01*
X148145600Y-116348000D02*
G75*
G03X148145600Y-116348000I-2000000J0D01*
G01*
X148645600Y-118848000D02*
X148645600Y-108848000D01*
X143745600Y-118848000D02*
X143745600Y-108848000D01*
X150145600Y-118848000D02*
X150145600Y-108848000D01*
X150645600Y-118848000D02*
X150645600Y-108848000D01*
X150645600Y-108848000D02*
X140845600Y-108848000D01*
X140845600Y-108848000D02*
X140845600Y-118848000D01*
X140845600Y-118848000D02*
X150645600Y-118848000D01*
D15*
X90206180Y-80137380D02*
X90206180Y-79137380D01*
X88506180Y-79137380D02*
X88506180Y-80137380D01*
D13*
X61565600Y-113768000D02*
X61065600Y-113768000D01*
X67565600Y-116268000D02*
G75*
G03X67565600Y-116268000I-2000000J0D01*
G01*
X67565600Y-111268000D02*
G75*
G03X67565600Y-111268000I-2000000J0D01*
G01*
X63065600Y-108768000D02*
X63065600Y-118768000D01*
X67965600Y-108768000D02*
X67965600Y-118768000D01*
X61565600Y-108768000D02*
X61565600Y-118768000D01*
X61065600Y-108768000D02*
X61065600Y-118768000D01*
X61065600Y-118768000D02*
X70865600Y-118768000D01*
X70865600Y-118768000D02*
X70865600Y-108768000D01*
X70865600Y-108768000D02*
X61065600Y-108768000D01*
D15*
X81829600Y-86233000D02*
X81829600Y-98993000D01*
X81829600Y-98993000D02*
X84489600Y-98993000D01*
X84489600Y-98993000D02*
X84489600Y-86233000D01*
X84489600Y-86233000D02*
X81829600Y-86233000D01*
X81829600Y-84963000D02*
X81829600Y-83633000D01*
X81829600Y-83633000D02*
X83159600Y-83633000D01*
D13*
X150145600Y-88448000D02*
X150645600Y-88448000D01*
X148145600Y-85948000D02*
G75*
G03X148145600Y-85948000I-2000000J0D01*
G01*
X148145600Y-90948000D02*
G75*
G03X148145600Y-90948000I-2000000J0D01*
G01*
X148645600Y-93448000D02*
X148645600Y-83448000D01*
X143745600Y-93448000D02*
X143745600Y-83448000D01*
X150145600Y-93448000D02*
X150145600Y-83448000D01*
X150645600Y-93448000D02*
X150645600Y-83448000D01*
X150645600Y-83448000D02*
X140845600Y-83448000D01*
X140845600Y-83448000D02*
X140845600Y-93448000D01*
X140845600Y-93448000D02*
X150645600Y-93448000D01*
D15*
X98432980Y-80265320D02*
X98432980Y-79065320D01*
X100192980Y-79065320D02*
X100192980Y-80265320D01*
X102387760Y-80252620D02*
X102387760Y-79052620D01*
X104147760Y-79052620D02*
X104147760Y-80252620D01*
X89798600Y-100974000D02*
X90998600Y-100974000D01*
X90998600Y-102734000D02*
X89798600Y-102734000D01*
X76926800Y-101769000D02*
X76926800Y-100569000D01*
X78686800Y-100569000D02*
X78686800Y-101769000D01*
X112402980Y-104562960D02*
X112402980Y-103362960D01*
X114162980Y-103362960D02*
X114162980Y-104562960D01*
X98211780Y-102214880D02*
X98211780Y-103414880D01*
X96451780Y-103414880D02*
X96451780Y-102214880D01*
X131190500Y-102366460D02*
X129990500Y-102366460D01*
X129990500Y-100606460D02*
X131190500Y-100606460D01*
X131218480Y-104868360D02*
X130018480Y-104868360D01*
X130018480Y-103108360D02*
X131218480Y-103108360D01*
X116829380Y-95071580D02*
X115629380Y-95071580D01*
X115629380Y-93311580D02*
X116829380Y-93311580D01*
X129972760Y-96293540D02*
X131172760Y-96293540D01*
X131172760Y-98053540D02*
X129972760Y-98053540D01*
X115272560Y-86486320D02*
X117272560Y-86486320D01*
X117272560Y-86486320D02*
X117272560Y-82586320D01*
X115272560Y-86486320D02*
X115272560Y-82586320D01*
X115272560Y-119260940D02*
X117272560Y-119260940D01*
X117272560Y-119260940D02*
X117272560Y-115360940D01*
X115272560Y-119260940D02*
X115272560Y-115360940D01*
X114433720Y-88450640D02*
X113503720Y-88450640D01*
X111273720Y-88450640D02*
X112203720Y-88450640D01*
X111273720Y-88450640D02*
X111273720Y-90610640D01*
X114433720Y-88450640D02*
X114433720Y-89910640D01*
X110585420Y-112913700D02*
X111515420Y-112913700D01*
X113745420Y-112913700D02*
X112815420Y-112913700D01*
X113745420Y-112913700D02*
X113745420Y-110753700D01*
X110585420Y-112913700D02*
X110585420Y-111453700D01*
X70188600Y-88045000D02*
X65938600Y-88045000D01*
X70188600Y-85945000D02*
X65938600Y-85945000D01*
X70188600Y-88045000D02*
X70188600Y-85945000D01*
X105526720Y-79157700D02*
X105526720Y-80157700D01*
X107226720Y-80157700D02*
X107226720Y-79157700D01*
X81174840Y-81516020D02*
X83774840Y-81516020D01*
X83774840Y-81516020D02*
X83774840Y-78856020D01*
X83774840Y-78856020D02*
X81174840Y-78856020D01*
X81174840Y-78856020D02*
X81174840Y-81516020D01*
X79904840Y-81516020D02*
X78574840Y-81516020D01*
X78574840Y-81516020D02*
X78574840Y-80186020D01*
X79340600Y-85633000D02*
X79340600Y-86833000D01*
X77580600Y-86833000D02*
X77580600Y-85633000D01*
X75613400Y-100457200D02*
X75613400Y-101657200D01*
X73853400Y-101657200D02*
X73853400Y-100457200D01*
D16*
X109733800Y-83547200D02*
X109733800Y-99547200D01*
X109733800Y-99547200D02*
X104333800Y-99547200D01*
X109733800Y-83547200D02*
X104333800Y-83547200D01*
X88533800Y-83547200D02*
X87733800Y-83547200D01*
X87733800Y-83547200D02*
X87733800Y-99547200D01*
X87733800Y-99547200D02*
X88533800Y-99547200D01*
X109733800Y-99547200D02*
X105933800Y-83547200D01*
X109733800Y-83547200D02*
X105933800Y-99547200D01*
X105933800Y-83539200D02*
X105933800Y-99539200D01*
D15*
X75794120Y-90890200D02*
X72494120Y-90890200D01*
X72494120Y-90890200D02*
X72494120Y-95440200D01*
X75794120Y-90890200D02*
X75794120Y-95440200D01*
X128070200Y-86364460D02*
X124070200Y-86364460D01*
X128070200Y-82764460D02*
X128070200Y-86364460D01*
X124070200Y-82764460D02*
X128070200Y-82764460D01*
X124070200Y-86364460D02*
X124070200Y-82764460D01*
X128070200Y-86364460D02*
X124070200Y-82764460D01*
X126070200Y-86364460D02*
X126070200Y-90564460D01*
X126070200Y-78564460D02*
X126070200Y-82764460D01*
X122670200Y-84564460D02*
X122670200Y-88164460D01*
X129470200Y-84564460D02*
X129470200Y-88164460D01*
X129470200Y-88164460D02*
X122670200Y-88164460D01*
X130970200Y-84564460D02*
X135570200Y-82064460D01*
X129470200Y-84564460D02*
X130970200Y-84564460D01*
X126070200Y-78564460D02*
X123570200Y-78564460D01*
X122670200Y-84564460D02*
X121870200Y-84564460D01*
X123570200Y-90564460D02*
X126070200Y-90564460D01*
X134170200Y-80314460D02*
X134170200Y-82814460D01*
X134170200Y-88714460D02*
X134170200Y-86264460D01*
X138420200Y-92314460D02*
X118620200Y-92314460D01*
X138420200Y-76714460D02*
X138420200Y-92314460D01*
X118620200Y-76714460D02*
X138420200Y-76714460D01*
X118620200Y-76714460D02*
X118620200Y-83314460D01*
X118620200Y-85714460D02*
X118620200Y-92314460D01*
X118620200Y-119915800D02*
X118620200Y-126515800D01*
X118620200Y-110915800D02*
X118620200Y-117515800D01*
X118620200Y-110915800D02*
X138420200Y-110915800D01*
X138420200Y-110915800D02*
X138420200Y-126515800D01*
X138420200Y-126515800D02*
X118620200Y-126515800D01*
X134170200Y-122915800D02*
X134170200Y-120465800D01*
X134170200Y-114515800D02*
X134170200Y-117015800D01*
X123570200Y-124765800D02*
X126070200Y-124765800D01*
X122670200Y-118765800D02*
X121870200Y-118765800D01*
X126070200Y-112765800D02*
X123570200Y-112765800D01*
X129470200Y-118765800D02*
X130970200Y-118765800D01*
X130970200Y-118765800D02*
X135570200Y-116265800D01*
X129470200Y-122365800D02*
X122670200Y-122365800D01*
X129470200Y-118765800D02*
X129470200Y-122365800D01*
X122670200Y-118765800D02*
X122670200Y-122365800D01*
X126070200Y-112765800D02*
X126070200Y-116965800D01*
X126070200Y-120565800D02*
X126070200Y-124765800D01*
X128070200Y-120565800D02*
X124070200Y-116965800D01*
X124070200Y-120565800D02*
X124070200Y-116965800D01*
X124070200Y-116965800D02*
X128070200Y-116965800D01*
X128070200Y-116965800D02*
X128070200Y-120565800D01*
X128070200Y-120565800D02*
X124070200Y-120565800D01*
X69962200Y-95485000D02*
X63952200Y-95485000D01*
X67712200Y-88665000D02*
X63952200Y-88665000D01*
X63952200Y-95485000D02*
X63952200Y-94225000D01*
X63952200Y-88665000D02*
X63952200Y-89925000D01*
D13*
X118530200Y-107286320D02*
X117730200Y-106486320D01*
X117730200Y-106486320D02*
X117730200Y-95986320D01*
X117730200Y-95986320D02*
X127850200Y-95986320D01*
X127850200Y-95986320D02*
X127850200Y-107286320D01*
X127850200Y-107286320D02*
X118530200Y-107286320D01*
X72625420Y-107131920D02*
X72625420Y-127331920D01*
X106625420Y-107131920D02*
X72625420Y-107131920D01*
X106625420Y-107331920D02*
X106625420Y-107131920D01*
X106625420Y-127331920D02*
X106625420Y-107331920D01*
X72625420Y-127331920D02*
X106625420Y-127331920D01*
D15*
X109458700Y-123781000D02*
X110788700Y-123781000D01*
X109458700Y-125111000D02*
X109458700Y-123781000D01*
X112118700Y-126381000D02*
X109458700Y-126381000D01*
X112118700Y-126441000D02*
X112118700Y-126381000D01*
X109458700Y-126441000D02*
X112118700Y-126441000D01*
X109458700Y-126381000D02*
X109458700Y-126441000D01*
X73049720Y-77952140D02*
X72599720Y-77502140D01*
X69649720Y-77952140D02*
X70099720Y-77502140D01*
X69649720Y-82552140D02*
X70099720Y-83002140D01*
X73049720Y-82552140D02*
X72599720Y-83002140D01*
X68599720Y-81252140D02*
X68599720Y-79252140D01*
X72599720Y-77502140D02*
X70099720Y-77502140D01*
X74099720Y-81252140D02*
X74099720Y-79252140D01*
X72599720Y-83002140D02*
X70099720Y-83002140D01*
X67997640Y-102852160D02*
X65497640Y-102852160D01*
X69497640Y-101102160D02*
X69497640Y-99102160D01*
X67997640Y-97352160D02*
X65497640Y-97352160D01*
X63997640Y-101102160D02*
X63997640Y-99102160D01*
X68447640Y-102402160D02*
X67997640Y-102852160D01*
X65047640Y-102402160D02*
X65497640Y-102852160D01*
X65047640Y-97802160D02*
X65497640Y-97352160D01*
X68447640Y-97802160D02*
X67997640Y-97352160D01*
D13*
X145966266Y-119610380D02*
X145966266Y-120324666D01*
X145918647Y-120467523D01*
X145823409Y-120562761D01*
X145680552Y-120610380D01*
X145585314Y-120610380D01*
X146871028Y-119943714D02*
X146871028Y-120610380D01*
X146632933Y-119562761D02*
X146394838Y-120277047D01*
X147013885Y-120277047D01*
X89232693Y-77543422D02*
X89185074Y-77591041D01*
X89042217Y-77638660D01*
X88946979Y-77638660D01*
X88804121Y-77591041D01*
X88708883Y-77495803D01*
X88661264Y-77400565D01*
X88613645Y-77210089D01*
X88613645Y-77067232D01*
X88661264Y-76876756D01*
X88708883Y-76781518D01*
X88804121Y-76686280D01*
X88946979Y-76638660D01*
X89042217Y-76638660D01*
X89185074Y-76686280D01*
X89232693Y-76733899D01*
X89566026Y-76638660D02*
X90185074Y-76638660D01*
X89851740Y-77019613D01*
X89994598Y-77019613D01*
X90089836Y-77067232D01*
X90137455Y-77114851D01*
X90185074Y-77210089D01*
X90185074Y-77448184D01*
X90137455Y-77543422D01*
X90089836Y-77591041D01*
X89994598Y-77638660D01*
X89708883Y-77638660D01*
X89613645Y-77591041D01*
X89566026Y-77543422D01*
X59495346Y-113816640D02*
X59495346Y-114530926D01*
X59447727Y-114673783D01*
X59352489Y-114769021D01*
X59209632Y-114816640D01*
X59114394Y-114816640D01*
X60495346Y-114816640D02*
X59923918Y-114816640D01*
X60209632Y-114816640D02*
X60209632Y-113816640D01*
X60114394Y-113959498D01*
X60019156Y-114054736D01*
X59923918Y-114102355D01*
X80282706Y-90926160D02*
X80282706Y-91640446D01*
X80235087Y-91783303D01*
X80139849Y-91878541D01*
X79996992Y-91926160D01*
X79901754Y-91926160D01*
X80711278Y-91021399D02*
X80758897Y-90973780D01*
X80854135Y-90926160D01*
X81092230Y-90926160D01*
X81187468Y-90973780D01*
X81235087Y-91021399D01*
X81282706Y-91116637D01*
X81282706Y-91211875D01*
X81235087Y-91354732D01*
X80663659Y-91926160D01*
X81282706Y-91926160D01*
X145458266Y-94210380D02*
X145458266Y-94924666D01*
X145410647Y-95067523D01*
X145315409Y-95162761D01*
X145172552Y-95210380D01*
X145077314Y-95210380D01*
X145839219Y-94210380D02*
X146458266Y-94210380D01*
X146124933Y-94591333D01*
X146267790Y-94591333D01*
X146363028Y-94638952D01*
X146410647Y-94686571D01*
X146458266Y-94781809D01*
X146458266Y-95019904D01*
X146410647Y-95115142D01*
X146363028Y-95162761D01*
X146267790Y-95210380D01*
X145982076Y-95210380D01*
X145886838Y-95162761D01*
X145839219Y-95115142D01*
X99146313Y-77582780D02*
X98812980Y-77106590D01*
X98574884Y-77582780D02*
X98574884Y-76582780D01*
X98955837Y-76582780D01*
X99051075Y-76630400D01*
X99098694Y-76678019D01*
X99146313Y-76773257D01*
X99146313Y-76916114D01*
X99098694Y-77011352D01*
X99051075Y-77058971D01*
X98955837Y-77106590D01*
X98574884Y-77106590D01*
X100098694Y-77582780D02*
X99527265Y-77582780D01*
X99812980Y-77582780D02*
X99812980Y-76582780D01*
X99717741Y-76725638D01*
X99622503Y-76820876D01*
X99527265Y-76868495D01*
X103045213Y-77582780D02*
X102711880Y-77106590D01*
X102473784Y-77582780D02*
X102473784Y-76582780D01*
X102854737Y-76582780D01*
X102949975Y-76630400D01*
X102997594Y-76678019D01*
X103045213Y-76773257D01*
X103045213Y-76916114D01*
X102997594Y-77011352D01*
X102949975Y-77058971D01*
X102854737Y-77106590D01*
X102473784Y-77106590D01*
X103426165Y-76678019D02*
X103473784Y-76630400D01*
X103569022Y-76582780D01*
X103807118Y-76582780D01*
X103902356Y-76630400D01*
X103949975Y-76678019D01*
X103997594Y-76773257D01*
X103997594Y-76868495D01*
X103949975Y-77011352D01*
X103378546Y-77582780D01*
X103997594Y-77582780D01*
X90202973Y-104562660D02*
X89869640Y-104086470D01*
X89631544Y-104562660D02*
X89631544Y-103562660D01*
X90012497Y-103562660D01*
X90107735Y-103610280D01*
X90155354Y-103657899D01*
X90202973Y-103753137D01*
X90202973Y-103895994D01*
X90155354Y-103991232D01*
X90107735Y-104038851D01*
X90012497Y-104086470D01*
X89631544Y-104086470D01*
X90536306Y-103562660D02*
X91155354Y-103562660D01*
X90822020Y-103943613D01*
X90964878Y-103943613D01*
X91060116Y-103991232D01*
X91107735Y-104038851D01*
X91155354Y-104134089D01*
X91155354Y-104372184D01*
X91107735Y-104467422D01*
X91060116Y-104515041D01*
X90964878Y-104562660D01*
X90679163Y-104562660D01*
X90583925Y-104515041D01*
X90536306Y-104467422D01*
X77640133Y-104328980D02*
X77306800Y-103852790D01*
X77068704Y-104328980D02*
X77068704Y-103328980D01*
X77449657Y-103328980D01*
X77544895Y-103376600D01*
X77592514Y-103424219D01*
X77640133Y-103519457D01*
X77640133Y-103662314D01*
X77592514Y-103757552D01*
X77544895Y-103805171D01*
X77449657Y-103852790D01*
X77068704Y-103852790D01*
X78497276Y-103662314D02*
X78497276Y-104328980D01*
X78259180Y-103281361D02*
X78021085Y-103995647D01*
X78640133Y-103995647D01*
X112963913Y-101857560D02*
X112630580Y-101381370D01*
X112392484Y-101857560D02*
X112392484Y-100857560D01*
X112773437Y-100857560D01*
X112868675Y-100905180D01*
X112916294Y-100952799D01*
X112963913Y-101048037D01*
X112963913Y-101190894D01*
X112916294Y-101286132D01*
X112868675Y-101333751D01*
X112773437Y-101381370D01*
X112392484Y-101381370D01*
X113868675Y-100857560D02*
X113392484Y-100857560D01*
X113344865Y-101333751D01*
X113392484Y-101286132D01*
X113487722Y-101238513D01*
X113725818Y-101238513D01*
X113821056Y-101286132D01*
X113868675Y-101333751D01*
X113916294Y-101428989D01*
X113916294Y-101667084D01*
X113868675Y-101762322D01*
X113821056Y-101809941D01*
X113725818Y-101857560D01*
X113487722Y-101857560D01*
X113392484Y-101809941D01*
X113344865Y-101762322D01*
X97101613Y-105891080D02*
X96768280Y-105414890D01*
X96530184Y-105891080D02*
X96530184Y-104891080D01*
X96911137Y-104891080D01*
X97006375Y-104938700D01*
X97053994Y-104986319D01*
X97101613Y-105081557D01*
X97101613Y-105224414D01*
X97053994Y-105319652D01*
X97006375Y-105367271D01*
X96911137Y-105414890D01*
X96530184Y-105414890D01*
X97958756Y-104891080D02*
X97768280Y-104891080D01*
X97673041Y-104938700D01*
X97625422Y-104986319D01*
X97530184Y-105129176D01*
X97482565Y-105319652D01*
X97482565Y-105700604D01*
X97530184Y-105795842D01*
X97577803Y-105843461D01*
X97673041Y-105891080D01*
X97863518Y-105891080D01*
X97958756Y-105843461D01*
X98006375Y-105795842D01*
X98053994Y-105700604D01*
X98053994Y-105462509D01*
X98006375Y-105367271D01*
X97958756Y-105319652D01*
X97863518Y-105272033D01*
X97673041Y-105272033D01*
X97577803Y-105319652D01*
X97530184Y-105367271D01*
X97482565Y-105462509D01*
X133850333Y-102042980D02*
X133517000Y-101566790D01*
X133278904Y-102042980D02*
X133278904Y-101042980D01*
X133659857Y-101042980D01*
X133755095Y-101090600D01*
X133802714Y-101138219D01*
X133850333Y-101233457D01*
X133850333Y-101376314D01*
X133802714Y-101471552D01*
X133755095Y-101519171D01*
X133659857Y-101566790D01*
X133278904Y-101566790D01*
X134183666Y-101042980D02*
X134850333Y-101042980D01*
X134421761Y-102042980D01*
X133921413Y-104466140D02*
X133588080Y-103989950D01*
X133349984Y-104466140D02*
X133349984Y-103466140D01*
X133730937Y-103466140D01*
X133826175Y-103513760D01*
X133873794Y-103561379D01*
X133921413Y-103656617D01*
X133921413Y-103799474D01*
X133873794Y-103894712D01*
X133826175Y-103942331D01*
X133730937Y-103989950D01*
X133349984Y-103989950D01*
X134492841Y-103894712D02*
X134397603Y-103847093D01*
X134349984Y-103799474D01*
X134302365Y-103704236D01*
X134302365Y-103656617D01*
X134349984Y-103561379D01*
X134397603Y-103513760D01*
X134492841Y-103466140D01*
X134683318Y-103466140D01*
X134778556Y-103513760D01*
X134826175Y-103561379D01*
X134873794Y-103656617D01*
X134873794Y-103704236D01*
X134826175Y-103799474D01*
X134778556Y-103847093D01*
X134683318Y-103894712D01*
X134492841Y-103894712D01*
X134397603Y-103942331D01*
X134349984Y-103989950D01*
X134302365Y-104085188D01*
X134302365Y-104275664D01*
X134349984Y-104370902D01*
X134397603Y-104418521D01*
X134492841Y-104466140D01*
X134683318Y-104466140D01*
X134778556Y-104418521D01*
X134826175Y-104370902D01*
X134873794Y-104275664D01*
X134873794Y-104085188D01*
X134826175Y-103989950D01*
X134778556Y-103942331D01*
X134683318Y-103894712D01*
X116062713Y-92675460D02*
X115729380Y-92199270D01*
X115491284Y-92675460D02*
X115491284Y-91675460D01*
X115872237Y-91675460D01*
X115967475Y-91723080D01*
X116015094Y-91770699D01*
X116062713Y-91865937D01*
X116062713Y-92008794D01*
X116015094Y-92104032D01*
X115967475Y-92151651D01*
X115872237Y-92199270D01*
X115491284Y-92199270D01*
X116538903Y-92675460D02*
X116729380Y-92675460D01*
X116824618Y-92627841D01*
X116872237Y-92580222D01*
X116967475Y-92437365D01*
X117015094Y-92246889D01*
X117015094Y-91865937D01*
X116967475Y-91770699D01*
X116919856Y-91723080D01*
X116824618Y-91675460D01*
X116634141Y-91675460D01*
X116538903Y-91723080D01*
X116491284Y-91770699D01*
X116443665Y-91865937D01*
X116443665Y-92104032D01*
X116491284Y-92199270D01*
X116538903Y-92246889D01*
X116634141Y-92294508D01*
X116824618Y-92294508D01*
X116919856Y-92246889D01*
X116967475Y-92199270D01*
X117015094Y-92104032D01*
X133369062Y-97686880D02*
X133035729Y-97210690D01*
X132797634Y-97686880D02*
X132797634Y-96686880D01*
X133178586Y-96686880D01*
X133273824Y-96734500D01*
X133321443Y-96782119D01*
X133369062Y-96877357D01*
X133369062Y-97020214D01*
X133321443Y-97115452D01*
X133273824Y-97163071D01*
X133178586Y-97210690D01*
X132797634Y-97210690D01*
X134321443Y-97686880D02*
X133750015Y-97686880D01*
X134035729Y-97686880D02*
X134035729Y-96686880D01*
X133940491Y-96829738D01*
X133845253Y-96924976D01*
X133750015Y-96972595D01*
X134940491Y-96686880D02*
X135035729Y-96686880D01*
X135130967Y-96734500D01*
X135178586Y-96782119D01*
X135226205Y-96877357D01*
X135273824Y-97067833D01*
X135273824Y-97305928D01*
X135226205Y-97496404D01*
X135178586Y-97591642D01*
X135130967Y-97639261D01*
X135035729Y-97686880D01*
X134940491Y-97686880D01*
X134845253Y-97639261D01*
X134797634Y-97591642D01*
X134750015Y-97496404D01*
X134702396Y-97305928D01*
X134702396Y-97067833D01*
X134750015Y-96877357D01*
X134797634Y-96782119D01*
X134845253Y-96734500D01*
X134940491Y-96686880D01*
X115425244Y-81164180D02*
X115425244Y-80164180D01*
X115663340Y-80164180D01*
X115806197Y-80211800D01*
X115901435Y-80307038D01*
X115949054Y-80402276D01*
X115996673Y-80592752D01*
X115996673Y-80735609D01*
X115949054Y-80926085D01*
X115901435Y-81021323D01*
X115806197Y-81116561D01*
X115663340Y-81164180D01*
X115425244Y-81164180D01*
X116949054Y-81164180D02*
X116377625Y-81164180D01*
X116663340Y-81164180D02*
X116663340Y-80164180D01*
X116568101Y-80307038D01*
X116472863Y-80402276D01*
X116377625Y-80449895D01*
X115503984Y-114247680D02*
X115503984Y-113247680D01*
X115742080Y-113247680D01*
X115884937Y-113295300D01*
X115980175Y-113390538D01*
X116027794Y-113485776D01*
X116075413Y-113676252D01*
X116075413Y-113819109D01*
X116027794Y-114009585D01*
X115980175Y-114104823D01*
X115884937Y-114200061D01*
X115742080Y-114247680D01*
X115503984Y-114247680D01*
X116456365Y-113342919D02*
X116503984Y-113295300D01*
X116599222Y-113247680D01*
X116837318Y-113247680D01*
X116932556Y-113295300D01*
X116980175Y-113342919D01*
X117027794Y-113438157D01*
X117027794Y-113533395D01*
X116980175Y-113676252D01*
X116408746Y-114247680D01*
X117027794Y-114247680D01*
X112755941Y-86997279D02*
X112660703Y-86949660D01*
X112565465Y-86854421D01*
X112422608Y-86711564D01*
X112327370Y-86663945D01*
X112232132Y-86663945D01*
X112279751Y-86902040D02*
X112184513Y-86854421D01*
X112089275Y-86759183D01*
X112041656Y-86568707D01*
X112041656Y-86235374D01*
X112089275Y-86044898D01*
X112184513Y-85949660D01*
X112279751Y-85902040D01*
X112470227Y-85902040D01*
X112565465Y-85949660D01*
X112660703Y-86044898D01*
X112708322Y-86235374D01*
X112708322Y-86568707D01*
X112660703Y-86759183D01*
X112565465Y-86854421D01*
X112470227Y-86902040D01*
X112279751Y-86902040D01*
X113660703Y-86902040D02*
X113089275Y-86902040D01*
X113374989Y-86902040D02*
X113374989Y-85902040D01*
X113279751Y-86044898D01*
X113184513Y-86140136D01*
X113089275Y-86187755D01*
X112148881Y-109801399D02*
X112053643Y-109753780D01*
X111958405Y-109658541D01*
X111815548Y-109515684D01*
X111720310Y-109468065D01*
X111625072Y-109468065D01*
X111672691Y-109706160D02*
X111577453Y-109658541D01*
X111482215Y-109563303D01*
X111434596Y-109372827D01*
X111434596Y-109039494D01*
X111482215Y-108849018D01*
X111577453Y-108753780D01*
X111672691Y-108706160D01*
X111863167Y-108706160D01*
X111958405Y-108753780D01*
X112053643Y-108849018D01*
X112101262Y-109039494D01*
X112101262Y-109372827D01*
X112053643Y-109563303D01*
X111958405Y-109658541D01*
X111863167Y-109706160D01*
X111672691Y-109706160D01*
X112482215Y-108801399D02*
X112529834Y-108753780D01*
X112625072Y-108706160D01*
X112863167Y-108706160D01*
X112958405Y-108753780D01*
X113006024Y-108801399D01*
X113053643Y-108896637D01*
X113053643Y-108991875D01*
X113006024Y-109134732D01*
X112434596Y-109706160D01*
X113053643Y-109706160D01*
X67321133Y-85294742D02*
X67273514Y-85342361D01*
X67130657Y-85389980D01*
X67035419Y-85389980D01*
X66892561Y-85342361D01*
X66797323Y-85247123D01*
X66749704Y-85151885D01*
X66702085Y-84961409D01*
X66702085Y-84818552D01*
X66749704Y-84628076D01*
X66797323Y-84532838D01*
X66892561Y-84437600D01*
X67035419Y-84389980D01*
X67130657Y-84389980D01*
X67273514Y-84437600D01*
X67321133Y-84485219D01*
X68273514Y-85389980D02*
X67702085Y-85389980D01*
X67987800Y-85389980D02*
X67987800Y-84389980D01*
X67892561Y-84532838D01*
X67797323Y-84628076D01*
X67702085Y-84675695D01*
X106159253Y-77439282D02*
X106111634Y-77486901D01*
X105968777Y-77534520D01*
X105873539Y-77534520D01*
X105730681Y-77486901D01*
X105635443Y-77391663D01*
X105587824Y-77296425D01*
X105540205Y-77105949D01*
X105540205Y-76963092D01*
X105587824Y-76772616D01*
X105635443Y-76677378D01*
X105730681Y-76582140D01*
X105873539Y-76534520D01*
X105968777Y-76534520D01*
X106111634Y-76582140D01*
X106159253Y-76629759D01*
X107016396Y-76867854D02*
X107016396Y-77534520D01*
X106778300Y-76486901D02*
X106540205Y-77201187D01*
X107159253Y-77201187D01*
X80460886Y-76897740D02*
X80460886Y-77612026D01*
X80413267Y-77754883D01*
X80318029Y-77850121D01*
X80175172Y-77897740D01*
X80079934Y-77897740D01*
X80937077Y-77897740D02*
X80937077Y-76897740D01*
X81318029Y-76897740D01*
X81413267Y-76945360D01*
X81460886Y-76992979D01*
X81508505Y-77088217D01*
X81508505Y-77231074D01*
X81460886Y-77326312D01*
X81413267Y-77373931D01*
X81318029Y-77421550D01*
X80937077Y-77421550D01*
X82460886Y-77897740D02*
X81889458Y-77897740D01*
X82175172Y-77897740D02*
X82175172Y-76897740D01*
X82079934Y-77040598D01*
X81984696Y-77135836D01*
X81889458Y-77183455D01*
X77776082Y-84207100D02*
X77442749Y-83730910D01*
X77204654Y-84207100D02*
X77204654Y-83207100D01*
X77585606Y-83207100D01*
X77680844Y-83254720D01*
X77728463Y-83302339D01*
X77776082Y-83397577D01*
X77776082Y-83540434D01*
X77728463Y-83635672D01*
X77680844Y-83683291D01*
X77585606Y-83730910D01*
X77204654Y-83730910D01*
X78728463Y-84207100D02*
X78157035Y-84207100D01*
X78442749Y-84207100D02*
X78442749Y-83207100D01*
X78347511Y-83349958D01*
X78252273Y-83445196D01*
X78157035Y-83492815D01*
X79680844Y-84207100D02*
X79109416Y-84207100D01*
X79395130Y-84207100D02*
X79395130Y-83207100D01*
X79299892Y-83349958D01*
X79204654Y-83445196D01*
X79109416Y-83492815D01*
X74090542Y-104328980D02*
X73757209Y-103852790D01*
X73519114Y-104328980D02*
X73519114Y-103328980D01*
X73900066Y-103328980D01*
X73995304Y-103376600D01*
X74042923Y-103424219D01*
X74090542Y-103519457D01*
X74090542Y-103662314D01*
X74042923Y-103757552D01*
X73995304Y-103805171D01*
X73900066Y-103852790D01*
X73519114Y-103852790D01*
X75042923Y-104328980D02*
X74471495Y-104328980D01*
X74757209Y-104328980D02*
X74757209Y-103328980D01*
X74661971Y-103471838D01*
X74566733Y-103567076D01*
X74471495Y-103614695D01*
X75423876Y-103424219D02*
X75471495Y-103376600D01*
X75566733Y-103328980D01*
X75804828Y-103328980D01*
X75900066Y-103376600D01*
X75947685Y-103424219D01*
X75995304Y-103519457D01*
X75995304Y-103614695D01*
X75947685Y-103757552D01*
X75376257Y-104328980D01*
X75995304Y-104328980D01*
X108086235Y-100463860D02*
X108086235Y-101273384D01*
X108133854Y-101368622D01*
X108181473Y-101416241D01*
X108276711Y-101463860D01*
X108467187Y-101463860D01*
X108562425Y-101416241D01*
X108610044Y-101368622D01*
X108657663Y-101273384D01*
X108657663Y-100463860D01*
X109038616Y-100463860D02*
X109657663Y-100463860D01*
X109324330Y-100844813D01*
X109467187Y-100844813D01*
X109562425Y-100892432D01*
X109610044Y-100940051D01*
X109657663Y-101035289D01*
X109657663Y-101273384D01*
X109610044Y-101368622D01*
X109562425Y-101416241D01*
X109467187Y-101463860D01*
X109181473Y-101463860D01*
X109086235Y-101416241D01*
X109038616Y-101368622D01*
X109186180Y-95153485D02*
X108186180Y-95153485D01*
X109186180Y-94582057D01*
X108186180Y-94582057D01*
X109186180Y-93963009D02*
X109138561Y-94058247D01*
X109090942Y-94105866D01*
X108995704Y-94153485D01*
X108709990Y-94153485D01*
X108614752Y-94105866D01*
X108567133Y-94058247D01*
X108519514Y-93963009D01*
X108519514Y-93820152D01*
X108567133Y-93724914D01*
X108614752Y-93677295D01*
X108709990Y-93629676D01*
X108995704Y-93629676D01*
X109090942Y-93677295D01*
X109138561Y-93724914D01*
X109186180Y-93820152D01*
X109186180Y-93963009D01*
X109090942Y-91867771D02*
X109138561Y-91915390D01*
X109186180Y-92058247D01*
X109186180Y-92153485D01*
X109138561Y-92296342D01*
X109043323Y-92391580D01*
X108948085Y-92439200D01*
X108757609Y-92486819D01*
X108614752Y-92486819D01*
X108424276Y-92439200D01*
X108329038Y-92391580D01*
X108233800Y-92296342D01*
X108186180Y-92153485D01*
X108186180Y-92058247D01*
X108233800Y-91915390D01*
X108281419Y-91867771D01*
X109186180Y-91296342D02*
X109138561Y-91391580D01*
X109090942Y-91439200D01*
X108995704Y-91486819D01*
X108709990Y-91486819D01*
X108614752Y-91439200D01*
X108567133Y-91391580D01*
X108519514Y-91296342D01*
X108519514Y-91153485D01*
X108567133Y-91058247D01*
X108614752Y-91010628D01*
X108709990Y-90963009D01*
X108995704Y-90963009D01*
X109090942Y-91010628D01*
X109138561Y-91058247D01*
X109186180Y-91153485D01*
X109186180Y-91296342D01*
X108519514Y-90534438D02*
X109519514Y-90534438D01*
X108567133Y-90534438D02*
X108519514Y-90439200D01*
X108519514Y-90248723D01*
X108567133Y-90153485D01*
X108614752Y-90105866D01*
X108709990Y-90058247D01*
X108995704Y-90058247D01*
X109090942Y-90105866D01*
X109138561Y-90153485D01*
X109186180Y-90248723D01*
X109186180Y-90439200D01*
X109138561Y-90534438D01*
X108519514Y-89629676D02*
X109519514Y-89629676D01*
X108567133Y-89629676D02*
X108519514Y-89534438D01*
X108519514Y-89343961D01*
X108567133Y-89248723D01*
X108614752Y-89201104D01*
X108709990Y-89153485D01*
X108995704Y-89153485D01*
X109090942Y-89201104D01*
X109138561Y-89248723D01*
X109186180Y-89343961D01*
X109186180Y-89534438D01*
X109138561Y-89629676D01*
X109138561Y-88343961D02*
X109186180Y-88439200D01*
X109186180Y-88629676D01*
X109138561Y-88724914D01*
X109043323Y-88772533D01*
X108662371Y-88772533D01*
X108567133Y-88724914D01*
X108519514Y-88629676D01*
X108519514Y-88439200D01*
X108567133Y-88343961D01*
X108662371Y-88296342D01*
X108757609Y-88296342D01*
X108852847Y-88772533D01*
X109186180Y-87867771D02*
X108519514Y-87867771D01*
X108709990Y-87867771D02*
X108614752Y-87820152D01*
X108567133Y-87772533D01*
X108519514Y-87677295D01*
X108519514Y-87582057D01*
X77127453Y-94047342D02*
X77079834Y-94094961D01*
X76936977Y-94142580D01*
X76841739Y-94142580D01*
X76698881Y-94094961D01*
X76603643Y-93999723D01*
X76556024Y-93904485D01*
X76508405Y-93714009D01*
X76508405Y-93571152D01*
X76556024Y-93380676D01*
X76603643Y-93285438D01*
X76698881Y-93190200D01*
X76841739Y-93142580D01*
X76936977Y-93142580D01*
X77079834Y-93190200D01*
X77127453Y-93237819D01*
X77508405Y-93237819D02*
X77556024Y-93190200D01*
X77651262Y-93142580D01*
X77889358Y-93142580D01*
X77984596Y-93190200D01*
X78032215Y-93237819D01*
X78079834Y-93333057D01*
X78079834Y-93428295D01*
X78032215Y-93571152D01*
X77460786Y-94142580D01*
X78079834Y-94142580D01*
X127382104Y-94166840D02*
X127382104Y-93166840D01*
X127953533Y-94166840D02*
X127524961Y-93595412D01*
X127953533Y-93166840D02*
X127382104Y-93738269D01*
X128905914Y-94166840D02*
X128334485Y-94166840D01*
X128620200Y-94166840D02*
X128620200Y-93166840D01*
X128524961Y-93309698D01*
X128429723Y-93404936D01*
X128334485Y-93452555D01*
X127382104Y-128368180D02*
X127382104Y-127368180D01*
X127953533Y-128368180D02*
X127524961Y-127796752D01*
X127953533Y-127368180D02*
X127382104Y-127939609D01*
X128334485Y-127463419D02*
X128382104Y-127415800D01*
X128477342Y-127368180D01*
X128715438Y-127368180D01*
X128810676Y-127415800D01*
X128858295Y-127463419D01*
X128905914Y-127558657D01*
X128905914Y-127653895D01*
X128858295Y-127796752D01*
X128286866Y-128368180D01*
X128905914Y-128368180D01*
X59066775Y-91375740D02*
X59066775Y-92185264D01*
X59114394Y-92280502D01*
X59162013Y-92328121D01*
X59257251Y-92375740D01*
X59447727Y-92375740D01*
X59542965Y-92328121D01*
X59590584Y-92280502D01*
X59638203Y-92185264D01*
X59638203Y-91375740D01*
X60066775Y-91470979D02*
X60114394Y-91423360D01*
X60209632Y-91375740D01*
X60447727Y-91375740D01*
X60542965Y-91423360D01*
X60590584Y-91470979D01*
X60638203Y-91566217D01*
X60638203Y-91661455D01*
X60590584Y-91804312D01*
X60019156Y-92375740D01*
X60638203Y-92375740D01*
X122170535Y-107900980D02*
X122170535Y-108710504D01*
X122218154Y-108805742D01*
X122265773Y-108853361D01*
X122361011Y-108900980D01*
X122551487Y-108900980D01*
X122646725Y-108853361D01*
X122694344Y-108805742D01*
X122741963Y-108710504D01*
X122741963Y-107900980D01*
X123646725Y-108234314D02*
X123646725Y-108900980D01*
X123408630Y-107853361D02*
X123170535Y-108567647D01*
X123789582Y-108567647D01*
X89770295Y-127994920D02*
X89770295Y-128804444D01*
X89817914Y-128899682D01*
X89865533Y-128947301D01*
X89960771Y-128994920D01*
X90151247Y-128994920D01*
X90246485Y-128947301D01*
X90294104Y-128899682D01*
X90341723Y-128804444D01*
X90341723Y-127994920D01*
X91341723Y-128994920D02*
X90770295Y-128994920D01*
X91056009Y-128994920D02*
X91056009Y-127994920D01*
X90960771Y-128137778D01*
X90865533Y-128233016D01*
X90770295Y-128280635D01*
X110455366Y-122233380D02*
X110455366Y-122947666D01*
X110407747Y-123090523D01*
X110312509Y-123185761D01*
X110169652Y-123233380D01*
X110074414Y-123233380D01*
X111407747Y-122233380D02*
X110931557Y-122233380D01*
X110883938Y-122709571D01*
X110931557Y-122661952D01*
X111026795Y-122614333D01*
X111264890Y-122614333D01*
X111360128Y-122661952D01*
X111407747Y-122709571D01*
X111455366Y-122804809D01*
X111455366Y-123042904D01*
X111407747Y-123138142D01*
X111360128Y-123185761D01*
X111264890Y-123233380D01*
X111026795Y-123233380D01*
X110931557Y-123185761D01*
X110883938Y-123138142D01*
X69932966Y-84614141D02*
X70075823Y-84661760D01*
X70313919Y-84661760D01*
X70409157Y-84614141D01*
X70456776Y-84566522D01*
X70504395Y-84471284D01*
X70504395Y-84376046D01*
X70456776Y-84280808D01*
X70409157Y-84233189D01*
X70313919Y-84185570D01*
X70123442Y-84137951D01*
X70028204Y-84090332D01*
X69980585Y-84042713D01*
X69932966Y-83947475D01*
X69932966Y-83852237D01*
X69980585Y-83756999D01*
X70028204Y-83709380D01*
X70123442Y-83661760D01*
X70361538Y-83661760D01*
X70504395Y-83709380D01*
X70837728Y-83661760D02*
X71075823Y-84661760D01*
X71266300Y-83947475D01*
X71456776Y-84661760D01*
X71694871Y-83661760D01*
X72599633Y-84661760D02*
X72028204Y-84661760D01*
X72313919Y-84661760D02*
X72313919Y-83661760D01*
X72218680Y-83804618D01*
X72123442Y-83899856D01*
X72028204Y-83947475D01*
X70151406Y-100280861D02*
X70294263Y-100328480D01*
X70532359Y-100328480D01*
X70627597Y-100280861D01*
X70675216Y-100233242D01*
X70722835Y-100138004D01*
X70722835Y-100042766D01*
X70675216Y-99947528D01*
X70627597Y-99899909D01*
X70532359Y-99852290D01*
X70341882Y-99804671D01*
X70246644Y-99757052D01*
X70199025Y-99709433D01*
X70151406Y-99614195D01*
X70151406Y-99518957D01*
X70199025Y-99423719D01*
X70246644Y-99376100D01*
X70341882Y-99328480D01*
X70579978Y-99328480D01*
X70722835Y-99376100D01*
X71056168Y-99328480D02*
X71294263Y-100328480D01*
X71484740Y-99614195D01*
X71675216Y-100328480D01*
X71913311Y-99328480D01*
X72246644Y-99423719D02*
X72294263Y-99376100D01*
X72389501Y-99328480D01*
X72627597Y-99328480D01*
X72722835Y-99376100D01*
X72770454Y-99423719D01*
X72818073Y-99518957D01*
X72818073Y-99614195D01*
X72770454Y-99757052D01*
X72199025Y-100328480D01*
X72818073Y-100328480D01*
M02*
