G04 #@! TF.GenerationSoftware,KiCad,Pcbnew,(2017-04-22 revision b38541345)-makepkg*
G04 #@! TF.CreationDate,2017-05-30T09:40:34-07:00*
G04 #@! TF.ProjectId,WifiRelay,5769666952656C61792E6B696361645F,rev?*
G04 #@! TF.FileFunction,Soldermask,Bot*
G04 #@! TF.FilePolarity,Negative*
%FSLAX46Y46*%
G04 Gerber Fmt 4.6, Leading zero omitted, Abs format (unit mm)*
G04 Created by KiCad (PCBNEW (2017-04-22 revision b38541345)-makepkg) date 05/30/17 09:40:34*
%MOMM*%
%LPD*%
G01*
G04 APERTURE LIST*
%ADD10C,0.100000*%
%ADD11R,2.900000X2.900000*%
%ADD12C,2.900000*%
%ADD13R,2.100000X2.100000*%
%ADD14O,2.100000X2.100000*%
%ADD15R,1.500000X2.900000*%
%ADD16O,1.500000X2.900000*%
%ADD17C,3.400000*%
G04 APERTURE END LIST*
D10*
D11*
X146045600Y-116348000D03*
D12*
X146045600Y-111348000D03*
D11*
X65665600Y-111268000D03*
D12*
X65665600Y-116268000D03*
D13*
X83159600Y-84963000D03*
D14*
X83159600Y-87503000D03*
X83159600Y-90043000D03*
X83159600Y-92583000D03*
X83159600Y-95123000D03*
X83159600Y-97663000D03*
D11*
X146045600Y-90948000D03*
D12*
X146045600Y-85948000D03*
D13*
X79904840Y-80186020D03*
D14*
X82444840Y-80186020D03*
D15*
X103333800Y-83847200D03*
D16*
X101333800Y-83847200D03*
X99333800Y-83847200D03*
X97333800Y-83847200D03*
X95333800Y-83847200D03*
X93333800Y-83847200D03*
X91333800Y-83847200D03*
X89333800Y-83847200D03*
X89333800Y-99247200D03*
X91333800Y-99147200D03*
X93333800Y-99247200D03*
X95333800Y-99247200D03*
X97333800Y-99247200D03*
X99333800Y-99247200D03*
X101333800Y-99247200D03*
X103333800Y-99247200D03*
D17*
X120020200Y-84514460D03*
D12*
X121970200Y-78564460D03*
D17*
X134220200Y-78514460D03*
X134170200Y-90564460D03*
D12*
X121970200Y-90564460D03*
X121970200Y-124765800D03*
D17*
X134170200Y-124765800D03*
X134220200Y-112715800D03*
D12*
X121970200Y-112765800D03*
D17*
X120020200Y-118715800D03*
D12*
X74925420Y-114731920D03*
X74925420Y-119731920D03*
X104325420Y-109531920D03*
X104325420Y-124931920D03*
D13*
X110788700Y-125111000D03*
M02*
